<?xml version="1.0" encoding="utf-8"?>
<!-- Generator: Adobe Illustrator 19.2.1, SVG Export Plug-In . SVG Version: 6.00 Build 0)  -->
<svg version="1.1" id="Layer_1" xmlns="http://www.w3.org/2000/svg" xmlns:xlink="http://www.w3.org/1999/xlink" x="0px" y="0px"
	 viewBox="0 0 509.4 150" style="enable-background:new 0 0 509.4 150;" xml:space="preserve">
<style type="text/css">
	.st0{fill:#FF7819;}
	.st1{fill:#FFFFFF;}
	.st2{fill:#3FA9F5;}
</style>
<g>
	<path class="st0" d="M75,150h75V75c0-41.4-33.6-75-75-75h0C33.6,0,0,33.6,0,75v0C0,116.4,33.6,150,75,150z"/>
	<g>
		<path class="st1" d="M130.3,69.1c0,13.3-11.2,20.7-25,20.7s-25-7.4-25-20.7s11.2-27.5,25-27.5S130.3,55.8,130.3,69.1z"/>
		<ellipse class="st1" cx="43.1" cy="70" rx="23.4" ry="19.8"/>
		<circle class="st2" cx="98.5" cy="74.8" r="10.9"/>
		<circle cx="98.5" cy="74.8" r="5.3"/>
		<circle class="st2" cx="53.3" cy="76" r="10.9"/>
		<circle cx="53.3" cy="76" r="5.3"/>
		<path d="M131.5,69.2c0,0,0,0.6-0.1,1.7c0,0.5-0.1,1.3-0.3,2.2c-0.1,0.9-0.4,1.9-0.7,2.9c-0.7,2.1-2,4.6-4.1,6.9
			c-2.1,2.3-5.1,4.3-8.6,5.6c-0.9,0.3-1.8,0.6-2.7,0.9c-1,0.2-1.9,0.5-2.9,0.6c-0.5,0.1-1,0.1-1.5,0.2c-0.5,0-1,0-1.5,0
			c-1,0-2.1-0.1-3.1,0c-1.1,0.1-2.1,0.1-3.2,0.2c-1.1,0-2.2,0.1-3.4,0.1c-0.6,0-1.2,0-1.7,0c-0.6,0-1.2-0.1-1.8-0.1
			c-0.6,0-1.2-0.1-1.8-0.2c-0.6-0.1-1.2-0.2-1.8-0.3c-2.4-0.6-4.9-1.6-7-3.2c-2.2-1.6-4-3.8-5.4-6.2l-0.5-0.9l-0.4-1
			c-0.3-0.7-0.6-1.3-0.7-2c-0.2-0.7-0.4-1.4-0.6-2l-0.3-2.1C77,71.7,77,71,77,70.3l0-1l0-0.1c0-0.1,0,0.1,0-0.2l0-0.1l0-0.2l0-0.5
			c0-0.6,0.1-1.2,0.1-1.8c0.1-0.7,0.2-1.4,0.4-2.1c0.6-2.7,1.4-5.2,2.6-7.6c0.5-1.2,1.3-2.3,1.9-3.4l1.1-1.6l0.6-0.8l0.6-0.7
			c1.6-2,3.6-3.7,5.6-5.3c1.1-0.7,2.1-1.5,3.2-2c0.6-0.3,1.1-0.6,1.7-0.9c0.6-0.2,1.2-0.5,1.7-0.7c2.3-0.8,4.7-1.5,7.1-1.6l0.9,0
			l0.4,0l0.1,0l0.1,0c0,0,0.3,0,0.2,0l0.2,0c0.5,0.1,1.1,0.1,1.6,0.2c0.3,0,0.5,0,0.8,0.1l0.9,0.2c0.6,0.1,1.2,0.3,1.7,0.4
			c4.4,1.3,7.9,3.8,10.5,6.5c2.7,2.7,4.6,5.6,5.9,8.3c0.7,1.3,1.2,2.7,1.7,3.9c0.4,1.2,0.8,2.3,1.1,3.4c0.1,0.5,0.3,1,0.5,1.5
			c0.1,0.5,0.3,0.9,0.4,1.3c0.1,0.4,0.2,0.8,0.3,1.1c0.1,0.4,0.1,0.7,0.2,1c0.1,0.6,0.1,1,0.2,1.3C131.5,69,131.5,69.1,131.5,69.2
			L131.5,69.2z M129,69.1c0,0,0-0.1,0-0.4c0-0.3,0-0.7,0-1.2c0.1-0.5,0.1-1.2,0.1-2c0-0.4,0-0.8,0-1.3c-0.1-0.5-0.1-0.9-0.2-1.4
			c-0.1-0.5-0.2-1-0.4-1.6c-0.2-0.5-0.4-1.1-0.6-1.7c-0.6-1.1-1.1-2.4-1.9-3.6c-1.6-2.4-3.6-4.9-6.4-7.1c-2.7-2.1-6.1-3.9-9.8-4.6
			c-0.4-0.1-0.9-0.1-1.3-0.2l-0.7-0.1c-0.2,0-0.5,0-0.8,0c-0.5,0-1.1,0-1.6,0l-0.2,0c-0.1,0,0.1,0,0.1,0l0,0l-0.1,0l-0.4,0l-0.7,0.1
			c-1,0-1.9,0.2-2.9,0.4c-0.5,0-1,0.3-1.4,0.4c-0.5,0.2-1,0.3-1.4,0.5c-0.5,0.2-0.9,0.4-1.4,0.7c-0.5,0.2-0.9,0.5-1.3,0.8
			c-0.9,0.5-1.7,1.2-2.6,1.8c-1.6,1.4-3.1,2.9-4.3,4.8L88.1,54l-0.4,0.7l-0.8,1.4c-0.5,1-1,1.9-1.4,3c-0.8,2-1.4,4.2-1.7,6.2
			c0,0.5-0.1,1-0.2,1.5c0,0.6,0,1.2-0.1,1.8l0,0.5l0,0.2l0,0.1c0-0.3,0-0.1,0-0.1l0,0l0.1,0.8l0.1,0.8c0,0.3,0,0.5,0.1,0.8
			c0.2,2,0.9,3.9,1.8,5.6c0.4,0.9,1,1.6,1.6,2.4c0.3,0.4,0.7,0.7,1,1.1c0.3,0.4,0.7,0.7,1.1,1c1.4,1.3,3,2.6,4.8,3.8
			c1.8,1.1,3.7,2.1,5.7,2.8c0.5,0.2,1,0.3,1.5,0.4c0.5,0.1,1,0.3,1.5,0.4c0.5,0.1,1.1,0.2,1.6,0.2c0.5,0.1,1,0.1,1.5,0.1
			c1,0,2-0.1,3-0.4c0.5-0.1,1-0.2,1.4-0.4c0.5-0.1,0.9-0.3,1.4-0.4c0.9-0.2,1.8-0.5,2.7-0.7c0.9-0.3,1.7-0.6,2.5-0.9
			c3.2-1.4,5.8-3.3,7.6-5.4c1.9-2,2.9-4.2,3.5-6.1c0.3-0.9,0.6-1.8,0.6-2.5c0.1-0.7,0.3-1.3,0.3-1.9C129,69.7,129,69.1,129,69.1
			L129,69.1z"/>
		<path d="M69.6,70.2c0,0,0,0.5,0,1.5c0,0.4-0.2,1.3-0.4,2.2c-0.2,0.9-0.6,1.8-1,2.8c-0.9,2-2.3,4.2-4.4,6.2c-2.1,2-4.7,3.7-7.8,5
			c-3.1,1.3-6.6,2.1-10.3,2.4c-0.9,0-1.9,0.1-2.8,0.1c-0.9-0.1-1.9,0-2.9-0.2c-0.5-0.1-1-0.1-1.5-0.2c-0.5-0.1-1-0.2-1.5-0.3
			c-1-0.2-2-0.4-2.9-0.7c-1.9-0.6-3.9-1.3-5.8-2.4c-1.9-1.1-3.7-2.4-5.2-4c-0.4-0.4-0.8-0.8-1.1-1.3c-0.3-0.5-0.7-0.9-1-1.4
			l-0.9-1.5c-0.3-0.5-0.5-1-0.7-1.6c-0.3-0.5-0.4-1.1-0.6-1.6c-0.1-0.3-0.2-0.6-0.3-0.8l-0.2-0.9c-0.1-0.6-0.3-1.1-0.3-1.7L18,70.9
			l0-0.4l0-0.2l0-0.1l0-0.1c0-0.1,0,0.1,0-0.2c0.1-1.1,0.1-2.1,0.4-3.3l0.2-0.9c0.1-0.3,0.2-0.6,0.3-0.8c0.2-0.5,0.3-1.1,0.6-1.6
			c0.9-2.2,2.2-4.1,3.7-5.7c1.5-1.7,3.3-3,5.1-4.2c1.8-1.2,3.8-2,5.8-2.7c1-0.3,2-0.6,3-0.8c0.5-0.1,1-0.2,1.5-0.3
			c0.5-0.1,1-0.1,1.5-0.2c0.5-0.1,1-0.1,1.5-0.1c0.5,0,1-0.1,1.5-0.1c0.1,0,0.2,0,0.4,0l0.3,0l0.7,0c0.5,0,0.9,0,1.4,0
			c1,0.1,2,0.1,2.9,0.3c0.9,0.2,1.8,0.3,2.7,0.5c0.9,0.2,1.8,0.4,2.6,0.8c0.4,0.1,0.8,0.3,1.2,0.4c0.4,0.2,0.8,0.4,1.2,0.5
			C59.4,53,62,54.9,64,57c2,2.1,3.3,4.4,4.2,6.4c0.8,2,1.2,3.7,1.3,4.9c0.1,1.2,0.2,1.8,0.2,1.8L69.6,70.2z M63.4,70
			c0,0,0-0.4,0-1.3c0-0.8-0.1-2-0.5-3.5c-0.4-1.5-1.2-3.3-2.6-5.2c-1.3-1.9-3.3-3.7-5.8-5.3c-0.3-0.2-0.6-0.4-1-0.6
			c-0.3-0.2-0.7-0.3-1-0.5c-0.7-0.4-1.4-0.6-2.2-0.9c-0.7-0.3-1.6-0.5-2.4-0.7c-0.8-0.2-1.6-0.3-2.5-0.5c-0.5,0-0.9-0.1-1.4-0.1
			l-0.7,0l-0.3,0l-0.3,0c-0.9,0-1.8,0-2.7,0.1c-0.5,0.1-0.9,0.1-1.4,0.2c-0.5,0.1-0.9,0.2-1.4,0.3c-0.9,0.1-1.8,0.5-2.7,0.8
			c-3.6,1.3-6.9,3.5-9.3,6.6c-1.2,1.5-2.2,3.2-2.8,5c-0.2,0.4-0.3,0.9-0.4,1.4c-0.1,0.2-0.1,0.5-0.2,0.7l-0.1,0.7l-0.1,0.7
			c0,0.1,0,0.2-0.1,0.3l0,0.4l-0.1,1.6c0-0.2,0,0,0-0.1l0,0l0,0.1l0,0.2l0,0.4l0,0.7c0,0.5,0.1,0.9,0.2,1.4l0.1,0.7
			c0.1,0.2,0.1,0.5,0.2,0.7c0.2,0.5,0.2,0.9,0.4,1.4c0.6,1.8,1.6,3.5,2.8,5.1c2.3,3.1,5.6,5.6,9.2,7c0.9,0.3,1.8,0.7,2.8,0.9
			c0.5,0.1,0.9,0.2,1.4,0.3c0.5,0.1,0.9,0.1,1.4,0.2c0.5,0.1,0.9,0.1,1.4,0.1c0.5,0,0.9,0,1.4,0.1c0.9,0,1.8-0.1,2.7-0.1
			c3.6-0.4,6.8-1.7,9.3-3.3c2.6-1.7,4.5-3.7,5.7-5.7c1.3-2,1.9-3.8,2.3-5.4c0.1-0.8,0.3-1.5,0.3-2c0-0.6,0.1-0.9,0.1-1.5
			c0.1-1,0.1-1.5,0.1-1.5L63.4,70z"/>
	</g>
	<g>
		<path d="M229.2,72.1h26.9c5,0,9.6,0.7,13.8,2c4.2,1.3,7.9,3.3,11,5.8c3.1,2.6,5.5,5.7,7.3,9.5c1.8,3.8,2.6,8.1,2.6,13
			c0,3.9-0.5,7.2-1.6,9.9c-1.1,2.7-2.3,5-3.6,6.8c-1.6,2-3.3,3.7-5.3,5.1L295,150h-29.2l-11.7-19.7V150h-24.9V72.1z M254.1,110.4
			h1.3c3,0,5.5-0.7,7.5-2c2.1-1.3,3.1-3.5,3.1-6.7c0-3.1-1-5.3-3.1-6.7c-2.1-1.3-4.6-2-7.5-2h-1.3V110.4z"/>
		<path d="M324.5,72.1h18.7l29.5,77.9h-24.5l-2.6-7h-23.6l-2.6,7H295L324.5,72.1z M339.1,125.8l-5.3-13.7l-5.3,13.7H339.1z"/>
		<path d="M399.9,92.5h-21.5l7.9-20.4h49.9l-27.1,57.5h25.6l-7.8,20.4h-54.1L399.9,92.5z"/>
		<path d="M460.4,116.5l-24.2-44.4h27.7l9,16.5l8.9-16.5h27.7l-24.2,44.4V150h-24.9V116.5z"/>
		<polygon points="157.4,72.1 182.6,72.1 182.6,90.1 197.4,72.1 227.8,72.1 200.4,107.7 229.2,150 199.2,150 182.6,125.9 182.6,150 
			157.4,150"/>
	</g>
</g>
</svg>
