<?xml version="1.0" encoding="utf-8"?>
<!-- Generator: Adobe Illustrator 19.2.1, SVG Export Plug-In . SVG Version: 6.00 Build 0)  -->
<svg version="1.1" id="Layer_1" xmlns="http://www.w3.org/2000/svg" xmlns:xlink="http://www.w3.org/1999/xlink" x="0px" y="0px"
	 viewBox="0 0 400 64.8" style="enable-background:new 0 0 400 64.8;" xml:space="preserve">
<style type="text/css">
	.st0{opacity:0.1;}
	.st1{fill:#5D5A26;}
</style>
<g class="st0">
	<g>
		<g>
			<path class="st1" d="M92.7,45.3c-16,2.3-32.8,13-55.4,16.4C23.1,63.9,13.1,62.4,5.4,57c0.5,0.1,2,0.1,2.9,0
				c2.1-0.3-0.9-5.4-2.7-5.2c-3.8,0.5-8.1,3.7-3.7,6.5c8.2,5.3,21.5,6.3,35.3,4.2C53.6,60.1,71.9,53.3,83,51
				c11.2-2.3,20.1-2.5,29.9,1.5C110.5,49.6,105.1,43.5,92.7,45.3z"/>
			<path class="st1" d="M146.3,48.2c-6.3-0.5-11.9,0.2-14.4,1.6c-2.1,1.2-3,2.9-2.7,5.2c1.4,8.4-12.9,3.6-20.2,1.7
				c-15.4-4.1-26.9,1.2-36.2,5.9c10.3-3.2,19.9-6.6,33.1-4.4c6.8,1.1,13.3,3.8,20,4.6c9.4,1.1,9.5-0.8,8.8-2.8
				c-4.1-10.7,6.6-8.4,14.2-7.2c5.6,5.6,14,11.8,20.1,11.8c2.5,0,3.6-1.6,3.9-3.4c0.9-6.3-10.2-10.6-21-12.4
				c-3.6-4-1.3-9.6,11.9-9.6c9.5,0,27.4,4,41,16.9c-8.6-10.5-26.4-19-41.2-19.6C148.3,36.1,144.2,43,146.3,48.2z M168.8,60.7
				c-0.7,3.3-11.1-3.9-13.4-6.9C162.6,55,169.5,57.7,168.8,60.7z"/>
		</g>
		<g>
			<path class="st1" d="M307.3,45.3c16,2.3,32.8,13,55.4,16.4c14.2,2.1,24.2,0.6,31.9-4.7c-0.5,0.1-2,0.1-2.9,0
				c-2.1-0.3,0.9-5.4,2.7-5.2c3.8,0.5,8.1,3.7,3.7,6.5c-8.2,5.3-21.5,6.3-35.3,4.2c-16.4-2.5-34.7-9.3-45.8-11.6
				c-11.2-2.3-20.1-2.5-29.9,1.5C289.5,49.6,294.9,43.5,307.3,45.3z"/>
			<path class="st1" d="M236.6,36.7c-14.9,0.6-32.6,9.1-41.2,19.6c13.6-12.9,31.5-16.9,41-16.9c13.1,0,15.5,5.6,11.8,9.6
				c-10.8,1.8-22,6.1-21,12.4c0.3,1.7,1.4,3.4,3.9,3.4c6.1,0,14.5-6.2,20.1-11.8c7.6-1.2,18.3-3.5,14.2,7.2c-0.7,2-0.6,3.8,8.8,2.8
				c6.7-0.8,13.2-3.5,20-4.6c13.2-2.2,22.9,1.2,33.1,4.4c-9.3-4.7-20.8-10-36.2-5.9c-7.3,1.9-21.6,6.7-20.2-1.7
				c0.4-2.3-0.5-4-2.7-5.2c-2.6-1.5-8.1-2.1-14.4-1.6C255.8,43,251.8,36.1,236.6,36.7z M244.5,53.8c-2.2,3-12.6,10.1-13.4,6.9
				C230.5,57.7,237.4,55,244.5,53.8z"/>
		</g>
	</g>
	<path class="st1" d="M200,22.8c0.6-4.9,1.5-7.6,3.1-10.7c3.2-5.9-2-7.3-3.1-12.2c-1.1,4.8-6.4,6.3-3.1,12.2
		C198.5,15.2,199.4,18,200,22.8z"/>
	<g>
		<path class="st1" d="M240.2,24.2c-5.4-4.4-12.8-0.7-19.3,5.6c7.1-11.5-4.3-20.9-12.2-16.2c-8.1,4.9-3.3,15.5,2.7,13.3
			c2-0.7,2.4-3.1,1-4.3c-1.5-1.3-3.4-0.5-3.8,1.4c-4.3-4.3,1.7-10.4,7.4-7.1c4.1,2.4,5.3,8.8,2.2,12.6c-3.5,4.5-12,4.3-15.8-1.2
			c4,8.2,12.2,7.3,17.4,4.1c6.3-3.8,12.8-8.4,19.3-2.4c2.9,2.7,4.7,5.2,9,5.4C243.4,33.5,243.9,27.3,240.2,24.2z"/>
		<path class="st1" d="M159.8,24.2c5.4-4.4,12.8-0.7,19.3,5.6c-7.1-11.5,4.3-20.9,12.2-16.2c8.1,4.9,3.3,15.5-2.7,13.3
			c-2-0.7-2.4-3.1-1-4.3c1.5-1.3,3.4-0.5,3.8,1.4c4.3-4.3-1.7-10.4-7.4-7.1c-4.1,2.4-5.3,8.8-2.2,12.6c3.5,4.5,12,4.3,15.8-1.2
			c-4,8.2-12.2,7.3-17.4,4.1c-6.3-3.8-12.8-8.4-19.3-2.4c-2.9,2.7-4.7,5.2-9,5.4C156.6,33.5,156.1,27.3,159.8,24.2z"/>
	</g>
	<path class="st1" d="M200,33.8L200,33.8c-0.8,4-4.5,5.2-4.3,7.6c0.2,2.3,3.2,2.4,4.3,7.6v0v0c1.1-5.2,4.2-5.3,4.3-7.6
		C204.5,39,200.8,37.8,200,33.8L200,33.8z"/>
	<path class="st1" d="M200,55.6c-1.3,1.2-2.9,2.3-2.7,3.6c0.1,1.2,1.9,1.6,2.7,3.5c0.8-1.9,2.6-2.3,2.7-3.5
		C202.9,57.9,201.3,56.8,200,55.6z"/>
</g>
</svg>
