<?xml version="1.0" encoding="utf-8"?>
<!-- Generator: Adobe Illustrator 19.2.1, SVG Export Plug-In . SVG Version: 6.00 Build 0)  -->
<svg version="1.1" id="Layer_1" xmlns="http://www.w3.org/2000/svg" xmlns:xlink="http://www.w3.org/1999/xlink" x="0px" y="0px"
	 viewBox="0 0 490.5 490.5" style="enable-background:new 0 0 490.5 490.5;" xml:space="preserve">
<style type="text/css">
	.st0{fill:#FFFFFF;}
</style>
<g>
	<g>
		<path class="st0" d="M245.3,490.5c-65.5,0-127.1-25.5-173.4-71.8C25.5,372.4,0,310.8,0,245.3S25.5,118.2,71.8,71.8
			C118.2,25.5,179.7,0,245.3,0s127.1,25.5,173.4,71.8c46.3,46.3,71.8,107.9,71.8,173.4S465,372.4,418.7,418.7
			C372.4,465,310.8,490.5,245.3,490.5z M245.3,2c-65,0-126.1,25.3-172,71.2C27.3,119.2,2,180.3,2,245.3s25.3,126.1,71.2,172
			c45.9,45.9,107,71.2,172,71.2s126.1-25.3,172-71.2s71.2-107,71.2-172s-25.3-126.1-71.2-172S310.2,2,245.3,2z"/>
	</g>
	<g>
		<path class="st0" d="M245.3,483.1c-63.5,0-123.3-24.7-168.2-69.7C32.1,368.5,7.4,308.8,7.4,245.3S32.1,122,77.1,77.1
			C122,32.1,181.7,7.4,245.3,7.4s123.3,24.7,168.2,69.7c44.9,44.9,69.7,104.7,69.7,168.2s-24.7,123.3-69.7,168.2
			C368.5,458.4,308.8,483.1,245.3,483.1z M245.3,9.4c-63,0-122.2,24.5-166.8,69.1C33.9,123,9.4,182.3,9.4,245.3S33.9,367.5,78.5,412
			c44.5,44.5,103.8,69.1,166.8,69.1S367.5,456.6,412,412c44.5-44.5,69.1-103.8,69.1-166.8S456.6,123,412,78.5
			C367.5,33.9,308.3,9.4,245.3,9.4z"/>
	</g>
	<g>
		<path class="st0" d="M245.3,404.4c-87.7,0-159.1-71.4-159.1-159.1S157.5,86.1,245.3,86.1s159.1,71.4,159.1,159.1
			S333,404.4,245.3,404.4z M245.3,90.1c-85.5,0-155.1,69.6-155.1,155.1s69.6,155.1,155.1,155.1c85.5,0,155.1-69.6,155.1-155.1
			S330.8,90.1,245.3,90.1z"/>
	</g>
	<g>
		<path class="st0" d="M245.3,390.9c-80.3,0-145.7-65.3-145.7-145.7S164.9,99.6,245.3,99.6s145.7,65.3,145.7,145.7
			S325.6,390.9,245.3,390.9z M245.3,101.6c-79.2,0-143.7,64.4-143.7,143.7S166,388.9,245.3,388.9s143.7-64.4,143.7-143.7
			S324.5,101.6,245.3,101.6z"/>
	</g>
	<g>
		<g>
			<path class="st0" d="M106.9,130.8c1.2,0.7,2.2,1.5,2.9,2.2c0.7,0.7,1.2,1.4,1.4,2.2c0.2,0.8,0.2,1.6,0,2.5
				c-0.2,0.9-0.7,1.9-1.3,2.9l-5.8,9.5l-29.9-18.1c-2.7-1.6-4.8-1.1-6.4,1.5l-2.2,3.6c-0.7,1.2-0.1,2.3,1.8,3.5l18,10.9
				c8.9,5.4,10.8,12.3,5.6,20.8l-0.2,0.3c-3.5,5.7-6.8,7.6-9.9,5.7l-8.2-5c1.4-0.1,2.4-0.8,3-2c1.2-2.4,0.7-4.2-1.4-5.5l-6.7-4.1
				c-3.2-2-5.3-3.8-6.2-5.5c-1.1-2.2-1.1-5.2,0.2-9.1l-1-0.6c-3.2,5.8-4.6,10.4-4.1,13.8l-0.4,0.6l-9-5.4c-2-1.2-2.8-2.8-2.4-4.7
				c1.1-4.8,4.2-11.5,9.4-20.1c5.5-9.1,10.4-14.6,14.5-16.5c4.1-1.9,9.3-0.9,15.5,2.9L106.9,130.8z"/>
		</g>
		<g>
			<path class="st0" d="M115,99.3c3.5,3.6,3.5,7.1,0,10.6l-7.4,7.2L89.2,98.3c-2.4-2.5-4.8-3.3-7-2.4l-0.7-0.7l10.1-9.9
				c1.7-1.7,3.3-2.6,4.6-2.7c1.7,0,3.5,1,5.6,3.1L115,99.3z"/>
		</g>
		<g>
			<path class="st0" d="M171.2,80.7c1.5,2.5,2.4,4.5,2.5,5.9c0.1,2-1,3.7-3.4,5.2l-33,20.3l-3.5-5.7c-0.7-1.2-1.2-2.2-1.5-3.1
				c-0.3-0.9-0.4-1.7-0.3-2.5c0.1-0.8,0.5-1.5,1-2.1c0.6-0.7,1.4-1.3,2.4-1.9l9.3-5.7c2.3-1.4,3.3-3.1,3.1-5.2
				c0-1.5-0.8-3.4-2.3-5.9l-3.8-6.1c-1.8-2.9-3.6-4.5-5.3-4.8c-2-0.3-5.1,0.9-9.3,3.5c-5,3-7.3,6.2-6.9,9.4l-0.6,0.4l-6.1-10
				c-1-1.6-0.8-3.6,0.7-5.8c1.5-2.3,5.4-5.3,11.8-9.3c7.4-4.6,13.3-6.5,17.6-6c4.4,0.6,8.4,4,12.2,10.1l2.2,3.6
				c4.1,6.6,3.9,12.3-0.5,16.9l0.7,1.1l5.2-3.2c2.3-1.4,3.4-3.1,3.6-5.1l0.5-0.3L171.2,80.7z"/>
		</g>
		<g>
			<path class="st0" d="M224.2,67.4c1.2,4.9-0.4,7.9-4.9,9l-10.7,2.7L201,48.6c-0.8-3-2.1-4.8-4.1-5.4c-1.9-0.6-5.7-0.1-11.3,1.3
				c-4.2,1.1-7.2,2.4-9.2,3.9c-1.4,1.1-2.4,2.8-3.1,4.9l-0.8,0.2l-3-11.9c-0.6-2.2,0.2-4,2.4-5.6c3.3-2.3,8.3-4.3,14.9-6
				c9.8-2.5,16.9-2.9,21.4-1.3c4.5,1.6,7.7,5.8,9.4,12.6L224.2,67.4z M193.1,52.7c-1,1.8-1.2,3.8-0.6,6l4,15.8
				c1.2,4.8-0.5,7.8-5.1,9l-10.6,2.7l-5-19.7c-1.6-6.5,0.4-10.5,6.1-12l10.9-2.8L193.1,52.7z"/>
		</g>
		<g>
			<path class="st0" d="M298.2,45.5l-0.9-0.2c-0.7-1.4-2-2.2-4-2.6l-0.3,0c-1.8-0.3-3,0.7-3.4,3.2l-4.8,26.1c-0.9,5-3.7,7-8.2,6.2
				l-10.9-2l4.6-24.9c0.8-4.1,2.2-6.9,4.4-8.3c1.5-0.9,3.6-1.3,6.5-1.4l0.2-1l-7.3-1.4c-2.7-0.5-4.8-0.1-6.2,1.2l-0.6-0.1l2-11
				c0.4-2,1-3.2,1.9-3.8c0.9-0.6,2.4-0.7,4.4-0.3l17.9,3.3c3,0.6,5,1.2,5.8,1.9c1.1,1.1,1.4,3.1,0.9,6L298.2,45.5z"/>
		</g>
		<g>
			<path class="st0" d="M319,83.4c-1.9,4.7-4.9,6.2-9.1,4.5l-10.2-4l16.2-41.1c1.2-3.1,0.9-5.6-0.9-7.5l0.4-1l12.3,4.9
				c5,2,6.6,5.3,4.7,9.9L319,83.4z"/>
		</g>
		<g>
			<path class="st0" d="M344.2,97.5c-2.6,4.3-5.8,5.3-9.8,3l-9.4-5.6L347.8,57c1.7-2.8,1.8-5.3,0.4-7.5l0.5-0.9l11.4,6.8
				c4.6,2.8,5.6,6.3,3.1,10.5L344.2,97.5z"/>
		</g>
		<g>
			<path class="st0" d="M380.8,129.8c-3.2,3.4-6.4,3.5-9.7,0.4l-8.1-7.6l20.8-22.1c2.3-2.4,3.3-4.5,3.2-6.2c-0.2-2-1.8-4.5-5-7.5
				c-4.4-4.2-8.2-5.7-11.2-4.5l-0.5-0.5l8.1-8.6c1.6-1.7,3.7-1.9,6.3-0.7c3.1,1.5,6.7,4.3,11.1,8.4c6.1,5.8,9.5,10.8,10,15.1
				c0.6,4.4-1.5,9-6.1,13.9L380.8,129.8z"/>
		</g>
		<g>
			<path class="st0" d="M411,173.8c-2.5,1.5-4.5,2.3-5.9,2.4c-2,0.1-3.7-1.1-5.1-3.5l-19.7-33.3l5.8-3.4c1.2-0.7,2.2-1.2,3.1-1.5
				c0.9-0.3,1.8-0.4,2.5-0.2c0.8,0.1,1.4,0.5,2.1,1.1c0.6,0.6,1.3,1.4,1.9,2.4l5.6,9.4c1.3,2.3,3.1,3.3,5.1,3.1c1.5,0,3.4-0.8,6-2.3
				l6.2-3.7c3-1.8,4.6-3.5,4.9-5.2c0.3-2-0.8-5.1-3.3-9.4c-3-5-6.1-7.4-9.3-7.1l-0.4-0.6l10.1-6c1.6-1,3.6-0.7,5.8,0.8
				c2.2,1.5,5.3,5.5,9.1,11.9c4.4,7.5,6.3,13.4,5.7,17.7c-0.7,4.4-4.1,8.4-10.3,12.1l-3.6,2.1c-6.7,4-12.3,3.7-16.9-0.8l-1.1,0.7
				l3.1,5.2c1.3,2.3,3,3.5,5,3.6l0.3,0.5L411,173.8z"/>
		</g>
	</g>
	<g>
		<circle class="st0" cx="438.9" cy="211.6" r="13.3"/>
	</g>
	<g>
		<circle class="st0" cx="51.6" cy="211.6" r="13.3"/>
	</g>
	<g>
		<path class="st0" d="M180.4,301.1c-10.3-9.2-14.9-23.6-14.3-37.4c0.5-11.7,4.4-23,9.9-33.3c4.9-9.3,11.2-17.8,15.4-27.5
			c4-9.1,4.5-20.4,2.9-30.1c-0.3-1.7-1.1-2.3-2-2.3c-1.5,0-3.6,1.5-4.9,2.4c-3.5,2.3-6.8,5.1-10.9,6.2c-2.7,0.7-5.5,1.1-8.3,1.7
			c-1.7,0.4-3.6,1.3-5.4,1.3c-0.3,0-0.6,0-0.8-0.1c-3.2-0.6-5.1-4.4-2.4-6.8c3.2-2.9,7-5,10.3-7.8c4.3-3.6,7-8.5,8.8-13.7
			c3.2-9.1,2.9-19.7,11.6-25.8c3.6-2.5,8-4,12.4-4c1,0,2,0.1,3,0.2c8.3,1.4,13.8,9.1,16.3,16.7c6.4,18.9,6.4,41.5,3,60.9
			c-0.9,5-1.2,10.5,1.1,15.1c1,2,3.7,2.5,6.8,2.5c3.3,0,7-0.6,9.4-0.6c0.3,0,0.6,0,0.9,0c6.6,0.5,13.1,1.9,19.6,3.2
			c7.5,1.6,15.1,3.2,22.5,5.3c13,3.7,25.4,9,37.6,14.8c5,2.4,10.2,4.8,15.8,4.9c0.2,0,0.3,0,0.5,0c0.5,0,1.1,0,1.6,0
			c0.6,0,1.3,0,1.9,0.1c3.2,0.5,5.9,2.5,9.2,3c0.4,0.1,0.9,0.2,1.2,0.4c0.4,0.3,0.7,0.7,0.9,1.2c1.8,3.9,0.7,8.5-0.6,12.6
			c-0.2,0.5-0.3,1.2,0.1,1.6c0.2,0.2,0.5,0.3,0.9,0.4c2.1,0.3,4.1,0.6,6.2,0.8c0.4,0,0.8,0.1,1,0.5c0.2,0.5-0.3,1-0.5,1.4
			c-0.6,1.2,0.7,2.6,0.5,3.9c-0.1,1-1,1.8-1.8,2.3c-2.6,1.7-5.9,2.2-8.5,3.8c-13.1,7.8-23.5,19.4-36.4,27.7
			c-5.3,3.5-10.9,6.6-16.7,9c-4,1.7-9,1.8-12.4,4.7c-2.3,2-2.3,6.6-2.8,9.5c-0.6,3.9-1,7.9-1.3,11.9c-0.2,4.4-0.2,8.9-1.4,13.1
			c-2.1,7.7-7.9,14.2-15.3,17.2c-1.9,0.8-4,1.4-6,1.4c-0.5,0-1,0-1.5-0.1c-2.9-0.4-5.4-2.2-8.3-3c-1.5-0.4-3-0.6-4.6-0.6
			c-3.2,0-6.5,0.6-9.7,0.7c0,0-0.1,0-0.1,0c-0.1,0-0.2,0-0.3,0c-0.5-0.2-0.5-0.9-0.2-1.3c0.3-0.4,0.8-0.6,1.2-0.9
			c2.1-1.3,2.1-4.4,3.6-6.3c0.9-1.1,2.3-1.7,3-2.9c0.4-0.6,0.5-1.4,0.9-2c0.9-1.4,2.6-1.6,4.3-1.6c0.5,0,0.9,0,1.4,0
			c1.5,0.1,3.1,0.1,4.6,0.1c0.2,0,0.3,0,0.5,0c4.5,0,9-0.4,13.4-1.2c1.2-0.2,2.5-0.5,3.3-1.5c0.4-0.5,0.6-1.2,0.8-1.8
			c1.3-4.6,2.6-9.2,3.5-13.8c0.4-2.2,0.8-4.6,0.4-6.8c-0.3-1.5-0.9-2.9-1-4.5c0-0.6,0-1.3-0.3-1.9c-0.4-0.9-2.1-1.1-4.1-1.1
			c-2.9,0-6.5,0.6-7.6,0.6c-2.7,0.2-5.6,0.6-8.3,0.6c-0.5,0-1,0-1.5,0c-0.5,0-1-0.1-1.6-0.1c-1.3,0-2.7,0.2-3.3,1.4
			c-1.2,2.5-0.5,6.6,0,9.2c0.5,2.8,1.7,4.1,3.1,6.4c0.6,1,0.9,2.2,0.4,3.2c-0.3,0.6-1,1-1.7,1c-0.4,0-0.8-0.2-1.1-0.5
			c-0.3-0.4-0.3-0.9-0.5-1.4c-0.2-0.4-0.5-0.8-0.9-0.8c-0.1,0-0.2,0-0.2,0c-0.2,0.1-0.3,0.2-0.4,0.4c-0.9,1.3-0.9,3-1.2,4.6
			c-0.6,2.9-2.6,5.3-5,6.9c-1.5,1-5,1.3-7.7,1.3c-1.5,0-2.8-0.1-3.2-0.2c-3.6-0.7-7.3-1.3-11.1-1.5c-0.3,0-0.6,0-0.9,0
			c-2.7,0-5.3,0.5-8,0.5c0,0,0,0,0,0c-2.7,0,0.4-2.5,0.9-3c0.9-1,1-2.3,0.8-3.6c-0.2-1.4-0.4-6.5-2.7-6.5c-0.1,0-0.1,0-0.2,0
			c-0.1,0-0.3,0-0.4,0c-0.1,0-0.3,0-0.4-0.2c0.2-1.1,1.3-1.5,2.7-1.5c2.1,0,4.9,0.8,5.8,1c5,1.2,10.2,1.7,15.4,1.7
			c0.4,0,0.9,0,1.3,0c3-0.1,4.6-0.9,4.8-4c0.2-4.2,1.9-8.1,2.4-12.3c0.4-3.8-2.6-4.7-5.7-5.4c-10-2.4-20-5.1-29.9-8
			C195.6,310.5,187.1,307.1,180.4,301.1z"/>
	</g>
	<g>
		<path class="st0" d="M20,263.9c-3.3,0.2-5.1-1.3-5.2-4.6l-0.4-6.8l42.9-2.3c2.2-0.1,3.6-1,4.2-2.6l0.7,0l0.5,9.4
			c0.1,1.6-0.1,2.7-0.7,3.4c-0.7,0.8-2,1.3-3.9,1.4L20,263.9z"/>
		<path class="st0" d="M48,280.6c-3.3,0.5-5.1-0.9-5.6-4.1l-1-6.7l17-2.5c2.2-0.3,3.6-1.3,4-2.8l0.7-0.1l1.3,9.1
			c0.2,1.6,0.1,2.7-0.4,3.5c-0.6,0.9-1.9,1.5-3.8,1.8L48,280.6z"/>
		<path class="st0" d="M40.7,301.3c-3.2,0.8-5.2-0.3-5.9-3.2l-1.7-6.9l28.1-6.8c2.1-0.5,3.3-1.6,3.7-3.3l0.7-0.2l2,8.4
			c0.8,3.4-0.3,5.5-3.5,6.3L40.7,301.3z"/>
		<path class="st0" d="M62,329.3c-5,1.9-9.5,1.9-13.2,0c-3.4-1.7-5.8-4.5-7.3-8.5l-0.1-0.2c-0.7-1.9-1-3.5-0.9-4.9
			c0.1-0.9,0.5-1.5,1.2-1.8l6.9-2.6l0.1,0.3c-0.3,1.2-0.2,2.4,0.2,3.6c1.5,3.9,4.4,5.1,8.7,3.4l8.8-3.4l-5-13.1c-0.3-0.9,0-1.6,1-2
			l11.5-4.4c0.7-0.3,1.9-1,3.5-2.2l0.4-0.1l3.3,8.7c0.7,1.9-0.1,3.3-2.5,4.2l-5.1,1.9l4.1,10.7c0.5,1.4,0.7,2.5,0.5,3.2
			c-0.3,0.9-1.3,1.7-3,2.4L62,329.3z"/>
		<path class="st0" d="M85.5,359.6c-1.6-0.5-3.5-0.1-5.4,1.4l-19.6,14.4c-2.6,1.9-4.9,1.7-6.7-0.8l-3.9-5.3l23.1-17
			c1.8-1.3,3.2-1.9,4.4-2c1.3-0.1,2.6,0.7,3.8,2.3l4.9,6.7L85.5,359.6z M91.1,377.9c-3.5,2.6-7,3.8-10.3,3.5c-3.3-0.3-6-1.9-8.2-4.8
			l-0.1-0.2c-1-1.3-1.5-2.5-1.6-3.6c-0.1-1.1,0.2-1.9,0.9-2.4l5.1-3.8c-0.2,0.9-0.1,1.6,0.4,2.3c0.6,0.8,1.3,1.2,2.3,1.4
			c1,0.2,2-0.1,3-0.8l10-7.4l-9-12.2c-1.5-2-3-3-4.6-3.1l-0.2-0.3l6.2-4.6c1.1-0.8,2.1-1.1,3-0.7c0.6,0.2,1.4,1,2.3,2.2l14.7,20
			c1.3,1.8,1.1,3.4-0.8,4.8L91.1,377.9z"/>
		<path class="st0" d="M128.7,408.2c-3.5,4-7.7,6-12.4,6.2c-5,0.2-9.8-1.8-14.5-6l-2.8-2.5c-9.2-8.2-9.9-16.7-2.1-25.4l8.2-9.2
			c1.1-1.3,1.5-2.5,1.3-3.8l0.5-0.5l6.4,5.7c1.1,1,1.8,2,1.8,2.8c0,1-0.6,2.2-1.9,3.7l-8.9,10c-1.2,1.4-2,2.4-2.4,3.1
			c-0.8,1.5-0.7,2.6,0.2,3.5c0.9,0.8,2,0.5,3.2-0.8l11.7-13.1c1.2-1.4,1.6-2.6,1.3-3.8l0.5-0.5l5.7,5c1.2,1,1.8,2,1.8,2.9
			c0.1,0.9-0.6,2.1-1.9,3.5l-8.7,9.8c-2.6,3-5.5,3.1-8.4,0.4l-0.7,0.7l2.7,2.4c2.2,2,4.2,2.7,5.9,2.3c1.4-0.4,3.1-1.7,5.1-3.9l8-8.9
			c1.1-1.3,1.6-2.5,1.3-3.8l0.5-0.5l6.4,5.7c1.1,1,1.8,1.9,1.9,2.6c0.1,0.9-0.4,2-1.5,3.4L128.7,408.2z"/>
		<path class="st0" d="M162.4,428.5c-2.1,3.7-4,6.3-5.7,7.8c-1.6,1.5-3.6,2.4-5.8,2.8c-2.1,0.3-4.8-0.4-8.1-2.3l-0.2-0.1
			c-1.7-1-2.9-2-3.6-3c-0.4-0.8-0.4-1.7,0.1-2.6l3-5.4l0.3,0.2c0.3,1.1,0.9,2,2.1,2.6c2,1.1,3.7,0.4,5.1-2.2l4.6-8.2
			c0.4-0.7,0.7-1.3,0.8-1.9c0.1-0.5,0.2-1,0-1.5c-0.1-0.4-0.4-0.9-0.7-1.2s-0.9-0.7-1.6-1.1l-0.7-0.4c-1.3-0.7-2.3-0.9-3.1-0.4
			c-0.8,0.4-1.8,1.5-3,3.3l-8.7,13.3c-1.7,2.6-3.9,3.1-6.4,1.7l-6.6-3.7l8.9-13.4c1.7-2.5,3.2-4.1,4.4-4.7c2-0.9,4.2-0.7,6.7,0.7
			l0.5-0.8c-3.9-2.2-6.8-2.9-8.7-2l-0.4-0.2l3.5-6.2c0.7-1.2,1.6-1.7,2.9-1.5c2.2,0.4,6.4,2.3,12.8,5.9c3.4,1.9,5.7,3.4,7,4.3
			c2.6,2,4.3,4,4.8,6.2c0.6,2.1,0.4,4.5-0.7,7.3c-0.3,0.7-0.7,1.7-1.3,2.8c-0.6,1.1-1.3,2.4-2.1,4L162.4,428.5z"/>
		<path class="st0" d="M210.4,443.7c-1.3,5.2-3.8,8.9-7.5,10.9c-3.3,1.8-7,2.2-11.2,1.2l-0.2,0c-2-0.5-3.5-1.1-4.6-2
			c-0.7-0.6-1-1.3-0.8-2l1.7-7.1l0.3,0.1c0.8,0.9,1.8,1.5,3.1,1.8c4.1,1,6.7-0.8,7.7-5.3l2.2-9.2l-13.7-3.3c-1-0.2-1.3-0.9-1-2
			l2.9-12c0.2-0.8,0.2-2.1,0.1-4.1l0.1-0.4l9,2.2c1.9,0.5,2.6,1.9,2,4.4l-1.3,5.3l11.1,2.7c1.4,0.3,2.4,0.8,2.9,1.4
			c0.6,0.8,0.7,2.1,0.3,3.8L210.4,443.7z"/>
		<path class="st0" d="M258.2,445.1c-0.2,5.3-2.1,9.5-5.6,12.7c-3.7,3.3-8.7,4.8-15,4.6l-3.7-0.1c-12.3-0.5-18.3-6.6-17.8-18.3
			l0.5-12.4c0.1-1.7-0.4-2.9-1.4-3.7l0-0.7l8.5,0.3c1.5,0.1,2.6,0.4,3.2,1c0.7,0.8,0.9,2.1,0.9,4l-0.5,13.4c-0.1,1.8,0,3.1,0.1,3.9
			c0.3,1.7,1.1,2.5,2.4,2.6c1.2,0,1.8-0.8,1.9-2.7l0.7-17.6c0.1-1.8-0.4-3.1-1.4-3.7l0-0.7l7.6,0.3c1.6,0.1,2.7,0.4,3.2,1.1
			c0.6,0.7,0.9,2,0.8,3.9l-0.5,13.1c-0.2,4-2.2,5.9-6.2,5.7l0,1l3.6,0.1c2.9,0.1,4.9-0.6,6-2c0.8-1.2,1.3-3.3,1.4-6.3l0.5-12
			c0.1-1.7-0.4-2.9-1.4-3.7l0-0.7l8.5,0.3c1.5,0.1,2.5,0.3,3.1,0.8c0.7,0.6,1,1.8,1,3.6L258.2,445.1z"/>
		<path class="st0" d="M318.6,444.9c0.2,0.9,0.4,1.7,0.4,2.3c0,0.6-0.1,1.2-0.3,1.7c-0.2,0.5-0.6,0.9-1.1,1.2s-1.2,0.6-1.9,0.8
			l-7,1.9l-6.1-22c-0.5-2-1.8-2.7-3.7-2.2l-2.6,0.7c-0.9,0.2-1.1,1.1-0.7,2.5l3.7,13.3c1.8,6.6-0.4,10.7-6.7,12.4l-0.2,0.1
			c-4.2,1.2-6.6,0.6-7.3-1.7l-1.7-6c0.7,0.6,1.5,0.7,2.3,0.4c1.6-0.6,2.2-1.7,1.8-3.3l-1.4-5c-0.7-2.4-0.8-4.2-0.5-5.4
			c0.4-1.6,1.8-3,4.2-4.3l-0.2-0.8c-4.1,1.3-6.8,2.9-8.1,4.7l-0.5,0.1l-1.8-6.6c-0.4-1.4-0.1-2.6,1-3.3c2.7-1.8,7.2-3.6,13.5-5.3
			c6.7-1.9,11.5-2.3,14.3-1.3s4.8,3.8,6.1,8.4L318.6,444.9z"/>
		<path class="st0" d="M336.6,436.7c1.3,3,0.6,5.1-2.1,6.3l-6.5,2.9l-11.7-26.4c-0.9-2-2.2-3-3.9-3l-0.3-0.6l7.9-3.5
			c3.2-1.4,5.5-0.6,6.8,2.3L336.6,436.7z"/>
		<path class="st0" d="M360.6,408.9c6,9.9,4.2,17.8-5.4,23.6l-0.2,0.1c-3.4,2-6.2,3.2-8.4,3.3c-1.3,0.1-2.3-0.4-2.9-1.4l-3.7-6.2
			l0.4-0.3c2,0.6,4.4,0.1,7.1-1.5c2.9-1.8,4.5-3.4,4.8-4.9c0.3-1.5-0.4-3.7-2.2-6.6c-1.8-2.9-3.5-4.6-5.1-4.9
			c-1.4-0.2-3.4,0.5-6.1,2.1c-3,1.8-4.5,3.9-4.6,6.2l-0.4,0.3l-4-6.5c-0.4-0.7-0.6-1.2-0.6-1.6c0-0.4,0.3-1,0.9-2
			c1.1-1.7,3.2-3.5,6.5-5.5c5.5-3.3,10-4.6,13.5-3.7C353.8,400.1,357.2,403.3,360.6,408.9z"/>
		<path class="st0" d="M374.3,398.4c2.1,2.6,1.8,4.9-0.7,6.9l-5.3,4.2l-10.7-13.5c-1.4-1.8-2.9-2.4-4.4-2l-0.4-0.5l7.2-5.8
			c1.2-1,2.3-1.5,3.2-1.4c1.1,0.1,2.2,0.9,3.4,2.4L374.3,398.4z"/>
		<path class="st0" d="M406.6,390.3c-3.7-0.9-10.5-2.1-20.4-3.7c0.2,0.6,0.4,1.1,0.8,1.5l4.7,4.5c0.7,0.6,1.4,0.6,2-0.1
			c0.3-0.3,0.5-0.9,0.7-1.7l0.2-0.2l3,2.9c1.1,1,1.7,2,1.7,2.8c0.2,1.1-1,2.9-3.4,5.5l-0.1,0.1c-1.8,1.9-3.6,2.8-5.2,2.7
			c-1.7-0.1-3.5-1.1-5.6-3.1l-3.5-3.3c-1.5-1.4-2.4-3.2-2.5-5.1c0-0.7,0-1.6,0.2-2.8s0.4-2.6,0.7-4.3c-2.9-0.3-5,0.1-6.1,1.3
			c-0.6,0.6-0.9,1.3-0.9,2l-0.3,0.3l-3.9-3.7c-1.8-1.7-1.4-4,1.2-6.7c1.8-1.9,3.5-3.1,5-3.5c1.5-0.5,3.6-0.5,6.4-0.1
			c1.8,0.3,4.8,0.8,9,1.5c-0.2-0.5-0.6-1-1.2-1.6l-2.9-2.8c-2.4-2.3-4.5-3.1-6.2-2.5l-0.5-0.5l6.3-6.6c2.1-2.2,4.7-2,7.6,0.8
			l1.8,1.7c1.6,1.5,2.5,3.3,2.7,5.3c0.1,0.8,0.1,1.7,0,2.9c-0.1,1.2-0.3,2.6-0.6,4.3l13.1,2c0.7,0.1,1.2,0.4,1.7,0.9
			c1.2,1.1,1.2,2.3-0.1,3.6L406.6,390.3z"/>
		<path class="st0" d="M438.3,334.8c2.7,1.4,3.3,3.5,1.9,6.1l-3.5,6.4l-17.4-9.4c-1.9-1-3.4-1.4-4.5-1c-1.3,0.5-2.6,1.9-3.9,4.4
			c-1.9,3.5-2.2,6.1-1,7.8l-0.2,0.4l-6.8-3.7c-1.3-0.7-1.8-2-1.5-3.8c0.4-2.2,1.6-5,3.4-8.4c2.6-4.8,5.2-7.8,7.9-8.9
			c2.7-1.1,5.9-0.6,9.8,1.5L438.3,334.8z"/>
		<path class="st0" d="M441.9,283.5c5.1,1.5,8.7,4.4,10.8,8.6c2.2,4.4,2.5,9.6,0.6,15.6l-1.1,3.6c-3.6,11.8-11,16-22.2,12.6
			l-11.8-3.6c-1.6-0.5-2.9-0.3-4,0.4l-0.7-0.2l2.5-8.2c0.4-1.5,1-2.4,1.8-2.8c0.9-0.4,2.3-0.4,4.1,0.2l12.8,3.9
			c1.7,0.5,3,0.8,3.8,0.9c1.7,0.1,2.7-0.4,3.1-1.7c0.4-1.2-0.3-2-2.1-2.5l-16.8-5.1c-1.7-0.5-3.1-0.4-3.9,0.4l-0.7-0.2l2.2-7.3
			c0.5-1.5,1.1-2.5,1.9-2.8c0.8-0.4,2.1-0.3,4,0.2l12.5,3.8c3.8,1.2,5.1,3.7,3.9,7.5l0.9,0.3l1-3.4c0.9-2.8,0.7-4.9-0.4-6.3
			c-0.9-1.1-2.8-2.1-5.7-3l-11.4-3.5c-1.6-0.5-2.9-0.4-3.9,0.4l-0.7-0.2l2.5-8.2c0.4-1.4,1-2.4,1.6-2.8c0.8-0.5,2-0.5,3.7,0
			L441.9,283.5z"/>
		<path class="st0" d="M456.7,250.4c1.9,0.2,3.3,0.5,4.1,1c1.1,0.7,1.6,2,1.4,3.8l-2.4,25.2l-4.4-0.4c-0.9-0.1-1.6-0.2-2.2-0.4
			c-0.6-0.2-1.1-0.5-1.4-0.8c-0.3-0.4-0.6-0.8-0.7-1.4s-0.1-1.2-0.1-2l0.7-7.1c0.2-1.7-0.3-2.9-1.5-3.6c-0.8-0.6-2.1-0.9-4-1.1
			l-4.7-0.4c-2.2-0.2-3.8,0.1-4.6,0.9c-0.9,0.9-1.6,3-1.9,6.2c-0.4,3.8,0.4,6.2,2.2,7.3l0,0.5l-7.7-0.7c-1.2-0.1-2.2-1-2.8-2.6
			c-0.6-1.7-0.7-4.9-0.2-9.8c0.5-5.7,1.8-9.5,3.8-11.6c2-2.1,5.4-2.9,10.1-2.4l2.7,0.3c5.1,0.5,8,2.8,8.6,6.9l0.9,0.1l0.4-3.9
			c0.2-1.7-0.3-3-1.3-3.9l0-0.4L456.7,250.4z"/>
	</g>
</g>
</svg>
