<?xml version="1.0" encoding="utf-8"?>
<!-- Generator: Adobe Illustrator 19.2.0, SVG Export Plug-In . SVG Version: 6.00 Build 0)  -->
<svg version="1.1" id="Layer_1" xmlns="http://www.w3.org/2000/svg" xmlns:xlink="http://www.w3.org/1999/xlink" x="0px" y="0px"
	 viewBox="0 0 200 50" style="enable-background:new 0 0 200 50;" xml:space="preserve">
<style type="text/css">
	.st0{fill:none;}
	.st1{fill:#FFFFFF;}
	.st2{fill:#FFFFFF;}
</style>
<g>
	<rect class="st0" width="50" height="50"/>
	<rect x="50" class="st0" width="50" height="50"/>
	<rect x="100" class="st0" width="50" height="50"/>
	<rect x="150" class="st0" width="50" height="50"/>
	<g>
		<path class="st1" d="M135.5,33.9c-0.5-1.5-4.2-3.6-5.9-4.3c-0.1-0.1-0.3,0-0.4,0l-4.2,2l-3.8-2c-0.1-0.1-0.2-0.1-0.4,0
			c-1.5,0.6-5.9,2.6-6.4,4.4c-0.3,1.2-0.4,1.8-0.4,1.8c0,0,0,0.1,0,0.1c0,0.6,0.3,0.9,0.6,1c0.4,0.2,0.8,0.2,1.3,0.2
			c0.1,0,0.2,0,0.3,0h17.6c0.1,0,0.3,0,0.4,0c0.1,0,0.3,0,0.4,0c0.3,0,1.4,0,1.4-1.1C135.9,35.4,135.9,35.1,135.5,33.9z M134.6,36.1
			c-0.1,0-0.2,0-0.3,0c-0.1,0-0.3,0-0.4,0h-17.6c-0.1,0-0.2,0-0.3,0c-0.1,0-0.2,0-0.3,0c0,0,0,0,0,0c-0.1,0-0.4,0-0.6-0.1
			c0,0-0.1,0-0.1-0.2c0-0.2,0.2-0.7,0.4-1.8c0.3-1,3.4-2.8,5.6-3.7l3.8,2c0.1,0.1,0.3,0.1,0.4,0l4.2-2c2.5,1.1,5,2.9,5.2,3.7
			c0.4,1.2,0.4,1.4,0.4,1.8C135.1,36.1,135.1,36.1,134.6,36.1z"/>
		<path class="st1" d="M120.4,24.3c0.2,0.6,0.5,1,0.8,1.5c0.1,0.1,0.2,0.3,0.2,0.4c0.3,0.5,0.6,0.8,0.9,1.1c0,0.4-0.1,1-0.2,1.4
			c-0.1,0.2,0.1,0.5,0.3,0.5c0.2,0.1,0.5-0.1,0.5-0.3c0.1-0.5,0.2-1.3,0.2-1.8c0-0.1-0.1-0.3-0.2-0.4c-0.3-0.2-0.6-0.5-0.8-1
			c-0.1-0.1-0.2-0.3-0.3-0.4c-0.3-0.5-0.6-0.9-0.8-1.5c-0.1-0.2-0.2-0.3-0.4-0.3c0,0-0.2-0.1-0.2-0.2c-0.4-0.8-0.6-2.1-0.6-2.3
			c0,0,0.1,0,0.2,0c0.1,0,0.2,0,0.3-0.1c0.1-0.1,0.1-0.2,0.1-0.3c-0.1-2.5,0.8-3.9,1.6-4.6c0.1-0.1,0.2-0.3,0.1-0.5c0,0,0,0,0,0
			c0.4-0.3,1-0.2,1-0.2l0-0.4l0.4-0.2c0-0.1,0-0.2,0.1-0.4c0.2,0.2,0.6,0.4,0.9,0.4c0.9,0.3,1.6,0.5,2,0.7c1.9,0.7,2.9,2.7,2.8,5.3
			c0,0.1,0,0.2,0.1,0.3s0.2,0.1,0.3,0.1c0.1,0,0.1,0,0.1,0c0.1,0.3-0.1,1.5-0.5,2.3c-0.1,0.1-0.2,0.2-0.2,0.2
			c-0.2,0-0.3,0.1-0.4,0.3c-0.2,0.6-0.5,1-0.8,1.5c-0.1,0.1-0.2,0.3-0.3,0.4c-0.3,0.4-0.5,0.7-0.8,0.9c-0.1,0.1-0.2,0.2-0.2,0.4
			c0,0.4,0,1.2,0.2,1.9c0.1,0.2,0.2,0.3,0.4,0.3c0,0,0.1,0,0.1,0c0.2-0.1,0.4-0.3,0.3-0.5c-0.1-0.5-0.2-1.1-0.2-1.4
			c0.3-0.3,0.5-0.6,0.8-1c0.1-0.1,0.2-0.3,0.3-0.4c0.3-0.4,0.6-0.9,0.8-1.5c0.2-0.1,0.5-0.3,0.6-0.6c0.5-0.9,0.8-2.5,0.6-3
			c-0.1-0.2-0.3-0.4-0.5-0.5c0-2.8-1.2-4.9-3.4-5.8c-0.4-0.2-1.1-0.5-2.1-0.7c-0.4-0.1-0.6-0.3-0.6-0.3c0-0.1-0.1-0.2-0.2-0.3
			c-0.1-0.1-0.2-0.1-0.3-0.1c-0.4,0.1-0.7,0.6-0.9,0.9c-0.1,0.1-0.1,0.3-0.1,0.4c-0.6,0.1-1.4,0.4-1.6,1.2c0,0.1,0,0.2,0,0.2
			c-0.8,0.9-1.5,2.2-1.5,4.4c-0.3,0.1-0.5,0.3-0.6,0.5c-0.2,0.6,0.1,2.1,0.6,3C119.9,24,120.1,24.2,120.4,24.3z"/>
	</g>
	<g>
		<path class="st1" d="M34.6,22.7L31.3,25v-4.6c0-0.2-0.2-0.4-0.4-0.4H19.2c-0.2,0-0.4,0.2-0.4,0.4V25l-3.3-2.3
			c-0.2-0.1-0.5-0.1-0.6,0.1s-0.1,0.5,0.1,0.6l8.4,5.7c0.5,0.3,1.1,0.5,1.7,0.5s1.2-0.2,1.7-0.5l8.4-5.7c0.2-0.1,0.3-0.4,0.1-0.6
			C35.1,22.7,34.8,22.6,34.6,22.7z M26.2,28.5c-0.7,0.5-1.8,0.5-2.5,0l-4.2-2.9c0-0.1,0.1-0.1,0.1-0.2v-4.5h10.8v4.5
			c0,0.1,0,0.2,0.1,0.2L26.2,28.5z"/>
		<path class="st1" d="M36.4,21l-9.7-7.5C26.2,13.2,25.6,13,25,13s-1.2,0.2-1.7,0.5L13.6,21c-0.4,0.3-0.7,0.9-0.7,1.4v12.3
			c0,1.2,1,2.2,2.2,2.2h19.7c1.2,0,2.2-1,2.2-2.2V22.4C37.1,21.9,36.8,21.3,36.4,21z M36.2,34.8c0,0.7-0.6,1.3-1.3,1.3H15.1
			c-0.7,0-1.3-0.6-1.3-1.3V22.4c0-0.2,0.2-0.6,0.3-0.7l9.7-7.5c0.3-0.2,0.7-0.4,1.1-0.4c0.4,0,0.9,0.1,1.1,0.4l9.7,7.5
			c0.2,0.1,0.3,0.5,0.3,0.7V34.8z"/>
		<path class="st1" d="M28.1,22.7h-6.3c-0.2,0-0.4,0.2-0.4,0.4s0.2,0.4,0.4,0.4h6.3c0.2,0,0.4-0.2,0.4-0.4
			C28.6,22.9,28.4,22.7,28.1,22.7z"/>
		<path class="st1" d="M28.1,24.5h-6.3c-0.2,0-0.4,0.2-0.4,0.4s0.2,0.4,0.4,0.4h6.3c0.2,0,0.4-0.2,0.4-0.4S28.4,24.5,28.1,24.5z"/>
	</g>
	<g>
		<path class="st1" d="M87.1,32.9c-0.1-0.4-0.3-0.8-0.9-1.2L80.9,28c-0.3-0.2-0.6-0.3-0.9-0.3c-0.5,0-1,0.2-1.3,0.7l-1.4,2
			c-0.1,0.2-0.1,0.3-0.1,0.5c-0.5,0.1-2.1,0-4.6-2.5c-2.5-2.4-3.6-4.2-3.5-5.4c0,0,0,0,0.1-0.1c0.1,0,0.2-0.1,0.3-0.2l1.9-1.5
			c0.7-0.5,0.8-1.5,0.3-2.2l-3.8-5.2c-0.7-1-1.6-1.1-2.5-0.3c-0.6,0.5-1.6,1.7-2,2.5c-0.2,0.4-0.3,0.8-0.3,1.2
			c-0.1,0.6-0.5,2.3,0.1,4.7c0.7,3.3,2.6,6.5,5.6,9.4c5.1,4.9,9.5,5.6,11.8,5.7l0,0c1.3,0,2.2-0.2,2.6-0.4c0.4,0,0.8-0.1,1.1-0.3
			c0.7-0.4,1.9-1.4,2.4-2.1C87.1,33.7,87.2,33.3,87.1,32.9z M86,33.6c-0.4,0.5-1.5,1.5-2.2,1.8c-0.1,0.1-0.2,0.1-0.3,0.1
			c-0.6-0.3-1.7-0.8-2-1.2c-0.2-0.2-0.4-0.2-0.6-0.1c-0.2,0.2-0.2,0.4-0.1,0.6c0.3,0.4,0.8,0.7,1.3,1c-0.4,0.1-1,0.2-1.7,0.2l0,0
			c-2.1,0-6.3-0.7-11.1-5.4C62.5,24,63.8,18,64,17.4c0-0.1,0-0.1,0-0.2c0-0.2,0-0.5,0.2-0.7c0.4-0.6,1.3-1.8,1.8-2.2
			c0.2-0.2,0.4-0.3,0.6-0.3c0.1,0,0.3,0,0.6,0.5l3.8,5.2c0.2,0.3,0.2,0.8-0.1,1L69,22.1c0,0,0,0,0,0c-0.5-0.4-1.2-1-1.4-1.3
			c-0.1-0.2-0.4-0.3-0.6-0.1c-0.2,0.1-0.3,0.4-0.1,0.6c0.3,0.5,1,1,1.5,1.4c-0.4,1.5,0.8,3.5,3.7,6.3c2.3,2.3,4,2.8,5,2.8
			c0.4,0,0.8-0.1,0.9-0.2c0.1-0.1,0.2-0.2,0.2-0.3c0-0.1,0-0.2,0-0.2c0-0.1,0-0.1,0-0.2l1.4-1.9c0.2-0.3,0.7-0.4,1-0.1l5.4,3.7
			c0.3,0.2,0.5,0.4,0.5,0.6C86.3,33.2,86.2,33.4,86,33.6z"/>
		<path class="st1" d="M74.5,18.2c3.5,1.1,6.3,3.8,7.3,7.3c0.1,0.2,0.2,0.3,0.4,0.3c0,0,0.1,0,0.1,0c0.2-0.1,0.4-0.3,0.3-0.6
			c-1.2-3.8-4.2-6.7-7.9-7.9c-0.2-0.1-0.5,0.1-0.6,0.3C74.1,17.9,74.2,18.2,74.5,18.2z"/>
		<path class="st1" d="M75.1,14.9c5.3,1.2,9.3,5.5,10.2,10.8c0,0.2,0.2,0.4,0.4,0.4c0,0,0.1,0,0.1,0c0.2,0,0.4-0.3,0.4-0.5
			c-1-5.7-5.3-10.2-10.9-11.5c-0.2-0.1-0.5,0.1-0.5,0.3C74.7,14.6,74.9,14.8,75.1,14.9z"/>
	</g>
	<g>
		<g>
			<path class="st2" d="M175,22.9c-2.5,0-7.3-0.5-7.3-2.2c0-1.1,1.8-1.6,3.3-1.9c0.2,0,0.5,0.1,0.5,0.4c0,0.2-0.1,0.5-0.4,0.5
				c-2.2,0.4-2.6,0.9-2.6,1c0,0.4,2.2,1.3,6.4,1.3s6.4-0.9,6.4-1.3c0-0.1-0.4-0.6-2.5-1c-0.2,0-0.4-0.3-0.4-0.5
				c0-0.2,0.3-0.4,0.5-0.4c2.2,0.4,3.3,1,3.3,1.9C182.3,22.4,177.5,22.9,175,22.9z"/>
		</g>
		<g>
			<path class="st2" d="M175,28.6c-2.8,0-7.3-0.6-7.3-2.2v-5.6c0-0.2,0.2-0.4,0.4-0.4c0.2,0,0.4,0.2,0.4,0.4v5.6
				c0.1,0.4,2.4,1.3,6.4,1.3c4,0,6.3-0.9,6.4-1.3l0-5.6c0-0.2,0.2-0.4,0.4-0.4c0.2,0,0.4,0.2,0.4,0.4v5.6
				C182.3,28,177.8,28.6,175,28.6z"/>
		</g>
		<g>
			<path class="st2" d="M175,31.2c-5.1,0-10.5-1.4-10.5-3.4c0-1,1.2-1.8,3.6-2.3c0.2-0.1,0.5,0.1,0.5,0.3c0.1,0.2-0.1,0.5-0.3,0.5
				c-2.3,0.5-2.9,1.2-2.9,1.5c0,0.9,3.8,2.5,9.6,2.5c5.9,0,9.6-1.7,9.6-2.5c0-0.3-0.6-0.9-2.9-1.5c-0.2-0.1-0.4-0.3-0.3-0.5
				c0.1-0.2,0.3-0.4,0.5-0.3c2.3,0.6,3.5,1.3,3.5,2.3C185.5,29.8,180.1,31.2,175,31.2z"/>
		</g>
		<g>
			<path class="st2" d="M175,37c-5.6,0-10.5-1.6-10.5-3.4v-5.7c0-0.2,0.2-0.4,0.4-0.4s0.4,0.2,0.4,0.4v5.7c0,0.7,3.7,2.5,9.6,2.5
				c5.9,0,9.6-1.8,9.6-2.5v-5.7c0-0.2,0.2-0.4,0.4-0.4c0.2,0,0.4,0.2,0.4,0.4v5.7C185.5,35.4,180.6,37,175,37z"/>
		</g>
		<g>
			<path class="st2" d="M175,18.5c-0.7,0-4.2-0.1-4.2-1.3c0-1,2.1-1.3,3.4-1.3c0.2,0,0.5,0.2,0.5,0.4c0,0.2-0.2,0.5-0.4,0.5
				c-1.3,0.1-2.1,0.3-2.4,0.4c0.4,0.2,1.5,0.5,3.2,0.5c1.7,0,2.8-0.3,3.2-0.5c-0.2-0.1-0.8-0.3-1.8-0.4c-0.2,0-0.4-0.2-0.4-0.5
				c0-0.2,0.2-0.4,0.5-0.4c1.8,0.2,2.7,0.6,2.7,1.3C179.2,18.5,175.7,18.5,175,18.5z"/>
		</g>
		<g>
			<path class="st2" d="M175,21.1c-0.7,0-4.2-0.1-4.2-1.3v-2.3c0-0.2,0.2-0.4,0.4-0.4s0.4,0.2,0.4,0.4v2.2c0.2,0.2,1.4,0.5,3.3,0.5
				c1.9,0,3.1-0.3,3.3-0.5v-2.2c0-0.2,0.2-0.4,0.4-0.4s0.4,0.2,0.4,0.4v2.3C179.2,21,175.7,21.1,175,21.1z"/>
		</g>
		<g>
			<path class="st2" d="M174.4,17.3c-0.1,0-0.2,0-0.3-0.1c0,0-0.1-0.1-0.1-0.1c0,0,0-0.1,0-0.1c-0.3-0.6-0.8-2.4-0.9-2.6
				c-0.1-0.3,0-0.7,0.2-1c0.2-0.3,0.5-0.5,0.9-0.5c0.6-0.1,1.2,0.3,1.4,0.8c0.1-0.1,0.3-0.1,0.5-0.1c0.4,0,0.9,0.2,1.1,0.6
				c0.2,0.3,0.3,0.7,0.2,1.2c-0.1,0.4-0.3,0.7-0.5,0.9c-0.3,0.2-1.8,0.8-2.3,0.9C174.6,17.3,174.5,17.3,174.4,17.3
				C174.5,17.3,174.5,17.3,174.4,17.3z M174.4,13.9C174.4,13.9,174.4,13.9,174.4,13.9c-0.2,0-0.3,0.1-0.3,0.2c0,0.1-0.1,0.1-0.1,0.3
				c0.1,0.3,0.4,1.5,0.7,2.1c0.5-0.2,1.5-0.6,1.8-0.7c0.1,0,0.1-0.1,0.1-0.3c0-0.2,0-0.4-0.1-0.5c-0.1-0.1-0.2-0.2-0.4-0.2
				c-0.1,0-0.2,0-0.2,0.1c0,0-0.1,0-0.1,0c-0.1,0-0.1,0.1-0.2,0.2c-0.1,0.2-0.4,0.3-0.6,0.2c-0.2-0.1-0.3-0.3-0.2-0.6
				c0.1-0.2,0.1-0.2,0.1-0.3c0,0,0-0.1,0-0.1C174.8,14.1,174.6,13.9,174.4,13.9z"/>
		</g>
		<g>
			<circle class="st2" cx="175" cy="25.5" r="0.8"/>
		</g>
		<g>
			<g>
				<circle class="st2" cx="170.4" cy="24.8" r="0.8"/>
			</g>
			<g>
				<circle class="st2" cx="179.6" cy="24.8" r="0.8"/>
			</g>
		</g>
		<g>
			<g>
				<circle class="st2" cx="167.4" cy="32.2" r="0.8"/>
			</g>
			<g>
				<circle class="st2" cx="183.1" cy="32.2" r="0.8"/>
			</g>
		</g>
		<g>
			<g>
				<circle class="st2" cx="172.4" cy="33.5" r="0.8"/>
			</g>
			<g>
				<circle class="st2" cx="178.1" cy="33.5" r="0.8"/>
			</g>
		</g>
	</g>
</g>
</svg>
