<?xml version="1.0" encoding="utf-8"?>
<!-- Generator: Adobe Illustrator 19.2.1, SVG Export Plug-In . SVG Version: 6.00 Build 0)  -->
<svg version="1.1" id="Layer_1" xmlns="http://www.w3.org/2000/svg" xmlns:xlink="http://www.w3.org/1999/xlink" x="0px" y="0px"
	 viewBox="0 0 308.1 300" style="enable-background:new 0 0 308.1 300;" xml:space="preserve">
<style type="text/css">
	.st0{opacity:0.5;}
	.st1{opacity:0.5;fill:#FFFFFF;}
	.st2{fill-rule:evenodd;clip-rule:evenodd;fill:#FFFFFF;}
	.st3{fill:#FFFFFF;}
	.st4{opacity:0.5;fill-rule:evenodd;clip-rule:evenodd;fill:#FFFFFF;}
</style>
<g>
	<path class="st0" d="M0.2,154.1L0,145.9l0,0V51v-2h2h38.8l2.3-2.6c2.1-2.2,4.2-4.3,6.5-6.3c2.3-2,4.7-3.8,7.1-5.5l0,0l0.2-0.1
		l0.2-0.2c13.8-11.1,29.1-19.7,45.5-25.5C119,3,136.3,0,154,0s35,3,51.4,8.8c16.3,5.8,31.7,14.4,45.5,25.5l0.2,0.1l0.2,0.2
		c2.4,1.7,4.8,3.6,7.1,5.5c2.3,2,4.5,4.1,6.5,6.3l2.3,2.6h38.8h2v2v94.8l0,0l-0.2,8.2v0c-2.1,40.9-20.1,77.3-47.8,103.5
		C232.4,284,195,300,154,300c-40.9,0-78.3-16-106-42.3C20.4,231.5,2.4,195,0.2,154.1L0.2,154.1z"/>
	<path class="st1" d="M3.9,145.8l0.2,8.1h0c2.1,39.8,19.6,75.3,46.6,100.9c27,25.6,63.4,41.2,103.3,41.2
		c39.9,0,76.3-15.6,103.3-41.2c27-25.6,44.5-61.1,46.6-100.9l0,0l0.2-8.1h0V53h-37.7h-0.9l-0.6-0.7l-2.9-3.2c-1.9-2.1-4-4.1-6.2-6
		c-2.2-1.9-4.4-3.6-6.8-5.3l-0.3-0.2l-0.1-0.1l-0.3-0.2c-13.4-10.8-28.4-19.2-44.3-24.8C188.2,6.9,171.3,4,154,4s-34.2,2.9-50.1,8.6
		C88,18.2,73,26.5,59.6,37.3l-0.3,0.2l-0.1,0.1L59,37.8v0c-2.4,1.7-4.6,3.4-6.8,5.3C50,45,47.9,47,46,49.1l-2.9,3.2L42.5,53h-0.9H4
		L3.9,145.8L3.9,145.8L3.9,145.8z M0.2,154.1L0,145.9l0,0V51v-2h2h38.8l2.3-2.6c2.1-2.2,4.2-4.3,6.5-6.3c2.3-2,4.7-3.8,7.1-5.5l0,0
		l0.2-0.1l0.2-0.2c13.8-11.1,29.1-19.7,45.5-25.5C119,3,136.3,0,154,0s35,3,51.4,8.8c16.3,5.8,31.7,14.4,45.5,25.5l0.2,0.1l0.2,0.2
		c2.4,1.7,4.8,3.6,7.1,5.5c2.3,2,4.5,4.1,6.5,6.3l2.3,2.6h38.8h2v2v94.8l0,0l-0.2,8.2v0c-2.1,40.9-20.1,77.3-47.8,103.5
		C232.4,284,195,300,154,300c-40.9,0-78.3-16-106-42.3C20.4,231.5,2.4,195,0.2,154.1L0.2,154.1z"/>
	<path class="st1" d="M27.6,145.5l0.2,7.5l0,0c1.8,33.4,16.6,63.3,39.3,84.8c22.7,21.5,53.4,34.6,86.9,34.6
		c33.5,0,64.2-13.1,86.9-34.6v0c22.7-21.5,37.5-51.3,39.3-84.7l0,0l0.2-7.5h0V76.6H256h-0.9l-0.6-0.7l-10-10.9
		c-1.3-1.5-2.8-2.8-4.3-4.2c-1.5-1.3-3.2-2.5-4.8-3.7l-0.9-0.7l-0.1-0.1l-0.9-0.7c-11.3-9.1-23.9-16.2-37.3-20.9
		c-13.4-4.7-27.6-7.2-42.2-7.2c-14.5,0-28.8,2.5-42.2,7.2c-13.4,4.7-26,11.8-37.3,20.9l-0.9,0.7l-0.1,0.1l-1,0.7l0,0
		c-1.7,1.2-3.3,2.4-4.8,3.7c-1.6,1.3-3,2.7-4.4,4.2L53.5,76l-0.6,0.7h-0.9H27.6L27.6,145.5L27.6,145.5L27.6,145.5z M23.9,153.2
		l-0.2-7.6l0,0V74.7v-2h2h25.6l9.4-10.3c1.5-1.6,3.1-3.1,4.7-4.5c1.7-1.4,3.4-2.7,5.1-3.9h0l0.9-0.6l0.8-0.6
		c11.6-9.4,24.6-16.7,38.4-21.6c13.8-4.9,28.5-7.4,43.5-7.4s29.7,2.5,43.5,7.4c13.8,4.9,26.8,12.1,38.5,21.6l0.8,0.6l0.9,0.7
		c1.7,1.2,3.5,2.5,5.1,3.9c1.6,1.4,3.2,2.9,4.7,4.5l9.4,10.3h25.6h2v2v70.8l0,0l-0.2,7.6v0.1c-1.9,34.5-17.1,65.3-40.6,87.4l0,0
		c-23.4,22.2-55,35.7-89.6,35.7c-34.6,0-66.2-13.5-89.6-35.7C41,218.5,25.8,187.7,23.9,153.2L23.9,153.2z"/>
	<path class="st2" d="M154,289.2c1.9,0,3.4-1.5,3.4-3.4c0-1.9-1.5-3.4-3.4-3.4c-1.9,0-3.4,1.5-3.4,3.4
		C150.7,287.7,152.2,289.2,154,289.2L154,289.2z M141.2,282c1.9,0,3.4,1.5,3.4,3.4c0,1.9-1.5,3.4-3.4,3.4c-1.9,0-3.4-1.5-3.4-3.4
		C137.8,283.5,139.3,282,141.2,282L141.2,282z M129.4,280.6c1.9,0,3.4,1.5,3.4,3.4c0,1.9-1.5,3.4-3.4,3.4c-1.9,0-3.4-1.5-3.4-3.4
		C126,282.1,127.5,280.6,129.4,280.6L129.4,280.6z M113.5,276.8c1.9,0,3.4,1.5,3.4,3.4c0,1.9-1.5,3.4-3.4,3.4
		c-1.9,0-3.4-1.5-3.4-3.4C110.1,278.3,111.6,276.8,113.5,276.8L113.5,276.8z M98.2,271.2c1.9,0,3.4,1.5,3.4,3.4
		c0,1.9-1.5,3.4-3.4,3.4c-1.9,0-3.4-1.5-3.4-3.4C94.8,272.7,96.3,271.2,98.2,271.2L98.2,271.2z M83.6,263.8c1.9,0,3.4,1.5,3.4,3.4
		c0,1.9-1.5,3.4-3.4,3.4c-1.9,0-3.4-1.5-3.4-3.4C80.2,265.3,81.7,263.8,83.6,263.8L83.6,263.8z M70,254.8c1.9,0,3.4,1.5,3.4,3.4
		c0,1.9-1.5,3.4-3.4,3.4c-1.9,0-3.4-1.5-3.4-3.4C66.6,256.3,68.1,254.8,70,254.8L70,254.8z M57.5,244.2c1.9,0,3.4,1.5,3.4,3.4
		c0,1.9-1.5,3.4-3.4,3.4c-1.9,0-3.4-1.5-3.4-3.4C54.1,245.7,55.6,244.2,57.5,244.2L57.5,244.2z M46.3,232.3c1.9,0,3.4,1.5,3.4,3.4
		c0,1.9-1.5,3.4-3.4,3.4c-1.9,0-3.4-1.5-3.4-3.4C42.9,233.8,44.4,232.3,46.3,232.3L46.3,232.3z M36.6,219.2c1.9,0,3.4,1.5,3.4,3.4
		c0,1.9-1.5,3.4-3.4,3.4c-1.9,0-3.4-1.5-3.4-3.4C33.2,220.7,34.7,219.2,36.6,219.2L36.6,219.2z M28.4,205c1.9,0,3.4,1.5,3.4,3.4
		c0,1.9-1.5,3.4-3.4,3.4c-1.9,0-3.4-1.5-3.4-3.4C25.1,206.5,26.6,205,28.4,205L28.4,205z M22,190c1.9,0,3.4,1.5,3.4,3.4
		c0,1.9-1.5,3.4-3.4,3.4c-1.9,0-3.4-1.5-3.4-3.4C18.6,191.5,20.1,190,22,190L22,190z M17.4,174.3c1.9,0,3.4,1.5,3.4,3.4
		c0,1.9-1.5,3.4-3.4,3.4c-1.9,0-3.4-1.5-3.4-3.4C14.1,175.8,15.6,174.3,17.4,174.3L17.4,174.3z M14.7,158.1c1.9,0,3.4,1.5,3.4,3.4
		c0,1.9-1.5,3.4-3.4,3.4c-1.9,0-3.4-1.5-3.4-3.4C11.3,159.7,12.8,158.1,14.7,158.1L14.7,158.1z M13.8,141.8c1.9,0,3.4,1.5,3.4,3.4
		c0,1.9-1.5,3.4-3.4,3.4c-1.9,0-3.4-1.5-3.4-3.4C10.4,143.3,12,141.8,13.8,141.8L13.8,141.8z M13.8,125.5c1.9,0,3.4,1.5,3.4,3.4
		c0,1.9-1.5,3.4-3.4,3.4c-1.9,0-3.4-1.5-3.4-3.4C10.4,127,12,125.5,13.8,125.5L13.8,125.5z M13.8,109.1c1.9,0,3.4,1.5,3.4,3.4
		c0,1.9-1.5,3.4-3.4,3.4c-1.9,0-3.4-1.5-3.4-3.4C10.4,110.6,12,109.1,13.8,109.1L13.8,109.1z M13.8,92.8c1.9,0,3.4,1.5,3.4,3.4
		c0,1.9-1.5,3.4-3.4,3.4c-1.9,0-3.4-1.5-3.4-3.4C10.4,94.3,12,92.8,13.8,92.8L13.8,92.8z M13.8,76.4c1.9,0,3.4,1.5,3.4,3.4
		c0,1.9-1.5,3.4-3.4,3.4c-1.9,0-3.4-1.5-3.4-3.4C10.4,77.9,12,76.4,13.8,76.4L13.8,76.4z M13.8,59.5c1.9,0,3.4,1.5,3.4,3.4
		c0,1.9-1.5,3.4-3.4,3.4c-1.9,0-3.4-1.5-3.4-3.4C10.4,61,12,59.5,13.8,59.5L13.8,59.5z M29.6,59.5c1.9,0,3.4,1.5,3.4,3.4
		c0,1.9-1.5,3.4-3.4,3.4c-1.9,0-3.4-1.5-3.4-3.4C26.2,61,27.7,59.5,29.6,59.5L29.6,59.5z M45.9,59.5c1.9,0,3.4,1.5,3.4,3.4
		c0,1.9-1.5,3.4-3.4,3.4c-1.9,0-3.4-1.5-3.4-3.4C42.6,61,44.1,59.5,45.9,59.5L45.9,59.5z M57.5,48.3c1.9,0,3.4,1.5,3.4,3.4
		c0,1.9-1.5,3.4-3.4,3.4c-1.9,0-3.4-1.5-3.4-3.4C54.1,49.8,55.6,48.3,57.5,48.3L57.5,48.3z M70.3,38.2c1.9,0,3.4,1.5,3.4,3.4
		c0,1.9-1.5,3.4-3.4,3.4S67,43.4,67,41.5C67,39.7,68.5,38.2,70.3,38.2L70.3,38.2z M84,29.2c1.9,0,3.4,1.5,3.4,3.4
		c0,1.9-1.5,3.4-3.4,3.4c-1.9,0-3.4-1.5-3.4-3.4C80.6,30.7,82.1,29.2,84,29.2L84,29.2z M98.6,21.8c1.9,0,3.4,1.5,3.4,3.4
		c0,1.9-1.5,3.4-3.4,3.4c-1.9,0-3.4-1.5-3.4-3.4C95.2,23.4,96.7,21.8,98.6,21.8L98.6,21.8z M114,16.3c1.9,0,3.4,1.5,3.4,3.4
		c0,1.9-1.5,3.4-3.4,3.4c-1.9,0-3.4-1.5-3.4-3.4C110.6,17.8,112.1,16.3,114,16.3L114,16.3z M133.2,12c1.9,0,3.4,1.5,3.4,3.4
		c0,1.9-1.5,3.4-3.4,3.4c-1.9,0-3.4-1.5-3.4-3.4C129.8,13.5,131.3,12,133.2,12L133.2,12z M154,17.2c-1.9,0-3.4-1.5-3.4-3.4
		c0-1.9,1.5-3.4,3.4-3.4c1.9,0,3.4,1.5,3.4,3.4C157.4,15.7,155.9,17.2,154,17.2L154,17.2z M166.9,282c-1.9,0-3.4,1.5-3.4,3.4
		c0,1.9,1.5,3.4,3.4,3.4c1.9,0,3.4-1.5,3.4-3.4C170.3,283.5,168.8,282,166.9,282L166.9,282z M178.7,280.6c-1.9,0-3.4,1.5-3.4,3.4
		c0,1.9,1.5,3.4,3.4,3.4c1.9,0,3.4-1.5,3.4-3.4C182,282.1,180.5,280.6,178.7,280.6L178.7,280.6z M194.6,276.8
		c-1.9,0-3.4,1.5-3.4,3.4c0,1.9,1.5,3.4,3.4,3.4c1.9,0,3.4-1.5,3.4-3.4C198,278.3,196.4,276.8,194.6,276.8L194.6,276.8z
		 M209.9,271.2c-1.9,0-3.4,1.5-3.4,3.4c0,1.9,1.5,3.4,3.4,3.4c1.9,0,3.4-1.5,3.4-3.4C213.3,272.7,211.8,271.2,209.9,271.2
		L209.9,271.2z M224.5,263.8c-1.9,0-3.4,1.5-3.4,3.4c0,1.9,1.5,3.4,3.4,3.4c1.9,0,3.4-1.5,3.4-3.4
		C227.9,265.3,226.4,263.8,224.5,263.8L224.5,263.8z M238.1,254.8c-1.9,0-3.4,1.5-3.4,3.4c0,1.9,1.5,3.4,3.4,3.4
		c1.9,0,3.4-1.5,3.4-3.4C241.5,256.3,240,254.8,238.1,254.8L238.1,254.8z M250.6,244.2c-1.9,0-3.4,1.5-3.4,3.4
		c0,1.9,1.5,3.4,3.4,3.4c1.9,0,3.4-1.5,3.4-3.4C254,245.7,252.5,244.2,250.6,244.2L250.6,244.2z M261.8,232.3
		c-1.9,0-3.4,1.5-3.4,3.4c0,1.9,1.5,3.4,3.4,3.4c1.9,0,3.4-1.5,3.4-3.4C265.1,233.8,263.6,232.3,261.8,232.3L261.8,232.3z
		 M271.5,219.2c-1.9,0-3.4,1.5-3.4,3.4c0,1.9,1.5,3.4,3.4,3.4c1.9,0,3.4-1.5,3.4-3.4C274.9,220.7,273.4,219.2,271.5,219.2
		L271.5,219.2z M279.6,205c-1.9,0-3.4,1.5-3.4,3.4c0,1.9,1.5,3.4,3.4,3.4c1.9,0,3.4-1.5,3.4-3.4C283,206.5,281.5,205,279.6,205
		L279.6,205z M286.1,190c-1.9,0-3.4,1.5-3.4,3.4c0,1.9,1.5,3.4,3.4,3.4c1.9,0,3.4-1.5,3.4-3.4C289.4,191.5,287.9,190,286.1,190
		L286.1,190z M290.6,174.3c-1.9,0-3.4,1.5-3.4,3.4c0,1.9,1.5,3.4,3.4,3.4c1.9,0,3.4-1.5,3.4-3.4C294,175.8,292.5,174.3,290.6,174.3
		L290.6,174.3z M293.4,158.1c-1.9,0-3.4,1.5-3.4,3.4c0,1.9,1.5,3.4,3.4,3.4c1.9,0,3.4-1.5,3.4-3.4
		C296.8,159.7,295.2,158.1,293.4,158.1L293.4,158.1z M294.3,141.8c-1.9,0-3.4,1.5-3.4,3.4c0,1.9,1.5,3.4,3.4,3.4
		c1.9,0,3.4-1.5,3.4-3.4C297.6,143.3,296.1,141.8,294.3,141.8L294.3,141.8z M294.3,125.5c-1.9,0-3.4,1.5-3.4,3.4
		c0,1.9,1.5,3.4,3.4,3.4c1.9,0,3.4-1.5,3.4-3.4C297.6,127,296.1,125.5,294.3,125.5L294.3,125.5z M294.3,109.1
		c-1.9,0-3.4,1.5-3.4,3.4c0,1.9,1.5,3.4,3.4,3.4c1.9,0,3.4-1.5,3.4-3.4C297.6,110.6,296.1,109.1,294.3,109.1L294.3,109.1z
		 M294.3,92.8c-1.9,0-3.4,1.5-3.4,3.4c0,1.9,1.5,3.4,3.4,3.4c1.9,0,3.4-1.5,3.4-3.4C297.6,94.3,296.1,92.8,294.3,92.8L294.3,92.8z
		 M294.3,76.4c-1.9,0-3.4,1.5-3.4,3.4c0,1.9,1.5,3.4,3.4,3.4c1.9,0,3.4-1.5,3.4-3.4C297.6,77.9,296.1,76.4,294.3,76.4L294.3,76.4z
		 M294.3,59.5c-1.9,0-3.4,1.5-3.4,3.4c0,1.9,1.5,3.4,3.4,3.4c1.9,0,3.4-1.5,3.4-3.4C297.6,61,296.1,59.5,294.3,59.5L294.3,59.5z
		 M278.5,59.5c-1.9,0-3.4,1.5-3.4,3.4c0,1.9,1.5,3.4,3.4,3.4c1.9,0,3.4-1.5,3.4-3.4C281.9,61,280.4,59.5,278.5,59.5L278.5,59.5z
		 M262.1,59.5c-1.9,0-3.4,1.5-3.4,3.4c0,1.9,1.5,3.4,3.4,3.4c1.9,0,3.4-1.5,3.4-3.4C265.5,61,264,59.5,262.1,59.5L262.1,59.5z
		 M250.6,48.3c-1.9,0-3.4,1.5-3.4,3.4c0,1.9,1.5,3.4,3.4,3.4c1.9,0,3.4-1.5,3.4-3.4C254,49.8,252.5,48.3,250.6,48.3L250.6,48.3z
		 M237.7,38.2c-1.9,0-3.4,1.5-3.4,3.4c0,1.9,1.5,3.4,3.4,3.4c1.9,0,3.4-1.5,3.4-3.4C241.1,39.7,239.6,38.2,237.7,38.2L237.7,38.2z
		 M224.1,29.2c-1.9,0-3.4,1.5-3.4,3.4c0,1.9,1.5,3.4,3.4,3.4c1.9,0,3.4-1.5,3.4-3.4C227.5,30.7,225.9,29.2,224.1,29.2L224.1,29.2z
		 M209.5,21.8c-1.9,0-3.4,1.5-3.4,3.4c0,1.9,1.5,3.4,3.4,3.4s3.4-1.5,3.4-3.4C212.9,23.4,211.3,21.8,209.5,21.8L209.5,21.8z
		 M194.1,16.3c-1.9,0-3.4,1.5-3.4,3.4c0,1.9,1.5,3.4,3.4,3.4c1.9,0,3.4-1.5,3.4-3.4C197.5,17.8,196,16.3,194.1,16.3L194.1,16.3z
		 M174.9,12c-1.9,0-3.4,1.5-3.4,3.4c0,1.9,1.5,3.4,3.4,3.4c1.9,0,3.4-1.5,3.4-3.4C178.3,13.5,176.7,12,174.9,12z"/>
	<g>
		<path class="st3" d="M47.6,137.1c-1.4,0-2.7-0.5-3.7-1.5c-1-1-1.5-2.3-1.5-3.7c0-1.4,0.5-2.6,1.5-3.7c1-1,2.2-1.5,3.7-1.5
			c1.4,0,2.6,0.5,3.6,1.5c1,1,1.6,2.2,1.6,3.7c0,1.5-0.5,2.7-1.6,3.7C50.3,136.6,49,137.1,47.6,137.1z"/>
		<path class="st3" d="M83.9,131.5c0,3-1.4,4.4-4.1,4.4h-6.4v-18.4c0-1.8-0.5-3-1.5-3.6c-1-0.6-3.2-0.9-6.6-0.9
			c-2.5,0-4.4,0.3-5.7,0.9c-0.9,0.4-1.8,1.2-2.4,2.3h-0.5v-7.2c0-1.3,0.7-2.3,2.1-2.8c2.2-0.8,5.3-1.3,9.3-1.3
			c5.9,0,10,0.8,12.3,2.3c2.3,1.5,3.5,4.4,3.5,8.5V131.5z M68.3,118.7c-0.8,0.9-1.2,2-1.2,3.3v9.5c0,2.9-1.4,4.4-4.2,4.4h-6.4v-11.9
			c0-3.9,1.7-5.9,5.2-5.9h6.6V118.7z"/>
		<path class="st3" d="M103.9,132.1c0,2.6-1.3,3.9-3.9,3.9H87v-4.9c0-2.2,1.2-3.4,3.5-3.4h2.9V116c0-1.8-0.9-2.6-2.7-2.6
			c-1.4,0-2.4,0.4-3.1,1.3h-0.4V109c0-1.2,0.3-2,1-2.6c1-0.7,3-1.1,5.7-1.1h0.2c3,0,5.2,0.5,6.7,1.5c2,1.4,3.1,3.8,3.1,7.4V132.1z"
			/>
		<path class="st3" d="M132.2,120.6c0,10.4-5,15.6-15.1,15.6H117c-3.5,0-6.2-0.5-8-1.4c-1-0.6-1.6-1.4-1.6-2.4v-6.4h0.5
			c1.2,1.4,3.3,2.1,6.2,2.1c3,0,5-0.5,6-1.5c1-1,1.4-3,1.4-6.1c0-3.1-0.5-5.1-1.6-6.1c-1-0.8-2.8-1.2-5.7-1.2
			c-3.1,0-5.3,0.9-6.4,2.6h-0.5v-6.8c0-0.7,0.1-1.2,0.3-1.5c0.2-0.3,0.7-0.7,1.6-1.1c1.6-0.8,4.1-1.2,7.5-1.2c5.7,0,9.7,1.1,12,3.4
			C131.1,110.7,132.2,114.7,132.2,120.6z"/>
		<path class="st3" d="M162.6,131.5c0,3-1.4,4.4-4.1,4.4h-6.4v-18.4c0-1.8-0.5-3-1.5-3.6c-1-0.6-3.2-0.9-6.6-0.9
			c-2.5,0-4.4,0.3-5.7,0.9c-0.9,0.4-1.8,1.2-2.4,2.3h-0.5v-7.2c0-1.3,0.7-2.3,2.1-2.8c2.2-0.8,5.3-1.3,9.3-1.3
			c5.9,0,10,0.8,12.3,2.3c2.3,1.5,3.5,4.4,3.5,8.5V131.5z M147.1,118.7c-0.8,0.9-1.2,2-1.2,3.3v9.5c0,2.9-1.4,4.4-4.2,4.4h-6.4
			v-11.9c0-3.9,1.7-5.9,5.2-5.9h6.6V118.7z"/>
		<path class="st3" d="M189.8,121.8c0,4.8-1.4,8.5-4.2,11c-2.5,2.3-5.6,3.4-9.4,3.4h-0.2c-1.8,0-3.3-0.3-4.4-0.8
			c-0.7-0.4-1.1-0.9-1.1-1.5v-6.6h0.2c0.9,0.6,1.9,0.9,3.1,0.9c3.7,0,5.6-2.1,5.6-6.2v-8.4h-12.6c-0.9,0-1.3-0.5-1.3-1.5v-11
			c0-0.7-0.3-1.9-0.8-3.6v-0.3h8.3c1.8,0,2.7,1.1,2.7,3.4v4.9h10.2c1.3,0,2.3,0.2,2.8,0.6c0.7,0.6,1,1.6,1,3.3V121.8z"/>
		<path class="st3" d="M232,121.8c0,4.8-1.4,8.5-4.2,11c-2.5,2.3-5.6,3.4-9.4,3.4h-0.2c-1.8,0-3.3-0.3-4.4-0.8
			c-0.7-0.4-1.1-0.9-1.1-1.5v-6.6h0.2c0.9,0.6,1.9,0.9,3.1,0.9c3.7,0,5.6-2.1,5.6-6.2v-8.4H209c-0.9,0-1.3-0.5-1.3-1.5v-11
			c0-0.7-0.3-1.9-0.8-3.6v-0.3h8.3c1.8,0,2.7,1.1,2.7,3.4v4.9h10.2c1.3,0,2.3,0.2,2.8,0.6c0.7,0.6,1,1.6,1,3.3V121.8z"/>
		<path class="st3" d="M264.2,123.3c0,3.9-1,7-2.9,9.3c-1.9,2.2-4.6,3.4-7.9,3.4h-0.2c-1.5,0-2.6-0.3-3.5-0.8
			c-0.8-0.5-1.3-1.2-1.3-1.9v-5.7c0.5,0.6,1.1,0.9,1.9,0.9c0.8,0,1.6-0.3,2.3-0.9c0.7-0.6,1-1.5,1-2.6v-11.2h-13.5
			c-2.2,0-3.8,0.6-4.7,1.7h-0.4v-6.9c0-1.2,0.4-2.1,1.1-2.5c0.5-0.3,1.4-0.5,2.8-0.5h22.2c2,0,3,1,3,3.1V123.3z M248,117.7
			c-1.3,0.9-1.9,2.4-1.9,4.6v21.8c0,2.9-1.4,4.4-4.1,4.4h-5.9v-25.7c0-2,0.3-3.4,0.9-4.2c0.7-1,1.9-1.5,3.6-1.5h7.4V117.7z"/>
	</g>
	<g>
		<path class="st3" d="M97,199c-1.4,0-2.7-0.5-3.7-1.5c-1-1-1.5-2.3-1.5-3.7c0-1.4,0.5-2.6,1.5-3.7c1-1,2.2-1.5,3.7-1.5
			c1.4,0,2.6,0.5,3.6,1.5c1,1,1.6,2.2,1.6,3.7c0,1.5-0.5,2.7-1.6,3.7C99.6,198.5,98.4,199,97,199z"/>
		<path class="st3" d="M135.2,193.4c0,3-1.4,4.4-4.1,4.4h-24.9v-15.2c0-1.9,0.4-3.3,1.3-4.3c0.8-0.9,2-1.7,3.7-2.3v-0.8
			c-2.3,0.1-3.9,0.7-4.8,1.6H106v-6.1c0-1.4,0.5-2.3,1.6-2.7c2.5-0.8,6.6-1.2,12.2-1.2c5.7,0,9.7,0.7,11.8,2
			c2.4,1.5,3.6,4.4,3.6,8.7V193.4z M124.7,177.8c0-0.6-0.1-1.1-0.3-1.5c-0.2-0.4-0.5-0.7-0.8-0.9c-0.4-0.2-0.9-0.4-1.5-0.5
			c-0.6-0.1-1.4-0.2-2.2-0.2h-0.4c-0.8,0-1.6,0.1-2.4,0.4c-0.2,0.1-0.3,0.3-0.3,0.6V190h7.9V177.8z"/>
		<path class="st3" d="M149.6,183c0,3-1.4,4.4-4.3,4.4h-6.1V172c0-2-0.7-3.3-2-3.9v-0.6h8.3c1.4,0,2.4,0.3,3,0.8
			c0.7,0.7,1.1,1.9,1.1,3.6V183z"/>
		<path class="st3" d="M181.4,181c0,6.6-2.1,11.4-6.3,14.4c-3.2,2.3-7.6,3.5-13.3,3.5c-3.6,0-6.1-0.2-7.4-0.7
			c-1.6-0.6-2.4-1.3-2.4-2.2v-6.6l0.3-0.1c0.9,1.5,2.8,2.2,5.4,2.2c0.8,0,1-0.4,0.9-1.2l-4.3-17.4c-0.7-2.7-1.5-4.3-2.5-4.7v-0.6
			h9.1c1.9,0,3.1,1.1,3.6,3.2l2.4,10.1c0.3,1.4,0.4,2.7,0.4,3.8c0,3.3-1.4,5.3-4.1,6.1l0.2,0.8c5.1,0,7.6-2.6,7.6-7.9v-10.8
			c0-2.5-0.8-4-2.3-4.5v-0.6h8.6c1.4,0,2.4,0.3,3.1,0.8c0.7,0.7,1.1,1.9,1.1,3.6V181z"/>
		<path class="st3" d="M215.2,182.3c0,10.6-5.1,16-15.4,16c-9.6,0-14.5-4.9-14.5-14.8V172c0-2-0.6-3.3-1.8-3.9v-0.6h8.4
			c2.6,0,3.9,1.5,3.9,4.4v11.8c0,2.8,0.3,4.6,0.9,5.4c0.6,0.9,1.7,1.3,3.4,1.3c1.5,0,2.6-0.5,3.3-1.6c0.7-1.1,1-3,1-5.7v-0.1
			c0-1.3,0-2.3-0.1-3.1c0-0.8-0.1-1.4-0.2-1.8c-0.4-2.1-1.3-3.1-2.8-3.1c-1,0-1.8,0.6-2.5,1.8h-0.4v-6c0-0.9,0.5-1.7,1.4-2.4
			c0.9-0.7,2.4-1,4.6-1c2.9,0,5.1,0.5,6.6,1.7c1.6,1.1,2.7,3,3.5,5.6c0.5,1.9,0.7,4.5,0.7,7.8V182.3z"/>
	</g>
	<g>
		<path class="st3" d="M102.3,250.9c-1.4,0-2.7-0.5-3.7-1.5c-1-1-1.5-2.3-1.5-3.7c0-1.4,0.5-2.6,1.5-3.7c1-1,2.2-1.5,3.7-1.5
			c1.4,0,2.6,0.5,3.6,1.5c1,1,1.6,2.2,1.6,3.7c0,1.5-0.5,2.7-1.6,3.7C104.9,250.4,103.7,250.9,102.3,250.9z"/>
		<path class="st3" d="M131.2,249.7c-1.7-2.9-5.1-8.1-10.2-15.5c-0.3,0.5-0.4,0.9-0.4,1.4v5.8c0,0.8,0.4,1.3,1.3,1.3
			c0.4,0,0.9-0.2,1.6-0.6h0.2v3.8c0,1.3-0.3,2.3-0.8,2.9c-0.6,0.8-2.5,1.2-5.6,1.2h-0.1c-2.4,0-4-0.6-5-1.7c-1-1.1-1.4-3-1.4-5.6
			v-4.3c0-1.9,0.6-3.5,1.7-4.8c0.4-0.4,1-1,1.9-1.6c0.8-0.6,1.9-1.4,3.3-2.2c-1.6-2.1-3.1-3.1-4.6-3.1c-0.8,0-1.4,0.2-1.8,0.6h-0.4
			v-4.8c0-2.3,1.7-3.4,5.1-3.4c2.3,0,4.1,0.4,5.4,1.1c1.2,0.7,2.6,2,4,4.1c0.9,1.3,2.5,3.6,4.6,6.8c0.2-0.4,0.3-1,0.3-1.8v-3.6
			c0-2.9-0.8-4.8-2.3-5.6v-0.6h8.2c2.8,0,4.2,1.8,4.2,5.4v2.2c0,2-0.6,3.6-1.8,5c-0.4,0.5-1.1,1.1-1.9,1.8c-0.8,0.7-1.9,1.5-3.1,2.3
			l6.8,9.7c0.3,0.5,0.5,1.1,0.5,1.7c0,1.5-0.8,2.2-2.4,2.2H131.2z"/>
		<path class="st3" d="M154.3,234.8c0,3-1.4,4.4-4.3,4.4h-6.1v-15.4c0-2-0.7-3.3-2-3.9v-0.6h8.3c1.4,0,2.4,0.3,3,0.8
			c0.7,0.7,1.1,1.9,1.1,3.6V234.8z"/>
		<path class="st3" d="M180.9,245.6c0,2.7-1.3,4.1-4,4.1h-6.5V232c0-1.9-0.4-3.2-1.1-3.9c-0.9-0.8-2.6-1.2-5.1-1.2
			c-3.6,0-5.8,0.9-6.6,2.6h-0.4v-6.9c0-1.3,0.8-2.3,2.4-2.8c1.9-0.6,4.6-0.9,8.1-0.9c4.9,0,8.4,0.8,10.3,2.4c2,1.6,3,4.4,3,8.4
			V245.6z"/>
		<path class="st3" d="M210.5,244.4c0,1.7-0.2,2.9-0.5,3.7c-0.5,1-1.6,1.6-3.3,1.6H184v-3.9c0-0.8,0.1-1.5,0.2-2
			c0.1-0.5,0.3-1,0.6-1.3c0.3-0.3,0.7-0.6,1.2-0.7c0.5-0.2,1.1-0.2,1.8-0.2h6.4c1.5,0,2.6-0.5,3.1-1.7c0.4-0.7,0.6-2,0.6-3.7v-4.2
			c0-2-0.4-3.4-1.2-4c-0.9-0.8-2.8-1.1-5.7-1.1c-3.4,0-5.5,0.9-6.3,2.6h-0.4v-6.9c0-1.1,0.7-2,2.1-2.7c1.4-0.7,4.3-1,8.7-1
			c5.1,0,8.6,0.8,10.6,2.4c2,1.6,3,4.6,3,8.8v2.4c0,4.6-1.8,7.3-5.4,8.3v0.8h3.5c1.5,0,2.7-0.5,3.3-1.4h0.4V244.4z"/>
	</g>
	<polygon class="st4" points="43.9,155.9 265.6,155.9 265.6,158.3 43.9,158.3 43.9,155.9 	"/>
	<rect x="61.2" y="207.1" class="st4" width="187" height="2.4"/>
	<path class="st2" d="M187.6,79.8H154h-33.5l2.2,5.4H154h31.4L187.6,79.8L187.6,79.8z M134.3,54.1c-1.6,0-2.9,1.3-2.9,2.9
		c0,0.9,0.4,1.6,1,2.2l-3.2,3.6l-16.5-9.7c0.4-0.7,0.6-1.4,0.6-2.3c0-2.5-2-4.5-4.5-4.5c-2.5,0-4.5,2-4.5,4.5c0,2.5,2,4.5,4.5,4.5
		c0.6,0,1.1-0.1,1.7-0.3l3.1,7.9l2.2,5.5l2.4,6.1H154h35.7l2.4-6.1l2.2-5.5l3.1-7.9c0.5,0.2,1.1,0.3,1.7,0.3c2.5,0,4.5-2,4.5-4.5
		c0-2.5-2-4.5-4.5-4.5c-2.5,0-4.5,2-4.5,4.5c0,0.8,0.2,1.6,0.6,2.3l-16.5,9.7l-3.2-3.6c0.6-0.5,1-1.3,1-2.2c0-1.6-1.3-2.9-2.9-2.9
		c-1.6,0-2.9,1.3-2.9,2.9c0,0.5,0.1,1,0.4,1.4l-7.8,4.4l-7-13c1.6-0.8,2.6-2.5,2.6-4.4c0-2.8-2.2-5-5-5c-2.8,0-5,2.2-5,5
		c0,1.9,1.1,3.6,2.6,4.4l-7,13l-7.8-4.4c0.2-0.4,0.4-0.9,0.4-1.4C137.2,55.4,135.9,54.1,134.3,54.1z"/>
</g>
</svg>
