<?xml version="1.0" encoding="utf-8"?>
<!-- Generator: Adobe Illustrator 19.2.1, SVG Export Plug-In . SVG Version: 6.00 Build 0)  -->
<svg version="1.1" id="Layer_1" xmlns="http://www.w3.org/2000/svg" xmlns:xlink="http://www.w3.org/1999/xlink" x="0px" y="0px"
	 viewBox="0 0 223.2 153.7" style="enable-background:new 0 0 223.2 153.7;" xml:space="preserve">
<style type="text/css">
	.st0{fill:#FFFFFF;}
	.st1{opacity:0.5;fill:#FFFFFF;enable-background:new    ;}
</style>
<g>
	<path class="st0" d="M5.2,39.9c-1.4,0-2.7-0.5-3.7-1.5S0,36.1,0,34.7s0.5-2.6,1.5-3.7c1-1,2.2-1.5,3.7-1.5c1.4,0,2.6,0.5,3.6,1.5
		s1.6,2.2,1.6,3.7s-0.5,2.7-1.6,3.7C7.9,39.4,6.6,39.9,5.2,39.9z"/>
	<path class="st0" d="M41.5,34.3c0,3-1.4,4.4-4.1,4.4H31V20.3c0-1.8-0.5-3-1.5-3.6s-3.2-0.9-6.6-0.9c-2.5,0-4.4,0.3-5.7,0.9
		c-0.9,0.4-1.8,1.2-2.4,2.3h-0.5v-7.2c0-1.3,0.7-2.3,2.1-2.8c2.2-0.8,5.3-1.3,9.3-1.3c5.9,0,10,0.8,12.3,2.3s3.5,4.4,3.5,8.5V34.3z
		 M25.9,21.5c-0.8,0.9-1.2,2-1.2,3.3v9.5c0,2.9-1.4,4.4-4.2,4.4h-6.4V26.8c0-3.9,1.7-5.9,5.2-5.9h6.6V21.5z"/>
	<path class="st0" d="M61.5,34.9c0,2.6-1.3,3.9-3.9,3.9h-13v-4.9c0-2.2,1.2-3.4,3.5-3.4H51V18.8c0-1.8-0.9-2.6-2.7-2.6
		c-1.4,0-2.4,0.4-3.1,1.3h-0.4v-5.7c0-1.2,0.3-2,1-2.6c1-0.7,3-1.1,5.7-1.1h0.2c3,0,5.2,0.5,6.7,1.5c2,1.4,3.1,3.8,3.1,7.4
		C61.5,17,61.5,34.9,61.5,34.9z"/>
	<path class="st0" d="M89.8,23.4c0,10.4-5,15.6-15.1,15.6h-0.1c-3.5,0-6.2-0.5-8-1.4c-1-0.6-1.6-1.4-1.6-2.4v-6.4h0.5
		c1.2,1.4,3.3,2.1,6.2,2.1c3,0,5-0.5,6-1.5s1.4-3,1.4-6.1s-0.5-5.1-1.6-6.1c-1-0.8-2.8-1.2-5.7-1.2c-3.1,0-5.3,0.9-6.4,2.6h-0.5
		v-6.8c0-0.7,0.1-1.2,0.3-1.5c0.2-0.3,0.7-0.7,1.6-1.1C68.4,8.4,70.9,8,74.3,8c5.7,0,9.7,1.1,12,3.4C88.7,13.5,89.8,17.5,89.8,23.4z
		"/>
	<path class="st0" d="M120.2,34.3c0,3-1.4,4.4-4.1,4.4h-6.4V20.3c0-1.8-0.5-3-1.5-3.6s-3.2-0.9-6.6-0.9c-2.5,0-4.4,0.3-5.7,0.9
		c-0.9,0.4-1.8,1.2-2.4,2.3H93v-7.2c0-1.3,0.7-2.3,2.1-2.8c2.2-0.8,5.3-1.3,9.3-1.3c5.9,0,10,0.8,12.3,2.3s3.5,4.4,3.5,8.5
		L120.2,34.3L120.2,34.3z M104.7,21.5c-0.8,0.9-1.2,2-1.2,3.3v9.5c0,2.9-1.4,4.4-4.2,4.4h-6.4V26.8c0-3.9,1.7-5.9,5.2-5.9h6.6
		L104.7,21.5L104.7,21.5z"/>
	<path class="st0" d="M147.4,24.6c0,4.8-1.4,8.5-4.2,11c-2.5,2.3-5.6,3.4-9.4,3.4h-0.2c-1.8,0-3.3-0.3-4.4-0.8
		c-0.7-0.4-1.1-0.9-1.1-1.5v-6.6h0.2c0.9,0.6,1.9,0.9,3.1,0.9c3.7,0,5.6-2.1,5.6-6.2v-8.4h-12.6c-0.9,0-1.3-0.5-1.3-1.5v-11
		c0-0.7-0.3-1.9-0.8-3.6V0h8.3c1.8,0,2.7,1.1,2.7,3.4v4.9h10.2c1.3,0,2.3,0.2,2.8,0.6c0.7,0.6,1,1.6,1,3.3L147.4,24.6L147.4,24.6z"
		/>
	<path class="st0" d="M189.6,24.6c0,4.8-1.4,8.5-4.2,11c-2.5,2.3-5.6,3.4-9.4,3.4h-0.2c-1.8,0-3.3-0.3-4.4-0.8
		c-0.7-0.4-1.1-0.9-1.1-1.5v-6.6h0.2c0.9,0.6,1.9,0.9,3.1,0.9c3.7,0,5.6-2.1,5.6-6.2v-8.4h-12.6c-0.9,0-1.3-0.5-1.3-1.5v-11
		c0-0.7-0.3-1.9-0.8-3.6V0h8.3c1.8,0,2.7,1.1,2.7,3.4v4.9h10.2c1.3,0,2.3,0.2,2.8,0.6c0.7,0.6,1,1.6,1,3.3v12.4H189.6z"/>
	<path class="st0" d="M221.8,26.1c0,3.9-1,7-2.9,9.3c-1.9,2.2-4.6,3.4-7.9,3.4h-0.2c-1.5,0-2.6-0.3-3.5-0.8
		c-0.8-0.5-1.3-1.2-1.3-1.9v-5.7c0.5,0.6,1.1,0.9,1.9,0.9c0.8,0,1.6-0.3,2.3-0.9s1-1.5,1-2.6V16.6h-13.5c-2.2,0-3.8,0.6-4.7,1.7
		h-0.4v-6.9c0-1.2,0.4-2.1,1.1-2.5c0.5-0.3,1.4-0.5,2.8-0.5h22.2c2,0,3,1,3,3.1L221.8,26.1L221.8,26.1z M205.6,20.5
		c-1.3,0.9-1.9,2.4-1.9,4.6v21.8c0,2.9-1.4,4.4-4.1,4.4h-5.9V25.6c0-2,0.3-3.4,0.9-4.2c0.7-1,1.9-1.5,3.6-1.5h7.4V20.5z"/>
</g>
<g>
	<path class="st0" d="M54.6,101.8c-1.4,0-2.7-0.5-3.7-1.5s-1.5-2.3-1.5-3.7s0.5-2.6,1.5-3.7c1-1,2.2-1.5,3.7-1.5
		c1.4,0,2.6,0.5,3.6,1.5s1.6,2.2,1.6,3.7s-0.5,2.7-1.6,3.7C57.2,101.3,56,101.8,54.6,101.8z"/>
	<path class="st0" d="M92.8,96.2c0,3-1.4,4.4-4.1,4.4H63.8V85.4c0-1.9,0.4-3.3,1.3-4.3c0.8-0.9,2-1.7,3.7-2.3V78
		c-2.3,0.1-3.9,0.7-4.8,1.6h-0.4v-6.1c0-1.4,0.5-2.3,1.6-2.7c2.5-0.8,6.6-1.2,12.2-1.2c5.7,0,9.7,0.7,11.8,2
		c2.4,1.5,3.6,4.4,3.6,8.7V96.2z M82.3,80.6c0-0.6-0.1-1.1-0.3-1.5s-0.5-0.7-0.8-0.9c-0.4-0.2-0.9-0.4-1.5-0.5
		c-0.6-0.1-1.4-0.2-2.2-0.2h-0.4c-0.8,0-1.6,0.1-2.4,0.4c-0.2,0.1-0.3,0.3-0.3,0.6v14.3h7.9C82.3,92.8,82.3,80.6,82.3,80.6z"/>
	<path class="st0" d="M107.2,85.8c0,3-1.4,4.4-4.3,4.4h-6.1V74.8c0-2-0.7-3.3-2-3.9v-0.6h8.3c1.4,0,2.4,0.3,3,0.8
		c0.7,0.7,1.1,1.9,1.1,3.6V85.8z"/>
	<path class="st0" d="M139,83.8c0,6.6-2.1,11.4-6.3,14.4c-3.2,2.3-7.6,3.5-13.3,3.5c-3.6,0-6.1-0.2-7.4-0.7
		c-1.6-0.6-2.4-1.3-2.4-2.2v-6.6l0.3-0.1c0.9,1.5,2.8,2.2,5.4,2.2c0.8,0,1-0.4,0.9-1.2l-4.3-17.4c-0.7-2.7-1.5-4.3-2.5-4.7v-0.6h9.1
		c1.9,0,3.1,1.1,3.6,3.2l2.4,10.1c0.3,1.4,0.4,2.7,0.4,3.8c0,3.3-1.4,5.3-4.1,6.1l0.2,0.8c5.1,0,7.6-2.6,7.6-7.9V75.7
		c0-2.5-0.8-4-2.3-4.5v-0.6h8.6c1.4,0,2.4,0.3,3.1,0.8c0.7,0.7,1.1,1.9,1.1,3.6v8.8H139z"/>
	<path class="st0" d="M172.8,85.1c0,10.6-5.1,16-15.4,16c-9.6,0-14.5-4.9-14.5-14.8V74.8c0-2-0.6-3.3-1.8-3.9v-0.6h8.4
		c2.6,0,3.9,1.5,3.9,4.4v11.8c0,2.8,0.3,4.6,0.9,5.4c0.6,0.9,1.7,1.3,3.4,1.3c1.5,0,2.6-0.5,3.3-1.6s1-3,1-5.7v-0.1
		c0-1.3,0-2.3-0.1-3.1c0-0.8-0.1-1.4-0.2-1.8c-0.4-2.1-1.3-3.1-2.8-3.1c-1,0-1.8,0.6-2.5,1.8H156v-6c0-0.9,0.5-1.7,1.4-2.4
		s2.4-1,4.6-1c2.9,0,5.1,0.5,6.6,1.7c1.6,1.1,2.7,3,3.5,5.6c0.5,1.9,0.7,4.5,0.7,7.8L172.8,85.1L172.8,85.1z"/>
</g>
<g>
	<path class="st0" d="M59.9,153.7c-1.4,0-2.7-0.5-3.7-1.5s-1.5-2.3-1.5-3.7s0.5-2.6,1.5-3.7c1-1,2.2-1.5,3.7-1.5
		c1.4,0,2.6,0.5,3.6,1.5c1,1,1.6,2.2,1.6,3.7s-0.5,2.7-1.6,3.7C62.5,153.2,61.3,153.7,59.9,153.7z"/>
	<path class="st0" d="M88.8,152.5c-1.7-2.9-5.1-8.1-10.2-15.5c-0.3,0.5-0.4,0.9-0.4,1.4v5.8c0,0.8,0.4,1.3,1.3,1.3
		c0.4,0,0.9-0.2,1.6-0.6h0.2v3.8c0,1.3-0.3,2.3-0.8,2.9c-0.6,0.8-2.5,1.2-5.6,1.2h-0.1c-2.4,0-4-0.6-5-1.7c-1-1.1-1.4-3-1.4-5.6
		v-4.3c0-1.9,0.6-3.5,1.7-4.8c0.4-0.4,1-1,1.9-1.6c0.8-0.6,1.9-1.4,3.3-2.2c-1.6-2.1-3.1-3.1-4.6-3.1c-0.8,0-1.4,0.2-1.8,0.6h-0.4
		v-4.8c0-2.3,1.7-3.4,5.1-3.4c2.3,0,4.1,0.4,5.4,1.1c1.2,0.7,2.6,2,4,4.1c0.9,1.3,2.5,3.6,4.6,6.8c0.2-0.4,0.3-1,0.3-1.8v-3.6
		c0-2.9-0.8-4.8-2.3-5.6v-0.6h8.2c2.8,0,4.2,1.8,4.2,5.4v2.2c0,2-0.6,3.6-1.8,5c-0.4,0.5-1.1,1.1-1.9,1.8c-0.8,0.7-1.9,1.5-3.1,2.3
		l6.8,9.7c0.3,0.5,0.5,1.1,0.5,1.7c0,1.5-0.8,2.2-2.4,2.2L88.8,152.5L88.8,152.5z"/>
	<path class="st0" d="M111.9,137.6c0,3-1.4,4.4-4.3,4.4h-6.1v-15.4c0-2-0.7-3.3-2-3.9v-0.6h8.3c1.4,0,2.4,0.3,3,0.8
		c0.7,0.7,1.1,1.9,1.1,3.6V137.6z"/>
	<path class="st0" d="M138.5,148.4c0,2.7-1.3,4.1-4,4.1H128v-17.7c0-1.9-0.4-3.2-1.1-3.9c-0.9-0.8-2.6-1.2-5.1-1.2
		c-3.6,0-5.8,0.9-6.6,2.6h-0.4v-6.9c0-1.3,0.8-2.3,2.4-2.8c1.9-0.6,4.6-0.9,8.1-0.9c4.9,0,8.4,0.8,10.3,2.4c2,1.6,3,4.4,3,8.4
		L138.5,148.4L138.5,148.4z"/>
	<path class="st0" d="M168.1,147.2c0,1.7-0.2,2.9-0.5,3.7c-0.5,1-1.6,1.6-3.3,1.6h-22.7v-3.9c0-0.8,0.1-1.5,0.2-2
		c0.1-0.5,0.3-1,0.6-1.3s0.7-0.6,1.2-0.7c0.5-0.2,1.1-0.2,1.8-0.2h6.4c1.5,0,2.6-0.5,3.1-1.7c0.4-0.7,0.6-2,0.6-3.7v-4.2
		c0-2-0.4-3.4-1.2-4c-0.9-0.8-2.8-1.1-5.7-1.1c-3.4,0-5.5,0.9-6.3,2.6h-0.4v-6.9c0-1.1,0.7-2,2.1-2.7c1.4-0.7,4.3-1,8.7-1
		c5.1,0,8.6,0.8,10.6,2.4c2,1.6,3,4.6,3,8.8v2.4c0,4.6-1.8,7.3-5.4,8.3v0.8h3.5c1.5,0,2.7-0.5,3.3-1.4h0.4L168.1,147.2L168.1,147.2z
		"/>
</g>
<polygon class="st1" points="1.5,58.7 223.2,58.7 223.2,61.1 1.5,61.1 "/>
<rect x="18.8" y="109.9" class="st1" width="187" height="2.4"/>
</svg>
