<?xml version="1.0" encoding="utf-8"?>
<!-- Generator: Adobe Illustrator 19.2.1, SVG Export Plug-In . SVG Version: 6.00 Build 0)  -->
<svg version="1.1" id="Layer_1" xmlns="http://www.w3.org/2000/svg" xmlns:xlink="http://www.w3.org/1999/xlink" x="0px" y="0px"
	 viewBox="0 0 286.6 250" style="enable-background:new 0 0 286.6 250;" xml:space="preserve">
<style type="text/css">
	.st0{fill-rule:evenodd;clip-rule:evenodd;fill:#788248;}
	.st1{fill:#788248;}
</style>
<g>
	<g>
		<g>
			<path class="st0" d="M0,95.9c0.6,0,1.3-0.1,1.9-0.2c0.7-0.1,1.3-0.2,1.8,0.5c0.2,0.2,0.9,0.2,1.3,0c1.1-0.3,2.1-0.9,3.2-1.2
				c0.6-0.2,1.2-0.1,1.8-0.1c1.1,0.1,2.2,0.3,3.3,0.4c0.6,0,1.3-0.1,1.9-0.4c1.8-0.8,3.6-0.8,5.5-0.6c0.4,0,0.9,0,1.3-0.2
				c1.5-0.8,3-0.9,4.6-0.5c0.4,0.1,1,0,1.4-0.1c0.9-0.1,1.7-0.5,2.6-0.5c2.2,0,4.4-0.2,6.6-0.7c2-0.4,4-0.6,6-0.8
				c0.6-0.1,1.3-0.2,1.9-0.2c0.3,0,0.8,0.1,1,0.4c0.4,0.5,0.8,0.5,1.3,0.3c0.7-0.3,1.4-0.5,2.1-0.8c1.5-0.6,2.9-0.9,4.6-0.4
				c1.4,0.4,2.8,0.2,4.2-0.4c1.4-0.6,2.8-0.7,4.3-0.6c0.8,0,1.6-0.1,2.4-0.3c1.4-0.5,2.8-0.7,4.3-0.3c0.5,0.1,1.2-0.1,1.7-0.2
				c0.3-0.1,0.7-0.3,1-0.3c0.8-0.1,1.7-0.1,2.5-0.1c2.5,0.1,4.9-0.7,7.3-1.1c2-0.3,4.1-0.4,6.1-0.6c0.3,0,0.7,0.1,0.8,0.4
				c0.4,0.6,0.8,0.5,1.4,0.3c1.2-0.4,2.4-0.9,3.7-1.2c0.7-0.2,1.5-0.2,2.2,0c1.7,0.4,3.4,0.4,5-0.3c1.4-0.6,2.8-0.6,4.3-0.6
				c0.8,0,1.6-0.1,2.4-0.3c1.4-0.5,2.8-0.7,4.3-0.3c0.5,0.1,1.1-0.1,1.7-0.2c0.4-0.1,0.8-0.4,1.3-0.3c3.2,0,6.4-0.4,9.5-1.1
				c1.8-0.4,3.7-0.4,5.6-0.6c0,0.1,0,0.2,0,0.3c-0.3,0-0.6,0.1-1,0.1c0.1,0.2,0.2,0.6,0.4,0.6c0.8,0.2,1.2-0.2,1.6-0.9
				c0.1,0,0.2,0,0.2,0c0.6,1,1.5,0.7,2.3,0.4c1.2-0.4,2.3-0.8,3.5-1.1c0.5-0.1,1.1-0.1,1.6,0.1c1.7,0.4,3.4,0.5,5-0.3
				c1.4-0.6,2.8-0.7,4.3-0.6c0.8,0,1.6-0.1,2.3-0.3c1.4-0.5,2.8-0.8,4.3-0.3c0.5,0.1,1.1-0.1,1.6-0.1c0.2,0,0.4,0,0.5,0
				c0.4,0.3,0.6,0.3,0.9-0.2c0.1-0.2,0.7-0.3,1.1-0.3c1.9-0.2,3.8-0.3,5.7-0.5c2.7-0.3,5.5-0.8,8.2-1.2c0.7-0.1,1.2,0,1.8,0.5
				c0.2,0.2,0.6,0.2,0.9,0.2c0.2,0,0.5-0.2,0.7-0.3c2-1,4-1.4,6.2-0.9c1.5,0.4,3,0.1,4.5-0.5c1.1-0.5,2.5-0.4,3.8-0.4
				c1,0,2,0,2.9-0.5c1.3-0.6,2.6-0.6,4-0.2c0.5,0.1,1,0,1.5-0.1c0.5-0.1,1-0.4,1.5-0.4c3.3,0,6.4-0.6,9.6-1.2
				c1.9-0.4,3.9-0.4,5.8-0.6c0.3,0,0.7,0,0.9,0.2c1,0.9,1.9,0.9,2.9,0.1c0.3-0.2,0.7-0.2,1.1-0.3c0.1,0.4,0.2,0.9,0.3,1.3
				c0.1,0,0.2,0,0.3,0c0-0.3,0.1-0.6,0-0.9c-0.2-0.7,0.1-1,0.7-1c1.3,0.1,2.5,0.2,3.8,0.4c0.2,0,0.3,0.3,0.5,0.5
				c2.5-1.3,5.2-2,8-1.7c0.4,0,0.9-0.1,1.3-0.3c1.5-0.7,2.9-0.8,4.5-0.4c0.5,0.1,1.1-0.1,1.7-0.2c0.5-0.1,0.9-0.3,1.4-0.4
				c3.1,0,6.2-0.5,9.2-1.1c2-0.4,4.2-0.5,6.2-0.6c0.4,0,0.8,0.2,1.1,0.4c0.5,0.5,0.9,0.4,1.4,0.2c1.2-0.4,2.4-0.9,3.6-1.2
				c0.6-0.1,1.2-0.1,1.8,0c1.9,0.3,3.8,0.6,5.7-0.4c1.7-0.9,3.6-0.5,5.4-0.3c0.2,0,0.4,0.3,0.4,0.5c0.3,2,0.8,3.9,0.6,6
				c-0.1,0.9,0.2,1.8,0.3,2.7c0.5,4.7,1.1,9.4,1.6,14.1c0.5,4.6,0.8,9.2,1.3,13.8c0.1,0.9,0.3,1.9,0.4,3c-0.6-0.3-1-0.5-1.5-0.7
				c-0.3,0.6-0.4,1.1,0.5,1.2c0.8,0.1,1.1,0.5,1.2,1.4c0.3,3.6,0.7,7.2,1.1,10.8c0,0.3,0.1,0.7,0.1,1.1c-0.3,0-0.6,0-0.8,0
				c-0.5,0-0.9-0.1-1.4-0.1c-0.7,0.1-1.2,0.1-1.3-0.8c-0.1-0.8-0.6-1.5-0.3-2.5c0.2-0.6-0.3-1.3-0.4-2c-0.1-0.6,0.2-0.9,0.8-0.8
				c0.3,0,0.6,0.1,0.8,0c0.2-0.1,0.4-0.4,0.4-0.6c0-0.1-0.3-0.3-0.5-0.4l-0.2,0c-1.7,0-1.7,0-1.7-1.9c0.2,0,0.5,0,0.8,0
				c0,0.2,0,0.4,0,0.6c0.8,0.1,1.5,0.2,2.3,0.3c0-0.5,0.1-0.9-0.5-0.8c-0.4,0-0.8,0.1-1.2,0.1c0-0.2-0.1-0.4-0.1-0.6
				c0.1-0.9-0.3-1.5-1.2-1.9c-0.2-0.1-0.5-0.4-0.5-0.6c0.1-0.3,0.3-0.5,0.5-0.7c0.1-0.1,0.3-0.2,0.5-0.5c-0.3,0-0.6,0-1,0
				c-0.1-1.3-0.6-2.6-0.1-3.9c0.1-0.4-0.1-0.9-0.3-1.3c-0.3-0.7-0.6-1.3-0.9-1.9c1.3-0.6,1.4-0.9,0.7-1.8c0.2-0.2,0.4-0.3,0.5-0.5
				c0-0.1,0-0.2-0.1-0.2c-1.2-0.5-1.1-1.7-1.4-2.7c-0.4-1.1-0.5-2.1-0.2-3.4c0.5-1.5,0.3-3.2-0.4-4.7c-0.6-1.4-1.1-2.8-0.6-4.3
				c0.3-0.9,0-1.7-0.2-2.5c-0.1-0.5-0.2-1.1,0-1.5c0.3-0.9,0.2-1.7,0-2.6c-0.4-1.5-0.6-2.9-0.9-4.4c-0.2-0.9-0.7-1.2-1.5-1.1
				c-0.9,0.1-1.9,0.2-2.8,0.3c-0.3,0-0.6,0-0.9,0c-0.2-0.7-0.3-1.5-1.3-1.2c0.1-0.4,0.2-0.7,0.4-1.2c-1,0.3-1.7,0.5-2.4,0.7
				c-0.1-0.1-0.1-0.4-0.3-0.4c-0.2-0.1-0.5,0-0.8,0c0,0.2,0.1,0.4,0.1,0.6c0.2,0.9,1,1.2,1.6,1.7c-0.2,0.1-0.2,0.1-0.3,0.1
				c-6,0.6-12,1.2-18,1.8c-6.7,0.7-13.4,1.4-20.2,2.1c-7.5,0.8-15,1.5-22.5,2.3c-6.6,0.7-13.1,1.3-19.7,2c-0.6,0.1-1.2-0.1-1.9-0.1
				c-0.2,0.1-0.5,0.4-0.9,0.4c-6.7,0.7-13.5,1.4-20.2,2c-3,0.3-6.1,0.6-9.1,0.9c-0.4,0-0.9-0.2-1.3-0.2c-0.2,0-0.6-0.1-0.7,0.1
				c-0.8,0.7-1.7,0.6-2.7,0.4c-0.1,0-0.3-0.1-0.4,0c-0.9,0.6-1.9,0.6-2.9,0.4c-0.3,0-0.6,0.2-0.9,0.3c-2.9,0.3-5.8,0.6-8.7,0.9
				c-0.4-1.2-0.4-1.2-1.7-1c-0.3,0-0.6,0.1-0.9,0.1c-0.8,0-1.3,0.3-1.2,1.3c-0.3,0.1-0.6,0.1-0.8,0.1c-3.5,0.4-7.1,0.7-10.6,1
				c-2.6,0.2-5.2,0.4-7.8,0.7c-0.7,0.1-1.4,0.2-1.6-0.9c-0.4,0.4-0.6,0.6-1,1c0-0.3-0.2-0.7-0.1-0.8c0.5-0.9,0.1-1.2-0.7-1.3
				c-0.1,0-0.2-0.1-0.4-0.2c-0.2,0.2-0.3,0.4-0.4,0.5c0.3,0.6,0.6,1.1,0.8,1.7c0.2,0.5-0.3,0.5-0.6,0.5c-1.9,0.2-3.7,0.4-5.6,0.6
				c-7.3,0.8-14.6,1.5-21.8,2.3c-0.1,0-0.3,0-0.3,0c-0.1-0.3-0.1-0.7-0.2-1.1c-0.3,0.3-0.6,0.4-0.6,0.5C80.9,92,80.2,92,79.7,92
				c-2.4,0.2-4.8,0.3-7.2,0.6c-4.1,0.4-8.1,0.9-12.2,1.3c-3.6,0.4-7.1,0.8-10.7,1.2c-0.4,0-0.7,0.1-1.1,0.1
				c-0.2-0.8-0.3-1.5-0.5-2.2c-0.1,0-0.3,0-0.4,0.1c0,0.7,0.1,1.4,0.1,2.1c-0.3,0.1-0.7,0.1-1,0.2c-4.5,0.4-9,0.7-13.4,1.2
				c-3.7,0.4-7.4,0.9-11.2,1.3c-2.1,0.2-4.2,0.3-6.3,0.5c-3.4,0.4-6.8,0.8-10.2,1.2c-1.4,0.2-1.6,0.6-1.2,1.9c0,0.2,0.1,0.4,0.1,0.6
				c-0.2,0.2-0.4,0.3-0.8,0.6c1.3,0.3,1.2,1.3,1.2,2.2c0.4,4.6,0.7,9.3,1.1,13.9c0,0.2,0,0.3,0,0.6c-1.1,0.3-2.1,0.7-3.2,1
				c0,0.1,0,0.2,0,0.3c0.5,0,1.1,0,1.6,0c0.5-0.1,1.1-0.2,1.8-0.3c0.2,1.2,0.4,2.4,0.5,3.5c0,0.1-0.2,0.4-0.3,0.5
				c-0.8,0.1-1.7,0.2-2.6,0.3c0.1-0.7,0.2-1.3-0.7-1.4c-0.1,0-0.3-0.4-0.3-0.6c-0.2-1.5-0.3-3-0.4-4.5c-0.1-0.9,0.2-1.1,1.1-1.1
				c0.5,0,1-0.1,1.5-0.1c0-0.1,0-0.2,0-0.3c-0.8-0.2-1.7-0.3-2.6-0.5c-0.2-1.9-0.9-3.8-0.8-5.9c0.1-2.1-0.3-4.3-0.5-6.4
				c-0.1-1.6-0.2-3.1-0.5-4.6c-0.1-0.9-0.5-1.8-0.8-2.7C0,96.2,0,96,0,95.9 M136.8,82.4c0,0.6-0.1,1.1-0.1,1.8
				c0.1,0,0.3,0.1,0.4,0.1c0.2,0.7,0.4,1.2,0.5,1.7c0.3-0.2,0.6-0.2,0.7-0.3c0.7-0.5,0.7-0.8,0.1-1.4c-0.1-0.1-0.2-0.5-0.2-0.7
				C138.3,82.2,138.1,82,136.8,82.4 M279.3,97.5c-0.7,0.7-0.5,1.2-0.2,1.7c0.1,0.2,0.4,0.3,0.6,0.3c0.2-0.1,0.4-0.4,0.3-0.5
				C279.8,98.5,279.6,98.1,279.3,97.5 M100.9,88.7c0.1,0.1,0.2,0.2,0.2,0.3c0.2-0.2,0.6-0.4,0.6-0.6c-0.1-0.6,0.2-1.5-0.9-1.5
				c-0.5,0.6,0.1,0.8,0.5,1C101.2,88.2,101.1,88.4,100.9,88.7 M217.3,76.2c-0.1-0.1-0.2-0.3-0.2-0.4c-0.6,0.5-1.2,0.9-1.8,1.4
				c0,0.1,0.1,0.1,0.1,0.2C216.2,77.3,216.6,76.5,217.3,76.2 M211.2,75.7c-0.5-0.2-0.7-0.4-0.9-0.4c-0.1,0-0.3,0.4-0.3,0.5
				c0.1,0.2,0.3,0.4,0.6,0.4C210.7,76.3,210.9,76,211.2,75.7 M50.4,94.2c1.1,0.3,1.4,0.1,1.2-0.7C51.2,93.8,50.8,94,50.4,94.2"/>
			<path class="st0" d="M4.3,138.7c0.1-1.2,0.2-2.4,0.2-3.6c0-1.7-0.1-3.3-0.2-5c-0.1-1.1-0.4-2.1-0.6-3.1c-0.1-0.5-0.1-0.9-0.1-1.4
				c1.2-0.3,2.3-0.6,3.5-0.9c0,0.1,0.2,0.4,0.3,0.8c0.3,3.1,0.7,6.3,1,9.4c0.1,0.7-0.2,1-1,1.1c-0.9,0-1.9,0-2.5,1.1
				c0.4,0.5,0.7,1.1,1.2,1.7c0.1,0.1,0.5,0.2,0.7,0.1c0.6,0,1.3-0.1,2-0.2c0,0.4,0.1,0.7,0.1,1.1c-0.4,0.5-1.7-0.3-1.6,1.2
				c0.6-0.1,1.1-0.1,1.7-0.2c0,0.3,0,0.6,0,0.9c0.1,1.4,0.2,2.9,0.4,4.3c0.3,2.5,0.6,4.9,0.9,7.4c0,0.3-0.2,0.6-0.3,0.8
				c0.2,0.5,0.4,1,0.5,1.4c0.3,2.5,0.5,5,0.8,7.6c0.2,2.2,0.4,4.4,0.6,6.6c0.2,1.8,0.4,3.5,0.5,5.2c1.4,0.2,2.5,0.4,3.6,0.5
				c0.5,0,1-0.1,1.5-0.2c0.6-0.1,1.2-0.3,1.8-0.3c1.1-0.2,2.2-0.3,3.3-0.4c0.7-0.1,1.4,0,2.1,0c0.6,0,1.2,0.1,1.7-0.1
				c1.7-0.5,3.5-0.7,5.3-0.5c0.9,0.1,1.9-0.2,2.8-0.4c0.9-0.2,1.8-0.5,2.8-0.7c0.6-0.1,1.2,0.1,1.8,0.1c0.5,0,1.1,0.2,1.6,0
				c1.6-0.6,3.2-0.9,5-0.8c1,0.1,2.1-0.4,3.2-0.5c1.3-0.1,2.5-0.2,3.8-0.3c0.2,0,0.5,0.3,0.6,0.5c0.1,0.6,0,1.2,0,1.7
				c0,0.5,0,0.9,0,1.6c-2,0.2-4.1,0.4-6.1,0.6c-2.2,0.2-4.3,0.3-6.5,0.5c-3.5,0.4-7,0.8-10.5,1.2c-1.4,0.2-2.8,0.3-4.2,0.4
				c-1.1,0.1-2.1,0.1-3.2,0.2c-1.9,0.2-3.8,0.4-5.7,0.8c-0.9,0.2-1.2-0.3-1.5-0.9c-0.1-0.1-0.1-0.3-0.1-0.4
				c-0.6,0.1-1.2,0.2-1.8,0.3c-0.8,0.1-0.9,0.6-0.2,1.4c-1.4,0-2.6,0.1-3.8,0.1c-0.1,0-0.4-0.5-0.4-0.8c-0.1-2.1-0.2-4.2-0.4-6.3
				c0-0.5-0.2-1-0.3-1.6c-0.1-0.7-0.1-1.5-0.2-2.2c-0.1-0.5-0.2-1.1-0.3-1.6c-0.3-1.9-0.6-3.8-0.9-5.8c1.3-0.2,2.3-0.4,3.4-0.5
				c0-0.1,0-0.2,0-0.4c-0.5,0-1.1,0-1.6,0.1c-1.3,0.3-1.5-0.4-1.7-1.4c-0.2-1.1-0.4-2.2-0.6-3.3c-0.1-0.5,0-0.7,0.5-0.8
				c0.4-0.1,0.8-0.2,1.2-0.3c0-0.1,0-0.2,0-0.3c-0.5,0-1-0.1-1.6-0.1c-0.1-1.6-0.1-3.1-0.2-4.7c1.1,0.6,2,0.3,3,0.1
				c-0.6-0.9-1.4-1-2.1-0.7c-0.9,0.4-1-0.1-1.1-0.6c-0.1-0.5-0.2-1.1-0.2-1.6c0.1-0.4,0.4-0.7,0.7-1.1c-0.2-0.1-0.5-0.2-0.9-0.3
				c0-0.3-0.1-0.7-0.1-1c-0.2-1.2-0.4-2.3-0.6-3.5c0-0.3,0-0.6,0-0.9c-0.1-0.3-0.3-0.7-0.5-1L4.3,138.7z M8.3,147.8
				c0.2-0.4,0.4-0.6,0.5-0.9c-0.3-0.1-0.5-0.4-0.7-0.4c-0.2,0-0.4,0.4-0.6,0.6C7.8,147.4,8,147.6,8.3,147.8 M13,177.1
				c0.1-0.1,0.1-0.2,0.2-0.3c-0.3-0.3-0.7-0.7-1-0.8c-0.1,0-0.5,0.5-0.8,0.9C12.1,176.9,12.5,177,13,177.1 M47.5,174.4
				c0-0.1,0-0.2,0-0.3c-0.4-0.2-0.8-0.4-1.2-0.5c-0.2,0-0.4,0.1-0.6,0.2c0,0.1,0.1,0.3,0.1,0.3C46.5,174.2,47,174.3,47.5,174.4"/>
			<path class="st0" d="M133.6,0.2c1.4,0,2.9,0.1,4.3,0.1c0.5,0,0.9-0.1,1.2-0.1c-0.1,0.2-0.1,0.5-0.2,0.8c0.4,0.1,0.8,0.3,1.1,0.2
				c0.4-0.2,0.7-0.7,1.2-1.1c1,0.1,2.3,0.2,3.6,0.3c0.8,0,1.7-0.1,2.5-0.1c1.2,0,2.4,0.1,3.6,0.1c1,0.1,2.1,0.3,3.1,0.2
				c1.7-0.2,3.4-0.2,5,0.3c1.2,0.4,2.5,0.7,3.7,1c0.8,0.2,1.6,0.2,2.4,0.3c0.1,0,0.3,0,0.3,0c0.7,0.6,0.9,0.1,1.2-0.4
				c1.4,0.5,2.7,1,3.8,1.4c-0.4,0.1-0.4,0.2,0,1.9c0.8-0.1,1.7-0.2,2.6-0.3c0-0.3,0-0.4,0-0.5c0-0.3,0.1-0.6,0.1-0.9
				c0.4,0.1,0.7,0.2,1.1,0.3c0.3,0.1,0.6,0.3,0.9,0.2c0.5,0,1-0.5,1,0.5c0,0.2,0.6,0.5,0.9,0.6c0.6,0.2,1.4,0.2,1.4,1.1
				c0,0.8-0.1,1.3-0.8,1.9c-0.5,0.4-0.9,0.3-1.4,0.2c-1-0.2-2-0.4-3-0.7c-0.6-0.2-1.2-0.6-1.8-0.8c-0.3-0.1-0.6-0.3-0.9-0.3
				c-3.1,0.1-6.1-0.5-9-1.3c-4.6-1.1-9.2-1-13.8-1.1c-4.2-0.1-8.3,0-12.5,0.1c-1.5,0-3,0.3-4.6,0.4c0.8-0.5,1.6-1,2.3-1.5
				C133,3.2,133,3,132.9,2.9c-0.9,0.3-1.8,0.5-2.9,0.8c0.2-0.4,0.3-0.6,0.4-0.8c-0.1,0-0.2-0.1-0.2-0.1c-0.8,0.3-1.5,0.7-2.3,0.9
				c-1.7,0.5-3,2-5,1.7c-0.7-0.1-1.5,0.5-2.3,0.7c-2.7,0.7-5.4,1.3-8.1,1.9c-0.2,0.1-0.5,0-0.9,0.1c0.5-0.6,1.5-0.5,1.3-1.5
				c-0.5,0-1.1,0-1.7,0.1c0.6-0.7,0.1-1-0.4-1.3c-0.4,0.5-0.7,0.9-0.3,1.6c0.4,0.8-0.3,1.2-0.7,1.7c-0.3,0.3-0.7,0.6-1.3,0.1
				c-0.1-0.1-0.7,0.2-1.1,0.4c-0.2,0.1-0.4,0.4-0.6,0.5c-3.5,1.3-6.9,2.6-10.4,3.9c-0.1,0-0.3,0-0.4,0c-0.1-0.4-0.2-0.8-0.3-1.2
				c0.2-0.1,0.5-0.2,0.7-0.3c-0.4-0.3-0.8-0.6-1.2-0.9c0-0.1-0.1-0.2-0.1-0.2c1.4-0.1,1.5-1.6,2.5-2c0.7-0.3,1.5-0.4,2.2-0.6
				c0.3-0.1,0.6-0.3,0.9-0.4c0.9-0.4,1.8-0.7,2.7-1.1c0.7-0.3,1.5-0.2,2.1-0.3c2-0.5,3.9-1.4,5.8-2c3-0.9,6.1-1.6,9.2-2.4
				c0.4-0.1,0.9-0.2,1.2-0.1c1.4,0.4,2.5-0.3,3.6-1c0.6-0.1,1.1-0.1,1.7-0.2c1.3,0.4,2.5,0.1,3.7-0.4C131.8,0.4,132.7,0.3,133.6,0.2
				 M107.2,7.3c-1,0.1-1.9,0.2-2.9,0.3c0,0.1,0,0.2,0,0.2C105.3,8.3,106.7,8,107.2,7.3c0.3,0.1,0.7,0.2,1,0.2c0.2,0,0.5,0,0.7-0.1
				c0.1-0.1,0.1-0.6,0-0.6c-0.4-0.1-0.9-0.1-1.3-0.1C107.4,6.8,107.3,7.1,107.2,7.3 M164,4.6c0,0.1,0,0.2,0.1,0.4
				c0.3,0.1,0.7,0.5,0.8,0.4c0.3-0.2,0.5-0.6,0.7-0.9C165.3,4.3,165,4,164.7,4C164.5,4,164.2,4.4,164,4.6 M150.5,1.8
				c-0.7,0-1.3,0-1.6,0.7C149.9,2.8,150.3,2.6,150.5,1.8 M139.3,2.5c-0.5-0.2-0.7-0.4-0.9-0.4c-0.3,0.1-0.5,0.4-0.7,0.6
				c0.1,0.2,0.3,0.5,0.4,0.5C138.4,3,138.7,2.8,139.3,2.5 M174.4,5.6c-0.3,0.2-0.5,0.4-0.7,0.6c0.3,0.2,0.5,0.5,0.8,0.4
				c0.2,0,0.5-0.4,0.7-0.6C174.9,5.9,174.7,5.8,174.4,5.6 M150.6,1.3c0.1,0.1,0.1,0.2,0.2,0.2c0.4,0,0.7,0,1.1-0.1
				c0-0.1,0-0.2,0.1-0.3c-0.3-0.2-0.5-0.4-0.8-0.5C151,0.7,150.8,1.1,150.6,1.3 M123.1,2.7c0-0.2,0-0.3-0.1-0.5
				c-0.4,0.1-0.8,0.2-1.2,0.2l0.1,0.3C122.3,2.8,122.7,2.7,123.1,2.7"/>
			<path class="st0" d="M92.4,169.4c-0.5-0.5-1.1-0.5-1.7-0.2c-0.4,0.1-0.8,0-1.2,0.1c-0.5-1.2-0.4-1.3,0.7-1.6
				c1.4-0.4,2.8-0.8,4.2-0.6c1.5,0.2,2.9-0.2,4.4-0.6c0.3-0.1,0.6-0.1,0.9,0c1.2,0.3,2.4,0.2,3.5-0.1l0.1,0c1.9-0.3,3.9-0.5,5.8-0.8
				c0.2,0,0.4,0.1,0.6,0.1c0.7,0,1.4,0.1,2.1,0c1.5-0.1,3.1-0.5,4.6-0.5c1.6,0.1,3-0.4,4.5-0.7c0.2,0,0.3-0.1,0.5-0.1
				c0,0.1,0.1,0.2,0.1,0.3c-0.5,0.2-1,0.4-1.5,0.6c-0.2,0.1-0.3,0.2-0.5,0.3c0.1,0.1,0.3,0.4,0.4,0.4c0.4,0,0.8-0.1,1.1-0.2
				c0.6-0.2,1.1-0.5,1.8-0.9c-0.1-0.1-0.3-0.3-0.6-0.6c0.6-0.4,1.2-0.3,1.9-0.1c0.6,0.2,1.3,0.2,1.8,0c2-0.7,3.9-1.3,6-0.6
				c0.2,0.1,0.5,0,0.7-0.1c1.2-0.7,2.5-0.6,3.8-0.7c1.7,0,3.4-0.4,5-0.5c0.5,0,1-0.1,1.4,0c0.9,0.3,1.7,0.3,2.6-0.1
				c0.4-0.2,1-0.2,1.4-0.3c1.2-0.2,2.4-0.3,3.5-0.4c0.7-0.1,1.4,0,2.1,0c0.4,0,0.9,0.1,1.3,0c1.9-0.6,3.9-0.7,5.9-0.6
				c1.2,0.1,2.5-0.5,3.7-0.7c0.5-0.1,1.1-0.3,1.6-0.4c0.5-0.1,1-0.1,1.4,0c0.9,0.4,1.7,0.3,2.6-0.1c1.7-0.7,3.5-1.1,5.3-0.5
				c0.3,0.1,0.6,0,0.9-0.1c1.1-0.7,2.3-0.6,3.5-0.7c1.9-0.1,3.8,0.1,5.6-0.6c0.3-0.1,0.8,0,1.2,0.1c0.8,0.3,1.6,0.3,2.4-0.1
				c0.3-0.2,0.7-0.2,1-0.3c1.5-0.2,3-0.4,4.6-0.6c0.4-0.1,1-0.2,1.3,0c0.9,0.4,1.6,0.2,2.4-0.1c1.6-0.5,3.2-0.5,4.9-0.4
				c1.3,0,2.6-0.4,3.9-0.7c1.3-0.3,2.5-0.7,3.8-0.1c0.4,0.2,1.1,0,1.6-0.2c1.5-0.6,3.1-0.7,4.8-0.8c1.2,0,2.3-0.4,3.5-0.5
				c1-0.1,2-0.1,3-0.2c1-0.1,2-0.3,3-0.4c0.3,0,0.6,0,0.9,0.1c-0.1,0.3-0.1,0.5-0.2,0.8c-0.2,0.5-0.5,0.9-0.1,1.5
				c0.5,0.9-0.1,1.7-1.1,1.8c-4.2,0.4-8.4,0.7-12.5,1.1c-3.4,0.3-6.7,0.8-10.1,1.2c-2.5,0.3-5,0.5-7.5,0.8c-0.1-0.3-0.1-0.5-0.2-0.8
				c-0.9-0.3-1,0.5-1.2,0.8c-1.3,0.1-2.6,0.3-3.9,0.4c0-0.3,0.3-1-0.6-0.7c0.2,0.9-0.4,1-1.1,1c-6.3,0.5-12.5,1-18.8,1.6
				c-2.4,0.2-4.9,0.7-7.3,1c-3.6,0.4-7.2,0.9-10.8,1.1c-1.7,0.1-3.4,0.3-5.1,0.5c-5.1,0.6-10.3,1.1-15.5,1.6
				c-1.7,0.2-3.5,0.2-5.3,0.4c-3.5,0.4-7,0.8-10.5,1.2c-1.3,0.2-2.7,0.3-4,0.4c-1.1,0.1-2.2,0.1-3.3,0.2c-0.9,0.1-1.7,0.2-2.6,0.3
				c-3,0.3-6,0.7-8.9,1.1c-1.5,0.2-3.1,0.3-4.6,0.5c-0.4,0-0.8,0.1-1.2,0.1c0.4-0.6,0.7-1,1-1.5c0.1-0.1,0.2,0,0.3-0.1
				C92.2,169.7,92.3,169.6,92.4,169.4c0.8,0,1.9-0.8,1.9-1.6c-0.7,0.4-1.4,0.9-2,1.4C92.3,169.2,92.4,169.3,92.4,169.4"/>
			<path class="st0" d="M227.4,153.6c2.9,0,5.8-0.4,8.6-0.9c0.7-0.1,1.4,0.1,2,0.1c0.6,0,1.1,0.1,1.6-0.1c1.8-0.5,3.5-0.6,5.4-0.6
				c1.3,0,2.6-0.4,3.9-0.7c1.3-0.3,2.5-0.7,3.8-0.1c0.5,0.2,1.2,0,1.7-0.2c1.5-0.6,3.1-0.7,4.8-0.7c1.1,0,2.2-0.3,3.3-0.4
				c1.1-0.1,2.2-0.1,3.2-0.2c1.2-0.1,2.3-0.3,3.5-0.4c0.6-0.1,1.3-0.1,2-0.1c0,0.1,0.1,0.2,0.1,0.3c-0.3,0.1-0.6,0.3-0.9,0.3
				c-1.3,0.2-2.5,0.4-3.8,0.5c-0.2,0-0.4,0.1-0.5,0.2c0,0.1,0,0.1,0,0.2c0.7,0.1,1.4,0.3,2.1,0.3c0.3,0,0.6,0,1-0.1
				c0.7-0.1,1.4,0.1,1.9-0.5c0.2-0.3,0.8-0.1,1.3-0.2c0.4-0.1,0.8,0,0.8-0.6c0-0.2,0.3-0.4,0.5-0.4c1.1-0.2,2.1-0.3,3.2-0.5
				c0.6-0.1,1.3-0.3,1.9-0.3c0.7,0,1.5,0.1,2.2,0.1c0.6,0,1.3-0.1,2.1-0.2c-0.2-0.5-0.2-1-0.4-1.3c-1-1.5-1.2-3.2-1-5
				c0.1-0.7-0.1-1.4-0.3-2.1c-0.3-1.2-0.7-2.2-0.2-3.5c0.3-0.6,0.2-1.4,0.1-2.1c-0.1-1.3,0.3-1.8,1.6-1.8c1.7-0.1,1.8-0.1,1.9,1.6
				c0.3,4,0.7,8,1,11.9c0.1,1.6,0.4,3.2,0.7,4.7c0.1,0.7-0.1,0.9-0.8,0.9c-3.1,0.2-6.2,0.5-9.2,0.8c0-0.1,0-0.2,0-0.3
				c1.3-0.3,2.6-0.6,3.8-0.9c0-0.1,0-0.2,0-0.3c-2,0-3.9,0.3-5.9,0.7c0.2,0.4,0.3,0.7,0.4,1c-1.9,0.2-3.8,0.4-5.7,0.6
				c0-0.1,0.1-0.1,0.1-0.2c-0.3-0.2-0.6-0.7-0.9-0.6c-0.3,0.1-0.6,0.5-0.9,0.8c0,0.1,0.1,0.2,0.1,0.3c-4.2,0.3-8.4,0.6-12.5,0.9
				c-1.7,0.1-3.5,0.6-5.2,0.8c-2.2,0.3-4.4,0.4-6.7,0.6c-1.5,0.1-3.1,0-4.6,0.1c-0.4,0-0.8,0.4-1.2,0.5c-0.2,0.1-0.5,0.2-0.7,0.2
				c-1.9-0.3-3.7,0.4-5.6,0.6c-0.9,0.1-1.8,0.1-2.7,0.3c-0.8,0.1-1.1-0.2-1.1-0.9C227.4,155.6,227.4,154.6,227.4,153.6 M248.9,153
				c0,0.1,0,0.2,0,0.3c0.2,0,0.4,0.1,0.5,0.1c1.3-0.1,2.7-0.3,4-0.5c0.5,0,1,0.1,1.5,0.1c0.4,0,0.8-0.1,1.2-0.2
				c0.4-0.1,0.8-0.2,1.2-0.2c0.4,0,0.9,0.2,1.3,0.2c1-0.2,2.1-0.5,3.1-0.8c0.3-0.1,0.6-0.4,0.8-0.6l-0.1-0.2
				C257.9,151.8,253.4,152.4,248.9,153 M283.6,133.3c-0.5-0.1-0.9-0.2-1.3-0.3c0,0.2-0.1,0.6,0.1,0.7
				C282.8,134,283.2,134.1,283.6,133.3"/>
			<path class="st0" d="M100.8,162.7c-0.1,0.3-0.1,0.5-0.1,0.9c0.5-0.3,0.8-0.4,1.2-0.6c0.4-0.2,0.8-0.5,1.2-0.6
				c2.1-0.4,4.3-0.7,6.5-1c0.5-0.1,1,0,1.4,0.1c1.2,0.6,2.5,0.5,3.6-0.1c1.2-0.5,2.3-0.6,3.6-0.3c0.6,0.2,1.4,0.1,2-0.2
				c1-0.6,2-0.8,3-0.9c3.2-0.2,6.4-0.2,9.5-0.4c2.6-0.2,5.2-0.5,7.7-0.8c3.4-0.5,6.8-1,10.3-1.5c0.6-0.1,1.2-0.2,1.8-0.3
				c0.4,0,0.9,0,1.2,0.2c1.1,0.5,2.2,0.5,3.2,0c1.3-0.5,2.5-0.9,4-0.4c0.8,0.3,1.6,0,2.4-0.4c0.9-0.4,2-0.6,3-0.7
				c1.9-0.2,3.8-0.2,5.7-0.3c2.9-0.2,5.8-0.2,8.7-0.6c3.8-0.5,7.6-1.2,11.3-1.7c0.9-0.1,1.7-0.3,2.6-0.4c0.7,0,1.5,0,2.2,0.2
				c1,0.3,2.1,0.3,3-0.1c1.3-0.6,2.6-0.8,4-0.3c0.6,0.2,1.3-0.1,1.9-0.3c0.5-0.1,0.9-0.4,1.4-0.7c0.1,0.1,0.1,0.1,0.2,0.2
				c-0.4,0.4-0.9,0.8-1.5,1.4c0.8,0,1.6,0,2.3,0l0,0.2c-1,0.1-2,0.2-3,0.3c-11.9,1.3-23.8,2.6-35.7,3.8c-1.4,0.1-2.7,0.1-4.1,0.2
				c-1.7,0.1-3.4,0.3-5.2,0.5c-2.7,0.3-5.4,0.7-8.1,1c-9.1,0.9-18.2,1.9-27.3,2.8c-2.4,0.2-4.8,0.3-7.2,0.6c-9.3,1-18.5,2-27.8,2.9
				c-0.8,0.1-1.6-0.5-2.3,0.3c-2.8,0.2-5.7,0.3-8.5,0.6c-2.1,0.2-4.2,0.7-6.3,0.9c-6.1,0.7-12.1,1.3-18.2,1.9c-0.4,0-0.7,0-0.8-0.5
				c0-0.5,0-0.9,0.7-1c3.7-0.5,7.3-1.1,11-1.7c1.3-0.2,2.5-0.3,3.8,0.1c0.8,0.2,1.9,0,2.7-0.3c1.2-0.4,2.3-0.6,3.5-0.2
				c0.6,0.2,1.4,0.2,1.8-0.1c1.4-0.9,3-1,4.6-1.1c4-0.2,8-0.3,12-0.6c1.9-0.1,3.9-0.6,5.8-0.9C99.9,162.8,100.3,162.8,100.8,162.7"
				/>
			<path class="st0" d="M56.2,208.8c0.1,0.1,0.4,0.1,0.6,0.3c2,1.8,4,3.6,6,5.4c0.4,0.3,0.7,0.8,1.2,1.2c-0.6,0.2-1,0.3-1.5,0.4
				c0,0.1,0,0.2,0,0.3c0.5,0,1-0.1,1.4,0c0.4,0,0.8,0.1,1.2,0.3c0.9,0.5,1.7,1.2,2.2,2.2c0.2,0.4,0.9,0.6,1.5,0.8
				c0.3,0.1,0.7,0.1,0.9,0.3c1.5,1.3,3,2.5,4.5,3.8c0.3,0.3,0.5,0.7,0.8,1.1c-0.6,0.5-1.1,1.1-2,0.4c-0.1-0.1-0.4-0.1-0.5,0
				c-1.2,0.8-1.8,0.9-2.9,0c-2.3-1.8-4.6-3.7-6.9-5.5c-0.1-0.1-0.3-0.2-0.4-0.3c-0.6-1.2-1.8-1.7-2.8-2.5c-0.9-0.7-1.7-1.7-2.5-2.6
				c-0.8-0.9-1.5-1.8-2.4-2.6c-0.9-0.9-1.9-1.6-2.9-2.5c0.8-0.2,1.4-0.3,2-0.4c0-0.1,0-0.3-0.1-0.4c-0.6,0.1-1.2,0.2-1.8,0.2
				c-0.3,0-0.7-0.1-0.9-0.3c-1-1.1-2-2.3-3-3.5c-0.9-1.1-1.9-2.1-2.7-3.2c-0.5-0.7-0.9-1.4-1.3-2.1c-0.5-1.2-1.2-2.2-2.3-2.9
				c-0.4-0.3-0.7-0.7-1-1.1c-1-1.4-1.9-2.9-2.9-4.3c-0.1-0.2-0.3-0.3-0.3-0.5c-0.1-1.3-1-2.1-1.7-3.1c-0.6-1-1.2-2.1-1.7-3.1
				c-0.7-1.4-1.5-2.8-2.3-4.4c0.2-0.1,0.6-0.3,1-0.4c0.2-0.1,0.4,0,0.6-0.1c1.8-0.2,3,0.4,3.9,2c1.3,2.6,2.9,5,4.4,7.5
				c0.4,0.6,0.8,1.2,0.5,2c-0.1,0.1,0.1,0.4,0.2,0.6c0.2-0.1,0.3-0.2,0.5-0.4c1.4,1.9,2.9,3.8,4.3,5.7c1.4,1.9,2.8,3.8,4.3,5.7
				c1.4,1.7,3,3.4,4.5,5C56,208.1,56,208.4,56.2,208.8 M60.3,213.7c0.6,0.9,0.9,0.8,1.3-0.1C61.2,213.6,60.8,213.7,60.3,213.7"/>
			<path class="st0" d="M181.5,56.4c-0.4,0-0.7,0-0.9-0.1c-2.8-1.3-5.5-2.7-8.3-3.9c-2-0.9-4.2-1.5-6.3-2.3
				c-0.7-0.2-1.3-0.5-1.9-0.7c0.1-0.1,0.2-0.3,0.3-0.5c-0.4-0.2-0.7-0.3-1.3-0.5c0.2,0.5,0.2,0.6,0.3,0.9c-0.2,0-0.4,0-0.5-0.1
				c-3.7-1.1-7.5-1.5-11.4-1.9c-6.7-0.7-13.3-0.5-20,0.5c-1.7-0.4-3.1,0.7-4.7,1c-3.2,0.7-6.3,1.6-9.4,2.6c-1.6,0.5-3.1,1.4-4.7,2.2
				c-3,1.5-5.9,2.9-8.9,4.5c-1.1,0.5-2.1,1.2-3.1,1.8c-0.3,0.2-0.7,0.2-1,0.4c-0.3,0.2-0.5,0.4-0.7,0.7c-0.2,0.2-0.3,0.4-0.4,0.6
				c-0.7-0.3-1.4-0.5-2.2-0.8c0.2-0.2,0.3-0.4,0.6-0.5c2.8-1.1,5-3.1,7.5-4.7c1-0.6,2.2-1,3.2-1.5c0.3-0.1,0.6-0.2,0.8-0.4
				c2-1.7,4.4-2.5,6.8-3.3c3.4-1.1,6.9-2.3,10.3-3.4c0.7-0.2,1.4-0.1,2.1-0.2c0.8-0.1,1.6-0.2,2.4-0.4c1.2-0.2,2.3-0.3,3.5-0.5
				c2.2-0.3,4.5-1,6.7-0.8c3.8,0.4,7.5-0.3,11.3,0.3c3.7,0.6,7.4,1.2,11.1,1.9c1.3,0.3,2.5,1.1,3.8,1.6c0.2,0.1,0.4,0.1,0.6,0.1
				c0.6,0.1,1.3,0.1,1.9,0.3c1.8,0.6,3.5,1.3,5.2,1.9c5.1,1.8,9.7,4.6,14.1,7.6c0.1,0.1,0.1,0.2,0.2,0.2c-0.8,0.2-1.5,0.4-2.2,0.6
				c-0.2,0-0.4-0.1-0.5-0.2c-1.3-0.7-2.6-1.5-3.9-2.3C181.8,57,181.6,56.6,181.5,56.4"/>
			<path class="st0" d="M183.5,242.1c0.5,0.4,0.8,0.7,1.1,1c-1.8,0.6-3.7,1.2-5.7,1.3c0-0.1,0-0.2-0.1-0.3c1-0.2,1.9-0.3,2.9-0.5
				c-0.5-0.8-2.9-0.7-3.8-0.3c-0.4,0-0.8-0.2-1.1,0c-0.3,0.2-0.5,0.7-0.2,1.2c0.2,0.3,0.4,0.8-0.3,1c-6.4,1.8-12.9,3.2-19.6,3.7
				c-0.1,0-0.1,0-0.4-0.1c0.5-0.3,0.8-0.6,1.2-0.7c0.8-0.3,1.6-0.4,2.4-0.7c1.6-0.7,3.3-0.9,5.1-1.1c0.5-0.1,1.1,0.1,1.6,0.2
				c0.1,0,0.2,0.1,0.3,0c1.5-0.4,2.9-0.9,4.4-1.3c0.7-0.2,1.5-0.2,2.2-0.3c0.2,0,0.5,0,0.7-0.1c0.2-0.1,0.3-0.3,0.5-0.5
				c-0.2-0.2-0.4-0.5-0.6-0.5c-0.9,0-1.8,0.2-2.7,0.3c-0.8,0.1-1.6,0.3-2.4,0.3c-0.5,0-0.9-0.3-1.3-0.3c-0.4,0.2-0.7,0.5-1.1,0.6
				c-1.6,0.3-3.3,0.7-4.9,0.6c-1-0.1-1.8,0.3-2.6,0.3c-0.5,0-1-0.3-1.6-0.5c3.2-0.6,6.1-1.1,9.1-1.6c2.9-0.5,5.8-1,8.3-2.2
				c0.5,0.5,0.8,0.9,1.2,1.1c0.2,0.2,0.6,0.1,1,0.2c-0.1-0.4-0.1-0.8-0.2-1.2c0-0.1-0.2-0.2-0.5-0.4c0.8-0.2,1.3-0.3,1.9-0.4
				c3.4-0.7,6.6-1.9,9.8-3.3c1.3-0.6,2.8-0.9,4.2-1.5c2.6-1.2,5.2-2.6,7.8-3.9c0.5-0.3,1-0.8,1.6-0.2c0.1,0.1,0.5-0.1,0.7-0.2
				c0.2-0.1,0.4-0.3,0.7-0.5c0.2,1.3-1,1.1-1.5,1.7c-0.2,0.3-0.5,0.5-0.7,0.6c0.6,0.5,1.2,0.9,1.7,1.3c0.4-0.7,0.6-1.4,1.1-1.9
				c0.4-0.3,1.2-0.4,1.7-0.2c0.9,0.3,1.3-0.3,1.8-0.8c0.5-0.5,0.7-1.2,1.2-1.7c0.2-0.3,0.7-0.3,1-0.4c-0.2,0.7-0.4,1.3-0.6,1.9
				c-0.1,0.2-0.3,0.3-0.5,0.4c-1.4,0.8-2.9,1.7-4.4,2.5c-4.1,2.1-8.2,4.4-12.7,5.8c-1.1,0.4-2.1,1.2-3.3,1.5
				c-1.1,0.3-2.3,0.1-3.5,0.2C184.4,242,184.1,242,183.5,242.1 M182,241.3c0,0.1-0.1,0.2-0.1,0.3c0.3,0.4,0.6,0.8,1.2,0.5
				c0.2-0.1,0.2-0.5,0.3-0.7C182.9,241.4,182.4,241.3,182,241.3 M204.1,233.7c0.1,0.1,0.1,0.1,0.2,0.2c0.2-0.2,0.4-0.3,0.6-0.5
				c-0.2-0.2-0.4-0.4-0.6-0.5c-0.1,0.1-0.1,0.1-0.2,0.2C204.1,233.3,204.1,233.5,204.1,233.7 M182,243.4c0.1,0.1,0.2,0.2,0.4,0.3
				c0.2-0.2,0.4-0.4,0.6-0.6c-0.1-0.1-0.3-0.2-0.4-0.3C182.4,242.9,182.2,243.2,182,243.4"/>
			<path class="st0" d="M247.5,193.3c-0.1-0.3-0.1-0.5-0.2-0.8c0-0.3-0.2-0.6-0.1-0.8c0.4-0.8,0.2-1.5-0.3-2.2
				c-0.2-0.2-0.3-0.7-0.2-1c0.6-1.1,1.2-2.2,1.9-3.3c0.5-0.9,1.2-1.6,1.6-2.5c0.7-1.3,1.2-2.6,1.8-4c0.5-1.2,1-2.4,2-3.3
				c0.4-0.3,0.5-0.8,0.8-1.3c0.4-0.7,0.8-1.4,1.2-2.1c0.4-0.6,0.7-1.2,0.5-1.9c-0.3-1.3,0.1-2.5,0.6-3.6c0.9-2.2,1.8-4.4,2.6-6.6
				c0.4-1,0.4-2.2,0.7-3.3c1.4,0.2,2.7,0.4,4.2,0.6c-0.3,1.1-0.6,2.2-0.9,3.3c-3,10.3-7.3,19.9-12.9,29.1c-0.6,1-1.4,1.8-2,2.8
				c-0.2,0.3-0.5,0.6-0.6,1c-0.2,0.5-0.5,0.4-0.8,0.2C247.4,193.4,247.5,193.3,247.5,193.3"/>
			<path class="st0" d="M233.6,78.4c0.1,0.4,0.2,0.6,0.3,0.8c0.2-0.2,0.5-0.3,0.7-0.5l-0.1-0.1c0.7-0.2,1.3-0.4,2-0.6
				c0.2-0.1,0.5-0.1,0.7,0c1.1,0.5,2.2,0.3,3.3,0.1c0.7-0.2,1.5-0.3,2.2-0.4c0.2,0,0.4-0.1,0.6,0c1.3,0.8,2.4,0.1,3.6-0.2
				c1.2-0.3,2.3-0.7,3.5-0.9c0.4-0.1,0.9-0.2,1.2,0c1.1,0.4,2.1,0.4,3.1,0c1.7-0.7,3.5-0.7,5.3-0.6c0.6,0,1.2,0,1.8,0
				c0.4,0,0.9-0.1,1.1,0.1c0.9,0.6,1.7,0.5,2.5-0.3c0.1,0.4,0.3,0.8,0.4,1.2c-2.3,0.2-4.7,0.5-7.1,0.7c0.1-0.1,0.2-0.2,0.3-0.3
				c-0.7-0.5-0.9-0.4-1.3,0.2c-0.1,0.2-0.5,0.3-0.8,0.3c-7.2,0.7-14.5,1.5-21.7,2.2c-8.1,0.8-16.3,1.7-24.4,2.5
				c-7.1,0.7-14.1,1.4-21.2,2.1c-0.3,0-0.7,0.1-1,0.1c0-0.1,0-0.1,0.1-0.2c-0.3-0.1-0.5-0.3-0.8-0.4c-0.1,0-0.2,0.3-0.5,0.7
				c-0.3,0-0.7,0.1-1.2,0.1c-0.3,0-0.6-0.1-0.8-0.3c-0.4-0.3-0.7-0.3-1,0.1c-0.1,0.2-0.3,0.4-0.5,0.4c-5.2,0.5-10.4,1.1-15.6,1.6
				c0.1-1.3,0.6-1.5,2-1.9c2-0.5,4.1-0.2,6.1-0.4c0.5,0,1.1,0,1.5,0.3c0.6,0.3,1.1,0.3,1.5-0.1c1-0.8,2.2-0.9,3.4-1
				c0.6,0,1.1,0,1.7-0.1c0.7-0.1,1.1,0,1.1,0.8c0,0.1,0.1,0.3,0.2,0.4c0.1,0,0.2,0,0.3,0c0-0.5,0-0.9,0.1-1.4
				c0.7-0.3,1.4-0.8,2.4-0.3c0.4,0.2,1,0,1.4-0.2c0.7-0.2,1.3-0.4,2-0.2c0.3,0.1,0.7,0.1,0.9,0c0.8-0.5,1.7-0.2,2.5-0.2
				c1.3,0.1,2.6-0.3,4-0.4c0.6-0.1,1.3,0.1,1.9,0.1c0.3,0,0.7,0.1,1,0.1c1.8-0.4,3.5-1,5.3-1.4c0.5-0.1,1.2-0.1,1.7,0.1
				c1,0.3,1.9,0.2,2.8-0.1c1.7-0.7,3.5-0.7,5.4-0.6c0.6,0,1.2-0.1,1.8,0c0.5,0,1,0.1,1.4,0.3c0.6,0.3,1.1,0.3,1.5-0.1
				c1-0.8,2.3-0.8,3.5-1c1.4-0.2,2.8-0.5,4.2-0.7c0.3,0,0.6-0.2,0.8-0.1c0.9,0.5,1.7,0.2,2.6-0.1C233.4,78.4,233.6,78.4,233.6,78.4"
				/>
			<path class="st0" d="M89.9,232.9c0,0.5-0.2,1.1,0,1.2c0.4,0.3,0.9,0.3,1.1-0.3c0.7,0.5,1,1.1,0.9,2c0,0.1,0.2,0.4,0.3,0.4
				c0.2,0,0.6-0.1,0.7-0.2c0.2-0.4,0.2-0.9,0.3-1.5c2.6,1.3,5.3,2.7,8,4c-0.7,0.3-1.6,0.6-2.6,1c0.7,0.6,1.4,0.8,2.1,0.6
				c0.5-0.2,1-0.3,1.4,0.1c0.1,0,0.2,0,0.4-0.1c0-0.2,0-0.4-0.1-0.8c0.8,0,1.6-0.3,2.3-0.1c3.4,1.1,7,1.7,10.2,3.4
				c0.2,0.1,0.5,0.1,0.7,0.2c1.5,0.1,3.1,0.2,4.6,0.3c0,0.1,0,0.2,0,0.3c-2.2,0.4-4.5,0.9-6.8,1.3c0.1,0.3,0.1,0.6,0.3,0.9
				c0.1,0.2,0.3,0.3,0.5,0.3c0.1,0,0.3-0.2,0.3-0.3c0-0.9,0.5-0.7,1-0.5c0.2,0.1,0.4,0.1,0.7,0.3c-1,0.6-1.7,1.4-2.9,0.7
				c-0.4-0.2-0.7-0.4-0.6-0.8c0.1-0.5-0.2-0.6-0.6-0.6c-0.4,0-0.8,0.1-1.2,0.1c-1.2,0.2-2.3,0-3.5-0.4c-3.1-1.1-6.1-2.2-9.2-3.3
				c-0.4-0.2-0.9-0.3-1.4-0.5c0.5-0.4,1-0.7,1.4-1.1c-0.4-0.2-0.8-0.4-1.2-0.5c-0.2-0.1-0.6,0-0.7,0.1c-0.7,0.8-1.3,0.7-2.2,0.3
				c-2.2-1.1-4.4-2-6.6-3c0.5-0.8,0.7-2,2.1-1.9c-0.1-0.1-0.1-0.2-0.2-0.3c-0.6,0-1.3,0.1-1.7,0.1c-0.5-0.4-0.8-0.7-1.2-0.9
				c0.1-0.3,0.3-0.7,0.5-1.1c-0.2-0.1-0.5-0.3-0.7-0.2c-0.3,0.2-0.6,0.6-0.8,1c-0.5,0.2-1,0.5-1.5-0.2c0.2,0,0.4,0,0.7,0
				c-0.1-0.3-0.1-0.5-0.2-0.7c-0.2,0.1-0.5,0.1-0.7,0.2c-0.9,0.2-1.8,0.4-2.7,0.5c-0.1,0-0.3-0.2-0.6-0.4c0.5-0.4,0.9-0.7,1.4-1.1
				c-0.3-0.2-0.6-0.4-0.9-0.7c-0.2,0.4-0.4,0.9-0.7,1.1c-0.2,0.2-0.8,0.4-1,0.3c-0.6-0.2-1.1-0.7-1.6-1c-0.5-0.3-0.8-0.7-0.2-1.3
				c0.1-0.1,0-0.6,0-0.8c-0.2,0-0.2-0.1-0.3-0.1c-1.6,1-2.4-0.9-3.8-0.9c0.5-0.8,1.7-1.3,2.4-1.1c0.1,0,0.2,0.1,0.3,0.2
				c0.2,0.2,0.4,0.4,0.6,0.6c0.2-0.3,0.3-0.6,0.5-1c0-0.1,0-0.2,0-0.4c0.9,0,1.6,0.4,2.2,0.9c0.3,0.3,0.4,0.7,0.7,1.1
				c0.1,0.2,0.4,0.4,0.6,0.4c1.1-0.3,1.7,0.4,2.2,1.1c0.1,0.1,0.4,0.2,0.6,0.3c0.6,0.2,1.3,0.4,1.9,0.7c0.2,0.1,0.3,0.5,0.5,0.5
				c0.6,0.2,1.1,0.3,1.7,0.5c0.2,0.1,0.4,0.3,0.4,0.5c0,0.7,0.5,0.7,1,0.6C89.5,232.9,89.8,232.9,89.9,232.9 M104.1,241.2
				c0-0.1-0.1-0.2-0.1-0.3c-0.3,0-0.7-0.1-0.9,0.1c-0.2,0.1-0.4,0.5-0.5,0.7c0,0.1,0.2,0.5,0.2,0.4c0.3,0,0.5-0.1,0.7-0.3
				C103.7,241.8,103.9,241.5,104.1,241.2 M89.9,236.7c0.8,0.3,1.3-0.1,1.7-0.7C90.7,235.5,90.7,235.5,89.9,236.7 M110.3,243.3
				c0,0.1,0,0.2,0,0.4c0.3,0.1,0.6,0.2,0.9,0.1c0.2,0,0.3-0.3,0.4-0.5c0-0.1-0.1-0.1-0.1-0.2C111,243.2,110.7,243.3,110.3,243.3"/>
			<path class="st0" d="M53.5,175.2c0-0.4,0-0.6,0-0.8c0-0.8,0.1-1.5,0.2-2.3c0-0.3,0.2-0.8,0.3-0.8c0.5-0.1,1.1-0.7,1.6,0
				c0.3,0.3,0.8,0.3,1.3,0.5c0.1-0.4,0.1-0.7,0.2-1.1c0.3,0.1,0.6,0.2,0.9,0.2c0.4,0.1,0.8,0.2,1.2,0.1c2-0.3,4-0.7,6.1-1.1
				c0.6-0.1,1.2,0,1.9,0.1c0.5,0,1,0.2,1.4,0c1.9-0.6,3.9-0.8,5.9-0.6c1.2,0.1,2.4-0.4,3.5-0.7c1.3-0.3,2.6-0.7,4-0.2
				c0.5,0.2,1.1-0.1,1.7-0.3c1.4-0.5,2.8-0.9,4.2-0.5c0.2,0.1,0.6,0.3,0.6,0.4c0,0.2-0.2,0.5-0.3,0.8c-0.2,0.3-0.5,0.4-0.9,0.8
				c0.5,0.1,0.9,0.2,1.3,0.2c0.1,0.3,0.3,0.6,0.6,1.1c-0.6,0.1-1.3,0.3-1.9,0.4c-1.8,0.2-3.6,0.5-5.5,0.7c-2.8,0.3-5.6,0.5-8.3,0.8
				c-2.2,0.2-4.3,0.5-6.5,0.7c-0.7,0.1-1.5,0-2.2,0.1c-1.6,0.2-3.1,0.5-4.7,0.7C58,174.8,55.8,175,53.5,175.2"/>
			<path class="st0" d="M236.7,41.5c0.7,0.8,1.5,1.5,2.1,2.3c0.2,0.3,0.3,0.8,0.3,1.1c0.1,0.3,0,0.7,0.6,0.5c0.2,0,0.6,0.5,0.8,0.9
				c0.1,0.3,0,0.7,0,1.2c0.5,0,1,0.1,1.3,0.1c0.5,0.4,1,0.8,1.4,1.2c0.7,0.8,1.3,1.6,1.8,2.5c0.3,0.4,0,0.9-0.5,1
				c-0.3,0-0.5,0.2-0.7,0.2c0,0.1,0,0.2-0.1,0.3c0.6,0.3,1.2,0.6,1.9,0.9c0-0.5,0-0.8,0-1c0.1,0,0.1-0.1,0.2-0.1
				c1,1.1,2.3,2.1,1.9,4.2c0.7-0.5,1.1-0.3,1.4,0.2c1,1.8,2.1,3.5,3.1,5.3c0.1,0.2,0,0.6-0.1,1c2,0.5,1.7,2.8,3.1,4.2
				c-1.7,0.2-3.2,0.3-4.7,0.5c-0.4-2.1-1.8-3.7-3-5.3c-0.7-1-1.1-2.1-1.7-3.1c-2.3-3.9-5.1-7.4-8-10.8c-0.6-0.7-1.1-1.5-1.7-2.4
				c-1.3-0.2-3.3-3.2-3.3-5.7c1-0.1,2.1-0.3,3.1-0.3C236.1,40.5,236.4,41.2,236.7,41.5c-0.7,0-1.5-0.1-2.4-0.2
				c0.1,0.4,0.1,0.7,0.3,0.9C235,42.5,236.4,42,236.7,41.5 M237.3,43.5c0-0.1,0-0.2-0.1-0.3c-0.4,0.1-0.8,0.1-1.3,0.2
				c0.1,0.2,0.1,0.4,0.2,0.5C236.8,44.3,237.1,43.9,237.3,43.5 M237.8,47.8c0.5,0.2,0.9,0.4,1.3,0.6
				C239.1,47.5,238.9,47.3,237.8,47.8 M233.7,42.7c0,0.1,0,0.3-0.1,0.4c0.3,0.1,0.6,0.3,0.9,0.4c0-0.2,0.1-0.6,0-0.7
				C234.4,42.7,234,42.8,233.7,42.7"/>
			<path class="st0" d="M82.7,176.2c-0.2-0.2-0.4-0.4-0.5-0.6c-0.3-0.5-0.1-1,0.5-0.9c0.7,0.1,1.5,0.3,1.9,0.7
				c1.7,1.7,3.3,3.6,4.9,5.4c0.3,0.3,0.4,0.8,0.6,1.2c0.2,0,0.4-0.1,0.5-0.1c0.4,0.5,0,1.6,1.1,1.6c0.1-0.1,0.1-0.3,0.2-0.5
				c0.1,0,0.2,0.1,0.2,0.1c1.2,1.7,3,2.7,4.7,3.8c1.6,1.1,3,2.4,4.5,3.5c0.1,0.1,0.2,0.2,0.3,0.2c2.3,0.7,4,2.3,6,3.5
				c0.2,0.1,0.5,0.4,0.7,0.4c1.6,0.3,2.8,1.2,4.1,2c0.5,0.3,1.2,0.5,1.8,0.6c0.7,0.1,1.4,0.2,1.9,0.8c0.4,0.5,0.9,0.7,1.5,0.6
				c1.6-0.2,2.9,0.6,4.2,1.2c1,0.4,2.1,0.6,3,1c3.3,1.4,7,0.5,10.3,1.8c0.5,0.2,0.9,0.4,1.3,0.6c0.2,0.1,0.5,0.2,0.6,0.1
				c1-0.8,2.3-0.7,3.3-0.4c1.4,0.4,2.6-0.3,3.9-0.1c1,0.1,2,0,2.9-0.1c0.8-0.1,1.5-0.1,1.6,0.9c0,0.2,0.2,0.3,0.5,0.7
				c-2.8-0.2-5.5,0.7-8.2,0.1c-0.2-0.1-0.5-0.1-0.7-0.1c-3.7,0.2-7.4-0.1-11-1c-1.9-0.4-3.7-1-5.5-1.5c-0.4-0.1-0.9,0-1.3-0.1
				c-2-0.6-4-1.1-6-1.8c-1.6-0.6-3.1-1.4-4.6-2.2c-0.1-0.1-0.2-0.2-0.4-0.2c-2.5-0.4-4.6-1.8-6.7-3c-3.3-1.9-6.3-4.1-9.5-6.2
				c-0.3-0.2-0.5-0.4-0.6-0.5c0-0.4,0.1-0.8,0-1c-0.1-0.2-0.5-0.2-0.8-0.2c-0.7,0-1.8-0.6-1.9-1.3c-0.1-0.4-0.2-0.7-0.7-0.7
				c-0.1,0-0.2-0.1-0.2-0.1c-1.7-1.5-3.4-3-5.1-4.5c-0.9-0.8-1.6-1.8-2.4-2.7c-0.4-0.4-0.6-0.7,0-1.1c0.2-0.1,0.3-0.5,0.5-0.7
				l-0.1-0.2C83.7,175.6,83.2,175.9,82.7,176.2"/>
			<path class="st0" d="M174.7,238.2c0.2,0.5,0.3,0.8,0.4,1.3c-0.9,0.3-1.8,0.5-2.7,0.7c-0.2,0-0.4-0.2-0.6-0.3
				c-0.3,0-0.6,0.1-0.9,0.1c0,0.1,0.1,0.3,0.2,0.5c-13.1,2.7-26.3,3.9-39.9,2.5c0.4-0.1,0.6-0.2,1-0.3c-0.2-0.2-0.3-0.3-0.4-0.3
				c-1.2,0.2-2.2-0.3-3.4-0.5c-0.5-0.1-1,0.3-1.5,0.4c-0.3,0.1-0.7,0.1-1,0c-3.9-0.8-7.8-1.6-11.7-2.5c-1.9-0.4-3.7-1-5.6-1.5
				c0.5-0.3,0.8-0.6,1.3-0.7c0.7-0.1,1.5-0.2,2.1,0c1.7,0.4,3.4,0.8,4.9,1.8c0.4,0.3,1.2,0.3,1.8,0.2c1.7-0.3,3.2-0.1,4.7,0.7
				c1,0.5,1.9,1.1,3.1,0.5c0.1,0,0.2,0,0.2,0c1.5,0.7,3.1,0.6,4.8,0.6c0.5,0,1,0,1.5,0.1c1.5,0.5,2.9,0.4,4.4,0.2
				c0.7-0.1,1.5,0.2,2.1,0.5c0.5,0.2,0.9,0.3,1.3-0.1c0.3-0.3,0.5-0.3,1-0.1c0.5,0.3,1.2,0.2,1.8,0.2c1.6-0.2,3.3-0.4,4.9-0.6
				c1-0.1,1.9-0.1,2.8,0.4c0.5,0.2,1.2,0.1,1.9,0c1-0.2,2-0.6,3-0.8c0.8-0.1,1.6-0.1,2.4,0c1.4,0.2,2.8,0.1,4.1-0.5
				c0.7-0.3,1.4-0.5,2.1-0.6c2-0.3,4.1-0.5,6.1-0.9c1-0.2,1.9-0.6,2.9-0.9C174,238.4,174.3,238.3,174.7,238.2"/>
			<path class="st0" d="M63.9,29.2c0.4,0.6,0,1.5,1.1,1.6c0-0.3,0.1-0.6,0.2-1.1c0.3-0.1,0.6-0.1,1.1-0.2c0,0.6-0.1,1-0.1,1.5
				c0.1,0,0.1,0.1,0.2,0.1c0.8-0.7,1.2-2,2.6-1.8c-0.1,0.3,0,0.7-0.2,0.8c-1.7,1.5-3.5,2.9-5.3,4.4c-0.1-0.3-0.1-0.5-0.2-0.7
				c-0.5,0-0.9,0.1-1.3,0.1c-0.2,1,0.4,1,1.2,0.8c-0.3,0.3-0.4,0.4-0.6,0.6c-2.7,2.7-5.4,5.4-8.1,8.1c-0.4,0.4-0.8,0.9-1.2,1.3
				c-0.1,0.1-0.3,0.1-0.5,0c-0.7-0.2-0.7,0.2-0.7,0.7c0,0.4-0.2,0.9-0.4,1.3c-1.4,1.9-2.9,3.7-4.4,5.5c-0.2,0.3-0.7,0.4-1.1,0.6
				c-0.1-0.1-0.2-0.2-0.3-0.3c0.2-0.7,0.3-1.4,0.5-2.1c0-0.1,0.4-0.3,0.5-0.2c0.4,0.3,0.7,0.3,0.9-0.1c0.1-0.3-0.1-0.6-0.2-1.2
				c0,0,0.2-0.1,0.3-0.2c0.1-0.2,0.3-0.4,0.3-0.6c0-0.5-0.3-1.1,0.2-1.5c0.1-0.1-0.1-0.4-0.2-0.7c-0.2,0.1-0.3,0.2-0.5,0.3
				c-0.3,0.1-0.5,0.2-0.8,0.3c0-0.1-0.1-0.2-0.1-0.2c0.7-0.7,1.4-1.5,2.1-2.2c0.9-0.9,1.8-1.7,2.7-2.6c0.1-0.1,0.1-0.2,0.2-0.2
				c1.2-0.3,1.3-1.4,1.9-2.2c0.9-1.3,2-2.5,3.1-3.6c2-1.9,4.2-3.8,6.3-5.6C63.4,29.6,63.6,29.4,63.9,29.2 M51.5,43.5
				c0.6,0.5,1.1,0.8,1.8,0.4C52.9,43,52.6,42.9,51.5,43.5"/>
			<path class="st0" d="M12.3,154.2c0.4,0,0.6,0,0.7-0.1c0.2-0.1,0.4-0.2,0.6-0.4c-0.2-0.1-0.5-0.2-0.7-0.2c-0.2,0-0.5,0.1-0.8,0.2
				c0-0.5-0.1-0.9,0-1.3c0.4-1,0.3-2,0.1-3c-0.1-0.3,0-0.6,0.1-0.8c0.1-0.2,0.4-0.2,0.6-0.4c0.1,0.2,0.3,0.4,0.3,0.6
				c0.5,3.2,1,6.5,1.3,9.7c0.4,3.4,0.6,6.8,0.9,10.3c0,0.3,0,0.5,0.1,0.8c0.2,1.3,0.5,1.6,1.8,1.4c2.1-0.4,4.3-0.8,6.4-1.1
				c0.6-0.1,1.2,0,1.8,0.2c1.1,0.4,2.1,0.4,3.2-0.1c1.3-0.6,2.6-0.8,4-0.3c0.4,0.2,1.1,0.1,1.5-0.1c1.9-1.2,4-1.1,6.1-1.2
				c2.2-0.1,4.4-0.1,6.6-0.2c2-0.1,4-0.2,6-0.3c0.4,1,0.3,1.2-0.7,1.3c-3.3,0.3-6.6,0.8-9.8,1c-8.6,0.6-17.1,1.9-25.7,2.6
				c-0.7,0.1-1.3,0.1-2.2,0.2c0.1-0.6,0.1-1.1,0.2-1.6c0.2-0.9,0.1-1.7-0.5-2.6c-0.2-0.3-0.2-0.9-0.2-1.3c-0.1-0.8,0-1.6-0.3-2.3
				c-0.6-1.5-0.9-2.9-0.7-4.5c0.1-0.9-0.4-1.8-0.5-2.7c-0.1-0.5,0-1,0.1-1.5c0-0.5,0.1-0.9,0-1.4C12.7,155,12.5,154.7,12.3,154.2"/>
			<path class="st0" d="M48.2,99c-2.2,0.2-4,0.4-5.9,0.6c-1.4,0.1-2.8,0.3-4.3,0.4c-0.3,0-0.7-0.2-1.1-0.3c-0.2,0-0.7,0-0.7,0.1
				c-0.2,0.6-0.7,0.5-1.1,0.5c-8.3,0.9-16.7,1.7-25,2.5C9.2,103,9,103.3,9,104.1c0,3.9,0.7,7.8,1.2,11.6c0.3,2.5,0.4,5.1,0.6,7.7
				c0.1,0.6-0.3,0.7-0.8,0.7c-0.4-1.3-0.9-2.6-1.4-4c0.5-0.1,1-0.2,1.4-0.4c0-0.1,0-0.2,0-0.2c-0.4-0.2-0.8-0.4-1.3-0.6
				c0-0.5,0.1-1.1,0.1-1.6c0-0.2-0.1-0.5-0.2-0.7c-0.4-0.9-0.8-1.8-0.3-2.8c0.2-0.3,0.1-0.9-0.1-1.3c-0.5-1.2-0.9-2.3-0.3-3.6
				c0.1-0.3,0-0.7,0-1.1c-0.3-1.7-0.6-3.3-0.9-5.1c1.1-0.5,2.2-1.2,3.4-1.5c1.6-0.4,3.2-0.5,4.9-0.8c0.9-0.1,1.8,0,2.6-0.1
				c1.5-0.1,3-0.2,4.5-0.5c0.7-0.1,1.2-0.2,1.9-0.1c0.8,0.2,1.6,0.1,2.4,0c0.8-0.1,1.6-0.3,2.4-0.5c0.2,0,0.6-0.1,0.7,0
				c1.1,0.7,2.2,0.2,3.3-0.1c1.2-0.3,2.4-0.7,3.6-0.9c0.5-0.1,1.2-0.1,1.7,0.1c1.1,0.3,2.1,0.1,3.1-0.2c1.9-0.7,4-0.6,6-0.4
				C47.8,97.7,47.9,98.5,48.2,99"/>
			<path class="st0" d="M197.7,16.6c0.2-0.1,0.3-0.2,0.6-0.4c-0.2-0.2-0.4-0.6-0.5-0.6c-0.3,0-0.5,0.3-1,0.6c-1-0.5-2.4-1.2-3.7-1.8
				c-1.7-0.8-3.3-1.8-5.2-2c-0.7-0.1-1.4-0.5-2.1-0.9c-0.2-0.1-0.3-0.4-0.5-0.6c-1.9,0.2-3.2-1.2-4.8-2.1c1.4-0.2,2.8-0.3,4.2-0.6
				c0.8-0.1,1.7,0.2,2.4-0.6c0.1-0.1,0.5,0.1,0.7,0.2c0.9,0.3,1.7,0.6,2.5,1c0.1,0,0.2,0,0.2,0.1c1.6,1.2,3.7,1.2,5.4,2.3
				c0.7,0.5,0.8,0.5,0.1,1c-0.6,0.4-1.3,0.9-0.9,1.9c0.2-0.1,0.5-0.1,0.8-0.2c-0.2-0.2-0.4-0.4-0.5-0.6c0.3-0.2,0.6-0.4,0.9-0.5
				c0.7-0.3,1.4-0.5,2.1-0.1c1.4,0.7,2.9,1.3,4.3,2.1c1.2,0.6,2.4,1.3,3.7,2c0.2,0.1,0.2,0.4,0.3,0.7c-0.3,0.1-0.6,0.1-0.8,0.2
				c-0.5,0.2-0.6,0.7-0.3,1.1c0.2,0.4,0.5,0.9,0.8,1.3c-1,0.3-1.8,0.4-2.7-0.2C201.7,18.8,199.7,17.7,197.7,16.6"/>
			<path class="st0" d="M137.9,88.5c-0.2,0.6-0.3,1-0.5,1.5c0,0-0.1,0-0.3,0c-17.9,1.8-35.8,3.6-53.6,5.4c-0.9,0.1-1.2-0.2-1.3-0.9
				c3-1.5,6.1-1.2,9.2-1.3c0.4,0,0.8,0.1,1.1,0.3c0.6,0.4,1.1,0.3,1.5-0.1c1-0.8,2.2-0.8,3.5-1c1.4-0.2,2.8-0.5,4.2-0.7
				c0.4-0.1,0.8,0,1.2,0c0.2,0,0.4,0.2,0.5,0.1c1.5-0.6,3.2-0.3,4.7-0.6c0.4-0.1,0.8-0.1,1.3-0.1c0.9,0,1.8,0.1,2.6,0.1
				c0.8-0.1,1.6-0.4,2.4-0.5c0.4-0.1,0.8-0.1,1.1,0.1c0.7,0.4,1.4,0.3,2.1,0.1c1.5-0.4,3.1-0.9,4.6-1.2c0.5-0.1,1.1-0.1,1.6,0.1
				c1,0.3,1.9,0.3,2.8-0.1c1.7-0.7,3.5-0.7,5.4-0.6c0.6,0,1.3-0.1,1.9,0c0.4,0,0.8,0,1.1,0.2c0.9,0.6,1.6,0.3,2.3-0.3
				C137.4,88.7,137.6,88.6,137.9,88.5"/>
			<path class="st0" d="M112.4,11.1c0.5-0.2,1.2-0.2,1.6-0.6c0.8-0.8,1.7-1.3,2.8-1.5c1-0.2,2.1-0.4,3.2-0.6c0,0.3,0,0.5-0.1,0.7
				c0.1,0.1,0.1,0.1,0.1,0.1c0.8-0.2,1.5,0.6,2.3-0.1c1.4,0.6,2.3-0.6,3.4-1c1.5-0.5,2.9-1.3,4.6-1.1c0.9,0.1,1.9-0.3,2.8-0.5
				c2.6-0.6,5.2-0.5,7.8-0.2c1.2,0.1,2.4,0.1,3.6,0c1.6-0.2,3.3,0,4.9,0.2c1.2,0.1,2.4,0.4,3.5-0.1c0.2-0.1,0.6-0.1,0.7,0
				c1.2,1,2.7,0.4,4,0.5c1.2,0.1,2.3,0.1,3.5,0.2c0,0.1,0,0.2,0,0.2c-0.6,0.2-1.2,0.3-1.9,0.5c0,0.1,0,0.2,0,0.3
				c0.6,0,1.1-0.1,1.7-0.1c0.3,0,0.6,0.1,1,0.2c0.2,0,0.4,0.1,0.6,0c1.2-0.7,2.3-0.6,3.4,0.1c0.2,0.1,0.4,0.1,0.6,0.1
				c1.4-0.1,2.7,0.4,4.2,0.9c-0.3,0.1-0.5,0.2-0.6,0.3c-0.6,0.2-1.2,0.4-1.8,0.5c-0.4,0.1-0.9,0.2-1.3,0.1
				c-5.2-0.7-10.5-1.7-15.7-2.2c-3.2-0.3-6.5-0.1-9.7-0.1c-2.3,0-4.5,0-6.8,0.2c-3,0.3-6,0.8-9,1.3c-1.4,0.2-2.9,0.5-4.3,0.7
				c-0.6,0.1-1.2-0.1-1.8-0.1c-0.3,0-0.6,0.1-1,0.1c-0.1-0.1-0.5-0.4-0.5-0.3c-0.7,0.5-2.1-0.3-2.2,0.9c-0.4,0.2-0.7,0.4-0.9,0.5
				c-0.6,0.3-1.3,0.6-1.9,0.7C113,11.8,112.6,11.3,112.4,11.1L112.4,11.1z M152.6,7.1c-0.1-0.2-0.1-0.3-0.2-0.5
				c-0.4,0.2-0.8,0.3-1.1,0.5c0.1,0.2,0.3,0.5,0.3,0.5C151.9,7.5,152.3,7.3,152.6,7.1"/>
			<path class="st0" d="M78,23.3c-0.8-0.1-1.1,0-1.4,1c-1.2-0.8-1.2-0.8-1.1-1.5c0.7,0.3,3-0.5,3.7-1.3c-1.5,0.3-2.8,0.6-4.2,0.8
				c0.1-0.9,0.6-1.3,1.2-1.7c2.6-1.9,5.6-3.4,8.3-5.2c2.5-1.7,5.3-3,8-4.5c0.1-0.1,0.3-0.1,0.5-0.2c1.1-0.4,1.3-0.3,1.4,0.8
				c0.1,0.9,0.5,1.9,0.2,2.6c-0.3,0.7-1.4,1-2.1,1.4c-1.6,0.8-3.3,1.4-5,2.1c-0.5,0.2-0.9,0.6-1.4,0.9c-1.8,1.1-3.6,2.3-5.4,3.4
				c-0.5,0.3-1,0.5-1.5,0.7C78.8,22.7,78.5,23,78,23.3 M83.2,18.2c0.7,0.6,1.6,0.5,2.4-0.2C84.7,18,83.9,18.1,83.2,18.2"/>
			<path class="st0" d="M262.6,147c-0.6-0.1-1-0.1-1.4-0.1l0-0.2c0.5,0,0.9-0.1,1.4-0.1c1.2-0.1,2.4-0.1,3.5-0.3
				c1.8-0.2,3.5-0.5,5.3-0.7c1.2-0.1,1.3,0,1.1,1.3c-0.3,0-0.6,0.1-1,0.1c-6.1,0.6-12.2,1.2-18.3,1.8c-0.9,0.1-1.9,0-2.8,0.1
				c-2.2,0.2-4.4,0.6-6.6,0.8c-5.3,0.6-10.6,1.1-15.9,1.7c-0.7,0.1-0.8-0.2-0.9-0.8c-0.1-0.5,0.1-0.8,0.7-0.9c3.2-0.4,6.3-1,9.5-1.4
				c0.7-0.1,1.5,0,2.2,0.2c1,0.3,1.9,0.3,2.9-0.1c1.3-0.6,2.6-0.9,4.1-0.4c0.6,0.2,1.4,0,2-0.3c1.7-1,3.6-0.8,5.4-1
				c0.8,0.8,1.7,0.5,2.6,0.4c0.5-0.1,1-0.3,1.5-0.4c1.1-0.3,2.1-0.1,3,0.3C261.5,147.6,261.6,147.6,262.6,147 M231.7,149.8
				c-0.7,0.1-1.4,0.1-2.3,0.2C230.1,150.5,230.8,150.4,231.7,149.8"/>
			<path class="st0" d="M227.9,217.2c-0.1-0.3-0.1-0.5-0.3-1c-0.9,0.4-1.7,0.7-2.6,1.1c0.7,0.2,1.3,0.3,2,0.5c0,0.1,0,0.2,0,0.3
				c-0.2,0.1-0.5,0.2-0.7,0.2c-0.3,0-0.6,0-0.9,0.1c0.7,0.5,0.4,0.8,0,1.1c-0.3,0.2-0.5,0.5-0.8,0.6c-0.2,0.1-0.5,0.1-0.8,0
				c-0.2,0-0.5-0.2-0.6-0.2c-0.2,0.1-0.3,0.4-0.3,0.6c0.2,0.8-0.2,1.2-0.8,1.6c-2.5,1.9-5,3.8-7.5,5.7c-0.3-1,0.1-1.7,1.7-2.9
				c-0.3-0.5-0.7-0.9-1.2-0.5c-0.6,0.4-1,0.2-1.5-0.1c0.6-1,1.2-1.7,2.4-2c0.9-0.2,1.5-0.9,1.9-1.7c0.2-0.5,0.7-1,1.1-1.3
				c1.2-0.6,2.1-1.4,3-2.4c1.3-1.4,2.8-2.6,4.2-3.8c0.7-0.6,1.6-1.2,2.3-1.8c0.5-0.4,0.8-0.5,1.2,0.1c0.2,0.3,0.6,0.6,1,1
				c-0.8,0.3-1.2,0.6-1.2,1.4c0,0.3-0.5,0.6-0.9,0.8c-0.8,0.3-1,0.6-0.4,1.2C228.9,216.8,228.4,216.9,227.9,217.2 M220.4,221.9
				c0.6-0.4,1-0.7,1.5-1C220.2,220.4,220.2,220.4,220.4,221.9"/>
			<path class="st0" d="M258,157.7c-0.2,0.8-0.4,1.7-0.7,2.5c-2.2,6-4.1,12.1-7.1,17.8c-0.3,0.6-0.9,1.2-1.3,1.8
				c-0.1,0.2-0.2,0.5-0.3,0.7c-0.2,0.6-0.2,1.2-0.5,1.7c-2.3,3.8-4.7,7.5-7,11.3c-0.1,0.2-0.2,0.5-0.3,0.8c-0.1-0.1-0.3-0.2-0.4-0.2
				c-0.1-0.9-0.7-1.8,0.1-2.9c0.6-0.7,0.9-1.6,1.5-2.3c0.4-0.6,1-1.1,1.4-1.7c0.4-0.6,0.9-1.2,1-1.9c0.2-1.1,0.7-1.9,1.5-2.6
				c0.4-0.3,0.6-0.8,0.9-1.2c0.4-0.7,0.7-1.5,1.2-2.1c0.7-0.9,1.1-1.9,1.3-3c0.1-0.4,0.4-0.8,0.6-1.2c0.3-0.7,0.6-1.5,0.9-2.3
				c0.1-0.3,0.1-0.7,0.2-1c0.9-2.3,1.9-4.5,2.9-6.8c0.3-0.7,0.9-1.4,1.2-2.1c0.2-0.5,0.5-1,0.5-1.5c0-1.4,0.9-2.4,1.4-3.6
				c0.1-0.2,0.5-0.2,0.8-0.4C257.9,157.5,258,157.6,258,157.7"/>
			<path class="st0" d="M39.9,179c1.1,1.9,2.2,3.8,3.4,5.6c2.1,3.3,4.4,6.5,6.5,9.8c0.8,1.3,1.9,2.3,2.7,3.6c0.9,1.3,2,2.3,3,3.5
				c0.1,0.2,0.3,0.3,0.4,0.5c1.6,2.1,3,4.2,5.3,5.6c0,0.1,0,0.2-0.1,0.2c-0.7,0.1-1.4,0.2-2.2,0.2c-0.2,0-0.4-0.2-0.5-0.4
				c-0.2-0.3-0.4-0.6-0.6-0.9c-0.8-1.2-1.7-2.3-2.9-3.3c-1.9-1.5-3.4-3.5-4.4-5.7c-0.1-0.3-0.6-0.4-0.8-0.7c-2-2.6-4-5.3-6-8
				c-0.1-0.1-0.2-0.3-0.3-0.4c-1.5-2.6-2.9-5.3-4.4-7.9C38.4,179.6,38.5,179.5,39.9,179"/>
			<path class="st0" d="M83.2,75.7c-0.6-0.4-1.1-0.4-1.1,0.2c0,0.2,0,0.4,0,0.6c0,0.2,0,0.3,0,0.5c-1.2-0.2-1.7,0.3-1.4,1.3
				c0.2,0,0.4-0.1,0.7-0.1c-0.6,0.9-1.2,1.7-1.8,2.5c-0.9,1.4-1.7,2.7-2.6,4.1c-0.4,0.6-0.8,1.1-1.6,1.1c-0.6,0-0.9-0.2-0.7-0.8
				c0.3-0.7,0.6-1.4,1-2c0.3-0.5,0.7-1,1-1.5c0.3-0.6,0.7-0.8,1.4-0.3c0.2-0.2,0.4-0.4,0.7-0.7c-0.4-0.1-0.7-0.1-1.1-0.2
				c0.4-0.6,0.8-1.1,1.1-1.6c1.3-1.8,2.6-3.5,3.9-5.2c0.3-0.4,0.6-0.8,1-1.1c1.7-1.3,3.1-2.8,4.3-4.6c0.1-0.2,0.4-0.4,0.6-0.6
				c1.3-1,2.6-2,3.8-3.1c0.3-0.2,0.5-0.6,0.8-0.9c1.3-1.4,2.2-1.8,4.1-1.5c0.1,0,0.2,0.1,0.3,0.2c-2.5,2.2-5.1,4.3-7.5,6.6
				C87.7,70.9,85.5,73.3,83.2,75.7"/>
			<path class="st0" d="M273.1,80c0,0.9,0,1.8,0.1,2.8c0.2,2,0.4,4,0.6,6c0.7,6.2,1.4,12.5,2,18.7c0,0.2,0,0.7-0.1,0.7
				c-0.5,0.1-1,0.1-1.6,0.1c-0.1,0-0.1-0.5-0.1-0.7c0-0.4,0-0.9,0.2-1.2c0.4-1,0.5-2-0.2-2.9c-0.2-0.3-0.2-0.7-0.2-1
				c-0.2-1.4-0.4-2.9-0.5-4.3c-0.1-1.5-0.3-3.1-0.1-4.6c0.2-2.4-0.3-4.7-0.8-7c-0.6-2.6-1-5.3-0.8-8c0.1-1.2-0.5-1.8-1.7-2
				c-0.3,0-0.6-0.3-0.9-0.5c0.4-0.3,0.1-1.2,1-1.1c0.1,0,0.3,0,0.4,0c2.5-0.2,1.8-0.5,2.4,1.8C272.8,77.8,272.9,78.9,273.1,80"/>
			<path class="st0" d="M31.2,77.4c0.3,0.1,0.8,0.2,1.4,0.3c-0.3,0.8-0.7,1.6-0.9,2.3c-1.1,3-2.2,6.1-3.2,9.1
				c-0.4,1.2-1,1.9-2.4,1.9c-0.8,0-1.5,0.1-2.5,0.2c0.9-2.6,1.5-5.1,2.5-7.5c1-2.4,1.9-4.8,3-6.9c0.1,0.3,0.3,0.6,0.4,0.9
				c0.1,0.2,0.1,0.3,0,0.5c-0.1,0.5-0.3,1.1-0.2,1.6c0.1,0.8,0.7,0.7,1.3,0.6c0.6-0.1,0.6-0.4,0.5-0.9c0-0.3,0.1-0.6,0.1-0.9
				C31.2,78.4,31.2,77.9,31.2,77.4"/>
			<path class="st0" d="M211.3,24.7c1.2-0.4,1.2-0.4,0.9-1.7c-0.5,0.2-0.9,0.3-1.3,0.6c-0.4,0.3-1,0.1-1.2-0.4
				c-0.1-0.2-0.1-0.4-0.1-0.6c-0.3,0.1-0.5,0.2-0.7,0.2c-0.3,0-0.7-0.1-0.7-0.2c0-0.8-0.6-0.6-1.1-0.7c0.4-0.1,0.8-0.3,1.1-0.4
				c-0.2-0.4-0.6-0.8-0.5-1c0.1-0.5,0.6-0.9,1.1-0.7c0.4,0.1,0.7,0.5,1.2,0.8c-0.7,0.3-1,0.4-1.6,0.6c1,0.5,1.9,0.9,2.8,1.2
				c0.4,0.1,1.1,0.3,1.2-0.6c0-0.2,0.2-0.4,0.3-0.6c1,0.7,2.4,0.3,3,1.6c-0.7,0.5-2-0.3-2.3,1.1l0.1,0.1c1.5-0.1,2.9,0.3,4.3,0.5
				c0.3,0.1,0.7,0.1,0.9,0.3c1,0.9,2,1.8,3.1,2.7c0.3,0.3,0.8,0.6,1.1,0.9c0.2,0.3,0.4,0.9,0.3,1c-0.3,0.3-0.2,1.2-1.1,1
				c-0.3-0.1-0.8,0.1-1,0.4c-0.4,0.5-0.7,0.4-1.1,0c-0.6-0.4-1.2-0.8-1.8-1.2c-0.7-0.4-1.3-1-1.5-1.8c-0.1-0.2-0.4-0.5-0.5-0.4
				c-0.7,0.1-0.6-0.4-0.6-0.7c0.1-0.7-0.2-0.7-0.7-0.7C213.4,26,212.2,25.8,211.3,24.7"/>
			<path class="st0" d="M70.7,31.7c0.5,0.3,0.9,0.6,1.3,0.9c-2.3,1.7-4.6,3.4-6.8,5.1c-0.5,0.4-0.9,0.9-1.3,1.4
				c-3,3.2-6.1,6.4-9,9.7c-1.8,2-3.3,4.4-5.1,6.4c-1,1.1-1.5,2.5-2.6,3.7c-0.3-0.3-0.6-0.6-0.9-0.9c0.7-1.2,0.8-2.9,2.6-3.3
				c-0.5-0.6-0.4-0.8,0.3-0.8c0.6-0.1,1.1-0.5,1.6-0.8c-0.2-0.3-0.4-0.5-0.6-0.8c0.5-0.6,1.1-1.3,1.8-2c0.1-0.1,0.2-0.3,0.3-0.3
				c1.5,0.3,1.2-1,1.6-1.7c0.4-0.7,0.7-1.4,1.3-1.9c1.2-1.1,2.2-2.3,3.2-3.6c1.1-1.4,2.1-3,3.8-3.9c0.9-0.5,1.6-1.3,2.4-1.9
				C66.6,35.1,68.7,33.4,70.7,31.7"/>
			<path class="st0" d="M179.7,194.3c-0.2,0.7-1.2,0.5-1,1.4c0.5-0.1,1-0.2,1.5-0.3c0,0.1,0.1,0.1,0.1,0.2c-0.9,0.5-1.7,1.1-2.6,1.5
				c-3.6,1.9-7.5,3-11.4,4.1c-2.7,0.8-5.4,1.5-8.1,2c-2.2,0.4-4.5,0.5-6.8,0.7c-0.5,0-0.9,0.1-1.4,0.1c0-0.4-0.1-0.7-0.1-1
				c0.8-0.6,1.8-0.7,2.8-0.8c3.1-0.4,6.2-0.9,9.2-1.4c1.3-0.2,2.6-0.5,3.8-0.8c0.8-0.2,1.6-0.7,2.5-1c0.9-0.3,1.8-0.6,2.7-0.9
				c0.4-0.1,0.8-0.2,1.2-0.3C174.6,196.7,177.1,195.5,179.7,194.3"/>
			<path class="st0" d="M48.5,97.9c0.4-0.6,0.9-0.4,1.4-0.1c0.5,0.4,1,0.3,1.5-0.1c1-0.8,2.2-0.9,3.5-1c1.4-0.2,2.8-0.5,4.3-0.7
				c0.4-0.1,0.8,0,1.1,0c0.5,0,0.9,0.2,1.4,0c0.9-0.3,1.7-0.7,2.7-0.2c0.1,0.1,0.3,0.1,0.4,0c1-0.7,2.1-0.2,3.2-0.2
				c1.2,0,2.4-0.4,3.6-0.5c0.6-0.1,1.2,0.1,1.9,0.1c0.3,0,0.7,0.2,1,0.1c1.8-0.5,3.5-1,5.3-1.4c0.4-0.1,0.9,0,1.3,0
				c0.1,0,0.3,0.5,0.2,0.7c-0.2,0.4-0.4,0.8-0.7,1.1c-0.1,0.1-0.5,0.1-0.7,0.1c-9.7,1-19.4,2-29.1,2.9
				C49.7,98.9,48.8,99.3,48.5,97.9"/>
			<path class="st0" d="M248.4,68.2c-1.6,0.6-2,0.5-2.7-0.7c-0.8-1.4-1.4-3-2.3-4.4c-1.5-2.3-3.2-4.4-4.8-6.6c-2-2.7-4-5.4-6-8
				c-0.7-0.9-0.7-0.9,0.2-1.7c0.1-0.1,0.1-0.2,0.2-0.5c1.5,1.8,2.9,3.4,4.3,5.2c0.2,0.2,0,0.8-0.1,1.1c-0.1,0.2-0.3,0.3-0.4,0.5
				c0.2,0.1,0.3,0.4,0.5,0.4c0.2,0,0.5-0.1,0.7-0.3c0.1-0.1,0.1-0.3,0.2-0.8c1.3,1.8,2.6,3.4,3.7,5.1c1.2,1.7,2.2,3.6,3.3,5.3
				C246.2,64.6,247.3,66.4,248.4,68.2"/>
			<path class="st0" d="M147,247.7c0.1,0.4,0.2,0.7,0.2,1c-0.7,0.2-1.2,0.3-1.8,0.6c-0.1,0.1-0.2,0.4-0.3,0.7
				c-1.3,0-2.7-0.1-4.2-0.1c-0.1-0.4-0.1-0.6-0.2-0.9c-0.2,0-0.5,0-0.6,0.1c-0.9,1.2-2.2,0.7-3.3,0.7c-1.5,0-3.1-0.4-4.6-0.6
				c-0.9-0.1-1.9,0-2.8-0.1c-0.2,0-0.3-0.1-0.5-0.1c0-0.1,0-0.2,0-0.3c0.5,0,1.1-0.1,1.6,0c0.9,0.2,1.8,0.4,2.4-0.6
				c0.2-0.2,0.6-0.3,1-0.4c0.4-0.1,0.8-0.1,1.1-0.1c0.1-0.5,0.1-0.9,0.2-1.3c-0.4-0.1-0.8-0.7-1.5-0.2c-0.3,0.2-1.2-0.3-1.2-0.8
				c1.6,0.1,3.2,0.2,4.8,0.3c-0.5,0.5-0.9,0.9-1.3,1.4c0.1,0.1,0.1,0.2,0.2,0.3c1-0.1,2.1,0.5,3.1-0.4c-0.2-0.3-0.3-0.6-0.5-1.1
				c0.9,0.1,1.7,0.2,2.5,0.3c0.2,0,0.4,0.1,0.5,0.1c1-0.1,2-0.3,2.9-0.4c0.3,0,0.7,0.2,1,0.3c0.2,0.1,0.7,0.1,0.8,0
				c0.7-0.9,1.3-0.3,1.9,0.1c0.6,0.4,1.2,0.6,1.9,0.2c-0.2-0.3-0.4-0.5-0.7-0.8c1,0,2,0,2.9-0.1l0,0.2c-0.2,0.1-0.5,0.1-0.7,0.2
				c-0.2,0.1-0.3,0.4-0.4,0.6c-0.3,0.4-0.6,0.9-0.9,1.4c-1.2-0.9-2.4-1-3.7-0.9c-0.3,0-0.6-0.1-1-0.2c-0.7-0.2-1.4-0.1-2.2,0.3
				c0.3,0.2,0.5,0.3,0.8,0.4c-0.2,0.1-0.4,0.1-0.5,0.2c-0.3,0.3-0.9,0.7-0.8,0.9c0.2,0.6,0.8,0.6,1.3,0.5
				C145.3,249.1,146.2,248.6,147,247.7 M141.2,247.1c0-0.1,0-0.2-0.1-0.4c-0.5,0.1-1,0.2-1.5,0.3c0,0.1,0,0.2,0,0.3
				C140.2,247.2,140.7,247.1,141.2,247.1"/>
			<path class="st0" d="M212.6,161.6c0.7,0.1,1.2,0.2,1.8,0.2c-4.5,9-11,16.3-18.2,23.2c-0.1-0.7-0.3-1.2-0.3-1.7
				c0-0.2,0.1-0.4,0.3-0.5c0.4-0.4,0.9-0.7,1.4-1c0.7-0.5,1.2-1,1.5-1.9c0.2-0.7,0.8-1.3,1.5-1.7c1.5-1.1,2.7-2.5,3.6-4.1
				c0.6-1.2,1.4-2.3,2.6-2.8c0.1-0.1,0.3-0.2,0.3-0.3c0.6-1.9,2.7-2.8,3-4.9c0.1-0.6,0.8-1.3,1.3-1.7
				C212.4,163.8,213.1,163,212.6,161.6"/>
			<path class="st0" d="M36.3,64.4c0.3-0.2,0.4-0.3,0.5-0.4c0.1-0.2,0.2-0.5,0.3-0.8c-0.3,0.1-0.6,0.1-0.8,0.2
				c-0.2,0.1-0.4,0.2-0.9,0.4c0.1-0.6,0-1,0.2-1.3c0.6-1.2,1.2-2.5,2-3.7c0.4-0.6,1-1.1,1.5-1.7c0.2-0.3,0.4-0.5,0.6-0.8
				c0.5-0.8,1-1.6,1.5-2.4c0.1-0.1,0.4-0.1,0.6,0c0.5,0.3,0.9,0.4,1-0.4c0-0.1,0.4-0.4,0.5-0.4c0.3,0.1,0.7,0.3,0.7,0.5
				c0.2,1.4,0.6,2.8-0.5,4c-0.3,0.4-0.6,0.8-0.8,1.3c-0.4,0.9-1.1,1.1-2,0.8c0-0.2,0.1-0.4,0.1-0.5c0-0.2-0.2-0.4-0.3-0.6
				c-0.1,0.2-0.2,0.3-0.2,0.5c-0.3,0.7-0.6,1.5-1,2.1c-0.1,0.2-0.6,0.2-1,0.3c-0.6,0.1-1.2,0.1-1.8,0.2c-0.1,0-0.2,0.2-0.5,0.5
				c1.6,0.1,3,0.2,4.3,0.2c-0.6,0.8-0.7,0.9-1.7,0.5c-0.3-0.1-0.6,0-0.9,0c0,0.1-0.1,0.2-0.1,0.3c0.3,0.2,0.7,0.5,1,0.8
				C38,65.6,37.2,64.5,36.3,64.4"/>
			<path class="st0" d="M276.4,145.9c0.4-0.1,0.7-0.3,1.3-0.5c-0.5-0.2-0.7-0.3-1-0.4c0.1-0.1,0.2-0.2,0.3-0.2c1-0.2,1.4-0.8,1-1.7
				c-0.8-2.4-0.9-4.9-0.7-7.4c0.2-2.2-0.5-4.3-0.9-6.4c-0.3-1.5-0.5-3.1-0.8-4.7h1.8c0,0.4,0.1,0.8,0.1,1.2
				c0.3,3.7,0.7,7.5,1.1,11.2c0.3,2.8,0.6,5.6,1,8.4c0.1,0.8-0.2,1.1-0.9,1.1c-0.4,0-0.8,0.1-1.2,0.1
				C277.1,146.6,276.7,146.4,276.4,145.9"/>
			<path class="st0" d="M198.4,230.2c-6,3.6-12.6,6-19.2,8.1c-0.6-1.1-1.3-0.2-2.1-0.4c0,0.4,0,0.7,0,1c-0.3,0.1-0.7,0.2-1,0.3
				c-0.6-1-0.5-1.2,0.5-1.4c0.4-0.1,0.8-0.3,1.2-0.5c1.3-0.5,2.6-0.9,3.9-1.4c1-0.4,2-0.7,3-1.1c1.1-0.4,2.1-0.8,3.2-1.3
				c0.8-0.3,1.5-0.7,2.3-1.1c1.9-0.9,3.8-1.9,5.7-2.8c0.4-0.2,1,0.2,1.5,0.3C197.8,230.1,198.1,230.1,198.4,230.2"/>
			<path class="st0" d="M11.9,145.5c0.3,0.7,1.6,0.2,1.3,1.4c-0.4,0-0.8,0.1-1.3,0.1c-0.2-1-0.7-1.9-0.7-2.9
				c-0.1-2.2-0.7-4.4-0.1-6.6c0-0.1,0.1-0.2,0-0.2c-1.1-1.5-0.2-3.2-0.7-4.8c-0.3-1.1-0.1-2.3,0-3.5c0.1-1,0.1-1.9-0.5-2.7
				c-0.2-0.3-0.3-0.9-0.2-1.3c0.1-0.2,0.7-0.3,1.2-0.4c0.1,0.7,0.1,1.3,0.2,1.9c0.3,3.3,0.6,6.7,1,10c0.3,2.6,0.6,5.2,1,7.7
				c0.1,0.8,0,1.3-1,1.2C12.1,145.3,12,145.4,11.9,145.5"/>
			<path class="st0" d="M117.7,247.3c0.1-1.2,0.6-1.5,1.5-1.5c0.8,0,1.6-0.1,2.4-0.2c-0.1-0.3-0.1-0.6-0.2-0.8
				c4.1-0.6,8-0.6,11.3,2.4c-0.2,0.1-0.4,0.2-0.5,0.2c-0.8,0-1.6,0-2.4-0.1c-0.4,0-0.8-0.3-1-0.2c-0.5,0.2-0.9,0.7-1.3,1.1
				c-0.3,0.3-0.6,0.7-0.9,0.7c-0.3,0-0.7-0.3-1.2-0.6c-1.3,0.8-2.7-0.2-4.1-0.2c0.1-0.9,0.8-0.7,1.3-0.8c1.1-0.3,1.3-0.6,1.4-1.7
				c-0.3,0-0.7,0-1,0c-0.2,0-0.5,0.1-0.5,0.2c-0.2,0.7-0.7,0.6-1.2,0.7c-0.6,0-0.8,0.3-0.4,0.9c-0.3-0.1-0.7-0.1-0.9-0.4
				c-0.5-0.7-0.9-0.4-1.4-0.1C118.4,247,118.1,247.1,117.7,247.3"/>
			<path class="st0" d="M229.7,205.1c0.6,0.4,0.7,0.9,0.2,1.4c-1.1,1.2-2.2,2.4-3.4,3.6c-2.7,2.5-5.3,4.9-8.1,7.3
				c-1.3,1.1-2.8,2.1-4.2,3.2c-0.3-0.7-0.3-1.1,0.3-1.5c0.4-0.3,0.7-0.8,0.9-1.2c1.1-1.7,2.5-2.8,4.3-3.6c0.9-0.4,1.6-1,2.3-1.7
				c2.4-2.3,4.7-4.7,7.1-7.1C229.3,205.4,229.5,205.2,229.7,205.1"/>
			<path class="st0" d="M280.1,127.9c0.8,0.2,0.9-0.1,0.6-0.8c-0.4-1-0.6-2-1-3c0.1-0.1,0.2-0.1,0.2-0.2c0.5,0.3,1,0.6,1.6,0.9
				c0.4-1.4,0.4-1.4,0.7-1.5c0,1,0.6,1,1.4,0.6c0.1,0.4,0.2,0.6,0.2,0.9c0.2,2.1,0.4,4.1,0.6,6.2c0.1,0.6-0.1,0.8-0.7,0.8
				c-0.7,0-1.4,0.3-2.1,0.3c-0.3,0-0.8-0.3-0.9-0.6C280.2,130.4,279.9,129.2,280.1,127.9"/>
			<path class="st0" d="M239.9,204.5c-0.3-0.1-0.6-0.3-1-0.2c-0.3,0-0.9,0.1-1,0.3c-0.4,0.9-1.3,1-2.1,1.4c-0.1,0.1-0.3,0.1-0.4,0.2
				c-0.3,0.3-0.6,0.7-0.8,0.1c-0.2-0.3-0.1-0.8,0.1-1.2c0.1-0.3,0.4-0.4,0.5-0.5c0.7,0.1,1.2,0.1,1.8,0.2c0.1-0.1,0.1-0.2,0.2-0.2
				c-0.2-0.4-0.4-0.7-0.5-0.9c0.4-0.9,0.8-1.8,1.3-2.7c0.2-0.4,0.4-0.7,0.6-1.1c0.4-0.6,0.7-1.2,1.6-0.6c0.2,0.1,0.4,0,0.6,0
				c0.2-0.8,0.3-1.6,1.4-1c0.1,0,0.3,0,0.4-0.1c0.8-0.7,1.8-0.4,3-0.7c-0.2,0.4-0.3,0.6-0.5,0.8c-0.9,1.2-1.8,2.4-2.8,3.6
				c-0.2,0.2-0.5,0.3-0.8,0.4c-0.1-0.3-0.2-0.5-0.3-0.8l0-0.1c-0.1-0.4-0.2-0.8-0.2-1.3c-0.1,0-0.3,0.1-0.4,0.1
				c-0.1,0.5-0.1,1.1-0.1,1.6c0,0.1,0.1,0.2,0.2,0.3c-0.3,0.2-0.5,0.3-0.8,0.5C240.7,203.2,240.3,203.8,239.9,204.5"/>
			<path class="st0" d="M76.3,26.9c1-0.5,2-1.2,3.1-1.6c1.4-0.6,2.6-1.4,3.6-2.6c0.4-0.4,0.9-0.8,1.5-1c1.2-0.5,2.4-0.9,3.6-1.4
				c0.5-0.2,1-0.2,1.5-0.4c1-0.2,2-0.5,3-0.9c-0.6-0.9-1.3,0-2-0.3c1.6-0.8,3.3-1.6,4.9-2.4c0.3,0.5,0.5,0.9,0.8,1.4
				c-2.9,1.1-5.3,3.2-8.5,3.4c0,0.1,0,0.1,0,0.2c0.3,0,0.5,0,0.8,0.1c0,0.1,0,0.1,0.1,0.2c-1.5,0.7-3,1.4-4.5,2.1
				c-0.3,0.2-0.6,0.6-0.9,0.8c-1.2,0.8-2.4,1.5-3.6,2.2c-0.2,0.1-0.6,0-0.9,0c-0.4,0-0.8,0.1-1.2,0.2c-0.4,0.1-0.7,0.2-1.1,0.3
				C76.4,27.2,76.4,27.1,76.3,26.9"/>
			<path class="st0" d="M182,194.8c-0.4-0.4-0.7-0.7-1-1c0.2-0.1,0.5-0.2,0.8-0.4c0.1,0.2,0.3,0.4,0.5,0.7c0.2-0.2,0.4-0.4,0.6-0.6
				c-0.1-0.1-0.3-0.2-0.5-0.3c1-0.6,2.1-1.1,2.9-1.9c2.6-2.4,5.8-4,8.5-6.4c0.2-0.2,0.5-0.5,0.8-0.6c0.2-0.1,0.8,0.2,0.8,0.2
				c-0.1,0.6,0.2,1.3-0.4,1.8c-3.7,3.1-7.8,5.7-11.9,8.2C182.6,194.6,182.2,194.7,182,194.8"/>
			<path class="st0" d="M208.8,153.4c0.6-1,0.2-1.5-0.6-1.9c1.1-0.1,2.2-0.3,3.3-0.3c3.9-0.2,7.7-0.4,11.6-0.6
				c0.9,0,1.7-0.3,2.6-0.4c0.5-0.1,0.9-0.1,1,0.6c0.1,0.7-0.3,0.8-0.9,0.9c-4.7,0.5-9.4,1-14.2,1.4
				C210.7,153.2,209.8,153.3,208.8,153.4 M211.4,152.2c0.6,0.6,1,0.4,1.5,0.1c0-0.1,0-0.2,0-0.3
				C212.4,152.1,211.9,152.1,211.4,152.2 M213.5,152c0,0.1,0,0.2,0,0.3c0.5-0.1,1-0.1,1.5-0.2c0-0.1,0-0.2,0-0.3
				C214.5,151.9,214,151.9,213.5,152"/>
			<path class="st0" d="M190.8,62.2c0.9,0,1.8-0.5,2.7,0.3c3.1,2.6,6.2,5.1,8.6,8.4c0.5,0.6,0.9,1.3,1.3,2c-0.1,0.1-0.1,0.1-0.2,0.2
				c-0.4-0.2-0.8-0.3-1.1-0.6c-2.1-1.8-4.1-3.6-6.2-5.4c-0.1-0.1-0.3-0.2-0.3-0.4c-0.6-1.5-2-2-3.2-2.9c-0.6-0.4-1.1-0.9-1.7-1.4
				C190.6,62.4,190.7,62.3,190.8,62.2 M194.8,64.4c0-0.1,0.1-0.2,0.1-0.3c-0.3-0.2-0.7-0.4-1-0.5c-0.1,0-0.3,0-0.3,0.1
				c0,0.1,0,0.4,0.1,0.4C194,64.2,194.4,64.3,194.8,64.4"/>
			<path class="st0" d="M190.2,16.2c-0.3-0.1-0.5-0.2-0.7-0.3c0.1-0.1,0.1-0.2,0.2-0.4c0.7,0.3,1.5,0.4,2,0.9
				c0.4,0.4,0.8,0.5,1.3,0.6c0.8,0.2,1.6,0.5,2.4,0.8c0.1,0,0.1,0.3,0.2,0.5c0.1,0.2,0.2,0.4,0.3,0.6c0.1-0.2,0.3-0.4,0.5-0.6
				c0.1,0.3,0.2,0.6,0.3,0.8c2.1,0.3,3.8,1.4,5.5,2.4c1.4,0.8,2.4,2.1,4.3,2.1c-0.5,0.6-0.6,0.6-1.5,0c-0.5,0.8-1.1,0.6-1.9,0.2
				c-4.1-2.1-8.1-4.1-12.2-6.2C190.3,17.3,189.5,17.1,190.2,16.2 M194.1,18.3c0.1-0.2,0.1-0.4,0.2-0.5c-0.4-0.1-0.8-0.2-1.1-0.3
				l-0.1,0.4C193.3,18.1,193.7,18.2,194.1,18.3"/>
			<path class="st0" d="M112.4,11.1c-0.3,0.1-0.6,0.1-1,0.2c0.1,0.2,0.2,0.4,0.3,0.7c-0.7,0.2-1.3,0.5-1.9,0.7
				c-2.2,0.8-4.5,1.6-6.7,2.4c-0.8,0.3-1.5,0.6-2.4,0.4c-0.6-0.1-1.1,0-1.5,0.7c-0.3,0.5-1,0.7-1.5,1c-0.4-0.5-0.6-0.9-1-1.5
				c1.2-0.4,2.4-0.7,3.5-1c0.4-0.1,0.9-0.2,1.2-0.4c2.1-1.6,4.7-2.1,7.2-2.8c0.3-0.1,0.6-0.1,0.8-0.2
				C110.2,10.6,111.3,10.5,112.4,11.1L112.4,11.1z"/>
			<path class="st0" d="M96.8,232.3c-0.7,0.1-1.3,0.3-2,0.4c-0.5,0-0.9-0.2-1.4-0.4c-0.1,0-0.2-0.2-0.4-0.2c-3-1-5.7-2.6-8.2-4.5
				c-0.3-0.2-0.6-0.3-1-0.4c-0.6-0.2-1.1-0.5-1.7-0.7c0-0.1,0.1-0.2,0.1-0.2c0.2,0.1,0.4,0.2,0.6,0.2c0.4,0,0.7-0.1,1.1-0.1
				c0.4,0,0.9-0.2,1.2-0.1c1,0.4,2,0.9,2.9,1.5c0.4,0.2,1.2,0.2,0.9,1.1c0,0.1,0.6,0.6,0.9,0.5c1.3-0.3,2.3,0.3,3.2,1
				c0.9,0.8,2,0.8,3,1.4c0.3,0.1,0.5,0.3,0.8,0.4C96.8,232.1,96.8,232.2,96.8,232.3"/>
			<path class="st0" d="M109.6,236.9c-0.4,0.2-0.9,0.4-1.1,0.7c-0.4,0.6-0.9,0.5-1.5,0.3c-3.2-1.2-6.5-2.4-9.7-3.7
				c-0.1,0-0.2-0.1-0.3-0.1c0.2-0.3,0.4-0.5,0.4-0.8c0.2-1,0.2-1,1.2-0.6c1.6,0.6,3.1,1.2,4.7,1.9c0.2,0.1,0.6,0.3,0.6,0.5
				c0.1,0.8,0.5,0.5,1,0.5c0.4,0,0.8-0.1,1.2,0C107.2,236,108.4,236.5,109.6,236.9"/>
			<path class="st0" d="M82.1,224.3c-1.7,1-2.4,0.9-4-0.4c0.1-0.3,0.3-0.6,0.4-0.9c-0.1,0-0.1-0.1-0.2-0.1c-0.2,0.2-0.4,0.4-0.8,0.7
				c-1.2-1-2.5-1.9-3.7-2.9c-0.3-0.2-0.6-0.3-0.9-0.5c-0.8-0.6-1.7-1.1-2.5-1.7c0.9-1.4,1.5-1.5,2.6-0.6c2,1.7,3.8,3.5,6.2,4.7
				C80,223,81,223.6,82.1,224.3"/>
			<path class="st0" d="M59.4,208.5c0.5,0,0.8-0.1,1.1-0.1c1.4-0.1,1.4-0.1,1.7,1.2c0.9-0.5,1.4,0.3,1.9,0.8c2.2,2,4.4,4,6.5,6
				c-0.2,0.1-0.6,0.4-1,0.6C65.6,215,62.9,211.5,59.4,208.5"/>
			<path class="st0" d="M36.1,76.1c0.7,1.1,0.5,2.1,0.1,3c-0.6,1.4-1.1,2.8-1.7,4.1c-0.2,0.5-0.6,1-0.9,1.5
				c-0.1,0.4-0.1,0.9-0.2,1.3c-0.5,1.3-1,2.6-1.6,3.8c-0.2,0.4-0.7,0.6-1.2,0.7c0.8-1,0.7-2.2,0.8-3.4c0.1-0.7,0.3-1.4,0.5-2
				c1.2-2.8,2.4-5.6,3.6-8.4C35.7,76.6,35.9,76.4,36.1,76.1"/>
			<path class="st0" d="M36.2,70c-0.2,0.4-0.4,0.9-0.6,1.3c-0.2,0.5-0.5,0.7-1.1,0.6c-0.7,0-1.4,0.3-2.1,0.5
				c-0.4,0.1-0.9,0.1-1.4,0.1c0.1-2,0.5-3.6,1.9-4.9c0.4-0.4,0.6-1.1,0.9-1.7c0.1-0.2,0.4-0.3,0.6-0.4c0.1,0.2,0.2,0.4,0.3,0.6
				c0.1,0.3,0.1,0.6,0.1,0.9c-0.2,0.1-0.4,0.2-0.6,0.3c0,0.1,0,0.2,0.1,0.2c1,0.3,1.4,0.9,1.3,1.9C35.5,69.7,35.6,70.1,36.2,70
				L36.2,70z"/>
			<path class="st0" d="M212.6,29.3c1-0.1,2-0.4,2.8,0.5c0.7,0.7,1.5,1.4,1.4,2.6c1.1-0.2,1.9,0.3,2.4,1.2c0.1,0.1,0.2,0.1,0.3,0.2
				c0.6,0.3,1.1,0.5,1.9,0.9c-0.4,0.2-0.5,0.3-0.6,0.3c-0.5-0.1-1-0.2-1.5,0.1c-0.2,0.1-0.7-0.1-1-0.3c-1.8-1.4-3.5-2.9-5.2-4.4
				c-0.1-0.1-0.3-0.2-0.5-0.3c-0.8-0.2-1.4-0.6-1.7-1.5c-0.3,0-0.6,0-0.8-0.1c0.1-0.2,0.2-0.4,0.3-0.7c0.1-0.2,0.2-0.4,0.3-0.6
				c0.2,0.1,0.3,0.2,0.5,0.4c0.3,0.2,0.6,0.4,0.8,0.7c0.2,0.2,0.3,0.4,0.5,0.7C212.7,29.1,212.6,29.2,212.6,29.3"/>
			<path class="st0" d="M153,87.2c1.5-0.3,3-0.6,4.5-0.9c0.2,0,0.4,0,0.5,0c1.3,0.8,2.5,0.1,3.7-0.2c1.2-0.3,2.3-0.6,3.5-0.9
				c0.4-0.1,0.9,0,1.6,0c-0.5,0.7-1.3,1.1-0.4,1.8c-3.4,0.3-6.7,0.7-10,1c-0.3,0-0.7-0.2-1-0.4c-0.5-0.4-1-0.5-1.6-0.2
				c-0.2,0.1-0.5,0-0.7,0L153,87.2z"/>
			<path class="st0" d="M229,34.9c0.3,0.6-0.1,1.6,0.9,1.4c0.2,0,0.3-0.9,0.6-1.6c0.5,0.7,0.9,1.6,1.6,2.2c0.7,0.6,1.6,0.9,2.4,1.4
				c0,0.1-0.1,0.3-0.1,0.4c-0.5,0-1-0.1-1.5-0.1c-0.1,0-0.3,0-0.4,0c-0.3,0.1-0.7,0.3-1,0.3c-0.8,0-1.7,0.7-2.5-0.3
				c-0.5-0.7-1.1-1.3-1.6-1.9c-0.1-0.1-0.4-0.3-0.5-0.3c-0.9,0.1-1-0.4-0.9-0.8C226.9,35.4,228,35.2,229,34.9 M227.6,36.3
				c0,0.2,0,0.4,0,0.6c0.4,0.1,0.9,0.2,1.3,0.3c0-0.3,0-0.7,0-1C228.4,36.2,228,36.2,227.6,36.3"/>
			<path class="st0" d="M233.7,209.4c0.5-0.1,0.8-0.2,1-0.3c0.1,0.5,0.3,1.1,0.1,1.4c-0.7,0.9-1.5,1.6-2.4,2.6
				c-0.2-0.4-0.4-0.8-0.6-1.1c-0.2-0.4-0.4-0.8-0.6-1.3c-0.1-0.1-0.1-0.3-0.1-0.4c0.2-0.6,0.4-1.3,0.7-1.8c0.4-0.8,1-1.4,1.7-2.4
				c0.1,0.5,0.2,0.7,0.3,1c0.1,0.5,0.5,0.6,0.8,0.3c1-0.9,2.3-0.3,3.3-0.9c0.1,0.1,0.1,0.2,0.1,0.3c-0.3,0.2-0.6,0.5-0.9,0.6
				c-0.6,0.2-1.3,0-1.7,0.7c0,0.1-0.4,0-0.5-0.1c-0.7-0.3-1.8-0.2-2.5,0.3C232.9,208.8,233.3,209.1,233.7,209.4"/>
			<path class="st0" d="M139.4,88.4c1.4-0.2,2.8-0.4,4.1-0.7c0.9-0.2,1.7-0.6,2.7-0.2c0.3,0.1,0.8-0.2,1.3-0.2
				c0.6-0.1,1.2-0.1,1.8-0.1c0.5,0,1,0,1.6,0c0.1,0.4,0.2,0.9,0.5,1.6c-0.3-0.2-0.5-0.4-0.6-0.5c-0.2-0.3-0.3-0.8-0.4-0.8
				c-0.6,0-1.1,0.1-1.7,0.2c0,0.1,0,0.2,0,0.3c0.4,0.2,0.7,0.5,1.2,0.8c-1.8,0.4-3.6,0-5.3-0.3c0,0.1,0,0.2,0,0.3
				c0.1,0.2,0.2,0.3,0.4,0.5c-1.3,0.1-2.5,0.3-3.8,0.4C140.3,89.7,139.6,89.5,139.4,88.4"/>
			<path class="st0" d="M69.9,26.3c-0.4,0.2-0.8,0.3-1.2,0.5c0.2,0.1,0.4,0.3,0.7,0.5c0,0.6-0.6,0.7-1.1,0.7c-0.4,0-1,0.2-1.2-0.5
				c0-0.1-0.5-0.3-0.6-0.2c-0.3,0.2-0.6,0.5-0.8,0.9c-0.3,0.7-0.5,0.8-1.3,0.2c0.8-0.5,1.4-1,2.1-1.5c0.9-0.5,1.8-0.9,2.5-1.8
				c0.6-0.7,1.7-1,2.8-1.7c0.1,1.2,0.2,2.1,0.3,3.1c0.1,0.2,0.3,0.4,0.5,0.6c-0.3,0.1-0.6,0.3-0.9,0.3
				C70.5,27.5,70.4,27.4,69.9,26.3 M69.9,25.4c-0.1-0.1-0.2-0.2-0.3-0.4c-0.2,0.2-0.4,0.4-0.6,0.6c0,0.1,0.1,0.3,0.2,0.4
				C69.4,25.8,69.6,25.6,69.9,25.4"/>
			<path class="st0" d="M169.7,10.8c0.8-0.6,2.1-0.7,2.7-0.4c0.5,0.3,0.6,0.3,1-0.3c-0.3-0.1-0.5-0.1-0.8-0.2c0-0.1,0-0.1,0-0.2
				c0.3,0,0.5-0.2,0.8-0.1c1.9,0.5,3.7,1,5.8,1.6c-0.4,0.4-1.3,0.4-0.2,1.2c-0.8,0.1-1.3,0.3-1.7,0.1c-1.2-0.3-2.4-0.8-3.6-1.1
				c-0.3-0.1-0.5-0.1-0.8-0.1C171.8,11.2,170.8,11,169.7,10.8"/>
			<path class="st0" d="M231.7,46.8c-2-1.8-4-3.6-6-5.5c0.1-0.2,0.2-0.5,0.4-0.5c0.1-0.1,0.4,0.1,0.5,0.2c0.2,0.1,0.4,0.4,0.5,0.4
				c1.5-0.3,2.2,0.8,3.1,1.7c-0.2,0.1-0.4,0.1-0.5,0.2c-0.1,0.2-0.3,0.4-0.3,0.7c0,0.1,0.4,0.3,0.5,0.3c1.3-0.3,1.9,0.6,2.4,1.4
				C232.1,46.1,231.9,46.4,231.7,46.8"/>
			<path class="st0" d="M38.1,70.9c0.6-2.7,3-4,4.2-6.2c0.1,0,0.2,0,0.3,0.1c-0.1,0.6-0.1,1.2-0.4,1.7c-0.7,1.4-1.5,2.8-2.2,4.2
				c-0.3,0.6-0.5,0.8-1.1,0.3C38.8,70.9,38.5,71,38.1,70.9"/>
			<path class="st0" d="M199.8,229.5c-0.2-0.4-0.4-0.7-0.6-1.1c1.3-0.9,2.7-1.8,4.1-2.8c0.3-0.2,1.5,0.2,1.5,0.5
				c0,0.2,0,0.6-0.1,0.7c-0.2,0.2-0.6,0.3-0.9,0.2c-0.8-0.3-1.1-0.3-1.8,0.1c0.7,0.8,0.7,0.9-0.3,1.5c-0.3,0.2-0.6,0.3-1,0.5
				C200.4,229.3,200.1,229.4,199.8,229.5"/>
			<path class="st0" d="M226.2,39.6c-0.2-0.1-0.4-0.2-0.7-0.4c-0.7,0.8-1,0.8-1.8,0c-1-1-2.1-1.9-3.2-2.9c-0.2-0.2-0.5-0.4-0.7-0.6
				c1.9-0.7,4.2,0.8,4.2,3.1c0.3-0.2,0.6-0.3,0.8-0.4c0.5,0.3,1,0.7,1.5,1C226.3,39.5,226.2,39.5,226.2,39.6"/>
			<path class="st0" d="M225.4,33.1c-0.2-0.2-0.4-0.5-0.7-0.8c-0.5,0.5-0.9,1-1.4,1.6c-0.6-0.6-1.3-1.2-2-1.9
				c0.7-0.7,1.4-1.2,2.3-0.5c0.2,0.2,0.7-0.2,1-0.1c0.4,0.1,0.8,0.3,1,0.6C225.8,32.3,225.5,32.7,225.4,33.1L225.4,33.1z"/>
			<path class="st0" d="M225.4,33c0.1,0.3,0.1,0.6,0.2,0.9c0.6-0.4,1.2-0.6,1.2-1.4c0-0.4,0.5-0.7,1-0.3c0.6,0.5,1.2,1,1.9,1.6
				c-1.8,0.2-3.3,0.3-4.9,0.5C224.4,33.7,224.9,33.4,225.4,33L225.4,33z"/>
			<path class="st0" d="M182,14.2c1.3-0.8,3.6-0.7,4.4,0.1c0.4,0.4,0.7,0.9,1.1,1.5c-0.5-0.1-1.1-0.1-1.3-0.3
				c-0.5-0.6-0.9-0.4-1.5-0.4C183.9,15.1,183.1,14.6,182,14.2"/>
			<path class="st0" d="M209.4,28.1c-0.5-0.3-1.1-0.8-1.7-1.1c-0.7-0.4-0.8-0.8-0.3-1.5c0.4,0.1,0.9,0.7,1.4,0c0,0,0.3,0,0.4,0.1
				c0.5,0.3,0.9,0.7,1.4,1C210.2,27.1,209.9,27.6,209.4,28.1"/>
			<path class="st0" d="M44.1,61.8c-0.2-0.3-0.4-0.5-0.6-0.7c0.7-0.5,1.3-0.9,1.9-1.3c-0.1,0.7,0,1.5-0.3,2.2
				c-0.3,0.8-0.9,1.5-1.4,2.2C42.5,62.9,42.6,62.4,44.1,61.8"/>
			<path class="st0" d="M238.1,197.2c-0.5-0.1-1-1.1-0.8-1.4c0.6-1,1.2-1.9,1.8-2.8c0-0.1,0.2-0.1,0.2-0.1c0.1,0.7,0.4,1.5,0.3,2.2
				c0,0.3-0.5,0.8-0.8,0.9C237.9,196.1,237.7,196.4,238.1,197.2"/>
			<path class="st0" d="M275.1,114.1c0.1-1-0.1-2.1,0-3.1c0-0.2,0.4-0.4,0.5-0.5c-0.4-0.3-0.7-0.5-1.2-0.8c1.2-0.4,1.4,0.2,1.7,0.9
				C276.6,112,276,113,275.1,114.1"/>
			<path class="st0" d="M36.2,70c0-0.2-0.1-0.5,0-0.7c0.4-0.6,0.3-1-0.3-1.4c0.3-0.1,0.6-0.2,1-0.3c-0.1-0.4-0.3-0.7-0.5-1.2
				c0.1-1.5,1.2-0.5,2.1-0.6C37.6,67.3,36.9,68.6,36.2,70L36.2,70z"/>
			<path class="st0" d="M275.7,118.1c0-0.4-0.1-0.8-0.1-1.2c0-0.2,0.2-0.4,0.3-0.6c0.2,0.1,0.7,0.2,0.7,0.4c0.2,0.9,0.3,1.9,0.4,2.8
				c0,0.2-0.3,0.5-0.6,0.6c-0.2,0-0.5-0.3-0.6-0.5C275.7,119.1,275.7,118.6,275.7,118.1L275.7,118.1z"/>
			<path class="st0" d="M237.1,198.6c-0.9,0.9-1.6,1.7-2.4,2.5c-1.4-0.6-0.3-1.2,0-1.8C235.1,198.5,235.9,198.3,237.1,198.6"/>
			<path class="st0" d="M180.4,13c0.3-0.2,0.5-0.3,0.7-0.5c-0.2-0.2-0.3-0.3-0.4-0.5c0-0.1,0.1-0.1,0.1-0.2c0.9,0.4,1.9,0.8,2.8,1.2
				c0,0.1,0,0.1-0.1,0.2C182.6,13.1,181.5,13.8,180.4,13"/>
			<path class="st0" d="M38.5,74c-0.3,0.8-0.7,1.5-1,2.2c-0.3-0.5-0.5-0.9-0.8-1.5C36.9,73.7,36.9,73.7,38.5,74"/>
			<path class="st0" d="M214,228.4c-0.6,0.4-1.2,0.8-1.8,1.2c-0.2,0.1-0.8,0.1-0.9,0c-0.3-0.4,0.1-0.5,0.4-0.6
				c0.7-0.3,1.5-0.5,2.2-0.7C213.9,228.3,213.9,228.3,214,228.4"/>
			<path class="st0" d="M45.7,47.9c0.2,0.2,0.3,0.4,0.6,0.7c-0.3,0.4-0.2,1.3-1.1,1.1c-0.2,0-0.4,0-0.4-0.2c-0.1-0.1,0-0.3,0.1-0.4
				C45.1,48.7,45.4,48.3,45.7,47.9"/>
			<path class="st0" d="M181.9,7.1c0.1-1,0.7-1.1,2.8-0.3C183.7,6.9,182.8,7,181.9,7.1"/>
			<path class="st0" d="M224,28.9c0.4,0.4,0.8,0.9,1.2,1.3c0,0.1-0.1,0.2-0.1,0.2c-0.3,0-0.7,0.1-0.8,0c-0.3-0.4-0.5-0.8-0.7-1.3
				C223.7,29,223.8,29,224,28.9"/>
			<path class="st0" d="M43.4,50.9c0.1,0.5,0.3,0.9,0.3,1.3c0,0.1-0.2,0.4-0.3,0.4c-0.1,0-0.3-0.1-0.4-0.2
				C42.7,51.8,42.5,51.3,43.4,50.9"/>
			<path class="st0" d="M189.8,59.8c-0.8,0.9-2,1.1-2.5,0.1c0.6,0.1,1,0.3,1.4,0.3c0.3,0,0.6-0.4,0.9-0.6
				C189.7,59.7,189.8,59.7,189.8,59.8"/>
			<path class="st0" d="M213.4,227.4c-0.5,0.1-1,0.1-1.5,0.2c0-0.1-0.1-0.2-0.1-0.3c0.4-0.2,0.7-0.5,1.1-0.6c0.2,0,0.5,0.3,0.7,0.4
				C213.5,227.2,213.5,227.3,213.4,227.4"/>
			<path class="st0" d="M242.7,196.7c-0.5,0.1-0.7,0.1-1,0.2c0.1-0.6,0.3-1.1,0.4-1.7C243.1,195.5,242.1,196.3,242.7,196.7"/>
			<path class="st0" d="M239.5,205.4c-0.5,0.3-0.8,0.6-1.3,0.9C238.3,205,238.6,204.8,239.5,205.4"/>
			<path class="st0" d="M244.2,193.8c-0.2,0.4-0.5,0.8-0.7,1.1c-0.1-0.1-0.3-0.1-0.4-0.2c0-0.2-0.1-0.6,0.1-0.7
				c0.2-0.2,0.6-0.4,0.9-0.5C244,193.6,244.1,193.7,244.2,193.8"/>
			<path class="st0" d="M77.6,28.3c-0.5,0.3-0.8,0.6-1.2,0.9C76,28.3,76.1,28.2,77.6,28.3"/>
			<path class="st0" d="M180.6,6.6c-0.2,0.2-0.4,0.4-0.8,0.7c-0.1-0.6-0.1-1.2-0.2-1.8C180,5.9,179.8,6.7,180.6,6.6L180.6,6.6z"/>
			<path class="st0" d="M180.6,6.6c0.2-0.3,0.5-0.7,0.8-1c0,0,0.3,0.1,0.4,0.1c-0.1,0.2-0.1,0.5-0.3,0.6
				C181.2,6.5,180.9,6.5,180.6,6.6L180.6,6.6z"/>
			<path class="st0" d="M232.5,203.9c-0.3,0.3-0.6,0.6-0.9,0.9c-0.1,0-0.2-0.1-0.2-0.1c0.1-0.3,0.2-0.6,0.4-0.9
				c0.1-0.1,0.5-0.1,0.7-0.1C232.4,203.8,232.5,203.8,232.5,203.9"/>
			<path class="st0" d="M33.5,75.5c-0.1,0.3-0.3,0.6-0.5,1c-0.2-0.1-0.4-0.3-0.6-0.4c0.3-0.3,0.6-0.6,0.9-0.8
				C33.4,75.3,33.5,75.4,33.5,75.5"/>
			<path class="st0" d="M212.2,20.5c-0.6-0.1-1-0.2-1.4-0.3C211,19.4,211.3,19.4,212.2,20.5"/>
			<path class="st0" d="M184.3,7.5c0.7-0.1,1.4-0.1,2.1-0.2l0,0.1c-0.7,0.1-1.4,0.1-2.1,0.2L184.3,7.5z"/>
			<path class="st0" d="M91.1,170c-0.3,0.2-0.7,0.4-1,0.5c0-0.1-0.1-0.4-0.1-0.4c0.3-0.2,0.7-0.3,1-0.5C91,169.8,91,169.9,91.1,170"
				/>
			<path class="st0" d="M243.6,196.5c0.2-0.2,0.5-0.4,0.7-0.6c0.1-0.1,0.3,0.1,0.5,0.1c-0.1,0.2-0.1,0.4-0.2,0.5
				c-0.3,0.1-0.7,0.1-1,0.2C243.6,196.6,243.6,196.5,243.6,196.5"/>
			<path class="st0" d="M31.8,74.4c-0.2-0.8-0.1-0.9,1.2-0.8C32.6,73.9,32.2,74.2,31.8,74.4"/>
			<path class="st0" d="M192.1,61.4c-0.8,0.3-1.1,0.1-1.1-0.7C191.4,60.9,191.7,61.1,192.1,61.4"/>
		</g>
		<path class="st1" d="M33.5,138.2c0.3,3.1-1.1,4.9-4.2,5.2l-6.4,0.6l-1.6-16.4c-0.2-2.1-1-3.5-2.5-3.9l-0.1-0.7l8.8-0.8
			c1.5-0.1,2.6,0,3.3,0.5c0.8,0.6,1.3,1.9,1.5,3.7L33.5,138.2z M67.2,132.8c0.7,7-1.1,12.3-5.3,16c-3.2,2.8-7.8,4.5-13.8,5.1
			c-3.9,0.4-6.5,0.4-7.9,0c-1.8-0.4-2.7-1.2-2.8-2.1l-0.7-7l0.3-0.2c1.1,1.5,3.2,2.1,6,1.8c0.8-0.1,1.1-0.5,0.8-1.4l-6.4-18.1
			c-1-2.8-2-4.4-3.1-4.8l-0.1-0.7l9.7-0.9c2-0.2,3.4,0.8,4.2,3l3.6,10.5c0.4,1.5,0.7,2.8,0.8,4c0.3,3.5-0.9,5.8-3.8,6.9l0.3,0.8
			c5.4-0.5,7.8-3.6,7.3-9.2L55.2,125c-0.3-2.6-1.2-4.2-2.9-4.6l-0.1-0.7l9.1-0.9c1.5-0.1,2.6,0,3.3,0.5c0.8,0.6,1.3,1.9,1.5,3.7
			L67.2,132.8z M99.8,142.2c0.2,1.8,0.1,3.2-0.2,4c-0.5,1.2-1.6,1.8-3.3,2l-24.1,2.3l-0.4-4.2c-0.1-0.8-0.1-1.6,0-2.2
			s0.3-1.1,0.5-1.5c0.3-0.4,0.7-0.7,1.2-0.9c0.5-0.2,1.1-0.4,1.9-0.4l6.8-0.7c1.6-0.2,2.7-0.9,3.1-2.1c0.4-0.8,0.5-2.1,0.3-4
			l-0.4-4.5c-0.2-2.1-0.8-3.5-1.7-4.1c-1-0.7-3.1-0.9-6.2-0.6c-3.6,0.3-5.8,1.5-6.5,3.4l-0.5,0l-0.7-7.3c-0.1-1.2,0.5-2.2,2-3.1
			c1.4-0.9,4.5-1.5,9.2-2c5.4-0.5,9.3,0,11.5,1.5c2.3,1.5,3.7,4.6,4.1,9.1l0.3,2.6c0.5,4.9-1.2,8-4.9,9.3l0.1,0.8l3.8-0.4
			c1.6-0.2,2.8-0.8,3.4-1.9l0.4,0L99.8,142.2z M133.9,127.9c1.1,11.3-3.8,17.5-14.8,18.6c-10.3,1-15.9-3.8-16.9-14.3l-1.2-12.2
			c-0.2-2.2-1-3.5-2.3-3.9l-0.1-0.7l8.9-0.9c2.8-0.3,4.3,1.1,4.6,4.2l1.2,12.5c0.3,2.9,0.8,4.8,1.5,5.7c0.7,0.9,1.9,1.2,3.7,1.1
			c1.6-0.2,2.8-0.8,3.3-2.1c0.6-1.2,0.8-3.3,0.5-6.2l0-0.1c-0.1-1.3-0.3-2.4-0.4-3.3c-0.1-0.9-0.3-1.5-0.4-1.9
			c-0.6-2.2-1.7-3.2-3.3-3.1c-1,0.1-1.9,0.8-2.5,2.2l-0.4,0l-0.6-6.4c-0.1-1,0.3-1.9,1.2-2.7c0.9-0.8,2.5-1.4,4.7-1.6
			c3-0.3,5.4,0.1,7.2,1.1c1.8,1,3.2,2.9,4.3,5.6c0.7,1.9,1.2,4.7,1.5,8.2L133.9,127.9z M178.6,125c0.5,5.1-0.6,9.2-3.4,12.2
			c-2.4,2.7-5.6,4.2-9.7,4.6l-0.2,0c-1.9,0.2-3.5,0.1-4.8-0.4c-0.8-0.3-1.3-0.8-1.3-1.5l-0.7-7l0.3,0c1,0.6,2.1,0.8,3.4,0.7
			c4-0.4,5.8-2.8,5.4-7.2l-0.9-9l-13.4,1.3c-0.9,0.1-1.5-0.4-1.6-1.5l-1.1-11.7c-0.1-0.7-0.5-2-1.2-3.8l0-0.4l8.8-0.8
			c1.9-0.2,3,0.9,3.2,3.3l0.5,5.2l10.9-1c1.4-0.1,2.4,0,3.1,0.4c0.8,0.5,1.3,1.6,1.4,3.4L178.6,125z M195.2,133.9
			c0.3,3.1-1,4.9-3.8,5.1l-6.8,0.7l-2.6-27.5c-0.2-2.1-1.1-3.4-2.6-3.9l-0.1-0.7l8.3-0.8c3.3-0.3,5.2,1.1,5.5,4.2L195.2,133.9z
			 M225.3,113.1l-0.4,0c-0.7-0.7-1.7-1-2.9-0.9l-0.1,0c-1.7,0.2-2.5,1.2-2.3,3.2l1.5,15.9c0.3,3.1-1,4.9-3.9,5.1l-6.9,0.7l-1.5-15.1
			c-0.4-4.6,1.4-7.4,5.5-8.3l-0.1-0.7l-13.6,1.3c-1.7,0.2-2.9,0.8-3.5,1.8l-0.4,0l-0.7-7c-0.1-1.2,0-2.1,0.5-2.6
			c0.4-0.5,1.3-0.8,2.6-0.9l20.9-2c1.6-0.2,2.8,0,3.5,0.5c0.7,0.4,1.1,1.5,1.2,3.2L225.3,113.1z M240.7,118.3
			c0.3,3.1-1.1,4.9-4.2,5.2l-6.4,0.6l-1.6-16.4c-0.2-2.1-1-3.5-2.5-3.9l-0.1-0.7l8.8-0.8c1.5-0.1,2.6,0,3.3,0.5
			c0.8,0.6,1.3,1.9,1.5,3.7L240.7,118.3z M266.8,127.6c0.3,2.8-0.9,4.3-3.5,4.5l-5.9,0.6c-0.3-1.3-0.6-2.7-0.9-4
			c-0.2-1.3-0.4-2.7-0.5-4c0-0.3-0.3-0.5-0.9-0.4c-0.5,0.1-0.8,0.2-0.7,0.6c0.2,2.4,0.1,4.2-0.4,5.5c-0.4,1.2-1,2.1-1.7,2.6
			c-0.7,0.5-1.7,0.8-3.1,0.9c-2.3,0.2-3.5-0.6-3.7-2.5l-0.9-9.7l0.4,0c1,1.1,2.2,1.6,3.7,1.5c4.1-0.4,6-2.8,5.6-7.1l-0.4-4.1
			c-0.2-2.1-1.9-3-5-2.7c-2,0.2-3.4,1-4.4,2.4l-0.4,0l-0.7-7.1c-0.1-1,0.3-1.8,1.2-2.5c1.4-1,3.9-1.7,7.5-2c7.8-0.7,12,2.1,12.6,8.5
			L266.8,127.6z"/>
		<g>
			<path class="st1" d="M58.8,58.1c0.1,0.7,0.7,1.4,1.8,2.2L74,69.4c1.7,1.2,2,2.5,0.9,4.1l-2.5,3.7l-12-8.2c0.6,1.2,1,2.6,1,4.2
				c0.1,1.4-0.1,2.3-0.4,2.8c-0.3,0.4-0.6,0.4-1.1,0.1l-4.1-2.8c0.5-2.8,0.2-5.9-0.9-9.3c-0.1-0.4-0.1-0.9,0.2-1.2l3.3-4.8
				L58.8,58.1z"/>
		</g>
		<g>
			<path class="st1" d="M84.3,47.8c5.3,5.7,5.6,10.7,0.9,15.1c-2.4,2.2-4.7,3.2-7,3c-2.4-0.2-5.1-1.9-8-5c-3-3.2-4.5-5.9-4.6-8.2
				c-0.1-2.3,1.1-4.6,3.6-7c2.5-2.3,4.8-3.3,7.1-3.1C78.7,42.9,81.4,44.6,84.3,47.8z M78.8,52.8C76.5,50.3,75,49,74.3,49
				c-0.4,0-0.9,0.2-1.4,0.7c-0.6,0.5-0.9,1-0.8,1.5c0,0.6,1.2,2.2,3.6,4.7c2.3,2.5,3.8,3.7,4.6,3.7c0.4,0,0.9-0.2,1.3-0.6
				c0.6-0.6,0.8-1.1,0.7-1.5C82.2,56.7,81,55.1,78.8,52.8z"/>
		</g>
		<g>
			<path class="st1" d="M102.6,36.7c3.9,6.7,3.1,11.7-2.4,15c-2.8,1.6-5.3,2.1-7.5,1.4c-2.3-0.8-4.5-3-6.7-6.6
				c-2.2-3.7-3.1-6.7-2.7-9c0.4-2.3,2.1-4.3,5-6c2.9-1.7,5.4-2.2,7.6-1.5C98.2,30.8,100.4,33,102.6,36.7z M96.2,40.5
				c-1.8-3-3-4.6-3.6-4.8c-0.4-0.1-0.9,0-1.5,0.4c-0.7,0.4-1.1,0.8-1.2,1.3c-0.1,0.6,0.7,2.4,2.5,5.4c1.7,2.9,2.9,4.5,3.7,4.7
				c0.4,0.1,0.9,0,1.4-0.3c0.7-0.4,1.1-0.9,1.1-1.3C98.6,44.9,97.8,43.2,96.2,40.5z"/>
		</g>
		<g>
			<path class="st1" d="M116.5,26.3c1,4-0.5,6.6-4.6,7.6s-6.7-0.4-7.8-4.4c-1-4,0.5-6.6,4.6-7.6S115.5,22.3,116.5,26.3z M111.5,27.5
				c-0.4-1.7-1.1-2.4-1.9-2.2c-0.6,0.1-0.9,0.5-0.9,1.1c0,0.3,0,0.9,0.3,1.7c0.4,1.7,1.1,2.5,2,2.3C111.8,30.2,112,29.2,111.5,27.5z
				 M125.8,18.1l-8.4,24.1c-0.3,0.9-0.9,1.4-1.8,1.7l-3.3,0.9l8.2-23.8c0.4-1.1,1.1-1.8,2.1-2L125.8,18.1z M134,33.3
				c1,4-0.5,6.6-4.6,7.6c-4.2,1.1-6.8-0.4-7.8-4.4c-1-4,0.5-6.6,4.7-7.7C130.3,27.8,132.9,29.2,134,33.3z M128.9,34.4
				c-0.4-1.7-1-2.4-1.8-2.2c-0.6,0.2-0.9,0.5-0.9,1.2c0,0.3,0.1,0.9,0.3,1.7c0.4,1.7,1.1,2.5,1.9,2.3
				C129.2,37.1,129.4,36.2,128.9,34.4z"/>
		</g>
		<path class="st1" d="M162.7,38.4c-0.2,1.9-1.3,2.7-3.2,2.5l-4.6-0.6l1.6-12.4c0.2-1.4,0-2.3-0.4-2.9c-0.6-0.6-1.7-1.1-3.5-1.3
			c-2.5-0.3-4.1,0.1-4.8,1.2l-0.3,0l0.6-4.8c0.1-0.9,0.8-1.5,1.9-1.8c1.4-0.2,3.3-0.2,5.7,0.1c3.4,0.4,5.8,1.3,7,2.6
			c1.2,1.3,1.7,3.4,1.3,6.1L162.7,38.4z"/>
		<path class="st1" d="M187.2,32.9c-1.2,3.3-3.9,4.9-8,4.7c0.8,1.7,1.7,3.2,2.8,4.4c0.7,0.9,0.8,1.9,0.4,3.1l-1,2.7l-18.1-6.6
			l1.2-3.2c0.2-0.6,0.6-1.1,1.2-1.4c0.6-0.3,1.2-0.3,2,0l7.6,2.8l0.1-0.4c-0.8-0.4-1.6-0.9-2.4-1.7c-0.8-0.8-1.3-1.4-1.5-1.9
			c-1.4-3.4-1.9-7.3-1.6-11.9c0.1-1.2-0.1-2.1-0.6-2.5l0.1-0.4l6.2,2.3c1.4,0.5,2,1.5,1.8,2.9c-0.3,2.3-0.1,5,0.7,8.2
			c0.7-0.2,1.4-1.1,2-2.7l0.9-2.4c0.6-1.6,0.5-2.9-0.4-3.8l0.1-0.4l5.6,2.1c0.5,0.2,0.9,0.4,1.2,0.6c0.3,0.2,0.5,0.5,0.7,0.9
			c0.1,0.3,0.2,0.7,0.1,1.2c0,0.4-0.2,1-0.4,1.6L187.2,32.9z"/>
		<path class="st1" d="M190.9,50.2c-1,1.8-2.4,2.2-4,1.3l-3.9-2.3l9.1-15.8c0.7-1.2,0.7-2.2,0.1-3.1l0.2-0.4l4.7,2.7
			c1.9,1.1,2.4,2.6,1.3,4.3L190.9,50.2z"/>
		<path class="st1" d="M214,59.2c-1.8,2-3.2,3.4-4.5,4.2c-1.2,0.7-2.5,1.1-3.9,1c-1.4,0-2.9-0.8-4.8-2.4l-0.1-0.1
			c-1-0.8-1.6-1.6-1.8-2.3c-0.2-0.6,0-1.1,0.4-1.6l2.5-3l0.2,0.1c0,0.7,0.3,1.3,1,1.9c1.1,0.9,2.2,0.7,3.5-0.7l3.9-4.5
			c0.3-0.4,0.6-0.7,0.7-1.1c0.2-0.3,0.2-0.6,0.2-0.9c0-0.3-0.1-0.6-0.3-0.8c-0.2-0.3-0.5-0.6-0.8-0.9l-0.4-0.4
			c-0.7-0.6-1.3-0.8-1.9-0.7c-0.5,0.2-1.3,0.7-2.2,1.7l-7.1,7.2c-1.4,1.4-2.8,1.5-4.2,0.3l-3.7-3.1l7.2-7.2c1.4-1.4,2.5-2.2,3.3-2.4
			c1.3-0.3,2.7,0.1,4.1,1.3l0.4-0.4c-2.2-1.9-3.9-2.6-5.2-2.3l-0.2-0.2l2.9-3.4c0.6-0.7,1.2-0.9,2-0.6c1.3,0.5,3.7,2.2,7.2,5.2
			c1.9,1.6,3.1,2.8,3.8,3.5c1.4,1.6,2.1,3,2.2,4.4c0.1,1.4-0.3,2.8-1.3,4.4c-0.3,0.4-0.6,0.9-1.1,1.6c-0.5,0.6-1.1,1.4-1.8,2.2
			L214,59.2z"/>
		<path class="st1" d="M72.1,191.7c-0.6,0-1.2,0.2-1.7,0.7l-3.6,3.4c-1.1,1-2.1,1-3.1,0l-2.3-2.4l4.4-4.2c1.5-1.4,2.8-1.5,4.1-0.2
			l2.3,2.5L72.1,191.7z M72.9,202c-1.1,1.1-2.1,1.1-3.1,0.1l-2.3-2.4l6.9-6.6c0.7-0.7,1-1.3,0.8-1.9c-0.1-0.6-0.8-1.5-2-2.8
			c-0.9-0.9-1.7-1.6-2.4-1.8c-0.5-0.2-1.1-0.2-1.7-0.1l-0.2-0.2l2.7-2.6c0.5-0.5,1.1-0.5,1.8-0.2c1.1,0.5,2.4,1.5,3.8,3
			c2.1,2.2,3.3,4,3.5,5.4c0.3,1.4-0.4,2.9-1.9,4.3L72.9,202z"/>
		<path class="st1" d="M85.1,202.5c-0.8,0-1.5,0.4-2.2,1.4l-6.7,9.1c-0.9,1.2-1.9,1.4-3.1,0.6l-2.5-1.8l7.9-10.7
			c0.6-0.8,1.2-1.3,1.7-1.5c0.6-0.2,1.2,0,2,0.5l3.1,2.3L85.1,202.5z M90.1,209.8c-1.2,1.6-2.5,2.6-4.1,3c-1.5,0.3-2.9,0-4.3-1
			l-0.1-0.1c-0.6-0.4-1-0.9-1.2-1.4c-0.2-0.5-0.2-0.9,0.1-1.2l1.7-2.4c0,0.4,0.2,0.7,0.5,1c0.3,0.3,0.8,0.4,1.2,0.3
			c0.5-0.1,0.9-0.3,1.2-0.8l3.4-4.6l-5.6-4.1c-0.9-0.7-1.7-0.9-2.5-0.7l-0.2-0.1l2.1-2.9c0.4-0.5,0.8-0.8,1.2-0.7
			c0.3,0,0.7,0.2,1.3,0.6l9.2,6.8c0.8,0.6,0.9,1.3,0.3,2.2L90.1,209.8z"/>
		<path class="st1" d="M98,212.7c-0.7,1.3-1.8,1.6-3.1,0.9l-2.7-1.5l3.9-7c0.5-0.9,0.5-1.7,0.1-2.2l0.2-0.3l3.7,2.1
			c0.6,0.4,1,0.7,1.2,1.1c0.2,0.5,0,1.1-0.4,1.9L98,212.7z"/>
		<path class="st1" d="M114.8,219.5c-2,5.1-5.5,6.7-10.4,4.8c-4.6-1.8-6-5.1-4.2-9.9l2.2-5.5c0.4-1,0.3-1.7-0.2-2.2l0.1-0.3l4,1.6
			c1.3,0.5,1.6,1.4,1.1,2.8l-2.2,5.7c-0.5,1.3-0.7,2.2-0.6,2.8c0.1,0.5,0.6,1,1.4,1.3c0.7,0.3,1.4,0.2,1.9-0.2
			c0.5-0.4,1-1.2,1.6-2.6l0-0.1c0.2-0.6,0.4-1.1,0.6-1.5c0.1-0.4,0.2-0.7,0.3-0.9c0.2-1.1,0-1.8-0.8-2c-0.5-0.2-1,0-1.6,0.4
			l-0.2-0.1l1.1-2.9c0.2-0.4,0.5-0.7,1.1-0.9c0.6-0.2,1.4,0,2.4,0.4c1.4,0.5,2.3,1.2,2.9,2c0.6,0.8,0.8,1.9,0.6,3.4
			C115.8,216.6,115.4,217.9,114.8,219.5L114.8,219.5z"/>
		<path class="st1" d="M121.3,226.8c-0.4,1.5-1.2,2.1-2.6,1.7l-3.2-0.8l3.2-13c0.2-1,0-1.7-0.6-2.2l0.1-0.3l3.9,1
			c1.6,0.4,2.2,1.3,1.8,2.8L121.3,226.8z"/>
		<path class="st1" d="M130.3,222.9c-0.2,1.5-1.1,2.1-2.6,1.9l-3.1-0.5l1.3-7.9c0.2-1-0.1-1.7-0.7-2.1l0-0.3l4.2,0.7
			c0.7,0.1,1.2,0.3,1.5,0.7c0.3,0.4,0.4,1,0.3,1.9L130.3,222.9z"/>
		<path class="st1" d="M146,228.9c0,0.9-0.2,1.5-0.4,1.9c-0.3,0.5-0.9,0.8-1.7,0.7l-11.7-0.5l0.1-2c0-0.4,0.1-0.8,0.1-1
			c0.1-0.3,0.2-0.5,0.4-0.7c0.2-0.2,0.4-0.3,0.6-0.4c0.3-0.1,0.6-0.1,0.9-0.1l3.3,0.1c0.8,0,1.3-0.2,1.6-0.8c0.2-0.4,0.4-1,0.4-1.9
			l0.1-2.2c0-1-0.1-1.7-0.5-2.1c-0.4-0.4-1.4-0.6-2.9-0.7c-1.8-0.1-2.9,0.3-3.3,1.2l-0.2,0l0.1-3.6c0-0.6,0.4-1,1.1-1.3
			c0.7-0.3,2.3-0.4,4.5-0.3c2.6,0.1,4.4,0.6,5.4,1.5c1,0.9,1.5,2.4,1.4,4.6l0,1.3c-0.1,2.4-1.1,3.7-3,4.1l0,0.4l1.8,0.1
			c0.8,0,1.4-0.2,1.7-0.7l0.2,0L146,228.9z"/>
		<path class="st1" d="M153.7,223.2c0.1,1.5-0.6,2.3-2.1,2.5l-3.1,0.2L148,218c-0.1-1-0.5-1.7-1.2-1.9l0-0.3l4.3-0.3
			c0.7-0.1,1.3,0,1.6,0.3c0.4,0.3,0.6,0.9,0.7,1.8L153.7,223.2z"/>
		<path class="st1" d="M171.6,219.6c1.1,5.4-0.9,8.6-6.1,9.7c-4.9,1-7.8-0.9-8.9-5.9l-1.2-5.8c-0.2-1-0.7-1.6-1.3-1.8l-0.1-0.3
			l4.2-0.9c1.3-0.3,2.1,0.3,2.5,1.8l1.3,5.9c0.3,1.4,0.6,2.3,1,2.7c0.4,0.4,1,0.5,1.9,0.3c0.8-0.2,1.3-0.6,1.5-1.2
			c0.2-0.6,0.2-1.6-0.1-3l0-0.1c-0.1-0.6-0.3-1.2-0.4-1.6c-0.1-0.4-0.2-0.7-0.3-0.9c-0.4-1-1-1.5-1.8-1.3c-0.5,0.1-0.9,0.5-1.1,1.2
			l-0.2,0l-0.6-3c-0.1-0.5,0-0.9,0.4-1.4c0.4-0.4,1.1-0.8,2.2-1c1.4-0.3,2.6-0.3,3.5,0.1c0.9,0.4,1.7,1.2,2.3,2.5
			C170.8,216.6,171.2,217.9,171.6,219.6L171.6,219.6z"/>
		<path class="st1" d="M183.8,221.3c0.5,1.3,0.1,2.1-1.2,2.6l-6.3,2.4l-0.9-2.4c-0.4-1.1,0-1.8,1.1-2.3l1.4-0.5l-2.1-5.7
			c-0.3-0.8-0.9-1.1-1.8-0.8c-0.7,0.2-1.1,0.6-1.3,1.2l-0.2,0.1l-1-2.7c-0.2-0.6-0.2-1,0-1.4c0.4-0.5,1.2-1.1,2.6-1.6l0.1,0
			c1.4-0.5,2.6-0.7,3.5-0.5c1.2,0.3,2.2,1.3,2.8,3L183.8,221.3z"/>
		<path class="st1" d="M197.1,216.9c-1.5-0.9-4.3-2.4-8.5-4.5c0,0.3,0,0.5,0.2,0.8l1.4,2.6c0.2,0.4,0.5,0.5,0.9,0.2
			c0.2-0.1,0.4-0.3,0.6-0.7l0.1-0.1l0.9,1.7c0.3,0.6,0.5,1.1,0.4,1.5c-0.1,0.5-0.8,1.2-2.2,1.9l-0.1,0c-1.1,0.6-2,0.7-2.7,0.5
			c-0.7-0.3-1.4-1-2-2.2l-1.1-2c-0.5-0.8-0.6-1.7-0.4-2.6c0.1-0.3,0.2-0.7,0.5-1.2c0.2-0.5,0.5-1.1,0.9-1.8
			c-1.3-0.5-2.2-0.6-2.9-0.3c-0.4,0.2-0.6,0.4-0.7,0.7l-0.2,0.1l-1.2-2.2c-0.6-1-0.1-2,1.4-2.8c1.1-0.6,2-0.9,2.7-0.9
			c0.7,0,1.7,0.3,2.8,0.8c0.8,0.4,2,1,3.8,1.9c0-0.2-0.1-0.5-0.3-0.9l-0.9-1.6c-0.7-1.3-1.5-2-2.4-2l-0.2-0.3l3.7-2
			c1.3-0.7,2.3-0.2,3.2,1.4l0.5,1c0.5,0.9,0.6,1.8,0.4,2.7c-0.1,0.3-0.2,0.8-0.4,1.3c-0.2,0.5-0.5,1.1-0.8,1.8l5.5,2.7
			c0.3,0.1,0.5,0.4,0.6,0.6c0.4,0.7,0.2,1.2-0.5,1.6L197.1,216.9z"/>
		<path class="st1" d="M219.1,199.8c-1.7-0.5-4.8-1.2-9.4-2.1c0.1,0.3,0.2,0.5,0.4,0.7l2.1,2.2c0.3,0.3,0.6,0.3,0.9,0
			c0.1-0.1,0.3-0.4,0.4-0.8l0.1-0.1l1.3,1.4c0.5,0.5,0.7,0.9,0.7,1.3c0.1,0.5-0.5,1.3-1.7,2.5l0,0c-0.9,0.8-1.7,1.2-2.4,1.1
			c-0.8-0.1-1.6-0.6-2.5-1.6l-1.6-1.6c-0.7-0.7-1-1.5-1.1-2.4c0-0.3,0-0.7,0.1-1.3c0.1-0.5,0.2-1.2,0.4-2c-1.4-0.2-2.3,0-2.8,0.5
			c-0.3,0.3-0.4,0.6-0.5,0.9l-0.1,0.1l-1.7-1.8c-0.8-0.8-0.6-1.9,0.7-3.1c0.9-0.8,1.7-1.3,2.4-1.5c0.7-0.2,1.7-0.2,2.9,0.1
			c0.8,0.2,2.2,0.5,4.1,0.9c-0.1-0.2-0.3-0.5-0.5-0.8l-1.3-1.4c-1.1-1.1-2-1.5-2.8-1.3l-0.2-0.2l3.1-2.9c1-1,2.2-0.8,3.5,0.5
			l0.8,0.8c0.7,0.7,1.1,1.6,1.1,2.5c0,0.4,0,0.8-0.1,1.4c-0.1,0.6-0.2,1.2-0.3,2l6,1.2c0.3,0.1,0.6,0.2,0.8,0.5
			c0.5,0.5,0.5,1.1-0.1,1.7L219.1,199.8z"/>
		<path class="st1" d="M226.3,179.4c2,1.5,3.1,3.2,3.3,5.2c0.2,1.7-0.3,3.4-1.5,5l-0.1,0.1c-0.6,0.8-1.1,1.3-1.7,1.6
			c-0.4,0.2-0.7,0.2-1,0l-2.7-2l0.1-0.1c0.5-0.2,1-0.5,1.3-1c1.2-1.6,0.9-3-0.8-4.2l-3.5-2.6l-3.9,5.2c-0.3,0.4-0.6,0.4-1,0.1
			l-4.6-3.4c-0.3-0.2-0.9-0.5-1.7-0.8l-0.1-0.1l2.6-3.4c0.6-0.7,1.3-0.8,2.2-0.1l2,1.5l3.2-4.2c0.4-0.5,0.8-0.9,1.1-1
			c0.4-0.1,1,0.1,1.7,0.6L226.3,179.4z"/>
		<path class="st1" d="M233.6,166.4c2.2,1.2,3.5,2.7,4,4.6c0.4,1.7,0.2,3.4-0.7,5.1l0,0.1c-0.4,0.8-0.9,1.4-1.4,1.8
			c-0.4,0.2-0.7,0.3-1,0.1l-3-1.6l0.1-0.1c0.5-0.2,0.9-0.6,1.2-1.2c0.9-1.7,0.4-3.1-1.5-4.1l-3.8-2.1l-3.1,5.7
			c-0.2,0.4-0.5,0.5-1,0.2l-5-2.7c-0.3-0.2-0.9-0.3-1.8-0.5l-0.2-0.1l2-3.8c0.4-0.8,1.2-0.9,2.2-0.4l2.2,1.2l2.5-4.7
			c0.3-0.6,0.6-1,1-1.1c0.4-0.2,1-0.1,1.7,0.3L233.6,166.4z"/>
	</g>
</g>
</svg>
