<?xml version="1.0" encoding="utf-8"?>
<!-- Generator: Adobe Illustrator 19.2.1, SVG Export Plug-In . SVG Version: 6.00 Build 0)  -->
<svg version="1.1" id="Layer_1" xmlns="http://www.w3.org/2000/svg" xmlns:xlink="http://www.w3.org/1999/xlink" x="0px" y="0px"
	 viewBox="0 0 453.8 395.9" style="enable-background:new 0 0 453.8 395.9;" xml:space="preserve">
<style type="text/css">
	.st0{fill-rule:evenodd;clip-rule:evenodd;fill:#788248;}
	.st1{fill:#788248;}
</style>
<path class="st0" d="M0,151.8c1-0.1,2-0.1,3-0.2c1-0.1,2-0.4,2.8,0.8c0.2,0.4,1.5,0.3,2.1,0c1.7-0.6,3.3-1.4,5.1-1.9
	c0.9-0.3,1.9-0.2,2.9-0.1c1.8,0.2,3.5,0.5,5.2,0.6c1,0,2.1-0.2,3-0.6c2.8-1.3,5.7-1.3,8.7-1c0.7,0.1,1.4,0,2-0.3
	c2.4-1.2,4.8-1.4,7.3-0.8c0.7,0.2,1.5,0,2.3-0.2c1.4-0.2,2.7-0.8,4.1-0.8c3.5-0.1,7-0.4,10.5-1.1c3.1-0.7,6.3-0.9,9.4-1.3
	c1-0.1,2-0.3,3-0.3c0.5,0,1.3,0.2,1.6,0.6c0.6,0.8,1.3,0.8,2.1,0.5c1.1-0.4,2.3-0.8,3.4-1.2c2.3-0.9,4.7-1.4,7.2-0.6
	c2.2,0.7,4.5,0.3,6.6-0.6c2.2-1,4.5-1,6.9-0.9c1.2,0.1,2.6-0.1,3.7-0.6c2.2-0.8,4.4-1.1,6.7-0.5c0.8,0.2,1.8-0.2,2.7-0.3
	c0.6-0.1,1.1-0.5,1.6-0.5c1.3-0.1,2.7-0.2,4-0.1c4,0.1,7.8-1.2,11.6-1.7c3.2-0.5,6.4-0.7,9.6-0.9c0.4,0,1.1,0.2,1.3,0.6
	c0.6,0.9,1.3,0.8,2.2,0.5c1.9-0.7,3.8-1.4,5.8-1.9c1.1-0.3,2.4-0.3,3.5-0.1c2.7,0.6,5.4,0.7,7.9-0.5c2.2-1,4.4-1,6.7-0.9
	c1.2,0.1,2.6-0.1,3.7-0.5c2.3-0.8,4.5-1.1,6.9-0.4c0.8,0.2,1.8-0.2,2.6-0.3c0.7-0.1,1.3-0.6,2-0.6c5.1,0,10.1-0.7,15.1-1.8
	c2.9-0.6,5.9-0.7,8.8-1c0,0.1,0,0.3,0,0.4c-0.4,0-0.9,0.1-1.6,0.2c0.2,0.4,0.3,0.9,0.6,0.9c1.2,0.3,2-0.4,2.5-1.4
	c0.1,0,0.3,0,0.4,0.1c1,1.7,2.3,1.1,3.7,0.6c1.8-0.7,3.7-1.3,5.6-1.7c0.8-0.2,1.8-0.1,2.6,0.1c2.7,0.7,5.4,0.7,7.9-0.4
	c2.2-1,4.5-1.1,6.9-0.9c1.2,0.1,2.5-0.1,3.6-0.5c2.3-0.8,4.5-1.2,6.9-0.5c0.8,0.2,1.7-0.1,2.5-0.2c0.3,0,0.6-0.1,0.8,0
	c0.6,0.4,1,0.5,1.4-0.3c0.2-0.4,1.1-0.5,1.7-0.5c3-0.3,6.1-0.4,9.1-0.8c4.3-0.5,8.6-1.2,13-1.8c1.1-0.1,2,0,2.8,0.8
	c0.3,0.3,1,0.3,1.4,0.3c0.4,0,0.7-0.2,1.1-0.4c3.1-1.5,6.4-2.3,9.9-1.4c2.4,0.6,4.7,0.2,7.1-0.8c1.8-0.8,4-0.7,6-0.7
	c1.6,0,3.1,0,4.6-0.7c2-1,4.2-0.9,6.4-0.3c0.7,0.2,1.6-0.1,2.4-0.2c0.8-0.2,1.6-0.6,2.4-0.7c5.2,0,10.2-0.9,15.2-1.8
	c3-0.6,6.1-0.7,9.2-0.9c0.4,0,1.1,0,1.4,0.3c1.5,1.4,3,1.5,4.6,0.1c0.4-0.3,1.1-0.3,1.8-0.4c0.2,0.7,0.3,1.4,0.5,2.1
	c0.1,0,0.3,0,0.4,0c0-0.5,0.1-1,0-1.4c-0.3-1,0.2-1.6,1.1-1.6c2,0.1,4,0.4,6,0.6c0.3,0,0.5,0.5,0.7,0.8c4-2.1,8.2-3.2,12.7-2.7
	c0.7,0.1,1.4-0.1,2-0.4c2.3-1.1,4.6-1.3,7.1-0.7c0.8,0.2,1.8-0.1,2.6-0.3c0.7-0.1,1.4-0.5,2.2-0.6c4.9-0.1,9.8-0.8,14.6-1.7
	c3.2-0.6,6.6-0.8,9.9-1c0.6,0,1.3,0.2,1.7,0.6c0.7,0.7,1.4,0.7,2.3,0.4c1.9-0.7,3.7-1.4,5.6-1.9c0.9-0.2,1.9-0.2,2.8,0
	c3.1,0.5,6,1,9-0.6c2.7-1.4,5.6-0.8,8.5-0.4c0.2,0,0.6,0.5,0.6,0.8c0.5,3.1,1.2,6.2,0.9,9.5c-0.1,1.4,0.4,2.9,0.5,4.3
	c0.9,7.5,1.8,14.9,2.6,22.4c0.7,7.3,1.3,14.5,2,21.8c0.1,1.5,0.4,2.9,0.7,4.7c-1-0.4-1.6-0.7-2.3-1.1c-0.5,1-0.6,1.7,0.8,1.9
	c1.2,0.2,1.8,0.9,1.9,2.3c0.5,5.7,1.1,11.4,1.7,17.1c0.1,0.5,0.1,1,0.2,1.7c-0.5,0-0.9,0-1.2,0c-0.7,0-1.4-0.2-2.2-0.1
	c-1,0.1-1.9,0.2-2-1.3c-0.1-1.3-1-2.4-0.5-3.9c0.3-0.9-0.5-2.1-0.7-3.2c-0.2-1,0.3-1.4,1.3-1.3c0.4,0.1,0.9,0.1,1.3-0.1
	c0.3-0.1,0.6-0.6,0.6-0.9c0-0.2-0.5-0.4-0.8-0.6l-0.3,0c-2.7,0-2.7,0-2.7-3c0.4,0,0.7,0,1.2,0c0,0.4,0,0.7-0.1,1
	c1.3,0.2,2.4,0.3,3.7,0.5c0.1-0.8,0.1-1.4-0.9-1.3c-0.6,0-1.2,0.1-1.9,0.2c-0.1-0.4-0.2-0.6-0.1-0.9c0.1-1.4-0.4-2.4-1.9-3
	c-0.4-0.1-0.9-0.6-0.8-0.9c0.1-0.4,0.5-0.8,0.9-1.1c0.2-0.2,0.5-0.3,0.7-0.8c-0.5,0-1,0-1.6,0c-0.2-2.1-1-4.1-0.2-6.2
	c0.2-0.6-0.2-1.4-0.4-2.1c-0.4-1.1-0.9-2.1-1.4-3.1c2.1-0.9,2.3-1.4,1-2.8c0.3-0.2,0.6-0.5,0.9-0.7c-0.1-0.2-0.1-0.4-0.1-0.4
	c-1.8-0.9-1.7-2.7-2.2-4.3c-0.6-1.8-0.9-3.4-0.3-5.4c0.7-2.4,0.5-5.1-0.7-7.5c-1-2.2-1.7-4.5-1-6.8c0.5-1.5,0-2.6-0.3-4
	c-0.2-0.8-0.3-1.7,0-2.4c0.4-1.4,0.4-2.7,0-4.1c-0.6-2.3-1-4.7-1.4-7c-0.3-1.5-1.1-1.9-2.4-1.7c-1.5,0.1-3,0.3-4.5,0.4
	c-0.5,0-1,0-1.5,0.1c-0.3-1.1-0.4-2.4-2-1.9c0.2-0.6,0.4-1.1,0.6-1.9c-1.5,0.5-2.6,0.8-3.9,1.2c-0.1-0.2-0.2-0.6-0.4-0.7
	c-0.4-0.1-0.8-0.1-1.2-0.1c0.1,0.3,0.2,0.6,0.2,0.9c0.3,1.4,1.5,1.9,2.6,2.7c-0.2,0.1-0.4,0.2-0.5,0.2c-9.5,1-19,1.9-28.6,2.9
	c-10.6,1.1-21.3,2.2-31.9,3.3c-11.9,1.2-23.8,2.4-35.7,3.6c-10.4,1.1-20.8,2.1-31.2,3.1c-1,0.1-2-0.1-3.1-0.2
	c-0.3,0.2-0.8,0.6-1.4,0.7c-10.7,1.1-21.3,2.2-32,3.2c-4.8,0.5-9.6,0.9-14.4,1.4c-0.7,0.1-1.4-0.2-2.1-0.3c-0.4,0-0.9-0.1-1.1,0.1
	c-1.3,1.1-2.8,0.9-4.2,0.6c-0.2,0-0.5-0.1-0.6,0c-1.5,0.9-3,0.9-4.7,0.7c-0.5-0.1-1,0.4-1.5,0.4c-4.6,0.5-9.2,1-13.8,1.4
	c-0.7-1.9-0.7-1.9-2.7-1.6c-0.5,0.1-1,0.2-1.4,0.2c-1.3,0-2.1,0.4-1.8,2c-0.5,0.1-0.9,0.2-1.3,0.2c-5.6,0.6-11.2,1.1-16.8,1.6
	c-4.1,0.4-8.2,0.7-12.3,1.1c-1.2,0.1-2.2,0.3-2.5-1.5c-0.6,0.6-1,1-1.5,1.5c0-0.5-0.3-1-0.1-1.3c0.8-1.4,0.1-1.8-1.1-2.1
	c-0.2,0-0.4-0.2-0.6-0.3c-0.3,0.4-0.5,0.7-0.6,0.9c0.5,0.9,1,1.8,1.3,2.7c0.3,0.9-0.5,0.8-1,0.8c-2.9,0.3-5.9,0.7-8.8,1
	c-11.5,1.2-23.1,2.4-34.6,3.6c-0.2,0-0.4,0-0.5,0.1c-0.1-0.5-0.2-1-0.3-1.8c-0.5,0.4-0.9,0.6-1,0.8c-0.2,1.3-1.2,1.2-2.1,1.3
	c-3.8,0.3-7.6,0.5-11.4,0.9c-6.4,0.6-12.8,1.4-19.3,2.1c-5.6,0.6-11.2,1.2-16.9,1.8c-0.6,0.1-1.1,0.1-1.7,0.2
	c-0.3-1.3-0.5-2.4-0.8-3.5c-0.2,0-0.4,0.1-0.6,0.1c0.1,1.1,0.1,2.2,0.2,3.4c-0.5,0.1-1,0.2-1.5,0.3c-7.1,0.6-14.2,1.2-21.3,1.9
	c-5.9,0.6-11.8,1.4-17.7,2c-3.3,0.4-6.6,0.5-9.9,0.8c-5.4,0.6-10.7,1.2-16.1,1.8c-2.2,0.3-2.5,0.9-2,3c0.1,0.3,0.1,0.6,0.2,1
	c-0.4,0.2-0.7,0.5-1.3,0.9c2.1,0.5,1.9,2.1,2,3.5c0.6,7.4,1.2,14.7,1.8,22.1c0,0.3,0,0.5,0,0.9c-1.7,0.5-3.3,1.1-5,1.6
	c0,0.2,0,0.3,0,0.5c0.8,0,1.7,0.1,2.5,0c0.9-0.1,1.7-0.3,2.8-0.5c0.3,1.9,0.6,3.8,0.8,5.6c0,0.2-0.3,0.7-0.5,0.7
	c-1.3,0.2-2.7,0.3-4.2,0.5c0.1-1.2,0.2-2.1-1.1-2.2c-0.2,0-0.5-0.6-0.5-1c-0.2-2.4-0.5-4.8-0.6-7.1c-0.1-1.4,0.3-1.7,1.7-1.7
	c0.8,0,1.6-0.1,2.4-0.2c0-0.2,0-0.3,0-0.5c-1.3-0.2-2.7-0.5-4.1-0.7c-0.3-3.1-1.4-6-1.2-9.3c0.2-3.4-0.5-6.8-0.8-10.2
	c-0.2-2.5-0.4-4.9-0.8-7.4c-0.2-1.5-0.8-2.9-1.2-4.3C0.1,152.3,0,152.1,0,151.8z M216.6,130.4c-0.1,1-0.1,1.8-0.2,2.8
	c0.1,0,0.5,0.1,0.6,0.1c0.3,1.1,0.6,1.9,0.9,2.8c0.5-0.2,0.9-0.3,1.2-0.5c1.2-0.9,1.2-1.2,0.1-2.2c-0.2-0.2-0.3-0.7-0.3-1.1
	C218.9,130.1,218.7,129.9,216.6,130.4z M442.3,154.3c-1.1,1.1-0.8,2-0.3,2.8c0.1,0.2,0.7,0.5,0.9,0.4c0.3-0.1,0.6-0.6,0.5-0.8
	C443.2,156,442.8,155.3,442.3,154.3z M159.8,140.5c0.1,0.1,0.2,0.3,0.4,0.4c0.3-0.3,1-0.7,1-1c-0.1-0.9,0.3-2.3-1.4-2.4
	c-0.8,0.9,0.1,1.2,0.7,1.6C160.2,139.6,160,140,159.8,140.5z M344.2,120.6c-0.1-0.2-0.3-0.4-0.4-0.6c-1,0.7-1.9,1.5-2.9,2.2
	c0.1,0.1,0.1,0.2,0.2,0.3C342.4,122.4,343,121.1,344.2,120.6z M334.5,120c-0.7-0.3-1.1-0.6-1.5-0.6c-0.2,0-0.6,0.6-0.5,0.8
	c0.1,0.3,0.5,0.6,0.9,0.6C333.7,120.8,333.9,120.4,334.5,120z M79.9,149.2c1.7,0.5,2.1,0.2,2-1.1C81.1,148.5,80.5,148.8,79.9,149.2z
	"/>
<path class="st0" d="M6.9,219.7c0.1-1.9,0.3-3.8,0.3-5.7c0-2.6-0.1-5.3-0.4-7.9c-0.2-1.7-0.6-3.3-0.9-4.9c-0.1-0.7-0.2-1.5-0.2-2.2
	c1.9-0.5,3.6-0.9,5.5-1.4c0.1,0.2,0.3,0.7,0.4,1.2c0.5,5,1,9.9,1.6,14.9c0.1,1.2-0.3,1.6-1.5,1.7c-1.4,0.1-3.1,0-4,1.7
	c0.6,0.8,1.2,1.8,1.9,2.6c0.2,0.2,0.7,0.2,1.1,0.2c1-0.1,2-0.2,3.1-0.3c0.1,0.6,0.1,1.1,0.2,1.7c-0.6,0.8-2.7-0.4-2.5,1.9
	c0.9-0.1,1.7-0.2,2.7-0.3c0,0.6,0,1,0.1,1.4c0.2,2.3,0.3,4.6,0.6,6.8c0.4,3.9,1,7.8,1.4,11.7c0,0.4-0.3,0.9-0.4,1.2
	c0.3,0.8,0.7,1.5,0.8,2.2c0.4,4,0.8,8,1.2,12c0.3,3.5,0.6,7,0.9,10.4c0.3,2.8,0.6,5.6,0.8,8.2c2.2,0.3,3.9,0.6,5.7,0.8
	c0.8,0.1,1.6-0.1,2.3-0.3c1-0.2,1.9-0.4,2.9-0.6c1.7-0.3,3.5-0.5,5.2-0.7c1.1-0.1,2.2,0,3.3,0c0.9,0,1.9,0.1,2.7-0.1
	c2.8-0.8,5.5-1.1,8.4-0.9c1.4,0.1,3-0.4,4.4-0.7c1.5-0.3,2.9-0.8,4.4-1c0.9-0.1,1.9,0.2,2.9,0.2c0.9,0.1,1.8,0.3,2.6,0
	c2.6-1,5.1-1.5,7.9-1.2c1.6,0.2,3.4-0.6,5.1-0.7c2-0.2,4-0.3,6-0.4c0.3,0,0.8,0.5,0.9,0.9c0.1,0.9,0,1.8,0,2.8c0,0.7,0,1.5-0.1,2.5
	c-3.2,0.3-6.5,0.7-9.7,1c-3.4,0.3-6.9,0.4-10.3,0.8c-5.5,0.6-11.1,1.3-16.6,1.9c-2.2,0.3-4.5,0.5-6.7,0.7c-1.7,0.1-3.4,0.1-5,0.3
	c-3,0.3-6,0.7-9,1.3c-1.5,0.3-2-0.4-2.4-1.5c-0.1-0.2-0.1-0.4-0.2-0.6c-1,0.2-1.9,0.3-2.9,0.5c-1.2,0.2-1.4,0.9-0.4,2.2
	c-2.1,0.1-4,0.2-6,0.1c-0.2,0-0.6-0.8-0.6-1.2c-0.2-3.3-0.4-6.6-0.6-9.9c-0.1-0.8-0.3-1.6-0.4-2.5c-0.2-1.2-0.2-2.3-0.4-3.5
	c-0.1-0.9-0.3-1.7-0.5-2.6c-0.5-3-1-6.1-1.5-9.2c2-0.3,3.7-0.6,5.3-0.8c0-0.2,0-0.4-0.1-0.6c-0.9,0-1.7-0.1-2.6,0.1
	c-2.1,0.5-2.4-0.6-2.6-2.2c-0.3-1.7-0.6-3.5-1-5.2c-0.2-0.7,0-1.1,0.8-1.2c0.6-0.1,1.2-0.3,1.8-0.4c0-0.2,0-0.3-0.1-0.5
	c-0.8,0-1.7-0.1-2.5-0.1c-0.1-2.5-0.2-4.9-0.4-7.5c1.7,1,3.1,0.5,4.8,0.1c-1-1.4-2.2-1.6-3.3-1.1c-1.4,0.7-1.6-0.2-1.8-1
	c-0.2-0.8-0.4-1.7-0.3-2.5c0.1-0.6,0.7-1.1,1.1-1.8c-0.3-0.1-0.8-0.2-1.4-0.4c-0.1-0.5-0.1-1.1-0.2-1.7c-0.3-1.9-0.6-3.7-0.9-5.6
	c-0.1-0.5,0.1-1-0.1-1.5c-0.2-0.5-0.5-1-0.8-1.5L6.9,219.7z M13.2,234.1c0.4-0.6,0.6-1,0.9-1.3c-0.4-0.2-0.8-0.6-1.2-0.6
	c-0.3,0.1-0.6,0.6-0.9,1C12.3,233.4,12.6,233.7,13.2,234.1z M20.6,280.4c0.1-0.2,0.2-0.3,0.3-0.5c-0.5-0.5-1-1.1-1.7-1.3
	c-0.2-0.1-0.8,0.7-1.3,1.4C19.1,280.2,19.9,280.3,20.6,280.4z M75.3,276.2c0-0.2,0-0.3,0-0.5c-0.6-0.3-1.2-0.6-1.9-0.8
	c-0.2-0.1-0.6,0.2-0.9,0.3c0.1,0.2,0.1,0.5,0.2,0.5C73.6,275.9,74.4,276.1,75.3,276.2z"/>
<path class="st0" d="M211.5,0.4c2.3,0,4.6,0.1,6.8,0.1c0.7,0,1.5-0.1,2-0.2c-0.1,0.3-0.2,0.8-0.3,1.2c0.6,0.1,1.3,0.5,1.8,0.3
	c0.7-0.3,1.2-1,2-1.8c1.7,0.1,3.7,0.4,5.7,0.5c1.3,0.1,2.6-0.1,3.9-0.1c1.9,0,3.8,0.1,5.6,0.2c1.6,0.1,3.3,0.4,4.8,0.3
	c2.7-0.3,5.4-0.3,8,0.5c1.9,0.6,3.9,1.2,5.9,1.6c1.3,0.3,2.6,0.3,3.8,0.5c0.2,0,0.4,0,0.5,0.1c1.1,1,1.5,0.2,1.9-0.7
	c2.1,0.8,4.3,1.6,6.1,2.3c-0.6,0.2-0.6,0.3,0.1,3c1.3-0.1,2.7-0.3,4-0.4c0-0.4,0-0.6,0-0.8c0.1-0.5,0.1-0.9,0.2-1.4
	c0.6,0.2,1.2,0.3,1.8,0.5c0.5,0.1,1,0.4,1.4,0.4c0.7,0,1.6-0.7,1.6,0.8c0,0.3,0.9,0.8,1.5,1c1,0.3,2.2,0.2,2.2,1.7
	c0,1.2-0.2,2.1-1.3,2.9c-0.8,0.6-1.4,0.5-2.2,0.3c-1.6-0.3-3.2-0.6-4.8-1c-1-0.3-1.9-0.9-2.8-1.3c-0.5-0.2-1-0.5-1.5-0.4
	c-4.9,0.2-9.6-0.8-14.3-2c-7.2-1.8-14.5-1.6-21.8-1.8c-6.6-0.1-13.2,0.1-19.7,0.2c-2.4,0.1-4.8,0.5-7.2,0.7c1.3-0.8,2.5-1.6,3.7-2.3
	c-0.1-0.2-0.2-0.4-0.3-0.7c-1.4,0.4-2.8,0.8-4.5,1.3c0.3-0.7,0.5-1,0.6-1.3c-0.1-0.1-0.3-0.2-0.3-0.1C205,5,203.8,5.6,202.6,6
	c-2.7,0.8-4.7,3.2-7.9,2.6c-1.1-0.2-2.5,0.8-3.7,1.1c-4.2,1-8.5,2-12.8,3c-0.3,0.1-0.7,0.1-1.4,0.2c0.8-1,2.3-0.9,2.1-2.4
	c-0.9,0-1.7,0.1-2.7,0.1c1-1.2,0.1-1.5-0.7-2.1c-0.7,0.8-1.1,1.4-0.5,2.5c0.7,1.2-0.4,2-1.1,2.7c-0.4,0.5-1.2,0.9-2,0.2
	c-0.2-0.2-1.1,0.3-1.7,0.6c-0.4,0.2-0.6,0.7-0.9,0.8c-5.5,2.1-11,4.1-16.5,6.1c-0.2,0.1-0.4,0-0.7,0.1c-0.2-0.7-0.3-1.3-0.5-2
	c0.4-0.2,0.7-0.3,1.1-0.5c-0.6-0.5-1.3-0.9-1.9-1.4c-0.1-0.1-0.1-0.2-0.2-0.4c2.2-0.1,2.3-2.5,4-3.1c1.1-0.4,2.3-0.6,3.5-0.9
	c0.5-0.1,0.9-0.5,1.4-0.6c1.4-0.6,2.9-1.1,4.3-1.8c1.1-0.5,2.4-0.3,3.4-0.5c3.2-0.8,6.1-2.3,9.2-3.2c4.8-1.4,9.7-2.6,14.6-3.8
	c0.6-0.2,1.4-0.3,2-0.1c2.3,0.7,4-0.5,5.7-1.6c0.9-0.1,1.8-0.2,2.6-0.3c2,0.6,3.9,0.2,5.8-0.6C208.7,0.7,210.1,0.5,211.5,0.4z
	 M169.7,11.6c-1.5,0.2-3,0.3-4.6,0.5c0,0.1,0,0.3,0.1,0.4C166.7,13.1,168.9,12.7,169.7,11.6c0.5,0.1,1.1,0.3,1.6,0.4
	c0.4,0,0.8,0,1.1-0.2c0.2-0.1,0.1-0.9,0.1-0.9c-0.7-0.1-1.4-0.2-2.1-0.1C170.1,10.7,169.9,11.3,169.7,11.6z M259.7,7.3
	c0,0.2,0.1,0.4,0.1,0.6c0.4,0.2,1,0.7,1.2,0.6c0.5-0.4,0.8-1,1.2-1.5c-0.4-0.2-0.9-0.7-1.3-0.6C260.4,6.4,260.1,6.9,259.7,7.3z
	 M238.4,2.8c-1.1-0.1-2.1-0.1-2.5,1.2C237.4,4.4,238,4.1,238.4,2.8z M220.6,3.9c-0.7-0.3-1.2-0.6-1.4-0.6c-0.4,0.1-0.8,0.6-1.2,0.9
	c0.2,0.3,0.5,0.8,0.7,0.7C219.2,4.8,219.7,4.4,220.6,3.9z M276.2,8.9c-0.4,0.3-0.7,0.6-1.1,0.9c0.4,0.3,0.9,0.8,1.2,0.7
	c0.4,0,0.7-0.6,1.1-0.9C277,9.3,276.6,9.1,276.2,8.9z M238.5,2.1c0.1,0.1,0.2,0.2,0.2,0.4c0.6,0,1.2-0.1,1.8-0.1
	c0-0.1,0.1-0.3,0.1-0.4c-0.4-0.3-0.8-0.7-1.3-0.8C239.1,1.1,238.7,1.7,238.5,2.1z M194.9,4.3c0-0.3-0.1-0.5-0.1-0.8
	c-0.6,0.1-1.2,0.2-1.8,0.4l0.1,0.4C193.6,4.4,194.3,4.3,194.9,4.3z"/>
<path class="st0" d="M146.4,268.3c-0.8-0.7-1.7-0.7-2.7-0.3c-0.6,0.2-1.3,0.1-1.9,0.1c-0.8-1.9-0.7-2,1.2-2.6
	c2.2-0.7,4.4-1.3,6.6-0.9c2.4,0.4,4.7-0.3,6.9-0.9c0.4-0.1,1-0.1,1.4,0c1.9,0.5,3.8,0.4,5.6-0.2l0.1,0c3.1-0.4,6.1-0.8,9.2-1.2
	c0.3,0,0.6,0.2,0.9,0.2c1.1,0,2.2,0.1,3.3,0c2.4-0.2,4.9-0.9,7.3-0.8c2.5,0.1,4.8-0.7,7.1-1.2c0.3,0,0.5-0.1,0.8-0.2
	c0.1,0.1,0.1,0.3,0.2,0.4c-0.8,0.3-1.6,0.6-2.4,0.9c-0.3,0.1-0.5,0.3-0.8,0.5c0.2,0.2,0.5,0.6,0.7,0.6c0.6,0,1.2-0.1,1.8-0.3
	c0.9-0.4,1.8-0.9,2.9-1.4c-0.2-0.1-0.5-0.5-0.9-0.9c1-0.6,1.9-0.5,3-0.2c0.9,0.2,2,0.4,2.9,0.1c3.1-1.1,6.1-2,9.4-1
	c0.3,0.1,0.8,0,1.1-0.2c1.9-1.1,3.9-1,6-1.1c2.7-0.1,5.3-0.6,8-0.8c0.8-0.1,1.6-0.2,2.3,0.1c1.4,0.4,2.7,0.4,4.1-0.2
	c0.7-0.3,1.5-0.3,2.3-0.4c1.9-0.3,3.7-0.5,5.6-0.7c1.1-0.1,2.2,0,3.3,0.1c0.7,0,1.5,0.2,2.1,0c3.1-1,6.2-1.2,9.4-1
	c1.9,0.1,3.9-0.7,5.8-1.1c0.9-0.2,1.7-0.5,2.6-0.6c0.7-0.1,1.6-0.2,2.2,0.1c1.4,0.7,2.7,0.4,4.1-0.1c2.7-1.1,5.5-1.7,8.4-0.8
	c0.4,0.1,1,0,1.4-0.2c1.7-1.1,3.6-1,5.5-1.1c3-0.1,6,0.2,8.9-0.9c0.5-0.2,1.3,0,1.9,0.2c1.3,0.5,2.6,0.5,3.8-0.1
	c0.5-0.2,1.1-0.4,1.6-0.4c2.4-0.3,4.8-0.6,7.2-0.9c0.7-0.1,1.5-0.3,2.1,0c1.4,0.7,2.6,0.3,3.8-0.1c2.5-0.7,5.1-0.7,7.7-0.7
	c2.1,0,4.1-0.7,6.2-1.1c2-0.4,4-1.2,6.1-0.2c0.7,0.3,1.7,0,2.5-0.3c2.4-0.9,4.9-1.2,7.5-1.2c1.8,0,3.6-0.6,5.5-0.8
	c1.6-0.2,3.2-0.1,4.8-0.3c1.6-0.2,3.2-0.5,4.8-0.7c0.4-0.1,0.9,0.1,1.4,0.1c-0.1,0.4-0.1,0.8-0.3,1.2c-0.3,0.8-0.7,1.4-0.2,2.4
	c0.8,1.4-0.2,2.7-1.8,2.9c-6.6,0.6-13.2,1.1-19.8,1.7c-5.3,0.5-10.6,1.3-15.9,1.9c-4,0.4-7.9,0.8-11.9,1.2c-0.1-0.4-0.2-0.8-0.3-1.3
	c-1.4-0.4-1.6,0.8-1.9,1.3c-2.1,0.2-4.1,0.4-6.1,0.6c0-0.5,0.4-1.5-0.9-1.1c0.3,1.4-0.7,1.6-1.7,1.7c-9.9,0.8-19.8,1.6-29.7,2.6
	c-3.9,0.4-7.7,1.1-11.5,1.6c-5.7,0.7-11.4,1.4-17.2,1.7c-2.7,0.2-5.4,0.5-8.1,0.8c-8.2,1-16.3,1.7-24.5,2.5
	c-2.8,0.3-5.6,0.3-8.3,0.6c-5.6,0.6-11.1,1.3-16.6,1.9c-2.1,0.2-4.2,0.4-6.3,0.6c-1.8,0.1-3.5,0.2-5.3,0.3c-1.4,0.1-2.7,0.2-4.1,0.4
	c-4.7,0.6-9.4,1.1-14.1,1.7c-2.4,0.3-4.8,0.5-7.3,0.8c-0.6,0.1-1.2,0.1-1.8,0.2c0.6-0.9,1.1-1.6,1.6-2.4c0.1-0.1,0.4-0.1,0.5-0.2
	C146,268.8,146.1,268.5,146.4,268.3c1.2,0,3-1.3,3-2.5c-1.1,0.6-2.1,1.4-3.2,2.2C146.2,268,146.3,268.2,146.4,268.3z"/>
<path class="st0" d="M360.2,243.3c4.6,0,9.2-0.7,13.7-1.4c1-0.2,2.2,0.1,3.2,0.1c0.9,0,1.8,0.1,2.6-0.1c2.8-0.9,5.6-1,8.5-0.9
	c2.1,0,4.2-0.6,6.2-1.1c2-0.5,4-1.1,6.1-0.2c0.7,0.3,1.8,0,2.7-0.4c2.4-0.9,5-1.1,7.5-1.2c1.7,0,3.5-0.5,5.2-0.7
	c1.7-0.2,3.4-0.2,5.1-0.3c1.8-0.2,3.7-0.5,5.5-0.7c1-0.1,2.1-0.1,3.1-0.1c0,0.2,0.1,0.4,0.1,0.6c-0.5,0.2-0.9,0.4-1.4,0.5
	c-2,0.3-4,0.6-6,0.9c-0.3,0-0.6,0.2-0.9,0.3c0,0.1,0,0.2,0,0.4c1.1,0.2,2.2,0.4,3.4,0.5c0.5,0.1,1-0.1,1.5-0.2
	c1-0.2,2.2,0.2,3.1-0.9c0.3-0.4,1.3-0.2,2-0.4c0.6-0.1,1.3-0.1,1.3-1c0-0.2,0.5-0.6,0.8-0.6c1.7-0.3,3.4-0.5,5.1-0.7
	c1-0.1,2-0.5,3-0.5c1.2-0.1,2.3,0.1,3.5,0.1c1,0,2-0.2,3.3-0.3c-0.3-0.8-0.4-1.5-0.7-2c-1.5-2.4-1.9-5-1.6-7.9
	c0.1-1.1-0.2-2.2-0.5-3.3c-0.4-1.8-1.2-3.5-0.3-5.5c0.4-1,0.3-2.3,0.2-3.4c-0.1-2.1,0.4-2.8,2.5-2.9c2.7-0.1,2.8-0.1,3,2.6
	c0.6,6.3,1,12.6,1.6,18.9c0.2,2.5,0.7,5,1.1,7.5c0.2,1-0.2,1.4-1.2,1.5c-4.9,0.4-9.7,0.8-14.6,1.3c0-0.1,0-0.3-0.1-0.4
	c2-0.5,4.1-0.9,6.1-1.4c0-0.2,0-0.3-0.1-0.5c-3.1,0-6.2,0.5-9.3,1c0.3,0.7,0.5,1.1,0.7,1.7c-3,0.3-6,0.6-9,0.9
	c0-0.1,0.1-0.2,0.1-0.3c-0.5-0.4-1-1-1.4-1c-0.5,0.1-0.9,0.8-1.4,1.2c0.1,0.1,0.1,0.3,0.2,0.4c-6.6,0.5-13.2,0.9-19.8,1.4
	c-2.8,0.2-5.5,0.9-8.3,1.2c-3.5,0.4-7,0.7-10.6,0.9c-2.4,0.2-4.9,0-7.3,0.2c-0.6,0-1.3,0.6-1.9,0.8c-0.4,0.1-0.8,0.3-1.1,0.3
	c-3.1-0.5-5.9,0.6-8.9,1c-1.4,0.2-2.8,0.2-4.2,0.5c-1.3,0.2-1.7-0.3-1.7-1.5C360.1,246.4,360.1,244.8,360.2,243.3z M394.2,242.3
	c0,0.1,0,0.3,0,0.4c0.3,0,0.6,0.1,0.9,0.1c2.1-0.2,4.2-0.5,6.3-0.7c0.8-0.1,1.6,0.2,2.4,0.1c0.6,0,1.2-0.2,1.9-0.3
	c0.6-0.1,1.2-0.4,1.8-0.4c0.7,0,1.5,0.4,2.1,0.3c1.7-0.3,3.3-0.8,4.9-1.3c0.5-0.2,0.9-0.7,1.3-1l-0.2-0.2
	C408.4,240.3,401.3,241.3,394.2,242.3z M449.2,211.1c-0.8-0.2-1.4-0.3-2-0.4c0,0.4-0.1,0.9,0.1,1.1
	C447.8,212.2,448.5,212.4,449.2,211.1z"/>
<path class="st0" d="M159.6,257.7c-0.1,0.5-0.1,0.8-0.2,1.3c0.7-0.4,1.3-0.7,1.8-1c0.6-0.3,1.2-0.8,1.9-0.9
	c3.4-0.6,6.8-1.1,10.2-1.6c0.7-0.1,1.6-0.1,2.2,0.2c2,0.9,3.9,0.8,5.8-0.1c1.9-0.8,3.6-1,5.7-0.4c0.9,0.3,2.3,0.1,3.1-0.4
	c1.5-0.9,3.1-1.3,4.8-1.4c5-0.3,10.1-0.3,15.1-0.7c4.1-0.3,8.2-0.7,12.2-1.3c5.4-0.7,10.8-1.6,16.3-2.5c1-0.1,1.9-0.4,2.9-0.4
	c0.6,0,1.4,0,1.9,0.3c1.7,0.8,3.4,0.8,5.1,0.1c2-0.9,4-1.4,6.3-0.6c1.3,0.5,2.5,0,3.8-0.6c1.5-0.6,3.1-1,4.7-1.1c3-0.3,6-0.3,9-0.5
	c4.6-0.3,9.2-0.4,13.7-0.9c6-0.7,12-1.8,18-2.8c1.4-0.2,2.7-0.5,4.1-0.6c1.2,0,2.4,0,3.5,0.4c1.7,0.5,3.2,0.5,4.8-0.2
	c2.1-0.9,4.1-1.2,6.3-0.5c0.9,0.3,2-0.2,3-0.4c0.8-0.2,1.5-0.7,2.2-1c0.1,0.1,0.2,0.2,0.2,0.3c-0.7,0.7-1.4,1.3-2.3,2.2
	c1.3,0,2.5,0,3.6-0.1l0,0.3c-1.6,0.2-3.2,0.3-4.8,0.5c-18.8,2-37.6,4.1-56.5,6.1c-2.1,0.2-4.3,0.2-6.5,0.4c-2.7,0.2-5.4,0.5-8.2,0.8
	c-4.3,0.5-8.6,1.1-12.9,1.6c-14.4,1.5-28.8,3-43.2,4.4c-3.8,0.4-7.7,0.5-11.5,0.9c-14.7,1.5-29.3,3.2-43.9,4.6
	c-1.2,0.1-2.5-0.8-3.6,0.4c-4.5,0.3-9,0.5-13.5,0.9c-3.3,0.3-6.6,1-10,1.4c-9.6,1-19.2,2-28.8,3c-0.7,0.1-1.2,0-1.2-0.8
	c0-0.7-0.1-1.4,1.1-1.6c5.8-0.8,11.6-1.7,17.4-2.6c2-0.3,3.9-0.4,6,0.2c1.3,0.4,3,0,4.3-0.5c1.9-0.6,3.6-1,5.5-0.4
	c0.9,0.3,2.2,0.3,2.9-0.2c2.3-1.4,4.8-1.6,7.3-1.7c6.4-0.3,12.7-0.5,19.1-0.9c3.1-0.2,6.1-0.9,9.2-1.4
	C158.2,257.8,158.8,257.7,159.6,257.7z"/>
<path class="st0" d="M89,330.6c0.2,0.1,0.7,0.2,1,0.5c3.2,2.8,6.4,5.7,9.6,8.6c0.6,0.6,1.1,1.2,1.8,2c-0.9,0.3-1.6,0.5-2.4,0.7
	c0,0.2,0,0.3,0,0.5c0.8,0,1.5-0.1,2.3,0c0.6,0.1,1.3,0.2,1.9,0.5c1.5,0.8,2.7,1.9,3.5,3.4c0.4,0.7,1.5,0.9,2.3,1.3
	c0.5,0.2,1.1,0.2,1.5,0.5c2.4,2,4.8,4,7.1,6.1c0.5,0.5,0.8,1.1,1.3,1.8c-0.9,0.9-1.8,1.7-3.1,0.7c-0.2-0.1-0.7-0.1-0.9,0
	c-2,1.3-2.8,1.4-4.6,0c-3.6-2.9-7.2-5.8-10.9-8.7c-0.2-0.2-0.5-0.3-0.6-0.6c-0.9-2-2.9-2.7-4.5-3.9c-1.5-1.2-2.7-2.8-4-4.2
	c-1.2-1.4-2.4-2.8-3.7-4.1c-1.4-1.4-3-2.6-4.7-4c1.3-0.3,2.2-0.5,3.1-0.7c0-0.2-0.1-0.4-0.1-0.6c-1,0.1-1.9,0.3-2.9,0.3
	c-0.5,0-1.2-0.2-1.5-0.5c-1.6-1.8-3.2-3.7-4.7-5.5c-1.4-1.7-3-3.4-4.3-5.1c-0.8-1-1.5-2.2-2-3.4c-0.8-1.9-1.9-3.5-3.6-4.7
	c-0.6-0.4-1.1-1.1-1.6-1.8c-1.6-2.3-3.1-4.5-4.6-6.8c-0.2-0.3-0.4-0.5-0.4-0.8c-0.1-2.1-1.6-3.3-2.7-4.9c-1-1.6-1.9-3.3-2.8-5
	c-1.2-2.2-2.3-4.4-3.6-6.9c0.3-0.1,0.9-0.5,1.5-0.7c0.3-0.1,0.6-0.1,0.9-0.1c2.8-0.4,4.7,0.6,6.1,3.2c2.1,4.1,4.6,8,6.9,11.9
	c0.6,1,1.3,1.9,0.8,3.2c-0.1,0.2,0.1,0.6,0.3,1c0.3-0.2,0.5-0.4,0.8-0.6c2.3,3,4.6,6,6.8,9c2.2,3,4.4,6.1,6.7,9
	c2.2,2.8,4.7,5.3,7.1,8C88.7,329.5,88.7,330,89,330.6z M95.5,338.4c1,1.4,1.4,1.3,2.1-0.1C96.9,338.3,96.3,338.3,95.5,338.4z"/>
<path class="st0" d="M287.4,89.3c-0.7-0.1-1.1,0-1.4-0.2c-4.4-2-8.8-4.2-13.2-6.1c-3.2-1.4-6.6-2.4-10-3.6c-1.1-0.4-2.1-0.8-3.1-1.1
	c0.1-0.1,0.3-0.4,0.5-0.7c-0.6-0.2-1.2-0.5-2.1-0.9c0.3,0.7,0.4,1,0.5,1.4c-0.4,0-0.6,0-0.9-0.1c-5.9-1.7-11.9-2.4-18-3
	c-10.6-1.1-21.1-0.8-31.6,0.7c-2.7-0.6-5,1.1-7.4,1.6c-5,1.1-9.9,2.5-14.8,4c-2.6,0.8-5,2.2-7.4,3.4c-4.7,2.3-9.4,4.7-14.1,7.1
	c-1.7,0.9-3.3,1.9-4.9,2.9c-0.5,0.3-1.1,0.3-1.6,0.6c-0.4,0.3-0.8,0.7-1.2,1.1c-0.3,0.3-0.5,0.7-0.6,0.9c-1.2-0.4-2.2-0.8-3.4-1.2
	c0.3-0.3,0.6-0.7,0.9-0.9c4.5-1.7,8-4.9,11.8-7.5c1.5-1,3.4-1.6,5.1-2.3c0.4-0.2,1-0.3,1.3-0.6c3.1-2.7,7-3.9,10.8-5.1
	c5.5-1.8,10.9-3.6,16.4-5.3c1.1-0.3,2.3-0.2,3.4-0.4c1.3-0.2,2.5-0.4,3.8-0.6c1.8-0.3,3.7-0.5,5.5-0.8c3.5-0.5,7.1-1.6,10.6-1.3
	c6,0.6,11.9-0.5,17.8,0.5c5.9,0.9,11.8,1.8,17.6,3c2.1,0.4,4,1.7,6,2.6c0.3,0.1,0.7,0.1,1,0.2c1,0.1,2.1,0.1,3,0.4
	c2.8,1,5.5,2.1,8.3,3.1c8.1,2.9,15.3,7.2,22.4,12c0.1,0.1,0.2,0.2,0.4,0.4c-1.2,0.3-2.3,0.7-3.4,1c-0.3,0.1-0.6-0.1-0.9-0.2
	c-2.1-1.2-4.2-2.3-6.2-3.6C287.9,90.3,287.6,89.6,287.4,89.3z"/>
<path class="st0" d="M290.6,383.4c0.8,0.7,1.2,1.1,1.7,1.5c-2.9,0.9-5.9,1.9-9,2.1c0-0.2-0.1-0.3-0.1-0.5c1.5-0.3,3-0.5,4.6-0.8
	c-0.8-1.2-4.5-1.2-6.1-0.4c-0.6,0-1.3-0.3-1.7-0.1c-0.6,0.4-0.8,1.1-0.2,1.8c0.4,0.5,0.6,1.2-0.4,1.5c-10.1,2.9-20.4,5-31,5.8
	c-0.1,0-0.2,0-0.6-0.1c0.7-0.5,1.2-0.9,1.8-1.1c1.2-0.4,2.6-0.6,3.8-1.1c2.6-1.1,5.3-1.4,8-1.7c0.8-0.1,1.7,0.2,2.5,0.3
	c0.2,0,0.4,0.1,0.5,0c2.3-0.7,4.6-1.5,6.9-2.1c1.1-0.3,2.4-0.3,3.5-0.5c0.4-0.1,0.8,0,1.2-0.2c0.3-0.1,0.5-0.5,0.8-0.7
	c-0.3-0.3-0.7-0.8-1-0.8c-1.5,0.1-2.9,0.3-4.3,0.5c-1.3,0.2-2.5,0.5-3.8,0.5c-0.7,0-1.5-0.5-2.1-0.4c-0.6,0.3-1.2,0.8-1.8,0.9
	c-2.6,0.4-5.2,1.1-7.7,0.9c-1.6-0.1-2.8,0.5-4.2,0.5c-0.8,0-1.5-0.5-2.6-0.8c5.1-0.9,9.7-1.7,14.3-2.5c4.5-0.9,9.1-1.5,13.1-3.5
	c0.8,0.7,1.3,1.4,2,1.8c0.4,0.3,1,0.2,1.5,0.3c-0.1-0.6-0.2-1.3-0.3-1.9c0-0.2-0.3-0.3-0.7-0.6c1.2-0.3,2.1-0.5,3-0.7
	c5.4-1.1,10.5-2.9,15.5-5.2c2.1-1,4.5-1.4,6.6-2.4c4.2-1.9,8.2-4.1,12.3-6.2c0.8-0.4,1.6-1.2,2.6-0.3c0.2,0.1,0.8-0.1,1.1-0.3
	c0.4-0.2,0.7-0.5,1.1-0.9c0.3,2-1.6,1.8-2.3,2.6c-0.4,0.4-0.8,0.8-1.1,1c1,0.8,1.9,1.4,2.8,2.1c0.6-1,1-2.3,1.8-3
	c0.6-0.5,1.9-0.7,2.7-0.4c1.5,0.5,2.1-0.5,2.8-1.2c0.7-0.8,1.2-1.9,1.9-2.7c0.4-0.4,1.1-0.5,1.6-0.7c-0.3,1.1-0.6,2-0.9,3
	c-0.1,0.3-0.5,0.5-0.8,0.7c-2.3,1.3-4.6,2.7-6.9,3.9c-6.5,3.4-13,6.9-20.1,9.2c-1.8,0.6-3.4,1.9-5.2,2.3c-1.8,0.4-3.7,0.2-5.5,0.3
	C291.9,383.2,291.5,383.3,290.6,383.4z M288.2,382.1c0,0.2-0.1,0.3-0.1,0.5c0.5,0.6,1,1.2,1.9,0.7c0.3-0.1,0.3-0.7,0.4-1.1
	C289.6,382.2,288.9,382.2,288.2,382.1z M323.2,370.1c0.1,0.1,0.2,0.2,0.3,0.3c0.3-0.3,0.6-0.5,0.9-0.8c-0.3-0.3-0.6-0.6-0.9-0.8
	c-0.1,0.1-0.2,0.2-0.3,0.2C323.2,369.4,323.2,369.8,323.2,370.1z M288.3,385.4c0.2,0.2,0.4,0.3,0.6,0.5c0.3-0.3,0.6-0.6,0.9-0.9
	c-0.2-0.2-0.5-0.4-0.7-0.5C288.8,384.7,288.5,385.1,288.3,385.4z"/>
<path class="st0" d="M392,306.1c-0.1-0.4-0.2-0.8-0.3-1.2c-0.1-0.4-0.3-0.9-0.1-1.2c0.6-1.3,0.4-2.3-0.5-3.5
	c-0.3-0.4-0.5-1.1-0.3-1.5c0.9-1.8,1.9-3.5,3-5.3c0.8-1.4,1.8-2.6,2.5-4c1-2,1.9-4.2,2.8-6.3c0.8-1.9,1.6-3.8,3.2-5.3
	c0.6-0.5,0.8-1.3,1.2-2c0.6-1.1,1.2-2.2,2-3.3c0.7-1,1-1.9,0.7-3.1c-0.6-2,0.2-3.9,1-5.8c1.4-3.5,2.8-7,4.1-10.5
	c0.6-1.6,0.7-3.4,1.1-5.3c2.1,0.3,4.3,0.6,6.7,0.9c-0.5,1.8-0.9,3.6-1.4,5.3c-4.8,16.2-11.6,31.6-20.5,46c-0.9,1.5-2.2,2.9-3.2,4.4
	c-0.4,0.5-0.7,1-0.9,1.6c-0.3,0.8-0.8,0.7-1.3,0.3C391.8,306.2,391.9,306.1,392,306.1z"/>
<path class="st0" d="M369.9,124.2c0.2,0.6,0.4,0.9,0.5,1.3c0.4-0.3,0.8-0.5,1.2-0.8l-0.1-0.1c1.1-0.3,2.1-0.7,3.2-1
	c0.4-0.1,0.8-0.1,1.1,0c1.7,0.8,3.5,0.5,5.2,0.1c1.2-0.3,2.3-0.5,3.5-0.7c0.3-0.1,0.7-0.1,0.9,0c2,1.2,3.8,0.2,5.7-0.3
	c1.8-0.4,3.7-1,5.5-1.5c0.6-0.1,1.4-0.2,1.9,0c1.7,0.7,3.3,0.6,4.9,0c2.7-1.1,5.5-1.1,8.4-1c0.9,0,1.9,0,2.8,0
	c0.6,0,1.4-0.1,1.8,0.2c1.4,0.9,2.6,0.7,3.9-0.4c0.2,0.7,0.4,1.3,0.6,1.9c-3.7,0.4-7.4,0.8-11.2,1.1c0.2-0.2,0.3-0.3,0.5-0.4
	c-1.1-0.8-1.4-0.7-2,0.3c-0.2,0.3-0.8,0.4-1.2,0.4c-11.4,1.2-22.9,2.3-34.3,3.5c-12.9,1.3-25.8,2.6-38.7,3.9
	c-11.2,1.1-22.4,2.3-33.5,3.4c-0.5,0.1-1.1,0.1-1.6,0.2c0-0.1,0.1-0.2,0.1-0.3c-0.4-0.2-0.8-0.5-1.3-0.6c-0.1,0-0.4,0.5-0.7,1.1
	c-0.4,0-1.2,0.2-1.9,0.2c-0.4,0-0.9-0.2-1.3-0.5c-0.7-0.5-1.2-0.4-1.6,0.2c-0.2,0.3-0.6,0.7-0.9,0.7c-8.2,0.9-16.5,1.7-24.7,2.5
	c0.2-2.1,1-2.4,3.2-3c3.2-0.8,6.5-0.4,9.7-0.6c0.8-0.1,1.7,0.1,2.4,0.4c0.9,0.5,1.7,0.4,2.4-0.2c1.6-1.3,3.5-1.4,5.4-1.5
	c0.9,0,1.8,0,2.6-0.1c1.1-0.2,1.7,0,1.8,1.3c0,0.2,0.2,0.4,0.3,0.6c0.1,0,0.3,0,0.4,0c0-0.7,0.1-1.4,0.1-2.3
	c1.2-0.5,2.3-1.2,3.8-0.5c0.6,0.3,1.6,0,2.3-0.3c1.1-0.4,2-0.7,3.2-0.3c0.4,0.2,1,0.2,1.4,0c1.3-0.8,2.6-0.3,4-0.3
	c2.1,0.1,4.2-0.5,6.3-0.7c1-0.1,2,0.1,3.1,0.2c0.5,0,1.1,0.2,1.5,0.1c2.8-0.7,5.5-1.5,8.3-2.2c0.8-0.2,1.8-0.2,2.7,0.1
	c1.5,0.4,3,0.4,4.4-0.2c2.8-1.1,5.6-1.1,8.5-1c0.9,0,1.9-0.1,2.8-0.1c0.8,0,1.6,0.1,2.3,0.4c0.9,0.5,1.7,0.4,2.4-0.2
	c1.6-1.3,3.6-1.3,5.5-1.5c2.2-0.2,4.4-0.7,6.6-1.1c0.4-0.1,1-0.3,1.3-0.2c1.4,0.7,2.7,0.4,4.1-0.2
	C369.6,124.2,369.9,124.2,369.9,124.2z"/>
<path class="st0" d="M142.4,368.8c0,0.8-0.3,1.7-0.1,1.9c0.6,0.4,1.4,0.4,1.8-0.4c1.1,0.7,1.6,1.8,1.4,3.1c0,0.2,0.3,0.6,0.5,0.6
	c0.4,0,1-0.1,1-0.3c0.3-0.7,0.3-1.4,0.5-2.3c4.1,2.1,8.5,4.2,12.6,6.3c-1.2,0.5-2.6,1-4.2,1.6c1.2,1,2.3,1.3,3.4,0.9
	c0.8-0.2,1.6-0.4,2.3,0.2c0.1,0.1,0.3,0,0.6-0.1c0-0.3-0.1-0.6-0.1-1.2c1.3-0.1,2.6-0.4,3.7-0.1c5.4,1.7,11.1,2.7,16.2,5.4
	c0.3,0.2,0.8,0.2,1.1,0.3c2.4,0.2,4.9,0.3,7.3,0.4c0,0.1,0,0.3,0,0.4c-3.5,0.7-7.1,1.4-10.8,2.1c0.1,0.5,0.2,1,0.5,1.4
	c0.1,0.3,0.5,0.4,0.8,0.5c0.1,0,0.5-0.3,0.5-0.4c-0.1-1.5,0.8-1.1,1.6-0.8c0.3,0.1,0.6,0.2,1.1,0.4c-1.5,1-2.7,2.3-4.7,1.1
	c-0.6-0.4-1-0.6-0.9-1.3c0.1-0.8-0.3-0.9-0.9-0.9c-0.7,0.1-1.3,0.1-2,0.2c-1.9,0.3-3.7,0.1-5.5-0.6c-4.9-1.8-9.7-3.5-14.6-5.2
	c-0.7-0.2-1.4-0.5-2.3-0.9c0.8-0.6,1.5-1.1,2.3-1.7c-0.7-0.3-1.3-0.7-1.9-0.8c-0.3-0.1-0.9-0.1-1.1,0.2c-1,1.2-2,1.1-3.4,0.4
	c-3.5-1.7-7-3.2-10.5-4.7c0.8-1.3,1.1-3.1,3.3-3c-0.1-0.2-0.2-0.4-0.3-0.5c-1,0-2,0.1-2.7,0.1c-0.8-0.6-1.3-1.1-1.8-1.5
	c0.2-0.5,0.5-1.1,0.8-1.8c-0.4-0.1-0.9-0.4-1-0.3c-0.5,0.4-0.9,0.9-1.2,1.6c-0.7,0.2-1.6,0.7-2.3-0.4c0.3,0,0.6,0,1.1,0
	c-0.1-0.4-0.2-0.8-0.2-1.1c-0.4,0.1-0.7,0.2-1.1,0.3c-1.4,0.3-2.8,0.6-4.2,0.8c-0.2,0-0.5-0.4-0.9-0.7c0.8-0.6,1.5-1.1,2.3-1.7
	c-0.5-0.4-0.9-0.6-1.5-1c-0.4,0.7-0.6,1.4-1,1.8c-0.4,0.4-1.2,0.7-1.6,0.5c-0.9-0.4-1.7-1-2.6-1.6c-0.7-0.5-1.3-1.1-0.4-2
	c0.2-0.2,0-0.9,0-1.3c-0.3-0.1-0.4-0.1-0.4-0.1c-2.5,1.6-3.8-1.4-6-1.4c0.8-1.3,2.7-2.1,3.9-1.7c0.2,0,0.3,0.2,0.4,0.3
	c0.3,0.3,0.6,0.6,0.9,0.9c0.3-0.5,0.5-1,0.8-1.5c0.1-0.1,0-0.3,0-0.6c1.4,0,2.5,0.6,3.4,1.5c0.5,0.4,0.7,1.2,1.1,1.7
	c0.2,0.3,0.7,0.6,1,0.6c1.7-0.4,2.6,0.6,3.5,1.7c0.2,0.2,0.6,0.3,0.9,0.4c1,0.4,2.1,0.6,3,1.1c0.3,0.2,0.5,0.8,0.8,0.9
	c0.9,0.3,1.8,0.5,2.6,0.8c0.3,0.1,0.6,0.6,0.6,0.9c0.1,1.2,0.7,1.1,1.6,0.9C141.8,368.8,142.2,368.8,142.4,368.8z M164.9,382
	c-0.1-0.1-0.2-0.3-0.2-0.4c-0.5,0-1.1-0.1-1.5,0.1c-0.4,0.2-0.7,0.7-0.9,1.2c-0.1,0.2,0.3,0.7,0.3,0.7c0.4-0.1,0.8-0.2,1.1-0.4
	C164.2,382.8,164.5,382.4,164.9,382z M142.4,374.8c1.3,0.4,2-0.2,2.7-1.1C143.6,372.9,143.6,372.9,142.4,374.8z M174.6,385.3
	c0,0.2,0,0.4,0,0.6c0.5,0.1,0.9,0.3,1.4,0.2c0.3-0.1,0.5-0.5,0.7-0.8c-0.1-0.1-0.1-0.2-0.2-0.3C175.8,385.1,175.2,385.2,174.6,385.3
	z"/>
<path class="st0" d="M84.8,277.5c0-0.6,0-0.9,0-1.3c0.1-1.2,0.1-2.4,0.3-3.6c0.1-0.4,0.3-1.2,0.5-1.2c0.8-0.2,1.7-1,2.6,0
	c0.4,0.5,1.3,0.5,2.1,0.9c0.1-0.6,0.2-1.1,0.3-1.7c0.5,0.1,0.9,0.2,1.4,0.3c0.6,0.1,1.3,0.3,2,0.2c3.2-0.5,6.4-1.2,9.6-1.7
	c1-0.1,2,0.1,3,0.1c0.7,0,1.5,0.2,2.2,0c3.1-1,6.2-1.2,9.4-1c1.8,0.1,3.7-0.6,5.6-1.1c2.1-0.5,4.1-1.1,6.4-0.2
	c0.7,0.3,1.8-0.1,2.7-0.4c2.2-0.8,4.4-1.4,6.7-0.9c0.4,0.1,0.9,0.4,1,0.7c0,0.4-0.3,0.9-0.6,1.2c-0.3,0.4-0.7,0.7-1.4,1.3
	c0.8,0.1,1.4,0.2,2.1,0.4c0.2,0.4,0.5,0.9,1,1.7c-1,0.2-2,0.5-3,0.6c-2.9,0.4-5.8,0.8-8.7,1.1c-4.4,0.5-8.8,0.8-13.2,1.3
	c-3.4,0.3-6.8,0.8-10.3,1.1c-1.2,0.1-2.4,0-3.6,0.1c-2.5,0.3-5,0.7-7.4,1C91.9,276.8,88.4,277.1,84.8,277.5z"/>
<path class="st0" d="M374.9,65.8c1.1,1.2,2.3,2.4,3.4,3.7c0.4,0.5,0.4,1.2,0.6,1.8c0.1,0.5,0,1,0.9,0.8c0.3-0.1,1,0.9,1.2,1.5
	c0.2,0.5,0,1.2,0,2c0.8,0.1,1.5,0.2,2,0.2c0.8,0.7,1.6,1.2,2.2,1.9c1.1,1.3,2,2.6,2.9,3.9c0.5,0.7,0,1.5-0.8,1.6
	c-0.4,0.1-0.8,0.2-1.2,0.4c0,0.2-0.1,0.3-0.1,0.5c0.9,0.5,1.8,0.9,3,1.5c0-0.8,0.1-1.2,0.1-1.6c0.1-0.1,0.2-0.1,0.3-0.2
	c1.6,1.8,3.6,3.4,3,6.6c1.2-0.8,1.7-0.4,2.1,0.4c1.6,2.8,3.3,5.5,4.8,8.3c0.2,0.3-0.1,0.9-0.1,1.6c3.1,0.8,2.6,4.5,4.8,6.6
	c-2.7,0.3-5,0.5-7.5,0.8c-0.7-3.3-2.9-5.8-4.7-8.5c-1.1-1.5-1.8-3.3-2.7-5c-3.6-6.2-8-11.7-12.7-17.1c-1-1.1-1.7-2.4-2.7-3.9
	c-2.1-0.3-5.2-5-5.3-9c1.6-0.2,3.3-0.5,4.9-0.4C373.9,64.2,374.4,65.2,374.9,65.8c-1.2-0.1-2.4-0.2-3.8-0.3c0.2,0.6,0.2,1.1,0.5,1.4
	C372.1,67.3,374.4,66.5,374.9,65.8z M375.9,69c0-0.2-0.1-0.3-0.1-0.5c-0.7,0.1-1.3,0.2-2,0.3c0.1,0.3,0.1,0.7,0.3,0.8
	C375,70.2,375.4,69.5,375.9,69z M376.6,75.7c0.8,0.4,1.4,0.7,2.1,1C378.7,75.2,378.3,74.9,376.6,75.7z M370.1,67.7
	c0,0.2-0.1,0.4-0.1,0.6c0.5,0.2,1,0.4,1.5,0.6c0-0.4,0.2-1,0-1.1C371.1,67.7,370.6,67.7,370.1,67.7z"/>
<path class="st0" d="M131,279c-0.3-0.4-0.6-0.7-0.8-1c-0.4-0.8-0.2-1.6,0.7-1.5c1.1,0.1,2.4,0.4,3.1,1.1c2.7,2.7,5.2,5.7,7.7,8.6
	c0.4,0.5,0.6,1.2,1,2c0.3-0.1,0.6-0.1,0.9-0.2c0.6,0.8,0,2.5,1.7,2.5c0.1-0.2,0.2-0.5,0.3-0.8c0.1,0.1,0.3,0.1,0.3,0.2
	c2,2.7,4.8,4.2,7.5,6.1c2.5,1.8,4.8,3.7,7.2,5.6c0.2,0.1,0.3,0.3,0.5,0.4c3.6,1,6.3,3.7,9.4,5.5c0.4,0.2,0.7,0.6,1.1,0.6
	c2.5,0.4,4.4,1.9,6.5,3.2c0.8,0.5,1.9,0.8,2.9,0.9c1.2,0.1,2.2,0.3,3,1.2c0.7,0.8,1.4,1.1,2.5,0.9c2.5-0.4,4.5,1,6.7,1.9
	c1.6,0.7,3.3,0.9,4.8,1.5c5.3,2.2,11.1,0.7,16.3,2.9c0.7,0.3,1.4,0.7,2.1,1c0.3,0.1,0.8,0.3,1,0.1c1.6-1.3,3.7-1.1,5.2-0.7
	c2.2,0.6,4.2-0.4,6.3-0.1c1.5,0.2,3.1,0,4.6-0.1c1.2-0.1,2.3-0.1,2.6,1.5c0,0.3,0.4,0.6,0.7,1.1c-4.5-0.3-8.7,1.2-13,0.1
	c-0.4-0.1-0.8-0.1-1.2-0.1c-5.9,0.3-11.7-0.2-17.5-1.5c-3-0.7-5.8-1.7-8.8-2.4c-0.7-0.2-1.4-0.1-2.1-0.2c-3.2-0.9-6.4-1.7-9.5-2.8
	c-2.5-0.9-4.9-2.3-7.3-3.5c-0.2-0.1-0.4-0.2-0.6-0.3c-3.9-0.6-7.2-2.8-10.6-4.7c-5.2-2.9-10.1-6.5-15-9.8c-0.4-0.3-0.7-0.6-0.9-0.8
	c0-0.7,0.2-1.3,0-1.6c-0.2-0.3-0.8-0.3-1.3-0.3c-1.1,0.1-2.8-1-3.1-2c-0.2-0.7-0.4-1.2-1.2-1.1c-0.1,0-0.2-0.1-0.3-0.2
	c-2.7-2.4-5.4-4.7-8-7.1c-1.4-1.3-2.5-2.8-3.8-4.2c-0.6-0.7-0.9-1.1,0.1-1.8c0.4-0.2,0.5-0.7,0.8-1.1l-0.2-0.3
	C132.5,278.1,131.8,278.6,131,279z"/>
<path class="st0" d="M276.7,377.3c0.3,0.8,0.4,1.3,0.7,2c-1.4,0.4-2.9,0.8-4.3,1.2c-0.3,0.1-0.6-0.4-1-0.4c-0.5,0-1,0.1-1.5,0.2
	c0.1,0.2,0.1,0.5,0.3,0.8c-20.7,4.3-41.7,6.2-63.2,3.9c0.6-0.2,1-0.3,1.6-0.5c-0.3-0.2-0.4-0.5-0.6-0.5c-1.9,0.3-3.6-0.4-5.3-0.8
	c-0.7-0.1-1.6,0.4-2.4,0.6c-0.5,0.1-1.1,0.2-1.6,0.1c-6.2-1.3-12.4-2.6-18.5-4c-3-0.7-5.9-1.6-8.9-2.4c0.7-0.4,1.3-1,2-1.1
	c1.1-0.2,2.3-0.3,3.4,0c2.7,0.6,5.3,1.3,7.7,2.8c0.7,0.5,1.9,0.5,2.8,0.3c2.6-0.5,5.1-0.2,7.4,1.1c1.5,0.9,3.1,1.8,4.9,0.9
	c0.1-0.1,0.3,0,0.4,0c2.4,1.1,5,1,7.6,0.9c0.8,0,1.6,0,2.4,0.2c2.3,0.7,4.6,0.6,6.9,0.3c1.1-0.1,2.3,0.3,3.4,0.7
	c0.8,0.3,1.4,0.5,2-0.1c0.5-0.5,0.9-0.5,1.6-0.1c0.8,0.4,1.9,0.4,2.8,0.3c2.6-0.3,5.2-0.7,7.7-1c1.5-0.2,3-0.1,4.5,0.6
	c0.8,0.4,2,0.2,2.9,0c1.6-0.3,3.1-1,4.7-1.3c1.2-0.2,2.5-0.2,3.8,0c2.2,0.3,4.4,0.1,6.5-0.7c1-0.4,2.2-0.7,3.3-0.9
	c3.2-0.5,6.5-0.8,9.7-1.4c1.6-0.3,3-0.9,4.6-1.4C275.5,377.5,276.1,377.4,276.7,377.3z"/>
<path class="st0" d="M101.2,46.3c0.6,0.9,0,2.4,1.8,2.5c0.1-0.5,0.2-1,0.3-1.7c0.5-0.1,1-0.2,1.7-0.3c-0.1,0.9-0.1,1.6-0.2,2.4
	c0.1,0.1,0.2,0.1,0.4,0.2c1.2-1.1,1.8-3.1,4.2-2.9c-0.1,0.5,0,1.1-0.3,1.3c-2.7,2.4-5.5,4.6-8.4,7c-0.1-0.4-0.2-0.8-0.3-1.2
	c-0.7,0.1-1.4,0.1-2,0.2c-0.3,1.6,0.6,1.6,1.9,1.3c-0.4,0.4-0.6,0.7-0.9,1c-4.2,4.3-8.5,8.5-12.8,12.8c-0.7,0.7-1.3,1.4-2,2
	c-0.1,0.1-0.5,0.1-0.7,0c-1.1-0.3-1.1,0.3-1.2,1.1c-0.1,0.7-0.2,1.5-0.7,2c-2.3,2.9-4.6,5.9-6.9,8.7c-0.4,0.5-1.1,0.6-1.7,0.9
	c-0.2-0.1-0.4-0.3-0.5-0.4c0.3-1.1,0.5-2.3,0.8-3.4c0.1-0.2,0.7-0.5,0.8-0.4c0.6,0.4,1.2,0.5,1.4-0.2c0.1-0.4-0.2-1-0.4-1.8
	c0,0,0.3-0.1,0.5-0.4c0.2-0.3,0.5-0.6,0.5-0.9c0-0.8-0.5-1.7,0.4-2.4c0.1-0.1-0.2-0.7-0.3-1c-0.3,0.2-0.5,0.4-0.8,0.5
	c-0.4,0.2-0.9,0.3-1.3,0.5c-0.1-0.1-0.2-0.3-0.2-0.4c1.1-1.2,2.2-2.4,3.4-3.5c1.4-1.4,2.9-2.8,4.3-4.1c0.1-0.1,0.2-0.3,0.4-0.4
	c1.9-0.4,2.1-2.2,3-3.5c1.4-2.1,3.2-3.9,5-5.6c3.2-3.1,6.7-6,10-8.9C100.4,46.9,100.8,46.6,101.2,46.3z M81.6,68.9
	c1,0.7,1.8,1.3,2.9,0.6C83.8,68.1,83.3,68,81.6,68.9z"/>
<path class="st0" d="M19.5,244.2c0.6-0.1,0.9,0,1.2-0.1c0.3-0.1,0.7-0.4,1-0.6c-0.4-0.1-0.8-0.3-1.1-0.3c-0.4,0-0.8,0.2-1.3,0.4
	c0-0.7-0.2-1.5,0-2c0.7-1.6,0.5-3.1,0.2-4.7c-0.1-0.4,0-0.9,0.2-1.3c0.2-0.3,0.6-0.4,1-0.6c0.2,0.3,0.4,0.6,0.5,1
	c0.7,5.1,1.5,10.2,2.1,15.4c0.6,5.4,0.9,10.8,1.4,16.3c0,0.4,0.1,0.8,0.1,1.2c0.3,2.1,0.9,2.5,2.9,2.2c3.4-0.6,6.8-1.2,10.2-1.7
	c0.9-0.1,2,0,2.8,0.3c1.7,0.6,3.4,0.6,5-0.1c2.1-0.9,4.1-1.3,6.3-0.5c0.7,0.3,1.8,0.2,2.4-0.2c3-1.8,6.3-1.8,9.6-1.9
	c3.5-0.2,7-0.2,10.5-0.3c3.2-0.1,6.3-0.4,9.5-0.5c0.7,1.5,0.5,1.9-1.2,2c-5.2,0.5-10.4,1.2-15.6,1.6c-13.6,0.9-27.1,3-40.7,4.2
	c-1.1,0.1-2.1,0.2-3.4,0.3c0.1-1,0.2-1.8,0.4-2.5c0.3-1.5,0.1-2.8-0.7-4.1c-0.3-0.5-0.2-1.4-0.3-2.1c-0.1-1.2,0-2.6-0.4-3.7
	c-0.9-2.3-1.4-4.6-1.2-7.1c0.1-1.4-0.6-2.8-0.8-4.2c-0.1-0.8,0.1-1.6,0.1-2.4c0-0.7,0.2-1.5,0.1-2.2
	C20.1,245.4,19.8,244.9,19.5,244.2z"/>
<path class="st0" d="M76.3,156.9c-3.4,0.3-6.4,0.6-9.3,0.9c-2.2,0.2-4.5,0.5-6.7,0.7c-0.6,0-1.1-0.4-1.7-0.5c-0.4-0.1-1.1,0-1.2,0.1
	c-0.3,0.9-1.1,0.8-1.8,0.8c-13.2,1.3-26.4,2.7-39.6,4c-1.4,0.1-1.7,0.6-1.7,1.9c0,6.2,1.1,12.3,1.9,18.4c0.5,4,0.7,8.1,1,12.2
	c0.1,1-0.4,1.1-1.3,1c-0.7-2.1-1.4-4.2-2.2-6.4c0.9-0.2,1.6-0.4,2.2-0.6c0-0.1,0-0.2,0.1-0.4c-0.7-0.3-1.3-0.6-2.1-1
	c0.1-0.8,0.1-1.7,0.1-2.5c0-0.4-0.2-0.7-0.3-1.1c-0.6-1.4-1.2-2.8-0.4-4.4c0.3-0.5,0.1-1.4-0.1-2c-0.8-1.8-1.4-3.6-0.5-5.6
	c0.2-0.5,0.1-1.1,0-1.7c-0.4-2.7-0.9-5.3-1.4-8c1.8-0.8,3.5-1.9,5.4-2.4c2.5-0.6,5.1-0.8,7.7-1.2c1.4-0.2,2.8,0,4.1-0.1
	c2.3-0.2,4.7-0.4,7-0.8c1-0.2,1.9-0.4,3-0.1c1.2,0.3,2.5,0.1,3.8-0.1c1.3-0.2,2.5-0.5,3.8-0.8c0.4-0.1,0.9-0.2,1.2,0
	c1.8,1.1,3.5,0.3,5.2-0.2c1.9-0.5,3.8-1.1,5.8-1.5c0.9-0.2,1.9-0.2,2.7,0.1c1.7,0.5,3.3,0.2,4.9-0.4c3.1-1.2,6.3-0.9,9.4-0.7
	C75.6,154.8,75.9,155.9,76.3,156.9z"/>
<path class="st0" d="M313.1,26.3c0.3-0.2,0.5-0.4,0.9-0.7c-0.3-0.4-0.6-1-0.8-1c-0.4,0-0.8,0.5-1.6,0.9c-1.7-0.8-3.7-1.9-5.8-2.9
	c-2.7-1.3-5.2-2.8-8.2-3.2c-1.1-0.1-2.2-0.9-3.3-1.4c-0.3-0.2-0.5-0.6-0.8-0.9c-3.1,0.4-5.1-1.9-7.6-3.3c2.2-0.3,4.4-0.5,6.6-0.9
	c1.2-0.2,2.7,0.2,3.7-0.9c0.1-0.1,0.8,0.2,1.2,0.4c1.3,0.5,2.7,1,4,1.5c0.1,0,0.3,0.1,0.4,0.1c2.5,1.9,5.9,1.9,8.5,3.7
	c1.1,0.8,1.2,0.8,0.1,1.5c-1,0.7-2.1,1.4-1.4,3.1c0.4-0.1,0.7-0.2,1.2-0.4c-0.4-0.4-0.6-0.6-0.9-0.9c0.5-0.3,0.9-0.6,1.4-0.8
	c1.1-0.5,2.1-0.7,3.4-0.1c2.2,1.2,4.5,2.1,6.8,3.3c2,1,3.9,2.1,5.8,3.2c0.2,0.1,0.3,0.6,0.5,1c-0.5,0.1-1,0.1-1.3,0.3
	c-0.8,0.4-0.9,1-0.5,1.8c0.4,0.7,0.8,1.4,1.3,2.1c-1.6,0.5-2.9,0.7-4.3-0.3C319.4,29.7,316.3,28.1,313.1,26.3z"/>
<path class="st0" d="M218.4,140.1c-0.3,0.9-0.5,1.5-0.8,2.4c0,0-0.2,0-0.5,0c-28.3,2.9-56.6,5.7-84.9,8.6c-1.5,0.1-2-0.3-2-1.5
	c4.7-2.3,9.7-1.9,14.6-2c0.6,0,1.3,0.1,1.8,0.4c0.9,0.6,1.7,0.5,2.4-0.1c1.6-1.3,3.6-1.3,5.5-1.6c2.2-0.2,4.4-0.8,6.6-1.1
	c0.6-0.1,1.3,0,1.9,0c0.3,0,0.6,0.3,0.8,0.2c2.4-1,5-0.4,7.5-1c0.6-0.2,1.3-0.1,2-0.1c1.4,0,2.8,0.2,4.2,0.1
	c1.3-0.1,2.5-0.6,3.8-0.8c0.6-0.1,1.3-0.2,1.8,0.1c1.1,0.7,2.2,0.4,3.3,0.1c2.4-0.7,4.8-1.4,7.3-1.9c0.8-0.2,1.8-0.1,2.6,0.1
	c1.5,0.5,3,0.4,4.4-0.2c2.7-1.1,5.6-1.1,8.5-1c1,0,2-0.1,3-0.1c0.6,0,1.2,0,1.7,0.3c1.4,0.9,2.5,0.5,3.6-0.4
	C217.6,140.4,217.9,140.4,218.4,140.1z"/>
<path class="st0" d="M177.9,17.5c0.8-0.3,1.9-0.4,2.5-0.9c1.3-1.2,2.8-2,4.5-2.4c1.6-0.3,3.3-0.6,5.1-1c0,0.5-0.1,0.8-0.1,1.2
	c0.1,0.1,0.2,0.2,0.2,0.2c1.2-0.3,2.4,1,3.6-0.1c2.3,1,3.6-0.9,5.3-1.5c2.3-0.9,4.7-2,7.4-1.8c1.4,0.1,2.9-0.5,4.4-0.8
	c4.1-1,8.3-0.7,12.4-0.3c1.9,0.2,3.8,0.2,5.8-0.1c2.5-0.3,5.2,0,7.8,0.2c1.9,0.2,3.7,0.7,5.6-0.1c0.3-0.1,0.9-0.2,1.1,0
	c2,1.6,4.3,0.7,6.4,0.8c1.8,0.2,3.7,0.2,5.5,0.3c0,0.1,0,0.2,0,0.4c-1,0.2-2,0.5-2.9,0.7c0,0.2,0,0.3,0,0.5c0.9,0,1.8-0.1,2.7-0.1
	c0.5,0,1,0.2,1.5,0.3c0.3,0,0.7,0.1,0.9,0c1.8-1.2,3.6-0.9,5.4,0.2c0.3,0.2,0.7,0.2,1,0.1c2.3-0.2,4.3,0.6,6.7,1.4
	c-0.5,0.2-0.7,0.3-1,0.4c-1,0.3-1.9,0.6-2.9,0.8c-0.7,0.1-1.4,0.3-2.1,0.2c-8.3-1.2-16.6-2.6-24.9-3.5c-5.1-0.5-10.2-0.2-15.4-0.2
	c-3.6,0-7.2,0-10.7,0.3c-4.8,0.5-9.5,1.3-14.3,2c-2.3,0.3-4.5,0.8-6.8,1.1c-0.9,0.1-1.9-0.1-2.9-0.1c-0.5,0-0.9,0.1-1.6,0.2
	c-0.1-0.1-0.7-0.6-0.8-0.5c-1.1,0.9-3.3-0.4-3.5,1.4c-0.7,0.4-1.1,0.6-1.5,0.7c-1,0.4-2,0.9-3.1,1.1
	C178.9,18.8,178.4,17.9,177.9,17.5L177.9,17.5z M241.7,11.2c-0.1-0.2-0.2-0.5-0.4-0.7c-0.6,0.3-1.2,0.5-1.8,0.8
	c0.1,0.3,0.4,0.8,0.4,0.8C240.6,11.8,241.1,11.5,241.7,11.2z"/>
<path class="st0" d="M123.5,36.9c-1.2-0.2-1.7,0-2.2,1.5c-1.8-1.2-1.9-1.3-1.8-2.4c1.2,0.4,4.8-0.7,5.9-2.1
	c-2.4,0.5-4.5,0.9-6.7,1.3c0.1-1.4,0.9-2,1.9-2.7c4.2-3.1,8.8-5.3,13.1-8.3c3.9-2.8,8.4-4.8,12.7-7.1c0.2-0.1,0.5-0.2,0.7-0.3
	c1.7-0.7,2-0.5,2.3,1.3c0.2,1.4,0.8,3.1,0.3,4.1c-0.5,1-2.1,1.6-3.4,2.2c-2.6,1.2-5.3,2.2-7.9,3.4c-0.8,0.4-1.5,1-2.2,1.4
	c-2.8,1.8-5.7,3.6-8.5,5.4c-0.7,0.5-1.6,0.7-2.4,1.1C124.8,36,124.3,36.3,123.5,36.9z M131.7,28.8c1.2,0.9,2.6,0.8,3.8-0.4
	C134.1,28.5,132.9,28.6,131.7,28.8z"/>
<path class="st0" d="M415.8,232.8c-1-0.1-1.6-0.2-2.2-0.2l0-0.3c0.7-0.1,1.4-0.2,2.2-0.2c1.9-0.1,3.8-0.2,5.6-0.4
	c2.8-0.3,5.6-0.8,8.4-1.1c1.9-0.2,2,0,1.8,2c-0.5,0.1-1,0.2-1.5,0.2c-9.6,1-19.3,2-28.9,2.9c-1.5,0.1-3,0-4.5,0.1
	c-3.5,0.4-7,0.9-10.5,1.3c-8.4,0.9-16.8,1.7-25.2,2.7c-1.1,0.1-1.3-0.3-1.4-1.2c-0.1-0.9,0.1-1.3,1.1-1.4c5-0.7,10-1.5,15.1-2.2
	c1.1-0.1,2.4,0,3.5,0.4c1.6,0.5,3.1,0.5,4.5-0.1c2.1-0.9,4.2-1.4,6.5-0.6c0.9,0.3,2.2,0,3.1-0.5c2.7-1.5,5.6-1.3,8.5-1.5
	c1.2,1.3,2.7,0.8,4.1,0.6c0.8-0.1,1.6-0.4,2.4-0.7c1.7-0.6,3.3-0.2,4.7,0.5C414.2,233.7,414.3,233.8,415.8,232.8z M367,237.2
	c-1.1,0.1-2.3,0.2-3.6,0.4C364.3,238.3,365.5,238.2,367,237.2z"/>
<path class="st0" d="M360.9,344c-0.1-0.5-0.2-0.8-0.4-1.5c-1.4,0.6-2.7,1.1-4.1,1.7c1,0.3,2.1,0.5,3.1,0.8c0,0.2,0,0.4,0,0.5
	c-0.4,0.1-0.8,0.3-1.2,0.4c-0.4,0.1-0.9,0-1.5,0.1c1,0.8,0.7,1.3,0,1.8c-0.4,0.3-0.8,0.8-1.2,1c-0.4,0.2-0.8,0.1-1.3,0.1
	c-0.3,0-0.8-0.4-1-0.2c-0.3,0.2-0.5,0.7-0.4,1c0.4,1.2-0.3,1.8-1.2,2.5c-3.9,3-7.9,6-11.9,9c-0.5-1.7,0.2-2.7,2.7-4.5
	c-0.4-0.7-1.1-1.4-1.9-0.8c-1,0.7-1.6,0.2-2.4-0.1c0.9-1.5,1.9-2.8,3.8-3.2c1.4-0.3,2.4-1.4,3-2.8c0.4-0.8,1-1.6,1.8-2
	c1.9-0.9,3.3-2.3,4.7-3.8c2-2.2,4.4-4.1,6.7-6c1.2-1,2.5-1.9,3.6-2.9c0.8-0.7,1.3-0.7,1.9,0.2c0.4,0.6,0.9,1,1.5,1.6
	c-1.3,0.4-1.9,1-1.9,2.3c0,0.4-0.9,1-1.4,1.2c-1.2,0.4-1.6,1-0.7,1.9C362.5,343.3,361.8,343.5,360.9,344z M349.1,351.3
	c0.9-0.6,1.6-1.1,2.3-1.6C348.7,349,348.7,349,349.1,351.3z"/>
<path class="st0" d="M408.6,249.7c-0.4,1.3-0.7,2.7-1.1,3.9c-3.5,9.5-6.5,19.2-11.3,28.1c-0.5,1-1.4,1.8-2.1,2.8
	c-0.2,0.3-0.4,0.7-0.5,1.1c-0.3,0.9-0.3,1.9-0.8,2.6c-3.7,6-7.4,11.9-11.1,17.9c-0.2,0.4-0.3,0.8-0.5,1.2c-0.2-0.1-0.4-0.3-0.6-0.4
	c-0.2-1.5-1.2-2.9,0.2-4.5c0.9-1.1,1.5-2.5,2.3-3.7c0.7-1,1.6-1.8,2.3-2.7c0.7-0.9,1.4-2,1.6-3c0.3-1.7,1-3,2.4-4.1
	c0.6-0.5,1-1.2,1.4-1.9c0.6-1.1,1.1-2.4,1.8-3.4c1.1-1.5,1.7-3.1,2-4.8c0.1-0.6,0.6-1.2,0.9-1.8c0.5-1.2,1-2.4,1.5-3.6
	c0.2-0.5,0.2-1,0.4-1.5c1.5-3.6,3-7.2,4.6-10.7c0.5-1.1,1.3-2.1,1.9-3.3c0.4-0.8,0.9-1.6,0.9-2.4c0-2.2,1.4-3.9,2.2-5.7
	c0.1-0.3,0.8-0.4,1.3-0.6C408.4,249.4,408.5,249.5,408.6,249.7z"/>
<path class="st0" d="M63.1,283.4c1.8,3,3.5,6,5.3,8.9c3.4,5.2,7,10.3,10.3,15.6c1.3,2,3,3.7,4.3,5.7c1.4,2,3.1,3.7,4.7,5.5
	c0.2,0.3,0.5,0.5,0.7,0.8c2.5,3.3,4.8,6.7,8.5,8.9c0,0.1-0.1,0.3-0.1,0.4c-1.1,0.1-2.3,0.3-3.4,0.3c-0.3,0-0.6-0.3-0.8-0.6
	c-0.4-0.4-0.7-0.9-1-1.4c-1.3-1.9-2.8-3.7-4.7-5.2c-3.1-2.4-5.3-5.5-7-9c-0.2-0.5-1-0.7-1.3-1.1c-3.2-4.2-6.3-8.4-9.5-12.6
	c-0.2-0.2-0.3-0.4-0.4-0.7c-2.3-4.2-4.6-8.4-6.9-12.6C60.8,284.5,60.9,284.3,63.1,283.4z"/>
<path class="st0" d="M131.7,119.9c-0.9-0.7-1.7-0.6-1.8,0.3c0,0.3,0.1,0.6,0.1,0.9c0,0.3,0,0.5,0,0.8c-1.8-0.4-2.8,0.5-2.2,2.1
	c0.3-0.1,0.6-0.1,1.1-0.2c-1,1.4-1.9,2.7-2.8,4c-1.4,2.1-2.7,4.3-4.1,6.5c-0.6,1-1.3,1.8-2.6,1.8c-0.9,0-1.5-0.2-1.1-1.2
	c0.4-1.1,1-2.1,1.6-3.2c0.5-0.8,1.1-1.6,1.6-2.4c0.5-0.9,1.2-1.3,2.1-0.6c0.4-0.4,0.6-0.7,1.1-1.2c-0.7-0.1-1.1-0.2-1.8-0.3
	c0.6-0.9,1.2-1.7,1.8-2.5c2.1-2.8,4.1-5.6,6.2-8.3c0.5-0.6,1-1.2,1.6-1.7c2.6-2.1,4.9-4.4,6.8-7.2c0.2-0.4,0.6-0.6,0.9-0.9
	c2-1.6,4-3.2,6-4.9c0.5-0.4,0.9-0.9,1.3-1.4c2.1-2.2,3.5-2.8,6.5-2.4c0.2,0,0.3,0.1,0.5,0.3c-4,3.5-8.1,6.8-11.9,10.4
	C139,112.2,135.4,116.1,131.7,119.9z"/>
<path class="st0" d="M432.5,126.7c0.1,1.4,0.1,2.9,0.2,4.4c0.3,3.2,0.7,6.3,1,9.5c1.1,9.9,2.2,19.8,3.2,29.7c0,0.4-0.1,1.1-0.2,1.2
	c-0.8,0.2-1.6,0.2-2.5,0.2c-0.1,0-0.2-0.8-0.2-1.2c0-0.7,0-1.4,0.3-2c0.6-1.6,0.8-3.1-0.4-4.6c-0.3-0.4-0.3-1.1-0.4-1.7
	c-0.3-2.3-0.7-4.5-0.9-6.8c-0.2-2.4-0.4-4.9-0.2-7.3c0.3-3.8-0.5-7.5-1.3-11.1c-0.9-4.2-1.6-8.3-1.2-12.6c0.2-2-0.7-2.8-2.8-3.1
	c-0.5-0.1-1-0.5-1.5-0.7c0.6-0.5,0.2-1.9,1.5-1.8c0.2,0,0.4,0,0.7-0.1c3.9-0.3,2.8-0.8,3.8,2.9C432,123.2,432.2,124.9,432.5,126.7z"
	/>
<path class="st0" d="M49.4,122.6c0.5,0.1,1.3,0.3,2.2,0.4c-0.5,1.3-1.1,2.5-1.5,3.7c-1.7,4.8-3.5,9.6-5.1,14.5c-0.6,2-1.7,3-3.7,3
	c-1.2,0-2.5,0.2-4,0.4c1.4-4.1,2.3-8.1,3.9-11.9c1.6-3.7,3-7.5,4.7-11c0.2,0.5,0.4,1,0.6,1.5c0.1,0.3,0.1,0.6,0.1,0.8
	c-0.1,0.9-0.4,1.7-0.3,2.6c0.1,1.2,1.1,1.1,2.1,1c1-0.1,0.9-0.7,0.9-1.4c0-0.5,0.2-0.9,0.2-1.4C49.5,124.1,49.4,123.4,49.4,122.6z"
	/>
<path class="st0" d="M334.6,39.1c2-0.6,2-0.7,1.4-2.7c-0.7,0.3-1.5,0.5-2.1,0.9c-0.7,0.4-1.6,0.2-1.9-0.6c-0.1-0.3-0.1-0.6-0.2-1
	c-0.4,0.1-0.8,0.3-1.2,0.3c-0.4,0-1.1-0.2-1.1-0.3c0-1.2-0.9-1-1.7-1.2c0.6-0.2,1.2-0.4,1.7-0.6c-0.3-0.7-0.9-1.2-0.8-1.6
	c0.2-0.8,0.9-1.4,1.8-1.1c0.6,0.2,1.1,0.7,1.9,1.3c-1,0.4-1.6,0.7-2.6,1c1.7,0.7,3,1.4,4.4,1.8c0.7,0.2,1.8,0.4,1.9-1
	c0-0.3,0.3-0.7,0.5-1c1.5,1.1,3.9,0.4,4.8,2.5c-1.1,0.8-3.2-0.4-3.6,1.7l0.1,0.1c2.3-0.2,4.6,0.4,6.9,0.8c0.5,0.1,1.1,0.2,1.4,0.5
	c1.6,1.4,3.2,2.9,4.8,4.3c0.6,0.5,1.2,0.9,1.7,1.5c0.3,0.4,0.7,1.4,0.5,1.6c-0.5,0.5-0.4,1.9-1.8,1.5c-0.5-0.1-1.3,0.2-1.6,0.6
	c-0.6,0.8-1,0.6-1.7,0.1c-0.9-0.7-1.9-1.3-2.9-1.9c-1.2-0.7-2-1.5-2.3-2.8c-0.1-0.3-0.6-0.7-0.8-0.7c-1.1,0.2-1-0.6-0.9-1.1
	c0.2-1.1-0.4-1.2-1.2-1.1C337.9,41.2,336.1,40.8,334.6,39.1z"/>
<path class="st0" d="M112,50.1c0.8,0.5,1.4,0.9,2.1,1.4c-3.7,2.7-7.2,5.4-10.7,8.1c-0.8,0.6-1.4,1.5-2.1,2.2
	C96.5,67,91.6,72,87,77.2c-2.9,3.2-5.3,6.9-8.1,10.2c-1.5,1.8-2.4,4-4.2,5.8c-0.4-0.4-0.9-0.9-1.4-1.4c1-2,1.2-4.6,4.1-5.3
	c-0.9-1-0.6-1.2,0.5-1.3c0.9-0.1,1.7-0.8,2.5-1.3c-0.3-0.4-0.6-0.9-0.9-1.3c0.8-0.9,1.8-2.1,2.8-3.2c0.1-0.2,0.4-0.4,0.5-0.4
	c2.4,0.5,1.8-1.6,2.5-2.7c0.6-1,1.1-2.2,2-3c2-1.7,3.5-3.7,5.1-5.7c1.8-2.2,3.3-4.7,6-6.2c1.4-0.8,2.6-2,3.8-3
	C105.5,55.6,108.8,52.9,112,50.1z"/>
<path class="st0" d="M284.6,307.7c-0.3,1.1-2,0.8-1.6,2.2c0.9-0.2,1.6-0.3,2.4-0.5c0.1,0.1,0.1,0.2,0.2,0.3
	c-1.4,0.8-2.7,1.7-4.1,2.5c-5.7,2.9-11.9,4.8-18,6.6c-4.2,1.2-8.5,2.4-12.8,3.2c-3.5,0.7-7.2,0.8-10.8,1.1c-0.7,0.1-1.5,0.1-2.3,0.2
	c-0.1-0.6-0.1-1.1-0.2-1.6c1.3-0.9,2.8-1.1,4.4-1.3c4.9-0.6,9.8-1.5,14.6-2.3c2-0.3,4.1-0.8,6.1-1.3c1.3-0.4,2.6-1,3.9-1.5
	c1.4-0.5,2.8-1,4.2-1.4c0.6-0.2,1.3-0.3,1.9-0.5C276.5,311.5,280.5,309.7,284.6,307.7z"/>
<path class="st0" d="M76.8,155.1c0.6-0.9,1.5-0.6,2.2-0.1c0.9,0.6,1.6,0.4,2.3-0.1c1.6-1.3,3.5-1.4,5.5-1.6c2.3-0.3,4.5-0.8,6.7-1.1
	c0.6-0.1,1.2,0,1.8,0c0.7,0,1.5,0.2,2.2,0.1c1.4-0.4,2.7-1.1,4.2-0.4c0.2,0.1,0.5,0.1,0.6,0c1.7-1,3.3-0.3,5-0.3
	c1.9,0.1,3.8-0.6,5.7-0.8c1-0.1,2,0.1,2.9,0.2c0.5,0,1.1,0.2,1.5,0.1c2.8-0.7,5.6-1.5,8.4-2.2c0.6-0.2,1.4-0.1,2,0.1
	c0.2,0,0.4,0.8,0.3,1c-0.3,0.6-0.6,1.2-1.1,1.7c-0.2,0.2-0.8,0.1-1.2,0.2c-15.4,1.6-30.7,3.1-46.1,4.7
	C78.7,156.6,77.3,157.2,76.8,155.1z"/>
<path class="st0" d="M393.4,108c-2.6,1-3.2,0.9-4.3-1.2c-1.3-2.3-2.2-4.7-3.6-6.9c-2.4-3.6-5-7-7.6-10.5c-3.2-4.3-6.4-8.5-9.5-12.7
	c-1.1-1.5-1.1-1.5,0.3-2.7c0.1-0.1,0.1-0.4,0.3-0.8c2.4,2.8,4.7,5.5,6.8,8.2c0.3,0.3-0.1,1.2-0.2,1.8c-0.1,0.3-0.4,0.5-0.6,0.8
	c0.3,0.2,0.5,0.6,0.8,0.6c0.4,0,0.8-0.2,1.1-0.4c0.2-0.1,0.1-0.5,0.3-1.2c2.1,2.9,4.1,5.4,5.9,8.1c1.8,2.7,3.5,5.6,5.2,8.5
	C389.9,102.3,391.6,105.1,393.4,108z"/>
<path class="st0" d="M232.7,392.3c0.1,0.6,0.2,1.1,0.4,1.6c-1,0.3-2,0.5-2.8,0.9c-0.2,0.1-0.3,0.6-0.6,1.1c-2,0-4.3-0.1-6.7-0.1
	c-0.1-0.6-0.2-1-0.4-1.5c-0.3,0-0.8,0-0.9,0.1c-1.5,1.9-3.5,1.1-5.3,1.1c-2.4-0.1-4.9-0.7-7.3-0.9c-1.5-0.1-3-0.1-4.5-0.1
	c-0.3,0-0.5-0.1-0.8-0.2c0-0.2,0-0.3,0-0.5c0.8,0,1.7-0.1,2.5,0.1c1.5,0.3,2.8,0.6,3.8-1c0.2-0.4,1-0.5,1.5-0.6
	c0.6-0.1,1.3-0.1,1.7-0.2c0.1-0.8,0.2-1.4,0.3-2.1c-0.7-0.2-1.3-1.1-2.3-0.3c-0.5,0.3-1.8-0.5-2-1.2c2.6,0.2,5.1,0.4,7.6,0.5
	c-0.7,0.8-1.4,1.5-2,2.2c0.1,0.1,0.2,0.3,0.3,0.4c1.6-0.2,3.3,0.8,5-0.7c-0.2-0.5-0.5-1-0.9-1.7c1.4,0.1,2.7,0.3,4,0.4
	c0.3,0,0.6,0.2,0.8,0.2c1.6-0.2,3.1-0.5,4.7-0.6c0.5,0,1,0.4,1.6,0.5c0.4,0.1,1,0.2,1.2,0c1.1-1.4,2.1-0.4,2.9,0.1
	c1,0.6,1.9,1,3,0.4c-0.4-0.4-0.7-0.8-1.1-1.3c1.6,0,3.1-0.1,4.5-0.1l0,0.3c-0.4,0.1-0.8,0.1-1,0.3c-0.3,0.2-0.5,0.6-0.7,0.9
	c-0.5,0.7-0.9,1.4-1.4,2.2c-1.9-1.5-3.8-1.6-5.9-1.4c-0.5,0.1-1-0.2-1.5-0.3c-1.1-0.3-2.2-0.2-3.6,0.4c0.5,0.3,0.8,0.4,1.3,0.7
	c-0.3,0.1-0.6,0.2-0.7,0.3c-0.5,0.5-1.4,1.1-1.3,1.5c0.2,0.9,1.2,0.9,2.1,0.8C230.1,394.4,231.5,393.6,232.7,392.3z M223.6,391.2
	c0-0.2-0.1-0.4-0.1-0.6c-0.8,0.1-1.6,0.3-2.4,0.4c0,0.1,0,0.3,0.1,0.4C222,391.4,222.8,391.3,223.6,391.2z"/>
<path class="st0" d="M336.7,256c1.1,0.1,1.9,0.3,2.9,0.4c-7.1,14.2-17.4,25.8-28.8,36.8c-0.2-1.1-0.4-1.9-0.5-2.6
	c0-0.3,0.2-0.6,0.5-0.8c0.7-0.6,1.4-1.1,2.1-1.6c1.1-0.8,1.9-1.6,2.4-3c0.3-1.1,1.3-2.1,2.3-2.8c2.5-1.7,4.3-3.9,5.7-6.5
	c1-1.9,2.1-3.6,4.1-4.5c0.2-0.1,0.4-0.2,0.5-0.4c0.9-3,4.2-4.4,4.8-7.7c0.2-1,1.2-2.1,2.1-2.8C336.3,259.3,337.5,258.2,336.7,256z"
	/>
<path class="st0" d="M57.4,102c0.4-0.4,0.6-0.5,0.7-0.6c0.2-0.4,0.3-0.8,0.5-1.2c-0.4,0.1-0.9,0.2-1.3,0.3c-0.3,0.1-0.7,0.3-1.4,0.6
	c0.1-0.9,0-1.5,0.3-2c1-2,2-3.9,3.1-5.8c0.6-1,1.6-1.8,2.3-2.6c0.3-0.4,0.6-0.9,0.9-1.3c0.8-1.3,1.6-2.6,2.4-3.9
	c0.1-0.1,0.7-0.1,0.9,0c0.8,0.4,1.4,0.6,1.6-0.6c0-0.2,0.6-0.6,0.8-0.6c0.4,0.2,1.1,0.5,1.2,0.8c0.3,2.2,0.9,4.5-0.8,6.4
	c-0.5,0.6-1,1.3-1.3,2c-0.6,1.4-1.7,1.7-3.1,1.3c0.1-0.3,0.2-0.6,0.2-0.9c-0.1-0.3-0.3-0.6-0.5-0.9c-0.1,0.3-0.2,0.5-0.4,0.8
	c-0.5,1.1-0.9,2.3-1.6,3.3c-0.2,0.3-1,0.4-1.5,0.5c-1,0.2-1.9,0.2-2.9,0.4c-0.2,0-0.3,0.3-0.8,0.7c2.5,0.1,4.7,0.3,6.7,0.4
	c-0.9,1.3-1.1,1.4-2.7,0.8c-0.4-0.2-0.9,0-1.4-0.1c-0.1,0.1-0.1,0.3-0.2,0.4c0.5,0.4,1,0.8,1.6,1.2C60.2,103.9,58.9,102.1,57.4,102z
	"/>
<path class="st0" d="M437.8,231c0.6-0.2,1.1-0.4,2-0.8c-0.7-0.3-1.1-0.5-1.6-0.7c0.2-0.2,0.4-0.3,0.5-0.4c1.5-0.4,2.2-1.2,1.7-2.8
	c-1.3-3.9-1.4-7.8-1.1-11.8c0.3-3.5-0.8-6.8-1.4-10.2c-0.4-2.4-0.8-4.8-1.3-7.4c1.1,0,1.9,0,2.9,0c0.1,0.6,0.1,1.3,0.2,1.9
	c0.6,5.9,1.1,11.8,1.7,17.7c0.4,4.4,1,8.9,1.5,13.3c0.2,1.3-0.3,1.7-1.4,1.7c-0.6,0-1.2,0.1-1.8,0.2
	C438.8,232.1,438.2,231.8,437.8,231z"/>
<path class="st0" d="M314.1,364.6c-9.6,5.7-19.9,9.5-30.5,12.8c-0.9-1.7-2.1-0.3-3.3-0.6c0,0.6,0.1,1.1,0.1,1.6
	c-0.5,0.2-1,0.3-1.5,0.5c-1-1.5-0.8-2,0.8-2.3c0.7-0.1,1.3-0.5,1.9-0.7c2.1-0.7,4.1-1.4,6.2-2.2c1.6-0.6,3.2-1.1,4.8-1.7
	c1.7-0.6,3.4-1.3,5-2c1.2-0.5,2.5-1.2,3.7-1.8c3-1.5,6-3,9-4.4c0.6-0.3,1.5,0.3,2.3,0.5C313.3,364.3,313.7,364.5,314.1,364.6z"/>
<path class="st0" d="M18.8,230.4c0.5,1.1,2.6,0.3,2,2.2c-0.6,0.1-1.3,0.1-2.1,0.2c-0.4-1.6-1-3.1-1.1-4.6c-0.2-3.5-1.1-6.9-0.2-10.4
	c0-0.1,0.1-0.3,0-0.4c-1.8-2.3-0.3-5.1-1-7.6c-0.5-1.7-0.2-3.7,0-5.5c0.2-1.5,0.2-2.9-0.7-4.3c-0.4-0.5-0.5-1.5-0.3-2.1
	c0.1-0.3,1.1-0.4,1.9-0.7c0.1,1.1,0.2,2,0.3,3c0.5,5.3,1,10.6,1.6,15.8c0.4,4.1,1,8.2,1.5,12.2c0.2,1.3,0,2.1-1.5,2
	C19.1,230.2,19,230.3,18.8,230.4z"/>
<path class="st0" d="M186.4,391.6c0.2-2,0.9-2.4,2.4-2.4c1.3,0,2.5-0.2,3.9-0.4c-0.1-0.5-0.2-0.9-0.3-1.3c6.4-0.9,12.6-1,17.9,3.7
	c-0.3,0.1-0.6,0.3-0.8,0.3c-1.2,0-2.5-0.1-3.7-0.2c-0.6,0-1.3-0.5-1.7-0.3c-0.8,0.4-1.4,1.1-2,1.7c-0.5,0.4-0.9,1.1-1.4,1.2
	c-0.5,0-1.1-0.5-1.9-0.9c-2,1.3-4.2-0.3-6.6-0.3c0.2-1.4,1.3-1.1,2-1.3c1.7-0.5,2.1-0.9,2.2-2.8c-0.5,0-1.1,0-1.6,0.1
	c-0.3,0-0.7,0.2-0.8,0.4c-0.3,1.1-1.1,1-1.9,1c-0.9,0-1.2,0.4-0.7,1.5c-0.5-0.2-1.1-0.2-1.4-0.6c-0.8-1.1-1.4-0.6-2.2-0.1
	C187.5,391.2,187,391.3,186.4,391.6z"/>
<path class="st0" d="M363.8,324.8c1,0.6,1.1,1.4,0.4,2.2c-1.8,1.9-3.5,3.9-5.4,5.6c-4.2,3.9-8.4,7.8-12.8,11.6
	c-2.1,1.8-4.4,3.4-6.7,5.1c-0.5-1.1-0.4-1.7,0.5-2.4c0.6-0.4,1-1.2,1.5-1.9c1.7-2.6,4-4.4,6.8-5.6c1.4-0.6,2.6-1.6,3.7-2.7
	c3.8-3.7,7.5-7.5,11.3-11.2C363.2,325.2,363.5,325,363.8,324.8z"/>
<path class="st0" d="M443.5,202.5c1.2,0.3,1.4-0.2,1-1.3c-0.6-1.5-1-3.1-1.5-4.7c0.1-0.1,0.2-0.2,0.4-0.3c0.8,0.4,1.6,0.9,2.5,1.4
	c0.6-2.2,0.6-2.2,1.2-2.4c0,1.6,1,1.6,2.2,1c0.1,0.6,0.3,1,0.3,1.4c0.3,3.3,0.6,6.5,1,9.8c0.1,0.9-0.1,1.3-1.1,1.3
	c-1.1,0.1-2.3,0.4-3.4,0.4c-0.5,0-1.3-0.5-1.5-0.9C443.8,206.5,443.2,204.6,443.5,202.5z"/>
<path class="st0" d="M379.8,323.8c-0.5-0.1-1-0.4-1.5-0.4c-0.5,0-1.4,0.1-1.5,0.5c-0.7,1.4-2.1,1.6-3.3,2.2
	c-0.2,0.1-0.5,0.1-0.6,0.2c-0.4,0.4-0.9,1.1-1.3,0.2c-0.2-0.5-0.1-1.3,0.1-1.9c0.1-0.4,0.7-0.7,0.8-0.7c1.1,0.1,1.9,0.2,2.8,0.3
	c0.1-0.1,0.2-0.2,0.3-0.4c-0.3-0.6-0.6-1.1-0.7-1.5c0.7-1.5,1.3-2.9,2-4.2c0.3-0.6,0.6-1.2,0.9-1.8c0.6-1,1.2-1.9,2.5-1
	c0.2,0.2,0.7,0,1,0c0.3-1.2,0.4-2.6,2.2-1.6c0.1,0.1,0.4-0.1,0.6-0.2c1.3-1.2,2.9-0.7,4.7-1.1c-0.4,0.7-0.5,1-0.7,1.3
	c-1.4,1.9-2.9,3.8-4.4,5.7c-0.3,0.4-0.9,0.5-1.3,0.7c-0.2-0.4-0.4-0.8-0.5-1.2l0-0.1c-0.1-0.7-0.3-1.3-0.4-2
	c-0.2,0.1-0.5,0.1-0.6,0.2c-0.1,0.9-0.2,1.7-0.2,2.6c0,0.1,0.2,0.3,0.3,0.4c-0.4,0.2-0.8,0.4-1.3,0.7
	C381.2,321.8,380.5,322.8,379.8,323.8z"/>
<path class="st0" d="M120.9,42.6c1.6-0.9,3.2-1.8,4.9-2.5c2.3-0.9,4.2-2.2,5.8-4.1c0.6-0.7,1.5-1.2,2.4-1.6c1.9-0.8,3.8-1.5,5.7-2.2
	c0.8-0.3,1.6-0.4,2.4-0.6c1.6-0.4,3.2-0.8,4.7-1.4c-1-1.4-2.1,0-3.2-0.5c2.6-1.2,5.2-2.5,7.8-3.7c0.4,0.8,0.8,1.4,1.2,2.2
	c-4.6,1.7-8.4,5.1-13.5,5.4c0,0.1,0,0.2,0.1,0.3c0.4,0,0.9,0.1,1.3,0.1c0,0.1,0.1,0.2,0.1,0.3c-2.4,1.1-4.7,2.2-7.1,3.4
	c-0.5,0.3-0.9,0.9-1.4,1.2c-1.9,1.2-3.8,2.4-5.8,3.5c-0.4,0.2-1,0-1.5,0.1c-0.7,0.1-1.3,0.1-2,0.3c-0.6,0.1-1.2,0.3-1.7,0.5
	C121,43.1,120.9,42.9,120.9,42.6z"/>
<path class="st0" d="M288.2,308.5c-0.7-0.7-1.2-1.1-1.7-1.6c0.3-0.1,0.8-0.3,1.3-0.6c0.2,0.3,0.4,0.6,0.7,1.1c0.4-0.4,0.6-0.7,0.9-1
	c-0.2-0.1-0.5-0.3-0.8-0.5c1.5-1,3.3-1.8,4.6-3c4.2-3.8,9.2-6.3,13.4-10.1c0.4-0.4,0.8-0.8,1.2-1c0.4-0.1,1.3,0.3,1.2,0.3
	c-0.2,0.9,0.3,2-0.7,2.8c-5.9,4.9-12.3,9.1-18.9,12.9C289.1,308.2,288.5,308.3,288.2,308.5z"/>
<path class="st0" d="M330.6,242.9c0.9-1.6,0.3-2.4-0.9-2.9c1.8-0.2,3.5-0.4,5.3-0.5c6.1-0.3,12.3-0.6,18.4-0.9
	c1.4-0.1,2.7-0.4,4-0.7c0.8-0.1,1.5-0.2,1.6,0.9c0.2,1.1-0.5,1.3-1.4,1.4c-7.5,0.7-15,1.5-22.4,2.3
	C333.7,242.6,332.3,242.8,330.6,242.9z M334.7,241c0.9,0.9,1.7,0.7,2.4,0.2c0-0.1,0-0.3-0.1-0.4C336.3,240.8,335.5,240.9,334.7,241z
	 M338.1,240.7c0,0.2,0.1,0.3,0.1,0.5c0.8-0.1,1.6-0.2,2.4-0.4c0-0.1,0-0.3-0.1-0.4C339.7,240.5,338.9,240.6,338.1,240.7z"/>
<path class="st0" d="M302.1,98.4c1.4-0.1,2.8-0.7,4.3,0.5c4.9,4.1,9.8,8.2,13.6,13.3c0.7,1,1.3,2.1,2,3.2c-0.1,0.1-0.2,0.2-0.3,0.3
	c-0.6-0.3-1.3-0.5-1.7-0.9c-3.3-2.8-6.6-5.7-9.8-8.5c-0.2-0.2-0.5-0.3-0.6-0.6c-1-2.3-3.2-3.2-5.1-4.5c-0.9-0.7-1.8-1.5-2.6-2.2
	C301.9,98.8,302,98.6,302.1,98.4z M308.5,102c0-0.2,0.1-0.4,0.1-0.5c-0.5-0.3-1.1-0.6-1.6-0.8c-0.1-0.1-0.5,0.1-0.6,0.2
	c-0.1,0.2,0,0.6,0.1,0.7C307.2,101.7,307.9,101.8,308.5,102z"/>
<path class="st0" d="M301.2,25.7c-0.4-0.2-0.8-0.3-1.1-0.4c0.1-0.2,0.2-0.4,0.3-0.6c1.1,0.5,2.3,0.7,3.1,1.4
	c0.7,0.6,1.3,0.7,2.1,0.9c1.3,0.3,2.5,0.7,3.7,1.2c0.2,0.1,0.2,0.5,0.3,0.8c0.2,0.3,0.3,0.6,0.5,0.9c0.2-0.3,0.5-0.6,0.7-0.9
	c0.2,0.5,0.3,0.9,0.4,1.3c3.3,0.5,6,2.3,8.8,3.8c2.2,1.2,3.9,3.4,6.8,3.4c-0.9,1-1,1-2.4-0.1c-0.9,1.3-1.8,1-3,0.3
	c-6.4-3.3-12.9-6.5-19.4-9.8C301.3,27.4,300.1,27.1,301.2,25.7z M307.3,29c0.1-0.3,0.2-0.6,0.3-0.9c-0.6-0.2-1.2-0.4-1.8-0.5
	l-0.2,0.7C306.1,28.6,306.7,28.8,307.3,29z"/>
<path class="st0" d="M178,17.5c-0.5,0.1-1,0.2-1.6,0.4c0.2,0.4,0.3,0.7,0.5,1.2c-1,0.4-2.1,0.8-3.1,1.1c-3.5,1.3-7.1,2.5-10.6,3.8
	c-1.2,0.4-2.3,1-3.7,0.7c-0.9-0.2-1.8,0.1-2.4,1.2c-0.4,0.8-1.6,1.1-2.4,1.6c-0.6-0.8-1-1.4-1.7-2.4c2-0.6,3.7-1.1,5.5-1.6
	c0.6-0.2,1.3-0.3,1.8-0.7c3.4-2.5,7.5-3.3,11.4-4.4c0.4-0.1,0.9-0.1,1.3-0.4C174.6,16.8,176.2,16.6,178,17.5L178,17.5z"/>
<path class="st0" d="M153.3,367.9c-1.1,0.2-2.1,0.6-3.2,0.6c-0.7,0-1.5-0.4-2.2-0.6c-0.2-0.1-0.4-0.3-0.6-0.3c-4.8-1.6-9-4.1-13-7.1
	c-0.4-0.3-1-0.4-1.5-0.7c-0.9-0.4-1.8-0.7-2.7-1.1c0-0.1,0.1-0.3,0.1-0.4c0.3,0.1,0.6,0.2,0.9,0.2c0.6,0,1.2-0.1,1.8-0.2
	c0.7-0.1,1.4-0.3,1.9-0.1c1.6,0.7,3.1,1.5,4.6,2.3c0.6,0.4,1.9,0.3,1.4,1.7c0,0.1,1,0.9,1.4,0.8c2.1-0.5,3.7,0.5,5.1,1.6
	c1.5,1.2,3.2,1.3,4.8,2.2c0.4,0.2,0.8,0.4,1.3,0.6C153.3,367.6,153.3,367.8,153.3,367.9z"/>
<path class="st0" d="M173.6,375.2c-0.7,0.4-1.4,0.6-1.8,1.1c-0.7,0.9-1.4,0.9-2.3,0.5c-5.1-2-10.2-3.9-15.3-5.8
	c-0.2-0.1-0.3-0.2-0.4-0.2c0.3-0.5,0.6-0.8,0.7-1.2c0.3-1.6,0.3-1.6,1.8-1c2.5,1,4.9,1.9,7.4,2.9c0.4,0.2,0.9,0.5,0.9,0.8
	c0.1,1.2,0.9,0.8,1.5,0.8c0.6,0,1.3-0.1,1.9,0C169.8,373.7,171.7,374.5,173.6,375.2z"/>
<path class="st0" d="M129.9,355.1c-2.7,1.5-3.8,1.4-6.4-0.7c0.2-0.5,0.4-1,0.6-1.5c-0.1-0.1-0.2-0.1-0.3-0.2
	c-0.4,0.3-0.7,0.6-1.3,1.1c-1.9-1.5-3.9-3.1-5.9-4.6c-0.4-0.3-1-0.5-1.4-0.8c-1.3-0.9-2.7-1.8-4-2.7c1.4-2.1,2.4-2.4,4-1
	c3.1,2.7,6.1,5.5,9.8,7.5C126.7,353.1,128.3,354.1,129.9,355.1z"/>
<path class="st0" d="M94.1,330.3c0.8-0.1,1.2-0.1,1.7-0.2c2.2-0.2,2.2-0.2,2.6,1.8c1.5-0.8,2.2,0.5,3,1.3c3.5,3.2,6.9,6.4,10.3,9.5
	c-0.4,0.2-1,0.6-1.7,1C104,340.5,99.6,334.9,94.1,330.3z"/>
<path class="st0" d="M57.2,120.4c1.1,1.8,0.8,3.3,0.2,4.8c-0.9,2.1-1.7,4.4-2.6,6.5c-0.4,0.9-1,1.6-1.5,2.4c-0.1,0.6-0.1,1.4-0.4,2
	c-0.8,2.1-1.5,4.1-2.5,6.1c-0.3,0.6-1.1,0.9-1.9,1.1c1.3-1.6,1-3.5,1.3-5.3c0.1-1.1,0.4-2.2,0.9-3.2c1.9-4.4,3.8-8.9,5.7-13.3
	C56.6,121.3,56.9,120.9,57.2,120.4z"/>
<path class="st0" d="M57.3,110.8c-0.3,0.7-0.6,1.4-0.9,2c-0.3,0.8-0.8,1-1.7,1c-1.1,0-2.2,0.5-3.3,0.7c-0.7,0.1-1.4,0.1-2.2,0.1
	c0.2-3.2,0.8-5.7,3-7.7c0.7-0.6,0.9-1.8,1.4-2.7c0.2-0.3,0.6-0.4,0.9-0.6c0.1,0.3,0.3,0.6,0.4,0.9C55,105,55,105.5,55,106
	c-0.3,0.1-0.6,0.3-0.9,0.4c0.1,0.1,0.1,0.3,0.1,0.3c1.5,0.4,2.2,1.4,2,3C56.2,110.4,56.4,111,57.3,110.8L57.3,110.8z"/>
<path class="st0" d="M336.7,46.4c1.6-0.2,3.2-0.6,4.4,0.8c1.1,1.2,2.4,2.1,2.2,4c1.8-0.3,3,0.4,3.9,1.9c0.1,0.2,0.3,0.2,0.5,0.3
	c0.9,0.4,1.8,0.8,3,1.4c-0.6,0.3-0.8,0.5-1,0.4c-0.8-0.2-1.6-0.3-2.4,0.2c-0.3,0.2-1.1-0.1-1.5-0.4c-2.8-2.3-5.5-4.6-8.3-7
	c-0.2-0.2-0.5-0.4-0.7-0.4c-1.2-0.4-2.2-1-2.6-2.3c-0.5,0-1-0.1-1.3-0.1c0.2-0.3,0.4-0.7,0.6-1.1c0.2-0.3,0.3-0.6,0.4-1
	c0.3,0.2,0.5,0.4,0.8,0.6c0.4,0.4,0.9,0.7,1.3,1.1c0.3,0.3,0.6,0.7,0.8,1C336.8,46.1,336.7,46.3,336.7,46.4z"/>
<path class="st0" d="M242.3,138.2c2.4-0.5,4.8-1,7.2-1.4c0.2,0,0.6-0.1,0.8,0.1c2,1.3,3.9,0.1,5.8-0.3c1.8-0.4,3.7-1,5.5-1.5
	c0.7-0.2,1.4,0,2.5-0.1c-0.7,1.1-2,1.8-0.6,2.9c-5.4,0.5-10.6,1.1-15.9,1.6c-0.5,0-1.2-0.3-1.6-0.6c-0.8-0.6-1.6-0.8-2.6-0.3
	c-0.3,0.1-0.7,0-1.1,0L242.3,138.2z"/>
<path class="st0" d="M362.6,55.3c0.5,1-0.1,2.5,1.4,2.3c0.4,0,0.5-1.5,0.9-2.6c0.8,1.2,1.5,2.5,2.5,3.5c1.1,0.9,2.5,1.5,3.8,2.2
	c-0.1,0.2-0.1,0.4-0.2,0.6c-0.8,0-1.6-0.1-2.4-0.1c-0.2,0-0.4,0-0.7,0.1c-0.5,0.1-1.1,0.5-1.6,0.5c-1.3-0.1-2.7,1.1-3.9-0.5
	c-0.8-1.1-1.7-2.1-2.6-3.1c-0.2-0.2-0.6-0.5-0.8-0.5c-1.4,0.2-1.5-0.6-1.4-1.3C359.4,56,361,55.7,362.6,55.3z M360.4,57.4
	c0,0.3,0,0.6,0,0.9c0.7,0.1,1.4,0.3,2.1,0.4c0-0.5,0-1,0-1.6C361.7,57.3,361,57.4,360.4,57.4z"/>
<path class="st0" d="M370,331.6c0.8-0.2,1.2-0.3,1.6-0.4c0.1,0.8,0.5,1.8,0.2,2.3c-1,1.4-2.4,2.6-3.9,4.1c-0.4-0.7-0.7-1.2-0.9-1.7
	c-0.3-0.7-0.6-1.3-0.9-2c-0.1-0.2-0.2-0.5-0.2-0.6c0.3-1,0.6-2,1.1-2.9c0.7-1.2,1.6-2.3,2.6-3.8c0.2,0.8,0.3,1.2,0.4,1.6
	c0.1,0.8,0.8,1,1.3,0.5c1.6-1.5,3.6-0.5,5.3-1.4c0.1,0.2,0.2,0.3,0.2,0.5c-0.5,0.3-0.9,0.7-1.5,1c-0.9,0.3-2.1,0-2.7,1.1
	c-0.1,0.1-0.6,0-0.8-0.2c-1.1-0.5-2.8-0.4-4,0.5C368.8,330.7,369.5,331.2,370,331.6z"/>
<path class="st0" d="M220.7,140c2.2-0.3,4.4-0.6,6.5-1.1c1.4-0.3,2.8-1,4.3-0.3c0.5,0.2,1.3-0.3,2-0.4c0.9-0.1,1.9-0.2,2.8-0.2
	c0.8,0,1.6-0.1,2.5-0.1c0.2,0.7,0.4,1.4,0.7,2.6c-0.5-0.4-0.8-0.6-0.9-0.8c-0.3-0.4-0.4-1.2-0.6-1.3c-0.9-0.1-1.8,0.1-2.7,0.2
	c0,0.2,0,0.3,0,0.5c0.6,0.4,1.1,0.7,1.9,1.2c-2.9,0.6-5.6,0-8.4-0.4c0,0.2,0,0.3-0.1,0.5c0.2,0.2,0.4,0.5,0.6,0.8
	c-2,0.2-4,0.4-6,0.6C222.2,142,221,141.7,220.7,140z"/>
<path class="st0" d="M110.6,41.6c-0.6,0.3-1.3,0.5-2,0.8c0.3,0.2,0.6,0.4,1,0.7c-0.1,0.9-0.9,1-1.7,1.1c-0.7,0.1-1.5,0.4-1.8-0.7
	c-0.1-0.2-0.8-0.4-0.9-0.3c-0.5,0.4-1,0.8-1.2,1.4c-0.4,1.1-0.7,1.2-2,0.3c1.2-0.8,2.3-1.6,3.4-2.3c1.4-0.9,2.9-1.4,4-2.9
	c0.9-1.2,2.7-1.6,4.5-2.6c0.2,1.9,0.3,3.3,0.5,4.8c0.2,0.3,0.5,0.6,0.7,1c-0.5,0.2-0.9,0.4-1.4,0.5
	C111.7,43.5,111.4,43.4,110.6,41.6z M110.6,40.3c-0.2-0.2-0.3-0.4-0.5-0.6c-0.3,0.3-0.6,0.6-0.9,0.9c-0.1,0.1,0.2,0.4,0.3,0.6
	C109.9,40.9,110.3,40.6,110.6,40.3z"/>
<path class="st0" d="M268.7,17.1c1.2-1,3.4-1.2,4.3-0.6c0.7,0.5,0.9,0.4,1.6-0.4c-0.4-0.1-0.8-0.2-1.2-0.3c0-0.1,0-0.2,0-0.3
	c0.4-0.1,0.9-0.3,1.2-0.2c3,0.8,5.9,1.6,9.2,2.5c-0.6,0.6-2,0.7-0.3,1.9c-1.2,0.1-2.1,0.4-2.8,0.2c-1.9-0.5-3.8-1.2-5.8-1.8
	c-0.4-0.1-0.8-0.1-1.3-0.2C272.1,17.7,270.5,17.4,268.7,17.1z"/>
<path class="st0" d="M366.9,74.1c-3.1-2.8-6.3-5.7-9.6-8.7c0.2-0.3,0.3-0.7,0.6-0.9c0.2-0.1,0.6,0.2,0.9,0.3
	c0.3,0.2,0.6,0.7,0.8,0.6c2.4-0.5,3.5,1.2,4.9,2.7c-0.3,0.1-0.6,0.1-0.8,0.3c-0.2,0.3-0.5,0.7-0.5,1c0,0.1,0.6,0.5,0.9,0.4
	c2.1-0.4,3.1,0.9,3.8,2.2C367.5,73,367.2,73.5,366.9,74.1z"/>
<path class="st0" d="M60.3,112.4c0.9-4.2,4.7-6.4,6.7-9.8c0.1,0,0.3,0.1,0.4,0.1c-0.2,0.9-0.2,1.8-0.6,2.6c-1.1,2.3-2.4,4.4-3.5,6.7
	c-0.4,0.9-0.9,1.3-1.8,0.5C61.4,112.3,60.9,112.4,60.3,112.4z"/>
<path class="st0" d="M316.4,363.5c-0.3-0.6-0.6-1.2-1-1.8c2.1-1.4,4.3-2.9,6.5-4.4c0.5-0.3,2.3,0.3,2.4,0.8c0.1,0.4,0,1-0.2,1.2
	c-0.4,0.3-1,0.4-1.4,0.3c-1.3-0.5-1.7-0.5-2.9,0.2c1.1,1.2,1.1,1.4-0.5,2.3c-0.5,0.3-1,0.5-1.5,0.8
	C317.3,363.1,316.8,363.3,316.4,363.5z"/>
<path class="st0" d="M358.2,62.7c-0.4-0.2-0.7-0.4-1.1-0.6c-1.2,1.3-1.6,1.2-2.8,0c-1.6-1.6-3.3-3.1-5-4.6c-0.4-0.3-0.7-0.6-1.2-0.9
	c3-1.2,6.7,1.3,6.7,4.8c0.5-0.3,1-0.5,1.3-0.7c0.8,0.5,1.6,1,2.4,1.6C358.3,62.5,358.2,62.6,358.2,62.7z"/>
<path class="st0" d="M357,52.4c-0.3-0.4-0.7-0.8-1.1-1.3c-0.8,0.9-1.4,1.6-2.3,2.6c-1-0.9-2.1-1.9-3.2-3c1.1-1.1,2.2-1.9,3.7-0.8
	c0.3,0.2,1.1-0.3,1.6-0.2c0.6,0.1,1.3,0.5,1.6,1C357.5,51.1,357.1,51.8,357,52.4L357,52.4z"/>
<path class="st0" d="M356.9,52.3c0.1,0.4,0.2,0.9,0.3,1.5c0.9-0.7,1.8-1,1.9-2.3c0.1-0.7,0.8-1.2,1.6-0.5c0.9,0.8,1.8,1.6,3,2.6
	c-2.8,0.3-5.3,0.5-7.8,0.8C355.4,53.4,356.1,52.8,356.9,52.3L356.9,52.3z"/>
<path class="st0" d="M288.3,22.5c2.1-1.2,5.7-1.1,7,0.1c0.7,0.6,1.1,1.5,1.7,2.4c-0.8-0.2-1.7-0.1-2-0.5c-0.7-0.9-1.4-0.6-2.3-0.6
	C291.2,23.9,289.9,23.1,288.3,22.5z"/>
<path class="st0" d="M331.7,44.5c-0.8-0.5-1.7-1.2-2.6-1.7c-1-0.6-1.3-1.3-0.5-2.4c0.7,0.1,1.5,1.1,2.2,0c0-0.1,0.5,0.1,0.7,0.2
	c0.7,0.5,1.5,1.1,2.1,1.6C332.9,43,332.3,43.7,331.7,44.5z"/>
<path class="st0" d="M69.9,97.9c-0.4-0.5-0.6-0.8-0.9-1.2c1.1-0.8,2-1.5,2.9-2.1c-0.1,1.1,0,2.4-0.5,3.5c-0.5,1.2-1.4,2.3-2.2,3.4
	C67.3,99.7,67.5,98.8,69.9,97.9z"/>
<path class="st0" d="M377,312.4c-0.7-0.2-1.6-1.8-1.3-2.3c0.9-1.5,1.8-3,2.8-4.5c0.1-0.1,0.3-0.2,0.3-0.2c0.2,1.2,0.6,2.3,0.5,3.4
	c0,0.5-0.8,1.3-1.3,1.4C376.7,310.6,376.3,311,377,312.4z"/>
<path class="st0" d="M435.7,180.7c0.1-1.7-0.2-3.3-0.1-4.9c0-0.3,0.6-0.6,0.9-0.8c-0.7-0.5-1.1-0.8-1.9-1.3c1.9-0.6,2.2,0.3,2.6,1.4
	C438,177.3,437.1,179,435.7,180.7z"/>
<path class="st0" d="M57.3,110.9c0-0.4-0.2-0.8,0-1c0.6-0.9,0.4-1.6-0.5-2.2c0.5-0.2,0.9-0.3,1.5-0.5c-0.2-0.6-0.4-1.1-0.7-1.8
	c0.2-2.4,2-0.7,3.3-1C59.6,106.6,58.4,108.7,57.3,110.9L57.3,110.9z"/>
<path class="st0" d="M436.5,187.1c-0.1-0.7-0.2-1.3-0.2-2c0-0.4,0.3-0.7,0.5-1c0.4,0.2,1,0.4,1.1,0.7c0.3,1.5,0.5,2.9,0.6,4.4
	c0,0.3-0.5,0.8-0.9,0.9c-0.3,0-0.8-0.4-0.9-0.8C436.6,188.6,436.7,187.8,436.5,187.1L436.5,187.1z"/>
<path class="st0" d="M375.5,314.5c-1.4,1.5-2.6,2.7-3.8,4c-2.2-1-0.4-1.9,0-2.8C372.4,314.4,373.6,314,375.5,314.5z"/>
<path class="st0" d="M285.7,20.5c0.5-0.3,0.8-0.5,1.2-0.7c-0.3-0.3-0.5-0.5-0.7-0.8c0.1-0.1,0.1-0.2,0.2-0.3c1.5,0.6,3,1.3,4.4,1.9
	c0,0.1-0.1,0.2-0.1,0.3C289.2,20.7,287.5,21.9,285.7,20.5z"/>
<path class="st0" d="M60.9,117.1c-0.6,1.2-1.1,2.4-1.6,3.5c-0.4-0.8-0.8-1.5-1.3-2.4C58.4,116.8,58.4,116.8,60.9,117.1z"/>
<path class="st0" d="M338.8,361.7c-0.9,0.6-1.8,1.3-2.8,1.8c-0.4,0.2-1.2,0.2-1.4,0c-0.5-0.7,0.2-0.9,0.7-1c1.2-0.4,2.3-0.8,3.5-1.1
	C338.8,361.5,338.8,361.6,338.8,361.7z"/>
<path class="st0" d="M72.4,75.9c0.3,0.4,0.5,0.7,0.9,1.1c-0.4,0.6-0.3,2-1.8,1.8c-0.2,0-0.6-0.1-0.7-0.2c-0.1-0.2,0-0.5,0.1-0.7
	C71.4,77.2,71.9,76.5,72.4,75.9z"/>
<path class="st0" d="M288,11.2c0.1-1.6,1.2-1.7,4.4-0.4C290.8,10.9,289.5,11.1,288,11.2z"/>
<path class="st0" d="M354.7,45.7c0.6,0.7,1.2,1.4,1.8,2c-0.1,0.1-0.1,0.2-0.2,0.4c-0.4,0-1.1,0.2-1.2,0c-0.5-0.6-0.7-1.3-1.1-2
	C354.2,46,354.5,45.9,354.7,45.7z"/>
<path class="st0" d="M68.8,80.6c0.2,0.8,0.4,1.4,0.5,2.1c0,0.2-0.3,0.6-0.5,0.6c-0.2,0.1-0.6-0.2-0.7-0.4
	C67.6,82.1,67.3,81.2,68.8,80.6z"/>
<path class="st0" d="M300.6,94.7c-1.3,1.5-3.1,1.7-3.9,0.2c0.9,0.2,1.6,0.5,2.3,0.4c0.5-0.1,1-0.6,1.5-0.9
	C300.5,94.5,300.5,94.6,300.6,94.7z"/>
<path class="st0" d="M338,360.1c-0.8,0.1-1.6,0.2-2.4,0.2c-0.1-0.1-0.1-0.3-0.2-0.4c0.6-0.3,1.2-0.8,1.8-0.9
	c0.3-0.1,0.7,0.4,1.1,0.7C338.1,359.8,338.1,359.9,338,360.1z"/>
<path class="st0" d="M384.3,311.5c-0.7,0.1-1.1,0.2-1.6,0.3c0.2-0.9,0.4-1.8,0.6-2.7C385,309.5,383.4,310.8,384.3,311.5z"/>
<path class="st0" d="M379.3,325.3c-0.7,0.5-1.3,0.9-2.1,1.5C377.4,324.7,377.9,324.4,379.3,325.3z"/>
<path class="st0" d="M386.6,306.9c-0.4,0.6-0.8,1.2-1.1,1.8c-0.2-0.1-0.4-0.2-0.6-0.3c0-0.4-0.1-0.9,0.1-1.1
	c0.4-0.4,0.9-0.6,1.4-0.8C386.5,306.7,386.5,306.8,386.6,306.9z"/>
<path class="st0" d="M122.9,44.8c-0.7,0.5-1.3,0.9-2,1.4C120.3,44.8,120.5,44.7,122.9,44.8z"/>
<path class="st0" d="M285.9,10.4c-0.3,0.3-0.7,0.6-1.3,1.1c-0.1-1-0.2-1.9-0.3-2.9C285,9.3,284.7,10.6,285.9,10.4L285.9,10.4z"/>
<path class="st0" d="M286,10.5c0.4-0.6,0.8-1.1,1.2-1.6c0.1-0.1,0.4,0.1,0.7,0.2c-0.1,0.3-0.2,0.8-0.4,1
	C287,10.3,286.4,10.3,286,10.5L286,10.5z"/>
<path class="st0" d="M368.2,322.9c-0.5,0.5-1,0.9-1.5,1.4c-0.1-0.1-0.3-0.1-0.4-0.2c0.2-0.5,0.3-1,0.6-1.4c0.2-0.2,0.7-0.1,1.1-0.2
	C368.1,322.7,368.1,322.8,368.2,322.9z"/>
<path class="st0" d="M53.1,119.5c-0.2,0.5-0.4,1-0.7,1.6c-0.3-0.2-0.6-0.4-1-0.7c0.5-0.5,0.9-0.9,1.4-1.3
	C52.9,119.3,53,119.4,53.1,119.5z"/>
<path class="st0" d="M336.1,32.4c-0.9-0.2-1.6-0.4-2.3-0.5C334.2,30.7,334.6,30.8,336.1,32.4z"/>
<path class="st0" d="M291.8,11.9c1.1-0.1,2.2-0.2,3.3-0.3l0,0.2c-1.1,0.1-2.2,0.2-3.3,0.3L291.8,11.9z"/>
<path class="st0" d="M144.2,269.2c-0.6,0.3-1.1,0.6-1.7,0.9c-0.1-0.2-0.2-0.6-0.2-0.7c0.5-0.3,1.1-0.5,1.6-0.7
	C144.1,268.8,144.2,269,144.2,269.2z"/>
<path class="st0" d="M385.7,311.1c0.4-0.3,0.7-0.7,1.2-0.9c0.2-0.1,0.5,0.1,0.8,0.2c-0.1,0.3-0.1,0.7-0.3,0.7
	c-0.5,0.2-1,0.2-1.6,0.3C385.8,311.3,385.8,311.2,385.7,311.1z"/>
<path class="st0" d="M50.4,117.9c-0.3-1.3-0.2-1.4,1.9-1.3C51.6,117.1,51,117.5,50.4,117.9z"/>
<path class="st0" d="M304.2,97.3c-1.3,0.4-1.7,0.1-1.7-1.2C303.1,96.5,303.5,96.8,304.2,97.3z"/>
<g>
	<path class="st1" d="M53.1,218.8c0.5,5-1.7,7.7-6.6,8.2l-10.2,1l-2.5-26c-0.3-3.4-1.6-5.5-3.9-6.2l-0.1-1l13.9-1.3
		c2.4-0.2,4.1,0.1,5.2,0.8c1.3,1,2.1,3,2.4,5.9L53.1,218.8z"/>
	<path class="st1" d="M106.3,210.3c1.1,11.1-1.7,19.5-8.3,25.3c-5,4.5-12.3,7.2-21.8,8.1c-6.1,0.6-10.3,0.6-12.6,0
		c-2.8-0.7-4.2-1.8-4.4-3.4l-1.1-11.1l0.4-0.3c1.8,2.3,5,3.3,9.5,2.8c1.3-0.1,1.7-0.8,1.2-2.1L59.3,201c-1.6-4.5-3.2-7-5-7.5l-0.1-1
		l15.3-1.5c3.2-0.3,5.4,1.3,6.6,4.8l5.7,16.6c0.7,2.4,1.2,4.4,1.3,6.3c0.5,5.5-1.5,9.2-6,10.9l0.4,1.3c8.5-0.8,12.3-5.7,11.5-14.6
		L87.4,198c-0.4-4.2-1.9-6.6-4.5-7.3l-0.1-1l14.5-1.4c2.3-0.2,4.1,0.1,5.3,0.8c1.3,1,2.1,3,2.4,5.9L106.3,210.3z"/>
	<path class="st1" d="M158,225.1c0.3,2.9,0.2,5-0.3,6.3c-0.8,1.8-2.5,2.9-5.3,3.2l-38.2,3.7l-0.6-6.6c-0.1-1.3-0.1-2.5,0-3.4
		s0.4-1.7,0.8-2.3c0.4-0.6,1.1-1.1,1.8-1.4c0.8-0.3,1.8-0.6,3-0.7l10.8-1c2.6-0.3,4.3-1.3,5-3.3c0.6-1.3,0.8-3.4,0.5-6.3l-0.7-7.1
		c-0.3-3.4-1.2-5.6-2.7-6.6c-1.6-1.1-4.9-1.5-9.8-1c-5.7,0.6-9.2,2.3-10.2,5.4l-0.7,0.1l-1.1-11.6c-0.2-1.9,0.9-3.5,3.1-4.9
		c2.3-1.4,7.1-2.4,14.5-3.1c8.6-0.8,14.7,0,18.3,2.4c3.6,2.4,5.8,7.2,6.5,14.4l0.4,4.1c0.7,7.7-1.9,12.6-7.8,14.8l0.1,1.3l6-0.6
		c2.6-0.3,4.4-1.2,5.4-3l0.6-0.1L158,225.1z"/>
	<path class="st1" d="M211.9,202.5c1.7,17.9-6.1,27.7-23.4,29.4c-16.2,1.6-25.2-6-26.8-22.6l-1.9-19.3c-0.3-3.4-1.6-5.5-3.7-6.2
		l-0.1-1l14.2-1.4c4.4-0.4,6.9,1.8,7.4,6.7l1.9,19.8c0.4,4.6,1.2,7.6,2.3,9c1.1,1.4,3.1,1.9,5.9,1.7c2.6-0.3,4.4-1.3,5.3-3.3
		c1-1.9,1.2-5.2,0.8-9.8l0-0.2c-0.2-2.1-0.4-3.9-0.6-5.2c-0.2-1.4-0.4-2.4-0.6-3.1c-1-3.5-2.7-5.1-5.3-4.9c-1.6,0.2-3,1.3-3.9,3.5
		l-0.6,0.1l-1-10.1c-0.1-1.5,0.5-2.9,1.9-4.3c1.4-1.3,3.9-2.1,7.5-2.5c4.8-0.5,8.6,0.1,11.4,1.7c2.9,1.6,5.1,4.5,6.7,8.9
		c1.1,3.1,1.9,7.4,2.4,13L211.9,202.5z"/>
	<path class="st1" d="M282.6,198c0.8,8.1-1,14.6-5.4,19.3c-3.8,4.3-8.9,6.7-15.4,7.3l-0.3,0c-3.1,0.3-5.6,0.1-7.5-0.6
		c-1.3-0.5-2-1.3-2.1-2.4l-1.1-11.1l0.4,0c1.6,0.9,3.3,1.3,5.3,1.1c6.3-0.6,9.1-4.4,8.5-11.4l-1.4-14.2l-21.2,2
		c-1.5,0.1-2.3-0.6-2.5-2.3l-1.8-18.6c-0.1-1.2-0.7-3.2-1.9-6l-0.1-0.6l14-1.3c3-0.3,4.7,1.5,5.1,5.3l0.8,8.2l17.3-1.7
		c2.2-0.2,3.9,0,4.9,0.6c1.3,0.8,2,2.6,2.3,5.3L282.6,198z"/>
	<path class="st1" d="M308.9,212c0.5,5-1.5,7.7-6,8.1l-10.8,1l-4.2-43.6c-0.3-3.3-1.7-5.3-4.1-6.2l-0.1-1l13.1-1.3
		c5.3-0.5,8.2,1.7,8.6,6.6L308.9,212z"/>
	<path class="st1" d="M356.6,179.2l-0.7,0.1c-1.2-1.2-2.7-1.7-4.6-1.5l-0.1,0c-2.7,0.3-4,2-3.7,5.1l2.4,25.1c0.5,5-1.6,7.7-6.1,8.1
		l-11,1.1l-2.3-24c-0.7-7.3,2.2-11.7,8.7-13.2l-0.1-1.2l-21.5,2.1c-2.7,0.3-4.6,1.2-5.6,2.9l-0.6,0.1l-1.1-11.1
		c-0.2-2,0.1-3.3,0.8-4.1s2.1-1.3,4.1-1.5l33.1-3.2c2.6-0.2,4.4,0,5.5,0.7c1,0.7,1.7,2.4,1.9,5.1L356.6,179.2z"/>
	<path class="st1" d="M381,187.3c0.5,5-1.7,7.7-6.6,8.2l-10.2,1l-2.5-26c-0.3-3.4-1.6-5.5-3.9-6.2l-0.1-1l13.9-1.3
		c2.4-0.2,4.1,0.1,5.2,0.8c1.3,1,2.1,3,2.4,5.9L381,187.3z"/>
	<path class="st1" d="M422.3,202c0.4,4.4-1.4,6.7-5.5,7.1l-9.3,0.9c-0.6-2.1-1-4.2-1.4-6.3c-0.4-2.1-0.6-4.2-0.8-6.3
		c-0.1-0.5-0.5-0.8-1.4-0.7c-0.8,0.1-1.2,0.4-1.2,0.9c0.4,3.8,0.2,6.7-0.6,8.7c-0.7,2-1.6,3.4-2.7,4.2c-1,0.8-2.7,1.2-4.9,1.5
		c-3.6,0.3-5.6-1-5.8-4l-1.5-15.4l0.6-0.1c1.5,1.8,3.5,2.6,5.9,2.3c6.5-0.6,9.5-4.4,8.8-11.2l-0.6-6.4c-0.3-3.4-2.9-4.8-7.9-4.3
		c-3.1,0.3-5.4,1.5-7,3.7l-0.6,0.1l-1.1-11.3c-0.2-1.6,0.5-2.9,2-3.9c2.2-1.6,6.1-2.6,11.9-3.2c12.3-1.2,19,3.3,20,13.5L422.3,202z"
		/>
</g>
<g>
	<g>
		<path class="st1" d="M114.3,303.5c-1,0-1.9,0.4-2.6,1.1l-5.6,5.4c-1.7,1.6-3.4,1.7-4.9,0l-3.6-3.8l7-6.7c2.3-2.2,4.5-2.3,6.4-0.3
			l3.7,3.9L114.3,303.5z M115.5,319.9c-1.7,1.7-3.4,1.7-4.9,0.1l-3.6-3.8l10.9-10.4c1.1-1,1.5-2,1.3-3c-0.2-0.9-1.3-2.4-3.2-4.4
			c-1.4-1.5-2.7-2.5-3.8-2.9c-0.8-0.3-1.7-0.3-2.8-0.1l-0.3-0.3l4.2-4c0.8-0.7,1.7-0.9,2.9-0.3c1.7,0.8,3.7,2.4,6,4.8
			c3.3,3.5,5.2,6.4,5.6,8.6c0.4,2.3-0.6,4.6-3,6.9L115.5,319.9z"/>
		<path class="st1" d="M134.8,320.8c-1.3,0-2.4,0.7-3.5,2.1l-10.5,14.3c-1.4,1.9-3,2.2-4.9,0.9l-3.9-2.9l12.4-16.9
			c0.9-1.3,1.8-2.1,2.6-2.3c0.9-0.3,2-0.1,3.1,0.8l4.9,3.6L134.8,320.8z M142.7,332.3c-1.9,2.6-4,4.1-6.4,4.7
			c-2.4,0.5-4.6,0-6.8-1.6l-0.1-0.1c-1-0.7-1.6-1.4-1.9-2.2c-0.3-0.7-0.3-1.4,0.1-1.9l2.8-3.7c0,0.6,0.3,1.2,0.8,1.5
			c0.6,0.4,1.2,0.6,1.9,0.5c0.8-0.1,1.4-0.5,1.9-1.2l5.4-7.4l-8.9-6.5c-1.5-1.1-2.8-1.5-3.9-1.2l-0.2-0.2l3.4-4.6
			c0.6-0.8,1.2-1.2,1.9-1.1c0.5,0,1.2,0.4,2,1l14.6,10.8c1.3,1,1.5,2.1,0.5,3.5L142.7,332.3z"/>
		<path class="st1" d="M155.2,336.9c-1.2,2.1-2.8,2.6-4.9,1.5L146,336l6.1-11c0.8-1.4,0.8-2.6,0.1-3.6l0.2-0.4l5.9,3.3
			c1,0.6,1.6,1.2,1.9,1.8c0.2,0.8,0,1.8-0.7,3L155.2,336.9z"/>
		<path class="st1" d="M181.9,347.7c-3.2,8.1-8.7,10.6-16.5,7.6c-7.3-2.9-9.5-8.1-6.6-15.6l3.4-8.7c0.6-1.6,0.5-2.7-0.2-3.5l0.2-0.5
			l6.4,2.5c2,0.8,2.6,2.3,1.7,4.5l-3.5,9c-0.8,2.1-1.1,3.6-1,4.4c0.2,0.8,0.9,1.5,2.2,2c1.2,0.5,2.2,0.4,3-0.3
			c0.8-0.6,1.7-2,2.5-4.1l0-0.1c0.4-1,0.7-1.8,0.9-2.4s0.3-1.1,0.4-1.5c0.3-1.7-0.1-2.8-1.2-3.2c-0.7-0.3-1.6-0.1-2.5,0.7l-0.3-0.1
			l1.8-4.6c0.3-0.7,0.9-1.2,1.8-1.4c0.9-0.3,2.1-0.1,3.8,0.6c2.2,0.9,3.7,1.9,4.6,3.2c0.9,1.3,1.2,3.1,1,5.3
			C183.5,343,182.9,345.1,181.9,347.7L181.9,347.7z"/>
		<path class="st1" d="M192.2,359.2c-0.6,2.3-1.9,3.3-4,2.7l-5.1-1.2l5-20.6c0.4-1.5,0.1-2.7-0.9-3.5l0.1-0.5l6.2,1.5
			c2.5,0.6,3.5,2.1,2.9,4.4L192.2,359.2z"/>
		<path class="st1" d="M206.4,353c-0.4,2.4-1.7,3.4-4.1,3l-4.9-0.8l2-12.4c0.3-1.6-0.1-2.8-1.1-3.4l0.1-0.5l6.7,1.1
			c1.2,0.2,1.9,0.5,2.3,1c0.5,0.6,0.6,1.6,0.4,3L206.4,353z"/>
		<path class="st1" d="M231.2,362.5c-0.1,1.4-0.2,2.4-0.6,3c-0.5,0.8-1.4,1.2-2.7,1.2l-18.5-0.7l0.1-3.2c0-0.6,0.1-1.2,0.2-1.6
			c0.1-0.4,0.3-0.8,0.6-1.1c0.3-0.3,0.6-0.5,1-0.6c0.4-0.1,0.9-0.2,1.5-0.1l5.2,0.2c1.3,0,2.1-0.4,2.6-1.2c0.4-0.6,0.6-1.6,0.6-3
			l0.1-3.4c0.1-1.7-0.2-2.8-0.8-3.3c-0.7-0.6-2.3-1-4.6-1.1c-2.8-0.1-4.5,0.5-5.3,1.9l-0.4,0l0.2-5.6c0-0.9,0.6-1.6,1.8-2.1
			c1.2-0.5,3.6-0.7,7.2-0.5c4.2,0.2,7,0.9,8.6,2.3c1.6,1.4,2.3,3.8,2.2,7.3l-0.1,2c-0.1,3.7-1.7,5.9-4.7,6.6l0,0.6l2.9,0.1
			c1.3,0,2.2-0.3,2.8-1.1l0.3,0L231.2,362.5z"/>
		<path class="st1" d="M243.5,353.5c0.2,2.4-0.9,3.7-3.3,3.9l-4.9,0.4l-1-12.6c-0.1-1.6-0.7-2.7-1.8-3l0-0.5l6.7-0.5
			c1.2-0.1,2,0.1,2.5,0.5c0.6,0.5,1,1.5,1.1,2.8L243.5,353.5z"/>
		<path class="st1" d="M271.7,347.8c1.8,8.5-1.4,13.6-9.6,15.4c-7.7,1.6-12.4-1.5-14.1-9.4l-1.9-9.2c-0.3-1.6-1.1-2.6-2.1-2.8
			l-0.1-0.5l6.7-1.4c2.1-0.4,3.4,0.5,3.9,2.8l2,9.4c0.5,2.2,1,3.6,1.6,4.2s1.6,0.8,2.9,0.5c1.2-0.3,2-0.9,2.4-1.9
			c0.4-1,0.3-2.6-0.2-4.8l0-0.1c-0.2-1-0.4-1.8-0.6-2.5c-0.2-0.6-0.3-1.1-0.5-1.4c-0.7-1.6-1.6-2.3-2.8-2c-0.8,0.2-1.3,0.8-1.7,1.9
			l-0.3,0.1l-1-4.8c-0.2-0.7,0.1-1.4,0.7-2.2c0.6-0.7,1.8-1.2,3.5-1.6c2.3-0.5,4.1-0.4,5.6,0.2c1.5,0.6,2.7,1.9,3.7,3.9
			C270.5,343,271.1,345,271.7,347.8L271.7,347.8z"/>
		<path class="st1" d="M291.1,350.5c0.7,2,0.1,3.3-1.9,4.1l-10,3.7l-1.4-3.7c-0.6-1.7-0.1-2.9,1.7-3.6l2.2-0.8l-3.4-9
			c-0.5-1.3-1.4-1.8-2.8-1.2c-1,0.4-1.7,1-2,1.9l-0.3,0.1l-1.6-4.3c-0.3-0.9-0.3-1.7,0-2.3c0.6-0.9,1.9-1.7,4.1-2.5l0.1-0.1
			c2.3-0.9,4.1-1.1,5.5-0.8c2,0.5,3.4,2.1,4.5,4.8L291.1,350.5z"/>
		<path class="st1" d="M312.2,343.4c-2.4-1.4-6.8-3.8-13.4-7.1c0,0.4,0.1,0.8,0.3,1.2l2.3,4.1c0.3,0.6,0.8,0.7,1.4,0.4
			c0.3-0.2,0.6-0.5,0.9-1l0.2-0.1l1.5,2.7c0.5,1,0.7,1.8,0.6,2.4c-0.1,0.8-1.3,1.8-3.6,3.1l-0.1,0c-1.7,0.9-3.1,1.2-4.2,0.8
			c-1.1-0.4-2.2-1.6-3.2-3.4l-1.7-3.1c-0.7-1.3-1-2.7-0.6-4.1c0.1-0.5,0.4-1.1,0.7-1.9c0.4-0.8,0.8-1.7,1.5-2.9
			c-2-0.9-3.5-1-4.6-0.4c-0.6,0.3-0.9,0.7-1.1,1.2l-0.3,0.1l-1.9-3.4c-0.9-1.6-0.1-3.1,2.3-4.4c1.7-0.9,3.1-1.4,4.3-1.4
			c1.2,0,2.7,0.4,4.5,1.3c1.2,0.6,3.2,1.6,6,3.1c0-0.4-0.2-0.9-0.5-1.4l-1.4-2.6c-1.2-2.1-2.4-3.1-3.8-3.1l-0.2-0.4l5.9-3.2
			c2-1.1,3.7-0.3,5.1,2.3l0.9,1.6c0.8,1.4,1,2.8,0.7,4.3c-0.1,0.5-0.3,1.2-0.7,2s-0.8,1.8-1.3,2.9l8.7,4.3c0.4,0.2,0.8,0.6,1,1
			c0.6,1.1,0.3,1.9-0.8,2.5L312.2,343.4z"/>
		<path class="st1" d="M346.9,316.4c-2.7-0.8-7.6-1.9-14.8-3.4c0.1,0.4,0.3,0.8,0.6,1.1l3.3,3.4c0.5,0.5,1,0.5,1.5,0
			c0.2-0.2,0.4-0.6,0.6-1.2l0.1-0.1l2.1,2.2c0.8,0.8,1.2,1.5,1.2,2.1c0.1,0.8-0.8,2.1-2.6,3.9l-0.1,0.1c-1.4,1.3-2.7,1.9-3.9,1.8
			c-1.2-0.1-2.5-1-4-2.5l-2.5-2.6c-1.1-1.1-1.6-2.4-1.7-3.8c0-0.5,0.1-1.2,0.2-2s0.4-1.9,0.7-3.2c-2.1-0.3-3.6-0.1-4.5,0.8
			c-0.5,0.4-0.7,0.9-0.7,1.4l-0.2,0.2l-2.7-2.8c-1.3-1.3-0.9-3,1.1-4.9c1.4-1.3,2.6-2.1,3.8-2.4c1.1-0.3,2.7-0.3,4.7,0.1
			c1.3,0.3,3.5,0.7,6.6,1.4c-0.1-0.4-0.4-0.8-0.8-1.2l-2.1-2.1c-1.7-1.7-3.2-2.4-4.5-2l-0.3-0.4l4.8-4.6c1.6-1.6,3.5-1.3,5.5,0.9
			l1.2,1.3c1.1,1.2,1.7,2.5,1.8,3.9c0,0.6,0,1.3-0.1,2.1c-0.1,0.9-0.3,1.9-0.5,3.1l9.5,1.9c0.5,0.1,0.9,0.4,1.2,0.7
			c0.8,0.9,0.8,1.7-0.2,2.6L346.9,316.4z"/>
		<path class="st1" d="M358.5,284.1c3.2,2.4,4.9,5.1,5.2,8.2c0.3,2.7-0.5,5.4-2.4,7.9l-0.1,0.1c-0.9,1.2-1.8,2-2.7,2.5
			c-0.6,0.3-1.1,0.3-1.5,0l-4.3-3.2l0.1-0.2c0.8-0.3,1.5-0.8,2.1-1.5c1.8-2.5,1.4-4.7-1.3-6.7L348,287l-6.2,8.2
			c-0.4,0.6-1,0.6-1.6,0.1L333,290c-0.5-0.3-1.4-0.8-2.7-1.3l-0.2-0.2l4.1-5.4c0.9-1.2,2.1-1.2,3.5-0.1l3.2,2.4l5-6.7
			c0.6-0.9,1.2-1.4,1.8-1.6c0.7-0.2,1.6,0.1,2.7,0.9L358.5,284.1z"/>
		<path class="st1" d="M369.9,263.5c3.5,1.9,5.6,4.3,6.3,7.3c0.7,2.7,0.3,5.4-1.2,8.1l-0.1,0.1c-0.7,1.3-1.5,2.3-2.3,2.9
			c-0.6,0.4-1.1,0.4-1.5,0.2l-4.7-2.5l0.1-0.2c0.8-0.4,1.4-1,1.9-1.8c1.4-2.7,0.7-4.9-2.3-6.5l-6.1-3.3l-4.9,9.1
			c-0.3,0.6-0.9,0.8-1.6,0.4l-8-4.3c-0.5-0.3-1.5-0.5-2.9-0.8l-0.2-0.1l3.2-6c0.7-1.3,1.9-1.5,3.5-0.6l3.5,1.9l4-7.4
			c0.5-1,1-1.6,1.5-1.8c0.7-0.3,1.6-0.1,2.8,0.5L369.9,263.5z"/>
	</g>
</g>
<g>
	<path class="st1" d="M117.8,109.4c2.5,1.7,2.9,3.8,1.3,6.3l-4.1,6l-16.5-11c-1.8-1.2-3.3-1.7-4.4-1.4c-1.3,0.3-2.7,1.7-4.3,4
		c-2.2,3.3-2.8,5.9-1.7,7.7l-0.3,0.4l-6.4-4.3c-1.2-0.8-1.6-2.2-1.1-4c0.6-2.1,2-4.8,4.2-8c3.1-4.6,6-7.3,8.7-8.1
		c2.8-0.8,6,0,9.6,2.4L117.8,109.4z"/>
	<path class="st1" d="M127.3,70.8c3.8,4,4.2,8.9,1.1,14.7c3,0,5.7-0.2,8.2-0.8c1.7-0.4,3.2,0.1,4.6,1.6l3.2,3.3l-22.1,21l-3.8-4
		c-0.8-0.8-1.1-1.7-1.1-2.7c0-1,0.5-1.9,1.4-2.8l9.3-8.8l-0.4-0.5c-1.1,0.9-2.4,1.6-4,2.2c-1.6,0.6-2.9,0.9-3.8,0.8
		c-5.8-0.4-11.7-2.4-17.9-6.1c-1.7-1-3-1.3-3.9-0.9l-0.5-0.5l7.5-7.2c1.7-1.6,3.5-1.7,5.4-0.4c3,2.1,7,3.7,12.1,4.8
		c0.2-1.2-0.6-2.8-2.4-4.7l-2.8-2.9c-1.9-2-3.8-2.7-5.8-2.1l-0.5-0.5l6.9-6.6c0.6-0.6,1.2-1,1.7-1.3c0.6-0.3,1.1-0.4,1.7-0.3
		c0.6,0,1.1,0.3,1.7,0.6c0.6,0.4,1.2,0.9,1.9,1.7L127.3,70.8z"/>
	<path class="st1" d="M154.3,77.6c1.8,2.8,1.5,5-1,6.6l-5.9,4l-16-24.1c-1.2-1.8-2.6-2.6-4.3-2.3l-0.4-0.6l7.2-4.8
		c2.9-1.9,5.3-1.6,7.1,1.2L154.3,77.6z"/>
	<path class="st1" d="M183.4,51.2c1.7,3.9,2.6,7,2.7,9.3c0.2,2.2-0.3,4.3-1.3,6.2c-1,1.9-3.3,3.6-6.8,5.1l-0.2,0.1
		c-1.8,0.8-3.4,1.1-4.6,1c-0.9-0.2-1.6-0.7-2-1.7l-2.4-5.7l0.3-0.1c1,0.5,2.2,0.5,3.3,0c2.1-0.9,2.6-2.7,1.4-5.4l-3.7-8.7
		c-0.3-0.8-0.7-1.4-1-1.8s-0.7-0.8-1.1-0.9c-0.4-0.2-0.9-0.2-1.4-0.2c-0.5,0.1-1.1,0.3-1.8,0.6l-0.8,0.3c-1.3,0.6-2.1,1.3-2.3,2.2
		c-0.1,0.9,0.1,2.3,0.8,4.4l5.2,15.1c1,2.9,0.1,5-2.5,6.1l-7,3L153,64.7c-1-2.9-1.3-5-1-6.4c0.5-2.1,2-3.8,4.7-4.9l-0.4-0.8
		c-4.2,1.8-6.5,3.7-6.9,5.7l-0.4,0.2l-2.8-6.6c-0.5-1.3-0.4-2.3,0.5-3.2c1.6-1.5,5.8-3.7,12.5-6.5c3.6-1.5,6.2-2.5,7.7-2.9
		c3.2-0.9,5.8-0.9,7.8,0c2,0.8,3.8,2.5,5.4,5c0.4,0.7,0.9,1.6,1.4,2.7c0.5,1.1,1.2,2.5,1.8,4.1L183.4,51.2z"/>
	<path class="st1" d="M230.7,27.2c-0.7,0.8-1.1,2.3-0.9,4.4l1.3,25.7c0.2,3.3-1.3,5-4.3,5.1l-7,0.3l-1.1-23
		c-0.9,1.9-2.4,3.7-4.3,5.3c-1.6,1.4-2.9,2.1-3.9,2.1c-0.8,0-1.1-0.4-1.2-1.2l-0.4-7.8c4-2.1,7.6-5.4,10.9-10.1c0.4-0.6,1-0.9,1.7-1
		l9.3-0.5L230.7,27.2z"/>
	<path class="st1" d="M268.1,49.6c-2.1,12.1-8.2,17.3-18.3,15.6c-5.1-0.9-8.5-2.9-10.4-6c-2-3.3-2.5-8.2-1.3-14.8
		c1.2-6.8,3.1-11.3,5.9-13.6c2.8-2.3,6.8-3,12.2-2.1c5.3,0.9,8.8,2.9,10.6,6C268.9,37.9,269.3,42.9,268.1,49.6z M256.5,47.6
		c0.9-5.4,1.1-8.6,0.6-9.4c-0.4-0.6-1.1-1-2.2-1.1c-1.2-0.2-2.1-0.1-2.7,0.4c-0.7,0.6-1.5,3.6-2.5,9c-0.9,5.3-1,8.4-0.3,9.4
		c0.3,0.5,1,0.9,2.1,1.1c1.3,0.2,2.2,0,2.7-0.5C254.9,55.4,255.7,52.5,256.5,47.6z"/>
	<path class="st1" d="M299.6,62.3c-4.7,11.4-11.8,15.1-21.3,11.2c-4.7-2-7.7-4.7-8.8-8.1c-1.2-3.7-0.6-8.6,2-14.7
		c2.6-6.3,5.6-10.3,8.8-12c3.2-1.7,7.3-1.5,12.4,0.6c4.9,2,7.9,4.8,9,8.2C302.9,51,302.2,56,299.6,62.3z M288.7,57.7
		c2.1-5.1,3-8.1,2.7-9.1c-0.3-0.6-0.9-1.2-1.9-1.6c-1.2-0.5-2.1-0.6-2.7-0.2c-0.8,0.4-2.3,3.2-4.4,8.3c-2.1,4.9-2.9,8-2.4,9.1
		c0.2,0.6,0.8,1.1,1.8,1.5c1.2,0.5,2.1,0.5,2.7,0.1C285.4,65,286.8,62.3,288.7,57.7z"/>
	<path class="st1" d="M345.3,73.8l-38.5,12.4c-1.4,0.5-2.7,0.2-3.9-0.7l-4.3-3.4l37.9-12.3c1.8-0.6,3.3-0.3,4.6,0.7L345.3,73.8z
		 M326,69.9c-4.1,5.2-8.8,5.6-14.1,1.4c-5.3-4.2-5.9-8.9-1.8-14s8.8-5.6,14.1-1.4S330.1,64.7,326,69.9z M319.7,64.7
		c1.7-2.1,2-3.6,0.9-4.4c-0.7-0.6-1.5-0.6-2.3,0c-0.4,0.3-1.1,0.9-1.9,1.9c-1.8,2.2-2.1,3.8-1,4.7C316.6,67.6,318,66.9,319.7,64.7z
		 M333.9,98.6c-4.1,5.2-8.8,5.6-14.1,1.4c-5.3-4.2-6-8.9-1.9-14.1s8.8-5.6,14.1-1.4C337.4,88.7,338,93.4,333.9,98.6z M327.6,93.3
		c1.7-2.1,2-3.6,1-4.4c-0.8-0.6-1.5-0.6-2.3-0.1c-0.4,0.3-1,0.9-1.8,2c-1.8,2.2-2.1,3.8-1,4.6C324.4,96.2,325.8,95.5,327.6,93.3z"/>
</g>
</svg>
