<?xml version="1.0" encoding="utf-8"?>
<!-- Generator: Adobe Illustrator 19.2.1, SVG Export Plug-In . SVG Version: 6.00 Build 0)  -->
<svg version="1.1" id="Layer_1" xmlns="http://www.w3.org/2000/svg" xmlns:xlink="http://www.w3.org/1999/xlink" x="0px" y="0px"
	 viewBox="0 0 400 29.5" style="enable-background:new 0 0 400 29.5;" xml:space="preserve">
<style type="text/css">
	.st0{opacity:0.1;}
	.st1{fill:#5D5A26;}
</style>
<g class="st0">
	<g>
		<path class="st1" d="M400,9.1c-5.4-2.3-12.1-5-15.1-2.1c-1.5,1.4-3,2-4.3,2.1c1.3,0.1,2.8,0.7,4.3,2.1
			C387.9,14,394.6,11.4,400,9.1z"/>
		<rect x="326" y="8.4" class="st1" width="11.1" height="1.3"/>
		<path class="st1" d="M287.6,11.6c0.6,0.6,1.4,0.9,2.3,0.9c1.2,0,2-0.6,2.6-1c2-1,3.8-1.9,23.8-1.9c8,0,11.2,0,11.2,0V8.4
			c0,0-3.2,0-11.2,0c-20,0-21.8-0.8-23.8-1.8c-0.6-0.3-1.4-1-2.6-1c-0.9,0-1.7,0.4-2.3,0.9l2.6,2.6L287.6,11.6z"/>
		<path class="st1" d="M344.3,9.7c12.8,0,17.9,0.5,19,0.8c0.9,0.2,2.3,0.8,3.7,0.8c1.2,0,1.8-0.6,2.1-0.8c0.2-0.2,1.4-1.4,1.4-1.4
			l0,0l0,0c0,0-1.2-1.2-1.4-1.4s-0.9-0.8-2.1-0.8c-1.3,0-2.8,0.6-3.7,0.8c-1.1,0.3-6.1,0.8-19,0.8c-5.2,0-8.9,0-8.9,0v1.3
			C335.4,9.7,339.1,9.7,344.3,9.7z"/>
		<polygon class="st1" points="375.8,11.5 378.3,9.1 375.8,6.6 373.4,9.1 		"/>
		<ellipse class="st1" cx="379.8" cy="9.1" rx="1.5" ry="1.5"/>
		<ellipse class="st1" cx="371.9" cy="9.1" rx="1.5" ry="1.5"/>
	</g>
	<g>
		<path class="st1" d="M0,9.1c5.4,2.3,12.1,5,15.1,2.1c1.5-1.4,3-2,4.3-2.1c-1.3-0.1-2.8-0.7-4.3-2.1C12.1,4.1,5.4,6.8,0,9.1z"/>
		<rect x="63" y="8.4" class="st1" width="11.1" height="1.3"/>
		<path class="st1" d="M112.4,6.5c-0.6-0.6-1.4-0.9-2.3-0.9c-1.2,0-2,0.6-2.6,1c-2,1-3.8,1.8-23.8,1.8c-8,0-11.2,0-11.2,0v1.3
			c0,0,3.2,0,11.2,0c20,0,21.8,0.8,23.8,1.9c0.6,0.3,1.4,1,2.6,1c0.9,0,1.7-0.4,2.3-0.9l-2.6-2.6L112.4,6.5z"/>
		<path class="st1" d="M55.7,8.4c-12.8,0-17.9-0.5-19-0.8c-0.9-0.2-2.3-0.8-3.7-0.8c-1.2,0-1.8,0.6-2.1,0.8
			c-0.2,0.2-1.4,1.4-1.4,1.4l0,0l0,0c0,0,1.2,1.2,1.4,1.4c0.2,0.2,0.9,0.8,2.1,0.8c1.3,0,2.8-0.6,3.7-0.8c1.1-0.3,6.1-0.8,19-0.8
			c5.2,0,8.9,0,8.9,0V8.4C64.6,8.4,60.9,8.4,55.7,8.4z"/>
		<rect x="22.4" y="7.3" transform="matrix(0.7071 -0.7071 0.7071 0.7071 0.6717 19.7317)" class="st1" width="3.5" height="3.5"/>
		<circle class="st1" cx="20.2" cy="9.1" r="1.5"/>
		<ellipse class="st1" cx="28.1" cy="9.1" rx="1.5" ry="1.5"/>
	</g>
	<g>
		<g>
			<g>
				<path class="st1" d="M182.1,29.5c-20-5.1-16.5-26.6-43.1-29.3C165.1,4.4,155,31.2,182.1,29.5z"/>
				<g>
					<path class="st1" d="M186.1,24.3c4.7,0,8.6-3,8-7.1c-0.5-3.2-4.4-5-6.8-1.9c1.6-4.7,9.1-4.2,11.4,1.1c2,4.4-0.3,10.7-7.2,12.2
						c-9.6,2-19.9-5.4-25-13.5C171.9,20.8,177.6,24.4,186.1,24.3z"/>
					<path class="st1" d="M188.5,18c-1.1-0.4-1.7-1.6-1.3-2.7c0.4-1.1,1.6-1.7,2.7-1.3c1.1,0.4,1.7,1.6,1.3,2.7
						C190.8,17.8,189.6,18.4,188.5,18z"/>
				</g>
			</g>
			<g>
				<path class="st1" d="M131.3,0.1c20,5.1,16.5,26.6,43.1,29.3C148.4,25.2,158.5-1.7,131.3,0.1z"/>
				<g>
					<path class="st1" d="M127.4,5.2c-4.7,0-8.6,3-8,7.1c0.5,3.2,4.4,5,6.8,1.9c-1.6,4.7-9.1,4.2-11.4-1.1c-2-4.4,0.3-10.7,7.2-12.2
						c9.6-2,19.9,5.4,25,13.5C141.5,8.7,135.9,5.1,127.4,5.2z"/>
					<path class="st1" d="M124.9,11.5c1.1,0.4,1.7,1.6,1.3,2.7c-0.4,1.1-1.6,1.7-2.7,1.3c-1.1-0.4-1.7-1.6-1.3-2.7
						C122.7,11.7,123.8,11.1,124.9,11.5z"/>
				</g>
			</g>
		</g>
		<g>
			<g>
				<path class="st1" d="M217.9,29.5c20-5.1,16.5-26.6,43.1-29.3C234.9,4.4,245,31.2,217.9,29.5z"/>
				<g>
					<path class="st1" d="M213.9,24.3c-4.7,0-8.6-3-8-7.1c0.5-3.2,4.4-5,6.8-1.9c-1.6-4.7-9.1-4.2-11.4,1.1
						c-2,4.4,0.3,10.7,7.2,12.2c9.6,2,19.9-5.4,25-13.5C228.1,20.8,222.4,24.4,213.9,24.3z"/>
					<path class="st1" d="M211.5,18c1.1-0.4,1.7-1.6,1.3-2.7c-0.4-1.1-1.6-1.7-2.6-1.3c-1.1,0.4-1.7,1.6-1.3,2.7
						C209.2,17.8,210.4,18.4,211.5,18z"/>
				</g>
			</g>
			<g>
				<path class="st1" d="M268.7,0.1c-20,5.1-16.5,26.6-43.1,29.3C251.6,25.2,241.5-1.7,268.7,0.1z"/>
				<g>
					<path class="st1" d="M272.6,5.2c4.7,0,8.6,3,8,7.1c-0.5,3.2-4.4,5-6.8,1.9c1.6,4.7,9.1,4.2,11.4-1.1c2-4.4-0.3-10.7-7.2-12.2
						c-9.6-2-19.9,5.4-25,13.5C258.5,8.7,264.1,5.1,272.6,5.2z"/>
					<path class="st1" d="M275.1,11.5c-1.1,0.4-1.7,1.6-1.3,2.7c0.4,1.1,1.6,1.7,2.6,1.3c1.1-0.4,1.7-1.6,1.3-2.7
						C277.3,11.7,276.2,11.1,275.1,11.5z"/>
				</g>
			</g>
		</g>
	</g>
</g>
</svg>
