<?xml version="1.0" encoding="utf-8"?>
<!-- Generator: Adobe Illustrator 19.2.1, SVG Export Plug-In . SVG Version: 6.00 Build 0)  -->
<svg version="1.1" id="Layer_1" xmlns="http://www.w3.org/2000/svg" xmlns:xlink="http://www.w3.org/1999/xlink" x="0px" y="0px"
	 viewBox="0 0 300 7.6" style="enable-background:new 0 0 300 7.6;" xml:space="preserve">
<style type="text/css">
	.st0{opacity:0.2;}
	.st1{fill:#5D5A26;}
</style>
<g class="st0">
	<path class="st1" d="M24.3,2.4c-1.2-1.2-1.2-2.2-1.6-2.2c-0.4,0-0.4,0.9-1.6,2.2c-1.1,1.1-3.6,1.1-3.6,1.5c0,0.4,2.5,0.3,3.6,1.5
		c1.2,1.2,1.2,2.2,1.6,2.2c0.4,0,0.4-0.9,1.6-2.2c1.1-1.1,3.6-1,3.6-1.5C27.9,3.4,25.4,3.5,24.3,2.4z"/>
	<path class="st1" d="M16.3,2.5c-0.7,0-1.3,0.6-1.3,1.3c-6-0.8-7.8-3.2-10.8-3.6C1.4-0.2,0,1.9,0,3.8c0,1.9,1.4,4,4.1,3.7
		c3-0.3,4.8-2.8,10.8-3.6c0,0.7,0.6,1.3,1.3,1.3c0.7,0,1.3-0.6,1.3-1.3C17.6,3.1,17,2.5,16.3,2.5z"/>
	<path class="st1" d="M133.5,2.4c-1.2-1.2-1.2-2.2-1.6-2.2c-0.4,0-0.4,0.9-1.6,2.2c-1.1,1.1-3.6,1-3.6,1.5c0,0.4,2.5,0.3,3.6,1.5
		c1.2,1.2,1.2,2.2,1.6,2.2c0.4,0,0.4-0.9,1.6-2.2c1.1-1.1,3.6-1,3.6-1.5C137.1,3.4,134.6,3.5,133.5,2.4z"/>
	<path class="st1" d="M125.5,2.5c-0.7,0-1.3,0.6-1.3,1.3c-6-0.8-7.8-3-10.8-3.3c-2.4-0.3-3.8,1.5-4.1,3.5H30.4
		c-0.2-1-0.7-1.1-1.2-1.1c-0.7,0-1.3,0.5-1.3,1.2c0,0.7,0.6,1.3,1.3,1.3c0.6,0,1-0.4,1.2-0.9l78.8,0c0.2,1.8,1.6,3.4,4.1,3.2
		c3-0.3,4.8-2.8,10.8-3.6c0,0.7,0.6,1.3,1.3,1.3c0.7,0,1.3-0.6,1.3-1.3C126.8,3.1,126.2,2.5,125.5,2.5z"/>
	<path class="st1" d="M169.6,2.4c-1.2-1.2-1.2-2.2-1.6-2.2s-0.4,0.9-1.6,2.2c-1.1,1.1-3.6,1-3.6,1.5c0,0.4,2.5,0.3,3.6,1.5
		c1.2,1.2,1.2,2.2,1.6,2.2s0.4-0.9,1.6-2.2c1.1-1.1,3.6-1,3.6-1.5C173.2,3.4,170.7,3.5,169.6,2.4z"/>
	<path class="st1" d="M161.6,2.5c-0.7,0-1.3,0.6-1.3,1.3c-3.6-1-6.5-3.6-10.3-3.7c-3.8,0.1-6.6,2.7-10.3,3.7c0-0.7-0.6-1.3-1.3-1.3
		c-0.7,0-1.3,0.6-1.3,1.4c0,0.7,0.6,1.3,1.3,1.3c0.7,0,1.3-0.6,1.3-1.3c3.6,1,6.5,3.6,10.3,3.7c3.8-0.1,6.6-2.7,10.3-3.7
		c0,0.7,0.6,1.3,1.3,1.3c0.7,0,1.3-0.6,1.3-1.3C162.9,3.1,162.3,2.5,161.6,2.5z"/>
	<path class="st1" d="M295.9,0.1c-3,0.3-4.8,2.8-10.8,3.6c0-0.7-0.6-1.3-1.3-1.3c-0.7,0-1.3,0.6-1.3,1.4c0,0.7,0.6,1.3,1.3,1.3
		c0.7,0,1.3-0.6,1.3-1.3c6,0.8,7.9,3.2,10.8,3.6c2.7,0.3,4.1-1.7,4.1-3.7C300,1.9,298.6-0.2,295.9,0.1z"/>
	<path class="st1" d="M278.8,2.4c-1.2-1.2-1.2-2.2-1.6-2.2c-0.4,0-0.4,0.9-1.6,2.2c-1.1,1.1-3.6,1.1-3.6,1.5c0,0.4,2.5,0.3,3.6,1.5
		c1.2,1.2,1.2,2.2,1.6,2.2c0.4,0,0.4-0.9,1.6-2.2c1.1-1.1,3.6-1,3.6-1.5C282.4,3.4,279.9,3.5,278.8,2.4z"/>
	<path class="st1" d="M270.8,2.8c-0.6,0-1,0.1-1.2,1.1h-78.8c-0.2-2-1.6-3.7-4.1-3.5c-3,0.3-4.8,2.6-10.8,3.4c0-0.7-0.6-1.3-1.3-1.3
		c-0.7,0-1.3,0.6-1.3,1.3c0,0.7,0.6,1.3,1.3,1.3c0.7,0,1.3-0.6,1.3-1.3c6,0.8,7.9,3.2,10.8,3.6c2.4,0.3,3.8-1.4,4.1-3.2l78.8,0
		c0.2,0.5,0.7,0.8,1.2,0.8c0.7,0,1.3-0.5,1.3-1.2C272.1,3.2,271.5,2.8,270.8,2.8z"/>
</g>
</svg>
