<?xml version="1.0" encoding="utf-8"?>
<!-- Generator: Adobe Illustrator 19.2.1, SVG Export Plug-In . SVG Version: 6.00 Build 0)  -->
<svg version="1.1" id="Layer_1" xmlns="http://www.w3.org/2000/svg" xmlns:xlink="http://www.w3.org/1999/xlink" x="0px" y="0px"
	 viewBox="0 0 500 105.4" style="enable-background:new 0 0 500 105.4;" xml:space="preserve">
<style type="text/css">
	.st0{fill:#F1C40F;}
	.st1{fill:#E67E22;}
	.st2{fill:#F39C12;}
</style>
<path class="st0" d="M398,71.5c-0.2,0.3-0.3,0.7-0.3,1.2c0.1,4.5-0.7,10.5,0.7,14.6c0,0.4,0,0.9,0.1,1.3c-0.5,0.5-0.6,1.7,0.4,1.9
	c0.8,0.2,16.5,1.6,19.3,1.8c11.1,0.7,70.7,10.3,78.6,12.5c0.8,0.2-17.5-32-22.4-36.5c9.2-8.9,16.3-19.9,25.4-28.9
	c0.3-0.3,0.2-0.6,0.1-0.9c-0.1-0.3-0.3-0.5-0.6-0.5c-13.8-0.6-58.8-6.9-59.1-6.3c-3.7-0.4-7.4-1-11.1-1.4
	c-10.5-1.3-20.9-1.2-31.3-2.1c-1.1-0.1-1.6,1-1.5,1.9C398.5,43.8,398,57.7,398,71.5z"/>
<path class="st1" d="M397.5,88.8c0,0,0,0.1,0,0.1c0,0.3,0,0.5,0.1,0.7c0.1,0.6,0.6,1,1.4,0.9c9.7-1.6,50.3-13.7,59.2-17.8
	c0.8-0.4,0.5-1.3-0.2-1.6c0-0.1-0.1-0.3-0.2-0.4c-5.3-2.9-13.3-3.4-19.2-4.6c-7.1-1.4-14-2.2-21.2-2.9c-5.8-0.5-12.3-1.7-18.1-1.7
	c-1.7,0-2.4,3.5-2.4,3.9C397.1,65.6,397.5,88.6,397.5,88.8z"/>
<path class="st0" d="M103.7,30.7c0.1-0.9-0.4-2-1.5-1.9c-10.4,1-20.9,0.8-31.3,2.1c-3.7,0.5-7.4,1-11.1,1.4
	c-0.3-0.6-45.3,5.8-59.1,6.3c-0.4,0-0.5,0.2-0.6,0.5C0,39.4-0.1,39.7,0.2,40c9.1,9,16.2,20,25.4,28.9c-4.9,4.4-23.3,36.7-22.4,36.5
	c7.9-2.2,67.6-11.8,78.6-12.5c2.7-0.2,18.5-1.6,19.3-1.8c1-0.2,0.9-1.4,0.4-1.9c0-0.4,0-0.9,0.1-1.3c1.4-4.1,0.6-10,0.7-14.6
	c0-0.5-0.1-0.9-0.3-1.2C102,58.2,101.5,44.3,103.7,30.7z"/>
<path class="st1" d="M102.5,65.1c0-0.4-0.7-4-2.3-4c-5.6,0-11.9,1.2-17.5,1.7c-7,0.7-13.7,1.6-20.6,3c-5.7,1.2-13.4,1.8-18.6,4.8
	c-0.2,0.1-0.2,0.2-0.2,0.4c-0.6,0.3-1,1.2-0.2,1.6c8.7,4.3,48.1,16.8,57.5,18.5c0.8,0.1,1.3-0.4,1.4-0.9c0.1-0.2,0.2-0.4,0.1-0.7
	c0,0,0-0.1,0-0.1C102.1,89.1,102.5,65.3,102.5,65.1z"/>
<path class="st2" d="M459.1,3.3c0.5-1.4-0.2-3.3-2.1-3.3c-15.9,0.1-32.6,2.6-48.2,5.2c-9,1.5-82.6,6.4-98,7.3
	c-19.3,1.2-38.2,1.3-57.5,1.3c-7.6,0-94.1-0.9-117.3-2.3C91.8,8.9,49.2,1.4,43.3,0.9c-1.1-0.4-2.7,0.1-2.7,1.7
	c0.1,0.8-0.1,2.5-0.1,2.5c0,0.1,1.1,48.6,1,51.4c0,3.3,0,15.8,0.9,16c0,0.1,68.5,12.2,210.4,12.1C426,84.6,438.7,73.4,457,73.4
	c1.1,0,1.9-0.7,2.1-1.5C459.6,71.5,459.5,13.7,459.1,3.3z"/>
</svg>
